solid Default
  facet normal -1.000000e+00 0.000000e+00 0.000000e+00
    outer loop
      vertex -2.550000e+01 -7.500000e+00 0.000000e+00
      vertex -2.550000e+01 -7.500000e+00 2.000000e+00
      vertex -2.550000e+01 7.500000e+00 0.000000e+00
    endloop
  endfacet
  facet normal -1.000000e+00 0.000000e+00 0.000000e+00
    outer loop
      vertex -2.550000e+01 7.500000e+00 0.000000e+00
      vertex -2.550000e+01 -7.500000e+00 2.000000e+00
      vertex -2.550000e+01 7.500000e+00 2.000000e+00
    endloop
  endfacet
  facet normal 0.000000e+00 -1.000000e+00 0.000000e+00
    outer loop
      vertex -2.550000e+01 -7.500000e+00 2.000000e+00
      vertex -2.550000e+01 -7.500000e+00 0.000000e+00
      vertex 2.550000e+01 -7.500000e+00 0.000000e+00
    endloop
  endfacet
  facet normal 0.000000e+00 -1.000000e+00 0.000000e+00
    outer loop
      vertex 2.550000e+01 -7.500000e+00 2.000000e+00
      vertex -2.550000e+01 -7.500000e+00 2.000000e+00
      vertex 2.550000e+01 -7.500000e+00 0.000000e+00
    endloop
  endfacet
  facet normal 0.000000e+00 0.000000e+00 -1.000000e+00
    outer loop
      vertex -1.925302e+01 -1.936337e+00 0.000000e+00
      vertex -2.550000e+01 7.500000e+00 0.000000e+00
      vertex 2.550000e+01 -7.500000e+00 0.000000e+00
    endloop
  endfacet
  facet normal 0.000000e+00 0.000000e+00 -1.000000e+00
    outer loop
      vertex 1.969806e+01 -6.322327e-01 0.000000e+00
      vertex -2.550000e+01 7.500000e+00 0.000000e+00
      vertex 2.550000e+01 7.500000e+00 0.000000e+00
    endloop
  endfacet
  facet normal 0.000000e+00 0.000000e+00 -1.000000e+00
    outer loop
      vertex -2.550000e+01 -7.500000e+00 0.000000e+00
      vertex -2.550000e+01 7.500000e+00 0.000000e+00
      vertex -2.230194e+01 -2.632233e+00 0.000000e+00
    endloop
  endfacet
  facet normal 0.000000e+00 0.000000e+00 -1.000000e+00
    outer loop
      vertex -2.550000e+01 -7.500000e+00 0.000000e+00
      vertex -2.230194e+01 -2.632233e+00 0.000000e+00
      vertex -2.230194e+01 -4.367767e+00 0.000000e+00
    endloop
  endfacet
  facet normal 0.000000e+00 0.000000e+00 -1.000000e+00
    outer loop
      vertex -2.550000e+01 -7.500000e+00 0.000000e+00
      vertex -2.230194e+01 -4.367767e+00 0.000000e+00
      vertex -2.094504e+01 -5.449856e+00 0.000000e+00
    endloop
  endfacet
  facet normal 0.000000e+00 0.000000e+00 -1.000000e+00
    outer loop
      vertex -2.550000e+01 -7.500000e+00 0.000000e+00
      vertex -2.094504e+01 -5.449856e+00 0.000000e+00
      vertex 2.550000e+01 -7.500000e+00 0.000000e+00
    endloop
  endfacet
  facet normal 0.000000e+00 0.000000e+00 -1.000000e+00
    outer loop
      vertex -2.094504e+01 -5.449856e+00 0.000000e+00
      vertex -1.925302e+01 -5.063663e+00 0.000000e+00
      vertex 2.550000e+01 -7.500000e+00 0.000000e+00
    endloop
  endfacet
  facet normal 0.000000e+00 0.000000e+00 -1.000000e+00
    outer loop
      vertex -1.925302e+01 -1.936337e+00 0.000000e+00
      vertex 2.550000e+01 -7.500000e+00 0.000000e+00
      vertex -1.850000e+01 -3.500000e+00 0.000000e+00
    endloop
  endfacet
  facet normal 0.000000e+00 0.000000e+00 -1.000000e+00
    outer loop
      vertex -2.094504e+01 -1.550144e+00 0.000000e+00
      vertex -2.550000e+01 7.500000e+00 0.000000e+00
      vertex -1.925302e+01 -1.936337e+00 0.000000e+00
    endloop
  endfacet
  facet normal 0.000000e+00 0.000000e+00 -1.000000e+00
    outer loop
      vertex 2.274698e+01 -3.063663e+00 0.000000e+00
      vertex 2.550000e+01 -7.500000e+00 0.000000e+00
      vertex 2.105496e+01 -3.449856e+00 0.000000e+00
    endloop
  endfacet
  facet normal 0.000000e+00 0.000000e+00 -1.000000e+00
    outer loop
      vertex -2.230194e+01 -2.632233e+00 0.000000e+00
      vertex -2.550000e+01 7.500000e+00 0.000000e+00
      vertex -2.094504e+01 -1.550144e+00 0.000000e+00
    endloop
  endfacet
  facet normal 0.000000e+00 0.000000e+00 -1.000000e+00
    outer loop
      vertex 1.969806e+01 -2.367767e+00 0.000000e+00
      vertex -2.550000e+01 7.500000e+00 0.000000e+00
      vertex 1.969806e+01 -6.322327e-01 0.000000e+00
    endloop
  endfacet
  facet normal 0.000000e+00 0.000000e+00 -1.000000e+00
    outer loop
      vertex 2.105496e+01 4.498558e-01 0.000000e+00
      vertex 1.969806e+01 -6.322327e-01 0.000000e+00
      vertex 2.550000e+01 7.500000e+00 0.000000e+00
    endloop
  endfacet
  facet normal 0.000000e+00 0.000000e+00 -1.000000e+00
    outer loop
      vertex 2.550000e+01 -7.500000e+00 0.000000e+00
      vertex -2.550000e+01 7.500000e+00 0.000000e+00
      vertex 1.969806e+01 -2.367767e+00 0.000000e+00
    endloop
  endfacet
  facet normal 0.000000e+00 0.000000e+00 -1.000000e+00
    outer loop
      vertex 2.550000e+01 -7.500000e+00 0.000000e+00
      vertex 1.969806e+01 -2.367767e+00 0.000000e+00
      vertex 2.105496e+01 -3.449856e+00 0.000000e+00
    endloop
  endfacet
  facet normal 0.000000e+00 0.000000e+00 -1.000000e+00
    outer loop
      vertex 2.274698e+01 6.366348e-02 0.000000e+00
      vertex 2.550000e+01 7.500000e+00 0.000000e+00
      vertex 2.350000e+01 -1.500000e+00 0.000000e+00
    endloop
  endfacet
  facet normal 0.000000e+00 0.000000e+00 -1.000000e+00
    outer loop
      vertex 2.550000e+01 -7.500000e+00 0.000000e+00
      vertex 2.274698e+01 -3.063663e+00 0.000000e+00
      vertex 2.350000e+01 -1.500000e+00 0.000000e+00
    endloop
  endfacet
  facet normal 0.000000e+00 0.000000e+00 -1.000000e+00
    outer loop
      vertex 2.550000e+01 -7.500000e+00 0.000000e+00
      vertex 2.350000e+01 -1.500000e+00 0.000000e+00
      vertex 2.550000e+01 7.500000e+00 0.000000e+00
    endloop
  endfacet
  facet normal 0.000000e+00 0.000000e+00 -1.000000e+00
    outer loop
      vertex 2.274698e+01 6.366348e-02 0.000000e+00
      vertex 2.105496e+01 4.498558e-01 0.000000e+00
      vertex 2.550000e+01 7.500000e+00 0.000000e+00
    endloop
  endfacet
  facet normal 0.000000e+00 0.000000e+00 -1.000000e+00
    outer loop
      vertex -1.850000e+01 -3.500000e+00 0.000000e+00
      vertex 2.550000e+01 -7.500000e+00 0.000000e+00
      vertex -1.925302e+01 -5.063663e+00 0.000000e+00
    endloop
  endfacet
  facet normal 0.000000e+00 1.000000e+00 0.000000e+00
    outer loop
      vertex -2.550000e+01 7.500000e+00 0.000000e+00
      vertex -2.550000e+01 7.500000e+00 2.000000e+00
      vertex 2.550000e+01 7.500000e+00 0.000000e+00
    endloop
  endfacet
  facet normal 0.000000e+00 1.000000e+00 0.000000e+00
    outer loop
      vertex 2.550000e+01 7.500000e+00 0.000000e+00
      vertex -2.550000e+01 7.500000e+00 2.000000e+00
      vertex 2.550000e+01 7.500000e+00 2.000000e+00
    endloop
  endfacet
  facet normal 0.000000e+00 0.000000e+00 1.000000e+00
    outer loop
      vertex -1.925302e+01 -5.063663e+00 2.000000e+00
      vertex -2.550000e+01 -7.500000e+00 2.000000e+00
      vertex 2.550000e+01 -7.500000e+00 2.000000e+00
    endloop
  endfacet
  facet normal 0.000000e+00 0.000000e+00 1.000000e+00
    outer loop
      vertex 1.969806e+01 -2.367767e+00 2.000000e+00
      vertex -2.550000e+01 7.500000e+00 2.000000e+00
      vertex 2.550000e+01 -7.500000e+00 2.000000e+00
    endloop
  endfacet
  facet normal 0.000000e+00 0.000000e+00 1.000000e+00
    outer loop
      vertex 2.105496e+01 4.498558e-01 2.000000e+00
      vertex 2.274698e+01 6.366348e-02 2.000000e+00
      vertex 2.550000e+01 7.500000e+00 2.000000e+00
    endloop
  endfacet
  facet normal 0.000000e+00 0.000000e+00 1.000000e+00
    outer loop
      vertex -2.550000e+01 7.500000e+00 2.000000e+00
      vertex -2.550000e+01 -7.500000e+00 2.000000e+00
      vertex -2.230194e+01 -4.367767e+00 2.000000e+00
    endloop
  endfacet
  facet normal 0.000000e+00 0.000000e+00 1.000000e+00
    outer loop
      vertex -1.850000e+01 -3.500000e+00 2.000000e+00
      vertex -1.925302e+01 -5.063663e+00 2.000000e+00
      vertex 2.550000e+01 -7.500000e+00 2.000000e+00
    endloop
  endfacet
  facet normal 0.000000e+00 0.000000e+00 1.000000e+00
    outer loop
      vertex -2.550000e+01 7.500000e+00 2.000000e+00
      vertex -2.230194e+01 -4.367767e+00 2.000000e+00
      vertex -2.230194e+01 -2.632233e+00 2.000000e+00
    endloop
  endfacet
  facet normal 0.000000e+00 0.000000e+00 1.000000e+00
    outer loop
      vertex -2.550000e+01 7.500000e+00 2.000000e+00
      vertex -2.094504e+01 -1.550144e+00 2.000000e+00
      vertex 2.550000e+01 -7.500000e+00 2.000000e+00
    endloop
  endfacet
  facet normal 0.000000e+00 0.000000e+00 1.000000e+00
    outer loop
      vertex -2.550000e+01 7.500000e+00 2.000000e+00
      vertex -2.230194e+01 -2.632233e+00 2.000000e+00
      vertex -2.094504e+01 -1.550144e+00 2.000000e+00
    endloop
  endfacet
  facet normal 0.000000e+00 0.000000e+00 1.000000e+00
    outer loop
      vertex -2.094504e+01 -1.550144e+00 2.000000e+00
      vertex -1.925302e+01 -1.936337e+00 2.000000e+00
      vertex 2.550000e+01 -7.500000e+00 2.000000e+00
    endloop
  endfacet
  facet normal 0.000000e+00 0.000000e+00 1.000000e+00
    outer loop
      vertex -2.094504e+01 -5.449856e+00 2.000000e+00
      vertex -2.550000e+01 -7.500000e+00 2.000000e+00
      vertex -1.925302e+01 -5.063663e+00 2.000000e+00
    endloop
  endfacet
  facet normal 0.000000e+00 0.000000e+00 1.000000e+00
    outer loop
      vertex -2.230194e+01 -4.367767e+00 2.000000e+00
      vertex -2.550000e+01 -7.500000e+00 2.000000e+00
      vertex -2.094504e+01 -5.449856e+00 2.000000e+00
    endloop
  endfacet
  facet normal 0.000000e+00 0.000000e+00 1.000000e+00
    outer loop
      vertex 2.105496e+01 -3.449856e+00 2.000000e+00
      vertex 1.969806e+01 -2.367767e+00 2.000000e+00
      vertex 2.550000e+01 -7.500000e+00 2.000000e+00
    endloop
  endfacet
  facet normal 0.000000e+00 0.000000e+00 1.000000e+00
    outer loop
      vertex 1.969806e+01 -6.322327e-01 2.000000e+00
      vertex -2.550000e+01 7.500000e+00 2.000000e+00
      vertex 1.969806e+01 -2.367767e+00 2.000000e+00
    endloop
  endfacet
  facet normal 0.000000e+00 0.000000e+00 1.000000e+00
    outer loop
      vertex 2.550000e+01 7.500000e+00 2.000000e+00
      vertex -2.550000e+01 7.500000e+00 2.000000e+00
      vertex 1.969806e+01 -6.322327e-01 2.000000e+00
    endloop
  endfacet
  facet normal 0.000000e+00 0.000000e+00 1.000000e+00
    outer loop
      vertex 2.350000e+01 -1.500000e+00 2.000000e+00
      vertex 2.274698e+01 -3.063663e+00 2.000000e+00
      vertex 2.550000e+01 -7.500000e+00 2.000000e+00
    endloop
  endfacet
  facet normal 0.000000e+00 0.000000e+00 1.000000e+00
    outer loop
      vertex 2.550000e+01 7.500000e+00 2.000000e+00
      vertex 1.969806e+01 -6.322327e-01 2.000000e+00
      vertex 2.105496e+01 4.498558e-01 2.000000e+00
    endloop
  endfacet
  facet normal 0.000000e+00 0.000000e+00 1.000000e+00
    outer loop
      vertex 2.550000e+01 7.500000e+00 2.000000e+00
      vertex 2.350000e+01 -1.500000e+00 2.000000e+00
      vertex 2.550000e+01 -7.500000e+00 2.000000e+00
    endloop
  endfacet
  facet normal 0.000000e+00 0.000000e+00 1.000000e+00
    outer loop
      vertex 2.550000e+01 7.500000e+00 2.000000e+00
      vertex 2.274698e+01 6.366348e-02 2.000000e+00
      vertex 2.350000e+01 -1.500000e+00 2.000000e+00
    endloop
  endfacet
  facet normal 0.000000e+00 0.000000e+00 1.000000e+00
    outer loop
      vertex 2.274698e+01 -3.063663e+00 2.000000e+00
      vertex 2.105496e+01 -3.449856e+00 2.000000e+00
      vertex 2.550000e+01 -7.500000e+00 2.000000e+00
    endloop
  endfacet
  facet normal 0.000000e+00 0.000000e+00 1.000000e+00
    outer loop
      vertex -1.925302e+01 -1.936337e+00 2.000000e+00
      vertex -1.850000e+01 -3.500000e+00 2.000000e+00
      vertex 2.550000e+01 -7.500000e+00 2.000000e+00
    endloop
  endfacet
  facet normal 1.000000e+00 0.000000e+00 0.000000e+00
    outer loop
      vertex 2.550000e+01 -7.500000e+00 2.000000e+00
      vertex 2.550000e+01 -7.500000e+00 0.000000e+00
      vertex 2.550000e+01 7.500000e+00 0.000000e+00
    endloop
  endfacet
  facet normal 1.000000e+00 0.000000e+00 0.000000e+00
    outer loop
      vertex 2.550000e+01 7.500000e+00 2.000000e+00
      vertex 2.550000e+01 -7.500000e+00 2.000000e+00
      vertex 2.550000e+01 7.500000e+00 0.000000e+00
    endloop
  endfacet
  facet normal 1.000000e+00 0.000000e+00 0.000000e+00
    outer loop
      vertex -2.230194e+01 -2.632233e+00 0.000000e+00
      vertex -2.230194e+01 -2.632233e+00 2.000000e+00
      vertex -2.230194e+01 -4.367767e+00 2.000000e+00
    endloop
  endfacet
  facet normal 1.000000e+00 0.000000e+00 0.000000e+00
    outer loop
      vertex -2.230194e+01 -4.367767e+00 0.000000e+00
      vertex -2.230194e+01 -2.632233e+00 0.000000e+00
      vertex -2.230194e+01 -4.367767e+00 2.000000e+00
    endloop
  endfacet
  facet normal 6.234901e-01 -7.818312e-01 0.000000e+00
    outer loop
      vertex -2.094504e+01 -1.550144e+00 0.000000e+00
      vertex -2.094504e+01 -1.550144e+00 2.000000e+00
      vertex -2.230194e+01 -2.632233e+00 2.000000e+00
    endloop
  endfacet
  facet normal 6.234901e-01 -7.818312e-01 0.000000e+00
    outer loop
      vertex -2.230194e+01 -2.632233e+00 0.000000e+00
      vertex -2.094504e+01 -1.550144e+00 0.000000e+00
      vertex -2.230194e+01 -2.632233e+00 2.000000e+00
    endloop
  endfacet
  facet normal -2.225210e-01 -9.749279e-01 0.000000e+00
    outer loop
      vertex -1.925302e+01 -1.936337e+00 0.000000e+00
      vertex -1.925302e+01 -1.936337e+00 2.000000e+00
      vertex -2.094504e+01 -1.550144e+00 2.000000e+00
    endloop
  endfacet
  facet normal -2.225210e-01 -9.749279e-01 0.000000e+00
    outer loop
      vertex -2.094504e+01 -1.550144e+00 0.000000e+00
      vertex -1.925302e+01 -1.936337e+00 0.000000e+00
      vertex -2.094504e+01 -1.550144e+00 2.000000e+00
    endloop
  endfacet
  facet normal -9.009688e-01 -4.338839e-01 0.000000e+00
    outer loop
      vertex -1.850000e+01 -3.500000e+00 2.000000e+00
      vertex -1.925302e+01 -1.936337e+00 2.000000e+00
      vertex -1.850000e+01 -3.500000e+00 0.000000e+00
    endloop
  endfacet
  facet normal -9.009688e-01 -4.338839e-01 0.000000e+00
    outer loop
      vertex -1.850000e+01 -3.500000e+00 0.000000e+00
      vertex -1.925302e+01 -1.936337e+00 2.000000e+00
      vertex -1.925302e+01 -1.936337e+00 0.000000e+00
    endloop
  endfacet
  facet normal -9.009688e-01 4.338839e-01 0.000000e+00
    outer loop
      vertex -1.850000e+01 -3.500000e+00 2.000000e+00
      vertex -1.850000e+01 -3.500000e+00 0.000000e+00
      vertex -1.925302e+01 -5.063663e+00 2.000000e+00
    endloop
  endfacet
  facet normal -9.009688e-01 4.338839e-01 0.000000e+00
    outer loop
      vertex -1.925302e+01 -5.063663e+00 2.000000e+00
      vertex -1.850000e+01 -3.500000e+00 0.000000e+00
      vertex -1.925302e+01 -5.063663e+00 0.000000e+00
    endloop
  endfacet
  facet normal -2.225210e-01 9.749279e-01 0.000000e+00
    outer loop
      vertex -1.925302e+01 -5.063663e+00 2.000000e+00
      vertex -1.925302e+01 -5.063663e+00 0.000000e+00
      vertex -2.094504e+01 -5.449856e+00 2.000000e+00
    endloop
  endfacet
  facet normal -2.225210e-01 9.749279e-01 0.000000e+00
    outer loop
      vertex -2.094504e+01 -5.449856e+00 2.000000e+00
      vertex -1.925302e+01 -5.063663e+00 0.000000e+00
      vertex -2.094504e+01 -5.449856e+00 0.000000e+00
    endloop
  endfacet
  facet normal 6.234901e-01 7.818312e-01 0.000000e+00
    outer loop
      vertex -2.094504e+01 -5.449856e+00 2.000000e+00
      vertex -2.094504e+01 -5.449856e+00 0.000000e+00
      vertex -2.230194e+01 -4.367767e+00 2.000000e+00
    endloop
  endfacet
  facet normal 6.234901e-01 7.818312e-01 0.000000e+00
    outer loop
      vertex -2.230194e+01 -4.367767e+00 2.000000e+00
      vertex -2.094504e+01 -5.449856e+00 0.000000e+00
      vertex -2.230194e+01 -4.367767e+00 0.000000e+00
    endloop
  endfacet
  facet normal 1.000000e+00 0.000000e+00 0.000000e+00
    outer loop
      vertex 1.969806e+01 -6.322327e-01 0.000000e+00
      vertex 1.969806e+01 -6.322327e-01 2.000000e+00
      vertex 1.969806e+01 -2.367767e+00 2.000000e+00
    endloop
  endfacet
  facet normal 1.000000e+00 0.000000e+00 0.000000e+00
    outer loop
      vertex 1.969806e+01 -2.367767e+00 0.000000e+00
      vertex 1.969806e+01 -6.322327e-01 0.000000e+00
      vertex 1.969806e+01 -2.367767e+00 2.000000e+00
    endloop
  endfacet
  facet normal 6.234901e-01 -7.818312e-01 0.000000e+00
    outer loop
      vertex 2.105496e+01 4.498558e-01 0.000000e+00
      vertex 2.105496e+01 4.498558e-01 2.000000e+00
      vertex 1.969806e+01 -6.322327e-01 2.000000e+00
    endloop
  endfacet
  facet normal 6.234901e-01 -7.818312e-01 0.000000e+00
    outer loop
      vertex 1.969806e+01 -6.322327e-01 0.000000e+00
      vertex 2.105496e+01 4.498558e-01 0.000000e+00
      vertex 1.969806e+01 -6.322327e-01 2.000000e+00
    endloop
  endfacet
  facet normal -2.225210e-01 -9.749279e-01 0.000000e+00
    outer loop
      vertex 2.274698e+01 6.366348e-02 0.000000e+00
      vertex 2.274698e+01 6.366348e-02 2.000000e+00
      vertex 2.105496e+01 4.498558e-01 2.000000e+00
    endloop
  endfacet
  facet normal -2.225210e-01 -9.749279e-01 0.000000e+00
    outer loop
      vertex 2.105496e+01 4.498558e-01 0.000000e+00
      vertex 2.274698e+01 6.366348e-02 0.000000e+00
      vertex 2.105496e+01 4.498558e-01 2.000000e+00
    endloop
  endfacet
  facet normal -9.009688e-01 -4.338839e-01 0.000000e+00
    outer loop
      vertex 2.350000e+01 -1.500000e+00 2.000000e+00
      vertex 2.274698e+01 6.366348e-02 2.000000e+00
      vertex 2.350000e+01 -1.500000e+00 0.000000e+00
    endloop
  endfacet
  facet normal -9.009688e-01 -4.338839e-01 0.000000e+00
    outer loop
      vertex 2.350000e+01 -1.500000e+00 0.000000e+00
      vertex 2.274698e+01 6.366348e-02 2.000000e+00
      vertex 2.274698e+01 6.366348e-02 0.000000e+00
    endloop
  endfacet
  facet normal -9.009688e-01 4.338839e-01 0.000000e+00
    outer loop
      vertex 2.350000e+01 -1.500000e+00 2.000000e+00
      vertex 2.350000e+01 -1.500000e+00 0.000000e+00
      vertex 2.274698e+01 -3.063663e+00 2.000000e+00
    endloop
  endfacet
  facet normal -9.009688e-01 4.338839e-01 0.000000e+00
    outer loop
      vertex 2.274698e+01 -3.063663e+00 2.000000e+00
      vertex 2.350000e+01 -1.500000e+00 0.000000e+00
      vertex 2.274698e+01 -3.063663e+00 0.000000e+00
    endloop
  endfacet
  facet normal -2.225210e-01 9.749279e-01 0.000000e+00
    outer loop
      vertex 2.274698e+01 -3.063663e+00 2.000000e+00
      vertex 2.274698e+01 -3.063663e+00 0.000000e+00
      vertex 2.105496e+01 -3.449856e+00 2.000000e+00
    endloop
  endfacet
  facet normal -2.225210e-01 9.749279e-01 0.000000e+00
    outer loop
      vertex 2.105496e+01 -3.449856e+00 2.000000e+00
      vertex 2.274698e+01 -3.063663e+00 0.000000e+00
      vertex 2.105496e+01 -3.449856e+00 0.000000e+00
    endloop
  endfacet
  facet normal 6.234901e-01 7.818312e-01 0.000000e+00
    outer loop
      vertex 2.105496e+01 -3.449856e+00 2.000000e+00
      vertex 2.105496e+01 -3.449856e+00 0.000000e+00
      vertex 1.969806e+01 -2.367767e+00 2.000000e+00
    endloop
  endfacet
  facet normal 6.234901e-01 7.818312e-01 0.000000e+00
    outer loop
      vertex 1.969806e+01 -2.367767e+00 2.000000e+00
      vertex 2.105496e+01 -3.449856e+00 0.000000e+00
      vertex 1.969806e+01 -2.367767e+00 0.000000e+00
    endloop
  endfacet
endsolid Default
