solid Default
  facet normal 1.000000e+00 0.000000e+00 0.000000e+00
    outer loop
      vertex -6.188477e+00 -9.497070e-02 0.000000e+00
      vertex -6.188477e+00 -1.271155e+01 1.276205e+01
      vertex -6.188477e+00 -1.271155e+01 0.000000e+00
    endloop
  endfacet
  facet normal 1.000000e+00 0.000000e+00 0.000000e+00
    outer loop
      vertex -6.188477e+00 -9.497070e-02 0.000000e+00
      vertex -6.188477e+00 -1.271155e+01 1.276205e+01
      vertex -6.188477e+00 -1.271155e+01 0.000000e+00
    endloop
  endfacet
  facet normal 1.000000e+00 0.000000e+00 0.000000e+00
    outer loop
      vertex -6.188477e+00 -9.497070e-02 0.000000e+00
      vertex -6.188477e+00 -1.271155e+01 1.276205e+01
      vertex -6.188477e+00 -1.271155e+01 0.000000e+00
    endloop
  endfacet
  facet normal 1.000000e+00 0.000000e+00 0.000000e+00
    outer loop
      vertex -6.188477e+00 -1.271155e+01 1.276205e+01
      vertex -6.188477e+00 -9.497070e-02 0.000000e+00
      vertex -6.188477e+00 -9.497070e-02 1.276205e+01
    endloop
  endfacet
  facet normal 1.000000e+00 0.000000e+00 0.000000e+00
    outer loop
      vertex -6.188477e+00 -1.271155e+01 1.276205e+01
      vertex -6.188477e+00 -9.497070e-02 0.000000e+00
      vertex -6.188477e+00 -9.497070e-02 1.276205e+01
    endloop
  endfacet
  facet normal 1.000000e+00 0.000000e+00 0.000000e+00
    outer loop
      vertex -6.188477e+00 -1.271155e+01 1.276205e+01
      vertex -6.188477e+00 -9.497070e-02 0.000000e+00
      vertex -6.188477e+00 -9.497070e-02 1.276205e+01
    endloop
  endfacet
  facet normal -0.000000e+00 -1.000000e+00 -0.000000e+00
    outer loop
      vertex 1.904871e+01 -9.497070e-02 1.276205e+01
      vertex -6.188477e+00 -9.497070e-02 0.000000e+00
      vertex 1.904871e+01 -9.497070e-02 0.000000e+00
    endloop
  endfacet
  facet normal -0.000000e+00 -1.000000e+00 -0.000000e+00
    outer loop
      vertex 1.904871e+01 -9.497070e-02 1.276205e+01
      vertex -6.188477e+00 -9.497070e-02 0.000000e+00
      vertex 1.904871e+01 -9.497070e-02 0.000000e+00
    endloop
  endfacet
  facet normal -0.000000e+00 -1.000000e+00 -0.000000e+00
    outer loop
      vertex 1.904871e+01 -9.497070e-02 1.276205e+01
      vertex -6.188477e+00 -9.497070e-02 0.000000e+00
      vertex 1.904871e+01 -9.497070e-02 0.000000e+00
    endloop
  endfacet
  facet normal -0.000000e+00 -1.000000e+00 -0.000000e+00
    outer loop
      vertex -6.188477e+00 -9.497070e-02 0.000000e+00
      vertex 1.904871e+01 -9.497070e-02 1.276205e+01
      vertex -6.188477e+00 -9.497070e-02 1.276205e+01
    endloop
  endfacet
  facet normal -0.000000e+00 -1.000000e+00 -0.000000e+00
    outer loop
      vertex -6.188477e+00 -9.497070e-02 0.000000e+00
      vertex 1.904871e+01 -9.497070e-02 1.276205e+01
      vertex -6.188477e+00 -9.497070e-02 1.276205e+01
    endloop
  endfacet
  facet normal -0.000000e+00 -1.000000e+00 -0.000000e+00
    outer loop
      vertex -6.188477e+00 -9.497070e-02 0.000000e+00
      vertex 1.904871e+01 -9.497070e-02 1.276205e+01
      vertex -6.188477e+00 -9.497070e-02 1.276205e+01
    endloop
  endfacet
  facet normal 0.000000e+00 0.000000e+00 -1.000000e+00
    outer loop
      vertex -1.904871e+01 1.271155e+01 0.000000e+00
      vertex -6.188477e+00 -9.497070e-02 0.000000e+00
      vertex -1.904871e+01 -1.271155e+01 0.000000e+00
    endloop
  endfacet
  facet normal 0.000000e+00 0.000000e+00 -1.000000e+00
    outer loop
      vertex -1.904871e+01 1.271155e+01 0.000000e+00
      vertex -6.188477e+00 -9.497070e-02 0.000000e+00
      vertex -1.904871e+01 -1.271155e+01 0.000000e+00
    endloop
  endfacet
  facet normal 0.000000e+00 0.000000e+00 -1.000000e+00
    outer loop
      vertex -1.904871e+01 1.271155e+01 0.000000e+00
      vertex -6.188477e+00 -9.497070e-02 0.000000e+00
      vertex -1.904871e+01 -1.271155e+01 0.000000e+00
    endloop
  endfacet
  facet normal 0.000000e+00 0.000000e+00 -1.000000e+00
    outer loop
      vertex -6.188477e+00 -9.497070e-02 0.000000e+00
      vertex -1.904871e+01 1.271155e+01 0.000000e+00
      vertex 1.904871e+01 1.271155e+01 0.000000e+00
    endloop
  endfacet
  facet normal 0.000000e+00 0.000000e+00 -1.000000e+00
    outer loop
      vertex -6.188477e+00 -9.497070e-02 0.000000e+00
      vertex -1.904871e+01 1.271155e+01 0.000000e+00
      vertex 1.904871e+01 1.271155e+01 0.000000e+00
    endloop
  endfacet
  facet normal 0.000000e+00 0.000000e+00 -1.000000e+00
    outer loop
      vertex -6.188477e+00 -9.497070e-02 0.000000e+00
      vertex -1.904871e+01 1.271155e+01 0.000000e+00
      vertex 1.904871e+01 1.271155e+01 0.000000e+00
    endloop
  endfacet
  facet normal 0.000000e+00 0.000000e+00 -1.000000e+00
    outer loop
      vertex -6.188477e+00 -9.497070e-02 0.000000e+00
      vertex 1.904871e+01 1.271155e+01 0.000000e+00
      vertex 1.904871e+01 -9.497070e-02 0.000000e+00
    endloop
  endfacet
  facet normal 0.000000e+00 0.000000e+00 -1.000000e+00
    outer loop
      vertex -6.188477e+00 -9.497070e-02 0.000000e+00
      vertex 1.904871e+01 1.271155e+01 0.000000e+00
      vertex 1.904871e+01 -9.497070e-02 0.000000e+00
    endloop
  endfacet
  facet normal 0.000000e+00 0.000000e+00 -1.000000e+00
    outer loop
      vertex -6.188477e+00 -9.497070e-02 0.000000e+00
      vertex 1.904871e+01 1.271155e+01 0.000000e+00
      vertex 1.904871e+01 -9.497070e-02 0.000000e+00
    endloop
  endfacet
  facet normal 0.000000e+00 0.000000e+00 -1.000000e+00
    outer loop
      vertex -6.188477e+00 -1.271155e+01 0.000000e+00
      vertex -1.904871e+01 -1.271155e+01 0.000000e+00
      vertex -6.188477e+00 -9.497070e-02 0.000000e+00
    endloop
  endfacet
  facet normal 0.000000e+00 0.000000e+00 -1.000000e+00
    outer loop
      vertex -6.188477e+00 -1.271155e+01 0.000000e+00
      vertex -1.904871e+01 -1.271155e+01 0.000000e+00
      vertex -6.188477e+00 -9.497070e-02 0.000000e+00
    endloop
  endfacet
  facet normal 0.000000e+00 0.000000e+00 -1.000000e+00
    outer loop
      vertex -6.188477e+00 -1.271155e+01 0.000000e+00
      vertex -1.904871e+01 -1.271155e+01 0.000000e+00
      vertex -6.188477e+00 -9.497070e-02 0.000000e+00
    endloop
  endfacet
  facet normal 1.000000e+00 0.000000e+00 0.000000e+00
    outer loop
      vertex 1.904871e+01 1.271155e+01 0.000000e+00
      vertex 1.904871e+01 -9.497070e-02 1.276205e+01
      vertex 1.904871e+01 -9.497070e-02 0.000000e+00
    endloop
  endfacet
  facet normal 1.000000e+00 0.000000e+00 0.000000e+00
    outer loop
      vertex 1.904871e+01 1.271155e+01 0.000000e+00
      vertex 1.904871e+01 -9.497070e-02 1.276205e+01
      vertex 1.904871e+01 -9.497070e-02 0.000000e+00
    endloop
  endfacet
  facet normal 1.000000e+00 0.000000e+00 0.000000e+00
    outer loop
      vertex 1.904871e+01 1.271155e+01 0.000000e+00
      vertex 1.904871e+01 -9.497070e-02 1.276205e+01
      vertex 1.904871e+01 -9.497070e-02 0.000000e+00
    endloop
  endfacet
  facet normal 1.000000e+00 0.000000e+00 0.000000e+00
    outer loop
      vertex 1.904871e+01 -9.497070e-02 1.276205e+01
      vertex 1.904871e+01 1.271155e+01 0.000000e+00
      vertex 1.904871e+01 1.271155e+01 1.276205e+01
    endloop
  endfacet
  facet normal 1.000000e+00 0.000000e+00 0.000000e+00
    outer loop
      vertex 1.904871e+01 -9.497070e-02 1.276205e+01
      vertex 1.904871e+01 1.271155e+01 0.000000e+00
      vertex 1.904871e+01 1.271155e+01 1.276205e+01
    endloop
  endfacet
  facet normal 1.000000e+00 0.000000e+00 0.000000e+00
    outer loop
      vertex 1.904871e+01 -9.497070e-02 1.276205e+01
      vertex 1.904871e+01 1.271155e+01 0.000000e+00
      vertex 1.904871e+01 1.271155e+01 1.276205e+01
    endloop
  endfacet
  facet normal 0.000000e+00 1.000000e+00 0.000000e+00
    outer loop
      vertex -1.904871e+01 1.271155e+01 1.276205e+01
      vertex 1.904871e+01 1.271155e+01 0.000000e+00
      vertex -1.904871e+01 1.271155e+01 0.000000e+00
    endloop
  endfacet
  facet normal 0.000000e+00 1.000000e+00 0.000000e+00
    outer loop
      vertex -1.904871e+01 1.271155e+01 1.276205e+01
      vertex 1.904871e+01 1.271155e+01 0.000000e+00
      vertex -1.904871e+01 1.271155e+01 0.000000e+00
    endloop
  endfacet
  facet normal 0.000000e+00 1.000000e+00 0.000000e+00
    outer loop
      vertex -1.904871e+01 1.271155e+01 1.276205e+01
      vertex 1.904871e+01 1.271155e+01 0.000000e+00
      vertex -1.904871e+01 1.271155e+01 0.000000e+00
    endloop
  endfacet
  facet normal 0.000000e+00 1.000000e+00 0.000000e+00
    outer loop
      vertex 1.904871e+01 1.271155e+01 0.000000e+00
      vertex -1.904871e+01 1.271155e+01 1.276205e+01
      vertex 1.904871e+01 1.271155e+01 1.276205e+01
    endloop
  endfacet
  facet normal 0.000000e+00 1.000000e+00 0.000000e+00
    outer loop
      vertex 1.904871e+01 1.271155e+01 0.000000e+00
      vertex -1.904871e+01 1.271155e+01 1.276205e+01
      vertex 1.904871e+01 1.271155e+01 1.276205e+01
    endloop
  endfacet
  facet normal 0.000000e+00 1.000000e+00 0.000000e+00
    outer loop
      vertex 1.904871e+01 1.271155e+01 0.000000e+00
      vertex -1.904871e+01 1.271155e+01 1.276205e+01
      vertex 1.904871e+01 1.271155e+01 1.276205e+01
    endloop
  endfacet
  facet normal -1.000000e+00 0.000000e+00 0.000000e+00
    outer loop
      vertex -1.904871e+01 1.271155e+01 1.276205e+01
      vertex -1.904871e+01 -1.271155e+01 0.000000e+00
      vertex -1.904871e+01 -1.271155e+01 1.276205e+01
    endloop
  endfacet
  facet normal -1.000000e+00 0.000000e+00 0.000000e+00
    outer loop
      vertex -1.904871e+01 1.271155e+01 1.276205e+01
      vertex -1.904871e+01 -1.271155e+01 0.000000e+00
      vertex -1.904871e+01 -1.271155e+01 1.276205e+01
    endloop
  endfacet
  facet normal -1.000000e+00 0.000000e+00 0.000000e+00
    outer loop
      vertex -1.904871e+01 1.271155e+01 1.276205e+01
      vertex -1.904871e+01 -1.271155e+01 0.000000e+00
      vertex -1.904871e+01 -1.271155e+01 1.276205e+01
    endloop
  endfacet
  facet normal -1.000000e+00 0.000000e+00 0.000000e+00
    outer loop
      vertex -1.904871e+01 -1.271155e+01 0.000000e+00
      vertex -1.904871e+01 1.271155e+01 1.276205e+01
      vertex -1.904871e+01 1.271155e+01 0.000000e+00
    endloop
  endfacet
  facet normal -1.000000e+00 0.000000e+00 0.000000e+00
    outer loop
      vertex -1.904871e+01 -1.271155e+01 0.000000e+00
      vertex -1.904871e+01 1.271155e+01 1.276205e+01
      vertex -1.904871e+01 1.271155e+01 0.000000e+00
    endloop
  endfacet
  facet normal -1.000000e+00 0.000000e+00 0.000000e+00
    outer loop
      vertex -1.904871e+01 -1.271155e+01 0.000000e+00
      vertex -1.904871e+01 1.271155e+01 1.276205e+01
      vertex -1.904871e+01 1.271155e+01 0.000000e+00
    endloop
  endfacet
  facet normal -0.000000e+00 -1.000000e+00 -0.000000e+00
    outer loop
      vertex -6.188477e+00 -1.271155e+01 1.276205e+01
      vertex -1.904871e+01 -1.271155e+01 0.000000e+00
      vertex -6.188477e+00 -1.271155e+01 0.000000e+00
    endloop
  endfacet
  facet normal -0.000000e+00 -1.000000e+00 -0.000000e+00
    outer loop
      vertex -6.188477e+00 -1.271155e+01 1.276205e+01
      vertex -1.904871e+01 -1.271155e+01 0.000000e+00
      vertex -6.188477e+00 -1.271155e+01 0.000000e+00
    endloop
  endfacet
  facet normal -0.000000e+00 -1.000000e+00 -0.000000e+00
    outer loop
      vertex -6.188477e+00 -1.271155e+01 1.276205e+01
      vertex -1.904871e+01 -1.271155e+01 0.000000e+00
      vertex -6.188477e+00 -1.271155e+01 0.000000e+00
    endloop
  endfacet
  facet normal -0.000000e+00 -1.000000e+00 -0.000000e+00
    outer loop
      vertex -1.904871e+01 -1.271155e+01 0.000000e+00
      vertex -6.188477e+00 -1.271155e+01 1.276205e+01
      vertex -1.904871e+01 -1.271155e+01 1.276205e+01
    endloop
  endfacet
  facet normal -0.000000e+00 -1.000000e+00 -0.000000e+00
    outer loop
      vertex -1.904871e+01 -1.271155e+01 0.000000e+00
      vertex -6.188477e+00 -1.271155e+01 1.276205e+01
      vertex -1.904871e+01 -1.271155e+01 1.276205e+01
    endloop
  endfacet
  facet normal -0.000000e+00 -1.000000e+00 -0.000000e+00
    outer loop
      vertex -1.904871e+01 -1.271155e+01 0.000000e+00
      vertex -6.188477e+00 -1.271155e+01 1.276205e+01
      vertex -1.904871e+01 -1.271155e+01 1.276205e+01
    endloop
  endfacet
  facet normal 0.000000e+00 0.000000e+00 1.000000e+00
    outer loop
      vertex -6.188477e+00 -1.271155e+01 1.276205e+01
      vertex -1.904871e+01 1.271155e+01 1.276205e+01
      vertex -1.904871e+01 -1.271155e+01 1.276205e+01
    endloop
  endfacet
  facet normal 0.000000e+00 0.000000e+00 1.000000e+00
    outer loop
      vertex -6.188477e+00 -1.271155e+01 1.276205e+01
      vertex -1.904871e+01 1.271155e+01 1.276205e+01
      vertex -1.904871e+01 -1.271155e+01 1.276205e+01
    endloop
  endfacet
  facet normal 0.000000e+00 0.000000e+00 1.000000e+00
    outer loop
      vertex -6.188477e+00 -1.271155e+01 1.276205e+01
      vertex -1.904871e+01 1.271155e+01 1.276205e+01
      vertex -1.904871e+01 -1.271155e+01 1.276205e+01
    endloop
  endfacet
  facet normal 0.000000e+00 0.000000e+00 1.000000e+00
    outer loop
      vertex -1.904871e+01 1.271155e+01 1.276205e+01
      vertex -6.188477e+00 -1.271155e+01 1.276205e+01
      vertex -6.188477e+00 -9.497070e-02 1.276205e+01
    endloop
  endfacet
  facet normal 0.000000e+00 0.000000e+00 1.000000e+00
    outer loop
      vertex -1.904871e+01 1.271155e+01 1.276205e+01
      vertex -6.188477e+00 -1.271155e+01 1.276205e+01
      vertex -6.188477e+00 -9.497070e-02 1.276205e+01
    endloop
  endfacet
  facet normal 0.000000e+00 0.000000e+00 1.000000e+00
    outer loop
      vertex -1.904871e+01 1.271155e+01 1.276205e+01
      vertex -6.188477e+00 -1.271155e+01 1.276205e+01
      vertex -6.188477e+00 -9.497070e-02 1.276205e+01
    endloop
  endfacet
  facet normal 0.000000e+00 0.000000e+00 1.000000e+00
    outer loop
      vertex -1.904871e+01 1.271155e+01 1.276205e+01
      vertex -6.188477e+00 -9.497070e-02 1.276205e+01
      vertex 1.904871e+01 1.271155e+01 1.276205e+01
    endloop
  endfacet
  facet normal 0.000000e+00 0.000000e+00 1.000000e+00
    outer loop
      vertex -1.904871e+01 1.271155e+01 1.276205e+01
      vertex -6.188477e+00 -9.497070e-02 1.276205e+01
      vertex 1.904871e+01 1.271155e+01 1.276205e+01
    endloop
  endfacet
  facet normal 0.000000e+00 0.000000e+00 1.000000e+00
    outer loop
      vertex -1.904871e+01 1.271155e+01 1.276205e+01
      vertex -6.188477e+00 -9.497070e-02 1.276205e+01
      vertex 1.904871e+01 1.271155e+01 1.276205e+01
    endloop
  endfacet
  facet normal 0.000000e+00 0.000000e+00 1.000000e+00
    outer loop
      vertex 1.904871e+01 1.271155e+01 1.276205e+01
      vertex -6.188477e+00 -9.497070e-02 1.276205e+01
      vertex 1.904871e+01 -9.497070e-02 1.276205e+01
    endloop
  endfacet
  facet normal 0.000000e+00 0.000000e+00 1.000000e+00
    outer loop
      vertex 1.904871e+01 1.271155e+01 1.276205e+01
      vertex -6.188477e+00 -9.497070e-02 1.276205e+01
      vertex 1.904871e+01 -9.497070e-02 1.276205e+01
    endloop
  endfacet
  facet normal 0.000000e+00 0.000000e+00 1.000000e+00
    outer loop
      vertex 1.904871e+01 1.271155e+01 1.276205e+01
      vertex -6.188477e+00 -9.497070e-02 1.276205e+01
      vertex 1.904871e+01 -9.497070e-02 1.276205e+01
    endloop
  endfacet
endsolid Default
