solid Default
  facet normal -1.000000e+00 -0.000000e+00 -0.000000e+00
    outer loop
      vertex -3.125000e+01 -1.312500e+01 0.000000e+00
      vertex -3.125000e+01 -1.312500e+01 1.000000e+01
      vertex -3.125000e+01 2.762500e+01 0.000000e+00
    endloop
  endfacet
  facet normal -1.000000e+00 0.000000e+00 0.000000e+00
    outer loop
      vertex -3.125000e+01 2.762500e+01 0.000000e+00
      vertex -3.125000e+01 -1.312500e+01 1.000000e+01
      vertex -3.125000e+01 2.762500e+01 1.000000e+01
    endloop
  endfacet
  facet normal 0.000000e+00 -1.000000e+00 0.000000e+00
    outer loop
      vertex -3.125000e+01 -1.312500e+01 1.000000e+01
      vertex -3.125000e+01 -1.312500e+01 0.000000e+00
      vertex -2.775000e+01 -1.312500e+01 0.000000e+00
    endloop
  endfacet
  facet normal 0.000000e+00 -1.000000e+00 0.000000e+00
    outer loop
      vertex -2.775000e+01 -1.312500e+01 1.000000e+01
      vertex -3.125000e+01 -1.312500e+01 1.000000e+01
      vertex -2.775000e+01 -1.312500e+01 5.000000e+00
    endloop
  endfacet
  facet normal 0.000000e+00 -1.000000e+00 0.000000e+00
    outer loop
      vertex -2.775000e+01 -1.312500e+01 5.000000e+00
      vertex -3.125000e+01 -1.312500e+01 1.000000e+01
      vertex -2.775000e+01 -1.312500e+01 0.000000e+00
    endloop
  endfacet
  facet normal -0.000000e+00 -0.000000e+00 -1.000000e+00
    outer loop
      vertex -3.125000e+01 -1.312500e+01 0.000000e+00
      vertex -3.125000e+01 2.762500e+01 0.000000e+00
      vertex -2.775000e+01 -1.312500e+01 0.000000e+00
    endloop
  endfacet
  facet normal 0.000000e+00 0.000000e+00 -1.000000e+00
    outer loop
      vertex -2.775000e+01 -1.312500e+01 0.000000e+00
      vertex -3.125000e+01 2.762500e+01 0.000000e+00
      vertex 2.400000e+01 2.762500e+01 0.000000e+00
    endloop
  endfacet
  facet normal 0.000000e+00 0.000000e+00 -1.000000e+00
    outer loop
      vertex -2.775000e+01 -1.312500e+01 0.000000e+00
      vertex 2.400000e+01 2.762500e+01 0.000000e+00
      vertex 2.400000e+01 -2.762500e+01 0.000000e+00
    endloop
  endfacet
  facet normal -0.000000e+00 -0.000000e+00 -1.000000e+00
    outer loop
      vertex -2.775000e+01 -2.412500e+01 0.000000e+00
      vertex -2.775000e+01 -1.312500e+01 0.000000e+00
      vertex -1.675000e+01 -2.412500e+01 0.000000e+00
    endloop
  endfacet
  facet normal 0.000000e+00 0.000000e+00 -1.000000e+00
    outer loop
      vertex 2.400000e+01 -2.762500e+01 0.000000e+00
      vertex -1.675000e+01 -2.762500e+01 0.000000e+00
      vertex -1.675000e+01 -2.412500e+01 0.000000e+00
    endloop
  endfacet
  facet normal 0.000000e+00 0.000000e+00 -1.000000e+00
    outer loop
      vertex -2.775000e+01 -1.312500e+01 0.000000e+00
      vertex 2.400000e+01 -2.762500e+01 0.000000e+00
      vertex -1.675000e+01 -2.412500e+01 0.000000e+00
    endloop
  endfacet
  facet normal 0.000000e+00 1.000000e+00 0.000000e+00
    outer loop
      vertex -3.125000e+01 2.762500e+01 0.000000e+00
      vertex -3.125000e+01 2.762500e+01 1.000000e+01
      vertex -2.775000e+01 2.762500e+01 5.000000e+00
    endloop
  endfacet
  facet normal 0.000000e+00 1.000000e+00 0.000000e+00
    outer loop
      vertex -4.750000e+00 2.762500e+01 2.000000e+00
      vertex -2.775000e+01 2.762500e+01 5.000000e+00
      vertex -4.750000e+00 2.762500e+01 5.000000e+00
    endloop
  endfacet
  facet normal 0.000000e+00 1.000000e+00 0.000000e+00
    outer loop
      vertex -3.125000e+01 2.762500e+01 0.000000e+00
      vertex -2.775000e+01 2.762500e+01 5.000000e+00
      vertex -4.750000e+00 2.762500e+01 2.000000e+00
    endloop
  endfacet
  facet normal 0.000000e+00 1.000000e+00 0.000000e+00
    outer loop
      vertex -3.125000e+01 2.762500e+01 0.000000e+00
      vertex -4.750000e+00 2.762500e+01 2.000000e+00
      vertex 2.400000e+01 2.762500e+01 0.000000e+00
    endloop
  endfacet
  facet normal 0.000000e+00 1.000000e+00 0.000000e+00
    outer loop
      vertex 2.500000e-01 2.762500e+01 5.000000e+00
      vertex 2.400000e+01 2.762500e+01 0.000000e+00
      vertex 2.500000e-01 2.762500e+01 2.000000e+00
    endloop
  endfacet
  facet normal 0.000000e+00 1.000000e+00 0.000000e+00
    outer loop
      vertex -4.750000e+00 2.762500e+01 2.000000e+00
      vertex 2.500000e-01 2.762500e+01 2.000000e+00
      vertex 2.400000e+01 2.762500e+01 0.000000e+00
    endloop
  endfacet
  facet normal 0.000000e+00 1.000000e+00 0.000000e+00
    outer loop
      vertex 2.400000e+01 2.762500e+01 0.000000e+00
      vertex 2.500000e-01 2.762500e+01 5.000000e+00
      vertex 2.400000e+01 2.762500e+01 5.000000e+00
    endloop
  endfacet
  facet normal 0.000000e+00 1.000000e+00 0.000000e+00
    outer loop
      vertex -2.775000e+01 2.762500e+01 5.000000e+00
      vertex -3.125000e+01 2.762500e+01 1.000000e+01
      vertex -2.775000e+01 2.762500e+01 1.000000e+01
    endloop
  endfacet
  facet normal 0.000000e+00 0.000000e+00 1.000000e+00
    outer loop
      vertex -3.125000e+01 2.762500e+01 1.000000e+01
      vertex -3.125000e+01 -1.312500e+01 1.000000e+01
      vertex -2.775000e+01 -1.312500e+01 1.000000e+01
    endloop
  endfacet
  facet normal 0.000000e+00 0.000000e+00 1.000000e+00
    outer loop
      vertex -2.775000e+01 2.762500e+01 1.000000e+01
      vertex -3.125000e+01 2.762500e+01 1.000000e+01
      vertex -2.775000e+01 -1.312500e+01 1.000000e+01
    endloop
  endfacet
  facet normal 1.000000e+00 0.000000e+00 0.000000e+00
    outer loop
      vertex -2.775000e+01 2.762500e+01 5.000000e+00
      vertex -2.775000e+01 2.762500e+01 1.000000e+01
      vertex -2.775000e+01 -1.312500e+01 1.000000e+01
    endloop
  endfacet
  facet normal 1.000000e+00 0.000000e+00 0.000000e+00
    outer loop
      vertex -2.775000e+01 -1.312500e+01 5.000000e+00
      vertex -2.775000e+01 2.762500e+01 5.000000e+00
      vertex -2.775000e+01 -1.312500e+01 1.000000e+01
    endloop
  endfacet
  facet normal 0.000000e+00 0.000000e+00 1.000000e+00
    outer loop
      vertex -2.775000e+01 -1.312500e+01 5.000000e+00
      vertex -2.775000e+01 -2.412500e+01 5.000000e+00
      vertex -1.675000e+01 -2.412500e+01 5.000000e+00
    endloop
  endfacet
  facet normal 0.000000e+00 0.000000e+00 1.000000e+00
    outer loop
      vertex 2.400000e+01 -1.125000e+00 5.000000e+00
      vertex -2.775000e+01 -1.312500e+01 5.000000e+00
      vertex 2.400000e+01 -2.412500e+01 5.000000e+00
    endloop
  endfacet
  facet normal 0.000000e+00 0.000000e+00 1.000000e+00
    outer loop
      vertex 2.400000e+01 -2.412500e+01 5.000000e+00
      vertex -2.775000e+01 -1.312500e+01 5.000000e+00
      vertex -1.675000e+01 -2.412500e+01 5.000000e+00
    endloop
  endfacet
  facet normal 0.000000e+00 0.000000e+00 1.000000e+00
    outer loop
      vertex 1.400000e+01 -1.125000e+00 5.000000e+00
      vertex -2.775000e+01 -1.312500e+01 5.000000e+00
      vertex 2.400000e+01 -1.125000e+00 5.000000e+00
    endloop
  endfacet
  facet normal 0.000000e+00 0.000000e+00 1.000000e+00
    outer loop
      vertex 1.400000e+01 3.875000e+00 5.000000e+00
      vertex -2.775000e+01 -1.312500e+01 5.000000e+00
      vertex 1.400000e+01 -1.125000e+00 5.000000e+00
    endloop
  endfacet
  facet normal 0.000000e+00 0.000000e+00 1.000000e+00
    outer loop
      vertex 2.400000e+01 2.762500e+01 5.000000e+00
      vertex -2.775000e+01 -1.312500e+01 5.000000e+00
      vertex 1.400000e+01 3.875000e+00 5.000000e+00
    endloop
  endfacet
  facet normal 0.000000e+00 0.000000e+00 1.000000e+00
    outer loop
      vertex 2.400000e+01 2.762500e+01 5.000000e+00
      vertex 1.400000e+01 3.875000e+00 5.000000e+00
      vertex 2.400000e+01 3.875000e+00 5.000000e+00
    endloop
  endfacet
  facet normal 0.000000e+00 0.000000e+00 1.000000e+00
    outer loop
      vertex 2.500000e-01 1.762500e+01 5.000000e+00
      vertex -2.775000e+01 -1.312500e+01 5.000000e+00
      vertex 2.400000e+01 2.762500e+01 5.000000e+00
    endloop
  endfacet
  facet normal 0.000000e+00 0.000000e+00 1.000000e+00
    outer loop
      vertex 2.500000e-01 2.762500e+01 5.000000e+00
      vertex 2.500000e-01 1.762500e+01 5.000000e+00
      vertex 2.400000e+01 2.762500e+01 5.000000e+00
    endloop
  endfacet
  facet normal 0.000000e+00 0.000000e+00 1.000000e+00
    outer loop
      vertex -4.750000e+00 1.762500e+01 5.000000e+00
      vertex -2.775000e+01 -1.312500e+01 5.000000e+00
      vertex 2.500000e-01 1.762500e+01 5.000000e+00
    endloop
  endfacet
  facet normal 0.000000e+00 0.000000e+00 1.000000e+00
    outer loop
      vertex -2.775000e+01 2.762500e+01 5.000000e+00
      vertex -2.775000e+01 -1.312500e+01 5.000000e+00
      vertex -4.750000e+00 2.762500e+01 5.000000e+00
    endloop
  endfacet
  facet normal 0.000000e+00 0.000000e+00 1.000000e+00
    outer loop
      vertex -4.750000e+00 1.762500e+01 5.000000e+00
      vertex -4.750000e+00 2.762500e+01 5.000000e+00
      vertex -2.775000e+01 -1.312500e+01 5.000000e+00
    endloop
  endfacet
  facet normal -1.000000e+00 -0.000000e+00 -0.000000e+00
    outer loop
      vertex -2.775000e+01 -2.412500e+01 0.000000e+00
      vertex -2.775000e+01 -2.412500e+01 5.000000e+00
      vertex -2.775000e+01 -1.312500e+01 0.000000e+00
    endloop
  endfacet
  facet normal -1.000000e+00 0.000000e+00 0.000000e+00
    outer loop
      vertex -2.775000e+01 -1.312500e+01 0.000000e+00
      vertex -2.775000e+01 -2.412500e+01 5.000000e+00
      vertex -2.775000e+01 -1.312500e+01 5.000000e+00
    endloop
  endfacet
  facet normal 0.000000e+00 -1.000000e+00 0.000000e+00
    outer loop
      vertex -2.775000e+01 -2.412500e+01 5.000000e+00
      vertex -2.775000e+01 -2.412500e+01 0.000000e+00
      vertex -1.675000e+01 -2.412500e+01 0.000000e+00
    endloop
  endfacet
  facet normal 0.000000e+00 -1.000000e+00 0.000000e+00
    outer loop
      vertex -1.675000e+01 -2.412500e+01 5.000000e+00
      vertex -2.775000e+01 -2.412500e+01 5.000000e+00
      vertex -1.675000e+01 -2.412500e+01 0.000000e+00
    endloop
  endfacet
  facet normal -1.000000e+00 -0.000000e+00 -0.000000e+00
    outer loop
      vertex -1.675000e+01 -2.762500e+01 0.000000e+00
      vertex -1.675000e+01 -2.762500e+01 1.000000e+01
      vertex -1.675000e+01 -2.412500e+01 0.000000e+00
    endloop
  endfacet
  facet normal -1.000000e+00 0.000000e+00 0.000000e+00
    outer loop
      vertex -1.675000e+01 -2.412500e+01 5.000000e+00
      vertex -1.675000e+01 -2.762500e+01 1.000000e+01
      vertex -1.675000e+01 -2.412500e+01 1.000000e+01
    endloop
  endfacet
  facet normal -1.000000e+00 0.000000e+00 0.000000e+00
    outer loop
      vertex -1.675000e+01 -2.412500e+01 0.000000e+00
      vertex -1.675000e+01 -2.762500e+01 1.000000e+01
      vertex -1.675000e+01 -2.412500e+01 5.000000e+00
    endloop
  endfacet
  facet normal 0.000000e+00 -1.000000e+00 0.000000e+00
    outer loop
      vertex -1.675000e+01 -2.762500e+01 1.000000e+01
      vertex -1.675000e+01 -2.762500e+01 0.000000e+00
      vertex 2.400000e+01 -2.762500e+01 0.000000e+00
    endloop
  endfacet
  facet normal 0.000000e+00 -1.000000e+00 0.000000e+00
    outer loop
      vertex 2.400000e+01 -2.762500e+01 1.000000e+01
      vertex -1.675000e+01 -2.762500e+01 1.000000e+01
      vertex 2.400000e+01 -2.762500e+01 0.000000e+00
    endloop
  endfacet
  facet normal 1.000000e+00 0.000000e+00 0.000000e+00
    outer loop
      vertex 2.400000e+01 3.875000e+00 2.000000e+00
      vertex 2.400000e+01 -2.762500e+01 0.000000e+00
      vertex 2.400000e+01 2.762500e+01 0.000000e+00
    endloop
  endfacet
  facet normal 1.000000e+00 0.000000e+00 0.000000e+00
    outer loop
      vertex 2.400000e+01 2.762500e+01 5.000000e+00
      vertex 2.400000e+01 3.875000e+00 5.000000e+00
      vertex 2.400000e+01 2.762500e+01 0.000000e+00
    endloop
  endfacet
  facet normal 1.000000e+00 0.000000e+00 0.000000e+00
    outer loop
      vertex 2.400000e+01 -1.125000e+00 2.000000e+00
      vertex 2.400000e+01 -2.762500e+01 0.000000e+00
      vertex 2.400000e+01 3.875000e+00 2.000000e+00
    endloop
  endfacet
  facet normal 1.000000e+00 0.000000e+00 0.000000e+00
    outer loop
      vertex 2.400000e+01 -1.125000e+00 5.000000e+00
      vertex 2.400000e+01 -2.412500e+01 5.000000e+00
      vertex 2.400000e+01 -1.125000e+00 2.000000e+00
    endloop
  endfacet
  facet normal 1.000000e+00 0.000000e+00 0.000000e+00
    outer loop
      vertex 2.400000e+01 -2.412500e+01 5.000000e+00
      vertex 2.400000e+01 -2.762500e+01 0.000000e+00
      vertex 2.400000e+01 -1.125000e+00 2.000000e+00
    endloop
  endfacet
  facet normal 1.000000e+00 0.000000e+00 0.000000e+00
    outer loop
      vertex 2.400000e+01 -2.762500e+01 1.000000e+01
      vertex 2.400000e+01 -2.762500e+01 0.000000e+00
      vertex 2.400000e+01 -2.412500e+01 5.000000e+00
    endloop
  endfacet
  facet normal 1.000000e+00 0.000000e+00 0.000000e+00
    outer loop
      vertex 2.400000e+01 3.875000e+00 5.000000e+00
      vertex 2.400000e+01 3.875000e+00 2.000000e+00
      vertex 2.400000e+01 2.762500e+01 0.000000e+00
    endloop
  endfacet
  facet normal 1.000000e+00 0.000000e+00 0.000000e+00
    outer loop
      vertex 2.400000e+01 -2.412500e+01 5.000000e+00
      vertex 2.400000e+01 -2.412500e+01 1.000000e+01
      vertex 2.400000e+01 -2.762500e+01 1.000000e+01
    endloop
  endfacet
  facet normal -1.000000e+00 0.000000e+00 0.000000e+00
    outer loop
      vertex 2.500000e-01 2.762500e+01 5.000000e+00
      vertex 2.500000e-01 2.762500e+01 2.000000e+00
      vertex 2.500000e-01 1.762500e+01 5.000000e+00
    endloop
  endfacet
  facet normal -1.000000e+00 0.000000e+00 0.000000e+00
    outer loop
      vertex 2.500000e-01 1.762500e+01 5.000000e+00
      vertex 2.500000e-01 2.762500e+01 2.000000e+00
      vertex 2.500000e-01 1.762500e+01 2.000000e+00
    endloop
  endfacet
  facet normal 0.000000e+00 0.000000e+00 1.000000e+00
    outer loop
      vertex 2.500000e-01 1.762500e+01 2.000000e+00
      vertex 2.500000e-01 2.762500e+01 2.000000e+00
      vertex -4.750000e+00 2.762500e+01 2.000000e+00
    endloop
  endfacet
  facet normal 0.000000e+00 0.000000e+00 1.000000e+00
    outer loop
      vertex -4.750000e+00 1.762500e+01 2.000000e+00
      vertex 2.500000e-01 1.762500e+01 2.000000e+00
      vertex -4.750000e+00 2.762500e+01 2.000000e+00
    endloop
  endfacet
  facet normal 1.000000e+00 0.000000e+00 0.000000e+00
    outer loop
      vertex -4.750000e+00 2.762500e+01 2.000000e+00
      vertex -4.750000e+00 2.762500e+01 5.000000e+00
      vertex -4.750000e+00 1.762500e+01 5.000000e+00
    endloop
  endfacet
  facet normal 1.000000e+00 0.000000e+00 0.000000e+00
    outer loop
      vertex -4.750000e+00 1.762500e+01 2.000000e+00
      vertex -4.750000e+00 2.762500e+01 2.000000e+00
      vertex -4.750000e+00 1.762500e+01 5.000000e+00
    endloop
  endfacet
  facet normal 0.000000e+00 1.000000e+00 0.000000e+00
    outer loop
      vertex 2.500000e-01 1.762500e+01 5.000000e+00
      vertex 2.500000e-01 1.762500e+01 2.000000e+00
      vertex -4.750000e+00 1.762500e+01 5.000000e+00
    endloop
  endfacet
  facet normal 0.000000e+00 1.000000e+00 0.000000e+00
    outer loop
      vertex -4.750000e+00 1.762500e+01 5.000000e+00
      vertex 2.500000e-01 1.762500e+01 2.000000e+00
      vertex -4.750000e+00 1.762500e+01 2.000000e+00
    endloop
  endfacet
  facet normal 0.000000e+00 -1.000000e+00 0.000000e+00
    outer loop
      vertex 2.400000e+01 3.875000e+00 2.000000e+00
      vertex 2.400000e+01 3.875000e+00 5.000000e+00
      vertex 1.400000e+01 3.875000e+00 5.000000e+00
    endloop
  endfacet
  facet normal -0.000000e+00 -1.000000e+00 -0.000000e+00
    outer loop
      vertex 1.400000e+01 3.875000e+00 2.000000e+00
      vertex 2.400000e+01 3.875000e+00 2.000000e+00
      vertex 1.400000e+01 3.875000e+00 5.000000e+00
    endloop
  endfacet
  facet normal 1.000000e+00 0.000000e+00 0.000000e+00
    outer loop
      vertex 1.400000e+01 3.875000e+00 2.000000e+00
      vertex 1.400000e+01 3.875000e+00 5.000000e+00
      vertex 1.400000e+01 -1.125000e+00 5.000000e+00
    endloop
  endfacet
  facet normal 1.000000e+00 0.000000e+00 0.000000e+00
    outer loop
      vertex 1.400000e+01 -1.125000e+00 2.000000e+00
      vertex 1.400000e+01 3.875000e+00 2.000000e+00
      vertex 1.400000e+01 -1.125000e+00 5.000000e+00
    endloop
  endfacet
  facet normal 0.000000e+00 1.000000e+00 0.000000e+00
    outer loop
      vertex 2.400000e+01 -1.125000e+00 5.000000e+00
      vertex 2.400000e+01 -1.125000e+00 2.000000e+00
      vertex 1.400000e+01 -1.125000e+00 5.000000e+00
    endloop
  endfacet
  facet normal 0.000000e+00 1.000000e+00 0.000000e+00
    outer loop
      vertex 1.400000e+01 -1.125000e+00 5.000000e+00
      vertex 2.400000e+01 -1.125000e+00 2.000000e+00
      vertex 1.400000e+01 -1.125000e+00 2.000000e+00
    endloop
  endfacet
  facet normal 0.000000e+00 1.000000e+00 0.000000e+00
    outer loop
      vertex 2.400000e+01 -2.412500e+01 1.000000e+01
      vertex 2.400000e+01 -2.412500e+01 5.000000e+00
      vertex -1.675000e+01 -2.412500e+01 1.000000e+01
    endloop
  endfacet
  facet normal 0.000000e+00 1.000000e+00 0.000000e+00
    outer loop
      vertex -1.675000e+01 -2.412500e+01 1.000000e+01
      vertex 2.400000e+01 -2.412500e+01 5.000000e+00
      vertex -1.675000e+01 -2.412500e+01 5.000000e+00
    endloop
  endfacet
  facet normal 0.000000e+00 0.000000e+00 1.000000e+00
    outer loop
      vertex -1.675000e+01 -2.412500e+01 1.000000e+01
      vertex -1.675000e+01 -2.762500e+01 1.000000e+01
      vertex 2.400000e+01 -2.762500e+01 1.000000e+01
    endloop
  endfacet
  facet normal 0.000000e+00 0.000000e+00 1.000000e+00
    outer loop
      vertex 2.400000e+01 -2.412500e+01 1.000000e+01
      vertex -1.675000e+01 -2.412500e+01 1.000000e+01
      vertex 2.400000e+01 -2.762500e+01 1.000000e+01
    endloop
  endfacet
  facet normal 0.000000e+00 0.000000e+00 1.000000e+00
    outer loop
      vertex 2.400000e+01 -1.125000e+00 2.000000e+00
      vertex 2.400000e+01 3.875000e+00 2.000000e+00
      vertex 1.400000e+01 3.875000e+00 2.000000e+00
    endloop
  endfacet
  facet normal 0.000000e+00 0.000000e+00 1.000000e+00
    outer loop
      vertex 1.400000e+01 -1.125000e+00 2.000000e+00
      vertex 2.400000e+01 -1.125000e+00 2.000000e+00
      vertex 1.400000e+01 3.875000e+00 2.000000e+00
    endloop
  endfacet
  facet normal -1.000000e+00 -0.000000e+00 -0.000000e+00
    outer loop
      vertex 2.725000e+01 -1.912500e+01 0.000000e+00
      vertex 2.725000e+01 -1.912500e+01 1.500000e+00
      vertex 2.725000e+01 -1.125000e+00 0.000000e+00
    endloop
  endfacet
  facet normal -1.000000e+00 0.000000e+00 0.000000e+00
    outer loop
      vertex 2.725000e+01 -1.125000e+00 0.000000e+00
      vertex 2.725000e+01 -1.912500e+01 1.500000e+00
      vertex 2.725000e+01 -1.125000e+00 1.500000e+00
    endloop
  endfacet
  facet normal 0.000000e+00 -1.000000e+00 0.000000e+00
    outer loop
      vertex 2.725000e+01 -1.912500e+01 1.500000e+00
      vertex 2.725000e+01 -1.912500e+01 0.000000e+00
      vertex 3.125000e+01 -1.912500e+01 0.000000e+00
    endloop
  endfacet
  facet normal 0.000000e+00 -1.000000e+00 0.000000e+00
    outer loop
      vertex 3.125000e+01 -1.912500e+01 1.500000e+00
      vertex 2.725000e+01 -1.912500e+01 1.500000e+00
      vertex 3.125000e+01 -1.912500e+01 0.000000e+00
    endloop
  endfacet
  facet normal -0.000000e+00 -0.000000e+00 -1.000000e+00
    outer loop
      vertex 2.725000e+01 -1.912500e+01 0.000000e+00
      vertex 2.725000e+01 -1.125000e+00 0.000000e+00
      vertex 3.125000e+01 -1.912500e+01 0.000000e+00
    endloop
  endfacet
  facet normal 0.000000e+00 0.000000e+00 -1.000000e+00
    outer loop
      vertex 3.125000e+01 -1.912500e+01 0.000000e+00
      vertex 2.725000e+01 -1.125000e+00 0.000000e+00
      vertex 3.125000e+01 -1.125000e+00 0.000000e+00
    endloop
  endfacet
  facet normal 0.000000e+00 1.000000e+00 0.000000e+00
    outer loop
      vertex 2.725000e+01 -1.125000e+00 0.000000e+00
      vertex 2.725000e+01 -1.125000e+00 1.500000e+00
      vertex 3.125000e+01 -1.125000e+00 0.000000e+00
    endloop
  endfacet
  facet normal 0.000000e+00 1.000000e+00 0.000000e+00
    outer loop
      vertex 3.125000e+01 -1.125000e+00 0.000000e+00
      vertex 2.725000e+01 -1.125000e+00 1.500000e+00
      vertex 3.125000e+01 -1.125000e+00 1.500000e+00
    endloop
  endfacet
  facet normal 0.000000e+00 0.000000e+00 1.000000e+00
    outer loop
      vertex 2.725000e+01 -1.125000e+00 1.500000e+00
      vertex 2.725000e+01 -1.912500e+01 1.500000e+00
      vertex 3.125000e+01 -1.912500e+01 1.500000e+00
    endloop
  endfacet
  facet normal 0.000000e+00 0.000000e+00 1.000000e+00
    outer loop
      vertex 3.125000e+01 -1.125000e+00 1.500000e+00
      vertex 2.725000e+01 -1.125000e+00 1.500000e+00
      vertex 3.125000e+01 -1.912500e+01 1.500000e+00
    endloop
  endfacet
  facet normal 1.000000e+00 0.000000e+00 0.000000e+00
    outer loop
      vertex 3.125000e+01 -1.912500e+01 1.500000e+00
      vertex 3.125000e+01 -1.912500e+01 0.000000e+00
      vertex 3.125000e+01 -1.125000e+00 0.000000e+00
    endloop
  endfacet
  facet normal 1.000000e+00 0.000000e+00 0.000000e+00
    outer loop
      vertex 3.125000e+01 -1.125000e+00 1.500000e+00
      vertex 3.125000e+01 -1.912500e+01 1.500000e+00
      vertex 3.125000e+01 -1.125000e+00 0.000000e+00
    endloop
  endfacet
endsolid Default
