solid OpenSCAD_Model
  facet normal -0.000000 0.000000 -1.000000
    outer loop
      vertex -33.000000 0.000000 0.000000
      vertex -32.278871 6.861086 0.000000
      vertex -32.278871 -6.861086 0.000000
    endloop
  endfacet
  facet normal 0.000000 -0.000000 -1.000000
    outer loop
      vertex -32.278871 -6.861086 0.000000
      vertex -32.278871 6.861086 0.000000
      vertex -30.147000 13.422309 0.000000
    endloop
  endfacet
  facet normal 0.000000 0.000000 -1.000000
    outer loop
      vertex -32.278871 -6.861086 0.000000
      vertex -30.147000 13.422309 0.000000
      vertex -26.697561 19.396913 0.000000
    endloop
  endfacet
  facet normal 0.000000 0.000000 -1.000000
    outer loop
      vertex -32.278871 -6.861086 0.000000
      vertex -26.697561 19.396913 0.000000
      vertex -22.081310 24.523779 0.000000
    endloop
  endfacet
  facet normal 0.000000 0.000000 -1.000000
    outer loop
      vertex -32.278871 -6.861086 0.000000
      vertex -22.081310 24.523779 0.000000
      vertex -16.500000 28.578838 0.000000
    endloop
  endfacet
  facet normal 0.000000 0.000000 -1.000000
    outer loop
      vertex -32.278871 -6.861086 0.000000
      vertex -16.500000 28.578838 0.000000
      vertex -10.197561 31.384865 0.000000
    endloop
  endfacet
  facet normal 0.000000 0.000000 -1.000000
    outer loop
      vertex -12.303125 21.309638 0.000000
      vertex -10.197561 31.384865 0.000000
      vertex -3.449439 32.819223 0.000000
    endloop
  endfacet
  facet normal 0.000000 0.000000 -1.000000
    outer loop
      vertex -4.000000 29.000000 0.000000
      vertex -3.449439 32.819223 0.000000
      vertex 3.449439 32.819223 0.000000
    endloop
  endfacet
  facet normal 0.000000 -0.000000 -1.000000
    outer loop
      vertex 4.000000 29.000000 0.000000
      vertex 3.449439 32.819223 0.000000
      vertex 10.197561 31.384865 0.000000
    endloop
  endfacet
  facet normal 0.000000 0.000000 -1.000000
    outer loop
      vertex 7.603749 23.401934 0.000000
      vertex 10.197561 31.384865 0.000000
      vertex 16.500000 28.578838 0.000000
    endloop
  endfacet
  facet normal 0.000000 0.000000 -1.000000
    outer loop
      vertex 12.303125 21.309638 0.000000
      vertex 16.500000 28.578838 0.000000
      vertex 22.081310 24.523779 0.000000
    endloop
  endfacet
  facet normal 0.000000 0.000000 -1.000000
    outer loop
      vertex 16.464795 18.286007 0.000000
      vertex 22.081310 24.523779 0.000000
      vertex 26.697561 19.396913 0.000000
    endloop
  endfacet
  facet normal -0.000000 0.000000 -1.000000
    outer loop
      vertex 19.906874 14.463191 0.000000
      vertex 26.697561 19.396913 0.000000
      vertex 30.147000 13.422309 0.000000
    endloop
  endfacet
  facet normal -0.000000 0.000000 -1.000000
    outer loop
      vertex 22.478928 10.008264 0.000000
      vertex 30.147000 13.422309 0.000000
      vertex 32.278871 6.861086 0.000000
    endloop
  endfacet
  facet normal -0.000000 0.000000 -1.000000
    outer loop
      vertex 24.606250 0.000000 0.000000
      vertex 32.278871 6.861086 0.000000
      vertex 33.000000 0.000000 0.000000
    endloop
  endfacet
  facet normal -0.000000 0.000000 -1.000000
    outer loop
      vertex 24.068544 -5.115927 0.000000
      vertex 33.000000 0.000000 0.000000
      vertex 32.278871 -6.861086 0.000000
    endloop
  endfacet
  facet normal -0.000000 0.000000 -1.000000
    outer loop
      vertex 22.478928 -10.008264 0.000000
      vertex 32.278871 -6.861086 0.000000
      vertex 30.147000 -13.422309 0.000000
    endloop
  endfacet
  facet normal -0.000000 0.000000 -1.000000
    outer loop
      vertex 19.906874 -14.463191 0.000000
      vertex 30.147000 -13.422309 0.000000
      vertex 26.697561 -19.396913 0.000000
    endloop
  endfacet
  facet normal -0.000000 0.000000 -1.000000
    outer loop
      vertex 12.303125 -21.309638 0.000000
      vertex 26.697561 -19.396913 0.000000
      vertex 22.081310 -24.523779 0.000000
    endloop
  endfacet
  facet normal 0.000000 0.000000 -1.000000
    outer loop
      vertex 7.603749 -23.401934 0.000000
      vertex 22.081310 -24.523779 0.000000
      vertex 16.500000 -28.578838 0.000000
    endloop
  endfacet
  facet normal 0.000000 0.000000 -1.000000
    outer loop
      vertex 4.000000 -24.167934 0.000000
      vertex 16.500000 -28.578838 0.000000
      vertex 10.197561 -31.384865 0.000000
    endloop
  endfacet
  facet normal 0.000000 0.000000 -1.000000
    outer loop
      vertex 4.000000 -29.000000 0.000000
      vertex 10.197561 -31.384865 0.000000
      vertex 3.449439 -32.819223 0.000000
    endloop
  endfacet
  facet normal 0.000000 0.000000 -1.000000
    outer loop
      vertex -4.000000 -29.000000 0.000000
      vertex 3.449439 -32.819223 0.000000
      vertex -3.449439 -32.819223 0.000000
    endloop
  endfacet
  facet normal 0.000000 0.000000 -1.000000
    outer loop
      vertex -32.278871 -6.861086 0.000000
      vertex -3.449439 -32.819223 0.000000
      vertex -10.197561 -31.384865 0.000000
    endloop
  endfacet
  facet normal 0.000000 0.000000 -1.000000
    outer loop
      vertex -32.278871 -6.861086 0.000000
      vertex -10.197561 -31.384865 0.000000
      vertex -16.500000 -28.578838 0.000000
    endloop
  endfacet
  facet normal 0.000000 0.000000 -1.000000
    outer loop
      vertex -32.278871 -6.861086 0.000000
      vertex -16.500000 -28.578838 0.000000
      vertex -22.081310 -24.523779 0.000000
    endloop
  endfacet
  facet normal 0.000000 0.000000 -1.000000
    outer loop
      vertex -32.278871 -6.861086 0.000000
      vertex -22.081310 -24.523779 0.000000
      vertex -26.697561 -19.396913 0.000000
    endloop
  endfacet
  facet normal 0.000000 0.000000 -1.000000
    outer loop
      vertex -32.278871 -6.861086 0.000000
      vertex -26.697561 -19.396913 0.000000
      vertex -30.147000 -13.422309 0.000000
    endloop
  endfacet
  facet normal 0.000000 0.000000 -1.000000
    outer loop
      vertex -24.068544 -5.115927 0.000000
      vertex -32.278871 -6.861086 0.000000
      vertex -24.606250 0.000000 0.000000
    endloop
  endfacet
  facet normal 0.000000 0.000000 -1.000000
    outer loop
      vertex 24.068544 -5.115927 0.000000
      vertex 32.278871 -6.861086 0.000000
      vertex 22.478928 -10.008264 0.000000
    endloop
  endfacet
  facet normal 0.000000 0.000000 -1.000000
    outer loop
      vertex -22.478928 -10.008264 0.000000
      vertex -32.278871 -6.861086 0.000000
      vertex -24.068544 -5.115927 0.000000
    endloop
  endfacet
  facet normal 0.000000 0.000000 -1.000000
    outer loop
      vertex -19.906874 -14.463191 0.000000
      vertex -32.278871 -6.861086 0.000000
      vertex -22.478928 -10.008264 0.000000
    endloop
  endfacet
  facet normal 0.000000 0.000000 -1.000000
    outer loop
      vertex 4.000000 -24.167934 0.000000
      vertex 10.197561 -31.384865 0.000000
      vertex 4.000000 -29.000000 0.000000
    endloop
  endfacet
  facet normal 0.000000 0.000000 -1.000000
    outer loop
      vertex -4.000000 -29.000000 0.000000
      vertex -16.464795 -18.286007 0.000000
      vertex -12.303125 -21.309638 0.000000
    endloop
  endfacet
  facet normal 0.000000 0.000000 -1.000000
    outer loop
      vertex -32.278871 -6.861086 0.000000
      vertex -19.906874 -14.463191 0.000000
      vertex -16.464795 -18.286007 0.000000
    endloop
  endfacet
  facet normal 0.000000 0.000000 -1.000000
    outer loop
      vertex -4.000000 -29.000000 0.000000
      vertex -32.278871 -6.861086 0.000000
      vertex -16.464795 -18.286007 0.000000
    endloop
  endfacet
  facet normal 0.000000 0.000000 -1.000000
    outer loop
      vertex 4.000000 -29.000000 0.000000
      vertex 3.449439 -32.819223 0.000000
      vertex -4.000000 -29.000000 0.000000
    endloop
  endfacet
  facet normal 0.000000 0.000000 -1.000000
    outer loop
      vertex -32.278871 -6.861086 0.000000
      vertex -4.000000 -29.000000 0.000000
      vertex -3.449439 -32.819223 0.000000
    endloop
  endfacet
  facet normal 0.000000 0.000000 -1.000000
    outer loop
      vertex -4.000000 -29.000000 0.000000
      vertex -12.303125 -21.309638 0.000000
      vertex -7.603749 -23.401934 0.000000
    endloop
  endfacet
  facet normal 0.000000 0.000000 -1.000000
    outer loop
      vertex -12.303125 21.309638 0.000000
      vertex -4.000000 29.000000 0.000000
      vertex -7.603749 23.401934 0.000000
    endloop
  endfacet
  facet normal 0.000000 0.000000 -1.000000
    outer loop
      vertex -4.000000 -29.000000 0.000000
      vertex -7.603749 -23.401934 0.000000
      vertex -4.000000 -24.167934 0.000000
    endloop
  endfacet
  facet normal 0.000000 0.000000 -1.000000
    outer loop
      vertex 16.464795 -18.286007 0.000000
      vertex 26.697561 -19.396913 0.000000
      vertex 12.303125 -21.309638 0.000000
    endloop
  endfacet
  facet normal 0.000000 0.000000 -1.000000
    outer loop
      vertex 19.906874 -14.463191 0.000000
      vertex 26.697561 -19.396913 0.000000
      vertex 16.464795 -18.286007 0.000000
    endloop
  endfacet
  facet normal 0.000000 0.000000 -1.000000
    outer loop
      vertex 12.303125 -21.309638 0.000000
      vertex 22.081310 -24.523779 0.000000
      vertex 7.603749 -23.401934 0.000000
    endloop
  endfacet
  facet normal 0.000000 0.000000 -1.000000
    outer loop
      vertex 7.603749 -23.401934 0.000000
      vertex 16.500000 -28.578838 0.000000
      vertex 4.000000 -24.167934 0.000000
    endloop
  endfacet
  facet normal -0.000000 0.000000 -1.000000
    outer loop
      vertex 24.068544 5.115927 0.000000
      vertex 32.278871 6.861086 0.000000
      vertex 24.606250 0.000000 0.000000
    endloop
  endfacet
  facet normal 0.000000 0.000000 -1.000000
    outer loop
      vertex 19.906874 14.463191 0.000000
      vertex 30.147000 13.422309 0.000000
      vertex 22.478928 10.008264 0.000000
    endloop
  endfacet
  facet normal 0.000000 0.000000 -1.000000
    outer loop
      vertex 22.478928 10.008264 0.000000
      vertex 32.278871 6.861086 0.000000
      vertex 24.068544 5.115927 0.000000
    endloop
  endfacet
  facet normal 0.000000 0.000000 -1.000000
    outer loop
      vertex 24.606250 0.000000 0.000000
      vertex 33.000000 0.000000 0.000000
      vertex 24.068544 -5.115927 0.000000
    endloop
  endfacet
  facet normal -0.000000 0.000000 -1.000000
    outer loop
      vertex 4.000000 24.167934 0.000000
      vertex 10.197561 31.384865 0.000000
      vertex 7.603749 23.401934 0.000000
    endloop
  endfacet
  facet normal -0.000000 0.000000 -1.000000
    outer loop
      vertex 4.000000 29.000000 0.000000
      vertex 10.197561 31.384865 0.000000
      vertex 4.000000 24.167934 0.000000
    endloop
  endfacet
  facet normal 0.000000 0.000000 -1.000000
    outer loop
      vertex -12.303125 21.309638 0.000000
      vertex -3.449439 32.819223 0.000000
      vertex -4.000000 29.000000 0.000000
    endloop
  endfacet
  facet normal -0.000000 0.000000 -1.000000
    outer loop
      vertex 16.464795 18.286007 0.000000
      vertex 26.697561 19.396913 0.000000
      vertex 19.906874 14.463191 0.000000
    endloop
  endfacet
  facet normal 0.000000 0.000000 -1.000000
    outer loop
      vertex -4.000000 24.167934 0.000000
      vertex -7.603749 23.401934 0.000000
      vertex -4.000000 29.000000 0.000000
    endloop
  endfacet
  facet normal -0.000000 0.000000 -1.000000
    outer loop
      vertex 7.603749 23.401934 0.000000
      vertex 16.500000 28.578838 0.000000
      vertex 12.303125 21.309638 0.000000
    endloop
  endfacet
  facet normal -0.000000 0.000000 -1.000000
    outer loop
      vertex 12.303125 21.309638 0.000000
      vertex 22.081310 24.523779 0.000000
      vertex 16.464795 18.286007 0.000000
    endloop
  endfacet
  facet normal 0.000000 0.000000 -1.000000
    outer loop
      vertex -16.464795 18.286007 0.000000
      vertex -10.197561 31.384865 0.000000
      vertex -12.303125 21.309638 0.000000
    endloop
  endfacet
  facet normal 0.000000 0.000000 -1.000000
    outer loop
      vertex -19.906874 14.463191 0.000000
      vertex -10.197561 31.384865 0.000000
      vertex -16.464795 18.286007 0.000000
    endloop
  endfacet
  facet normal 0.000000 0.000000 -1.000000
    outer loop
      vertex -32.278871 -6.861086 0.000000
      vertex -10.197561 31.384865 0.000000
      vertex -19.906874 14.463191 0.000000
    endloop
  endfacet
  facet normal 0.000000 0.000000 -1.000000
    outer loop
      vertex -32.278871 -6.861086 0.000000
      vertex -19.906874 14.463191 0.000000
      vertex -22.478928 10.008264 0.000000
    endloop
  endfacet
  facet normal 0.000000 -0.000000 -1.000000
    outer loop
      vertex -24.606250 0.000000 0.000000
      vertex -32.278871 -6.861086 0.000000
      vertex -24.068544 5.115927 0.000000
    endloop
  endfacet
  facet normal 0.000000 -0.000000 -1.000000
    outer loop
      vertex -24.068544 5.115927 0.000000
      vertex -32.278871 -6.861086 0.000000
      vertex -22.478928 10.008264 0.000000
    endloop
  endfacet
  facet normal -0.000000 0.000000 -1.000000
    outer loop
      vertex -4.000000 29.000000 0.000000
      vertex 3.449439 32.819223 0.000000
      vertex 4.000000 29.000000 0.000000
    endloop
  endfacet
  facet normal 0.000000 0.000000 -1.000000
    outer loop
      vertex 22.478928 -10.008264 0.000000
      vertex 30.147000 -13.422309 0.000000
      vertex 19.906874 -14.463191 0.000000
    endloop
  endfacet
  facet normal -0.994522 0.104528 0.000000
    outer loop
      vertex -33.000000 0.000000 0.000000
      vertex -33.000000 0.000000 22.000000
      vertex -32.278871 6.861086 0.000000
    endloop
  endfacet
  facet normal -0.994522 0.104528 0.000000
    outer loop
      vertex -32.278871 6.861086 0.000000
      vertex -33.000000 0.000000 22.000000
      vertex -32.278871 6.861086 22.000000
    endloop
  endfacet
  facet normal -0.994522 -0.104528 -0.000000
    outer loop
      vertex -33.000000 0.000000 0.000000
      vertex -32.278871 -6.861086 0.000000
      vertex -33.000000 0.000000 22.000000
    endloop
  endfacet
  facet normal -0.994522 -0.104528 0.000000
    outer loop
      vertex -33.000000 0.000000 22.000000
      vertex -32.278871 -6.861086 0.000000
      vertex -32.278871 -6.861086 22.000000
    endloop
  endfacet
  facet normal -0.951056 -0.309017 -0.000000
    outer loop
      vertex -32.278871 -6.861086 0.000000
      vertex -30.147000 -13.422309 0.000000
      vertex -32.278871 -6.861086 22.000000
    endloop
  endfacet
  facet normal -0.951056 -0.309017 0.000000
    outer loop
      vertex -32.278871 -6.861086 22.000000
      vertex -30.147000 -13.422309 0.000000
      vertex -30.147000 -13.422309 22.000000
    endloop
  endfacet
  facet normal -0.866025 -0.500000 -0.000000
    outer loop
      vertex -30.147000 -13.422309 0.000000
      vertex -26.697561 -19.396913 0.000000
      vertex -30.147000 -13.422309 22.000000
    endloop
  endfacet
  facet normal -0.866025 -0.500000 0.000000
    outer loop
      vertex -30.147000 -13.422309 22.000000
      vertex -26.697561 -19.396913 0.000000
      vertex -26.697561 -19.396913 22.000000
    endloop
  endfacet
  facet normal -0.743145 -0.669131 -0.000000
    outer loop
      vertex -26.697561 -19.396913 0.000000
      vertex -22.081310 -24.523779 0.000000
      vertex -26.697561 -19.396913 22.000000
    endloop
  endfacet
  facet normal -0.743145 -0.669131 0.000000
    outer loop
      vertex -26.697561 -19.396913 22.000000
      vertex -22.081310 -24.523779 0.000000
      vertex -22.081310 -24.523779 22.000000
    endloop
  endfacet
  facet normal -0.587785 -0.809017 0.000000
    outer loop
      vertex -22.081310 -24.523779 22.000000
      vertex -22.081310 -24.523779 0.000000
      vertex -16.500000 -28.578838 0.000000
    endloop
  endfacet
  facet normal -0.587785 -0.809017 0.000000
    outer loop
      vertex -16.500000 -28.578838 22.000000
      vertex -22.081310 -24.523779 22.000000
      vertex -16.500000 -28.578838 0.000000
    endloop
  endfacet
  facet normal -0.406737 -0.913545 0.000000
    outer loop
      vertex -16.500000 -28.578838 22.000000
      vertex -16.500000 -28.578838 0.000000
      vertex -10.197561 -31.384865 0.000000
    endloop
  endfacet
  facet normal -0.406737 -0.913545 0.000000
    outer loop
      vertex -10.197561 -31.384865 22.000000
      vertex -16.500000 -28.578838 22.000000
      vertex -10.197561 -31.384865 0.000000
    endloop
  endfacet
  facet normal -0.207912 -0.978148 0.000000
    outer loop
      vertex -10.197561 -31.384865 22.000000
      vertex -10.197561 -31.384865 0.000000
      vertex -3.449439 -32.819223 0.000000
    endloop
  endfacet
  facet normal -0.207912 -0.978148 0.000000
    outer loop
      vertex -3.449439 -32.819223 22.000000
      vertex -10.197561 -31.384865 22.000000
      vertex -3.449439 -32.819223 0.000000
    endloop
  endfacet
  facet normal 0.000000 -1.000000 0.000000
    outer loop
      vertex -3.449439 -32.819223 22.000000
      vertex -3.449439 -32.819223 0.000000
      vertex 3.449439 -32.819223 0.000000
    endloop
  endfacet
  facet normal 0.000000 -1.000000 0.000000
    outer loop
      vertex 3.449439 -32.819223 22.000000
      vertex -3.449439 -32.819223 22.000000
      vertex 3.449439 -32.819223 0.000000
    endloop
  endfacet
  facet normal 0.207912 -0.978148 0.000000
    outer loop
      vertex 3.449439 -32.819223 22.000000
      vertex 3.449439 -32.819223 0.000000
      vertex 10.197561 -31.384865 0.000000
    endloop
  endfacet
  facet normal 0.207912 -0.978148 0.000000
    outer loop
      vertex 10.197561 -31.384865 22.000000
      vertex 3.449439 -32.819223 22.000000
      vertex 10.197561 -31.384865 0.000000
    endloop
  endfacet
  facet normal 0.406737 -0.913545 0.000000
    outer loop
      vertex 10.197561 -31.384865 22.000000
      vertex 10.197561 -31.384865 0.000000
      vertex 16.500000 -28.578838 0.000000
    endloop
  endfacet
  facet normal 0.406737 -0.913545 0.000000
    outer loop
      vertex 16.500000 -28.578838 22.000000
      vertex 10.197561 -31.384865 22.000000
      vertex 16.500000 -28.578838 0.000000
    endloop
  endfacet
  facet normal 0.587785 -0.809017 0.000000
    outer loop
      vertex 16.500000 -28.578838 22.000000
      vertex 16.500000 -28.578838 0.000000
      vertex 22.081310 -24.523779 0.000000
    endloop
  endfacet
  facet normal 0.587785 -0.809017 0.000000
    outer loop
      vertex 22.081310 -24.523779 22.000000
      vertex 16.500000 -28.578838 22.000000
      vertex 22.081310 -24.523779 0.000000
    endloop
  endfacet
  facet normal 0.743145 -0.669131 0.000000
    outer loop
      vertex 22.081310 -24.523779 22.000000
      vertex 22.081310 -24.523779 0.000000
      vertex 26.697561 -19.396913 0.000000
    endloop
  endfacet
  facet normal 0.743145 -0.669131 0.000000
    outer loop
      vertex 26.697561 -19.396913 22.000000
      vertex 22.081310 -24.523779 22.000000
      vertex 26.697561 -19.396913 0.000000
    endloop
  endfacet
  facet normal 0.866025 -0.500000 0.000000
    outer loop
      vertex 26.697561 -19.396913 22.000000
      vertex 26.697561 -19.396913 0.000000
      vertex 30.147000 -13.422309 0.000000
    endloop
  endfacet
  facet normal 0.866025 -0.500000 0.000000
    outer loop
      vertex 30.147000 -13.422309 22.000000
      vertex 26.697561 -19.396913 22.000000
      vertex 30.147000 -13.422309 0.000000
    endloop
  endfacet
  facet normal 0.951056 -0.309017 0.000000
    outer loop
      vertex 30.147000 -13.422309 22.000000
      vertex 30.147000 -13.422309 0.000000
      vertex 32.278871 -6.861086 0.000000
    endloop
  endfacet
  facet normal 0.951056 -0.309017 0.000000
    outer loop
      vertex 32.278871 -6.861086 22.000000
      vertex 30.147000 -13.422309 22.000000
      vertex 32.278871 -6.861086 0.000000
    endloop
  endfacet
  facet normal 0.994522 -0.104528 0.000000
    outer loop
      vertex 32.278871 -6.861086 22.000000
      vertex 32.278871 -6.861086 0.000000
      vertex 33.000000 0.000000 0.000000
    endloop
  endfacet
  facet normal 0.994522 -0.104528 0.000000
    outer loop
      vertex 33.000000 0.000000 22.000000
      vertex 32.278871 -6.861086 22.000000
      vertex 33.000000 0.000000 0.000000
    endloop
  endfacet
  facet normal 0.994522 0.104528 0.000000
    outer loop
      vertex 33.000000 0.000000 0.000000
      vertex 32.278871 6.861086 0.000000
      vertex 32.278871 6.861086 22.000000
    endloop
  endfacet
  facet normal 0.994522 0.104528 -0.000000
    outer loop
      vertex 33.000000 0.000000 22.000000
      vertex 33.000000 0.000000 0.000000
      vertex 32.278871 6.861086 22.000000
    endloop
  endfacet
  facet normal 0.951056 0.309017 0.000000
    outer loop
      vertex 32.278871 6.861086 0.000000
      vertex 30.147000 13.422309 0.000000
      vertex 30.147000 13.422309 22.000000
    endloop
  endfacet
  facet normal 0.951056 0.309017 -0.000000
    outer loop
      vertex 32.278871 6.861086 22.000000
      vertex 32.278871 6.861086 0.000000
      vertex 30.147000 13.422309 22.000000
    endloop
  endfacet
  facet normal 0.866025 0.500000 0.000000
    outer loop
      vertex 30.147000 13.422309 0.000000
      vertex 26.697561 19.396913 0.000000
      vertex 26.697561 19.396913 22.000000
    endloop
  endfacet
  facet normal 0.866025 0.500000 -0.000000
    outer loop
      vertex 30.147000 13.422309 22.000000
      vertex 30.147000 13.422309 0.000000
      vertex 26.697561 19.396913 22.000000
    endloop
  endfacet
  facet normal 0.743145 0.669131 0.000000
    outer loop
      vertex 26.697561 19.396913 0.000000
      vertex 22.081310 24.523779 0.000000
      vertex 22.081310 24.523779 22.000000
    endloop
  endfacet
  facet normal 0.743145 0.669131 -0.000000
    outer loop
      vertex 26.697561 19.396913 22.000000
      vertex 26.697561 19.396913 0.000000
      vertex 22.081310 24.523779 22.000000
    endloop
  endfacet
  facet normal 0.587785 0.809017 0.000000
    outer loop
      vertex 16.500000 28.578838 0.000000
      vertex 16.500000 28.578838 22.000000
      vertex 22.081310 24.523779 0.000000
    endloop
  endfacet
  facet normal 0.587785 0.809017 0.000000
    outer loop
      vertex 22.081310 24.523779 0.000000
      vertex 16.500000 28.578838 22.000000
      vertex 22.081310 24.523779 22.000000
    endloop
  endfacet
  facet normal 0.406737 0.913545 0.000000
    outer loop
      vertex 10.197561 31.384865 0.000000
      vertex 10.197561 31.384865 22.000000
      vertex 16.500000 28.578838 0.000000
    endloop
  endfacet
  facet normal 0.406737 0.913545 0.000000
    outer loop
      vertex 16.500000 28.578838 0.000000
      vertex 10.197561 31.384865 22.000000
      vertex 16.500000 28.578838 22.000000
    endloop
  endfacet
  facet normal 0.207912 0.978148 0.000000
    outer loop
      vertex 3.449439 32.819223 0.000000
      vertex 3.449439 32.819223 22.000000
      vertex 10.197561 31.384865 0.000000
    endloop
  endfacet
  facet normal 0.207912 0.978148 0.000000
    outer loop
      vertex 10.197561 31.384865 0.000000
      vertex 3.449439 32.819223 22.000000
      vertex 10.197561 31.384865 22.000000
    endloop
  endfacet
  facet normal 0.000000 1.000000 0.000000
    outer loop
      vertex -3.449439 32.819223 0.000000
      vertex -3.449439 32.819223 22.000000
      vertex 3.449439 32.819223 0.000000
    endloop
  endfacet
  facet normal 0.000000 1.000000 0.000000
    outer loop
      vertex 3.449439 32.819223 0.000000
      vertex -3.449439 32.819223 22.000000
      vertex 3.449439 32.819223 22.000000
    endloop
  endfacet
  facet normal -0.207912 0.978148 0.000000
    outer loop
      vertex -10.197561 31.384865 0.000000
      vertex -10.197561 31.384865 22.000000
      vertex -3.449439 32.819223 0.000000
    endloop
  endfacet
  facet normal -0.207912 0.978148 0.000000
    outer loop
      vertex -3.449439 32.819223 0.000000
      vertex -10.197561 31.384865 22.000000
      vertex -3.449439 32.819223 22.000000
    endloop
  endfacet
  facet normal -0.406737 0.913545 0.000000
    outer loop
      vertex -16.500000 28.578838 0.000000
      vertex -16.500000 28.578838 22.000000
      vertex -10.197561 31.384865 0.000000
    endloop
  endfacet
  facet normal -0.406737 0.913545 0.000000
    outer loop
      vertex -10.197561 31.384865 0.000000
      vertex -16.500000 28.578838 22.000000
      vertex -10.197561 31.384865 22.000000
    endloop
  endfacet
  facet normal -0.587785 0.809017 0.000000
    outer loop
      vertex -22.081310 24.523779 0.000000
      vertex -22.081310 24.523779 22.000000
      vertex -16.500000 28.578838 0.000000
    endloop
  endfacet
  facet normal -0.587785 0.809017 0.000000
    outer loop
      vertex -16.500000 28.578838 0.000000
      vertex -22.081310 24.523779 22.000000
      vertex -16.500000 28.578838 22.000000
    endloop
  endfacet
  facet normal -0.743145 0.669131 0.000000
    outer loop
      vertex -26.697561 19.396913 0.000000
      vertex -26.697561 19.396913 22.000000
      vertex -22.081310 24.523779 0.000000
    endloop
  endfacet
  facet normal -0.743145 0.669131 0.000000
    outer loop
      vertex -22.081310 24.523779 0.000000
      vertex -26.697561 19.396913 22.000000
      vertex -22.081310 24.523779 22.000000
    endloop
  endfacet
  facet normal -0.866025 0.500000 0.000000
    outer loop
      vertex -30.147000 13.422309 0.000000
      vertex -30.147000 13.422309 22.000000
      vertex -26.697561 19.396913 0.000000
    endloop
  endfacet
  facet normal -0.866025 0.500000 0.000000
    outer loop
      vertex -26.697561 19.396913 0.000000
      vertex -30.147000 13.422309 22.000000
      vertex -26.697561 19.396913 22.000000
    endloop
  endfacet
  facet normal -0.951056 0.309017 0.000000
    outer loop
      vertex -32.278871 6.861086 0.000000
      vertex -32.278871 6.861086 22.000000
      vertex -30.147000 13.422309 0.000000
    endloop
  endfacet
  facet normal -0.951056 0.309017 0.000000
    outer loop
      vertex -30.147000 13.422309 0.000000
      vertex -32.278871 6.861086 22.000000
      vertex -30.147000 13.422309 22.000000
    endloop
  endfacet
  facet normal 0.994522 -0.104529 0.000000
    outer loop
      vertex -24.068544 5.115927 0.000000
      vertex -24.068544 5.115927 22.000000
      vertex -24.606250 0.000000 22.000000
    endloop
  endfacet
  facet normal 0.994522 -0.104529 0.000000
    outer loop
      vertex -24.606250 0.000000 0.000000
      vertex -24.068544 5.115927 0.000000
      vertex -24.606250 0.000000 22.000000
    endloop
  endfacet
  facet normal 0.994522 0.104529 0.000000
    outer loop
      vertex -24.606250 0.000000 22.000000
      vertex -24.068544 -5.115927 22.000000
      vertex -24.068544 -5.115927 0.000000
    endloop
  endfacet
  facet normal 0.994522 0.104529 0.000000
    outer loop
      vertex -24.606250 0.000000 0.000000
      vertex -24.606250 0.000000 22.000000
      vertex -24.068544 -5.115927 0.000000
    endloop
  endfacet
  facet normal 0.951057 -0.309017 0.000000
    outer loop
      vertex -22.478928 10.008264 0.000000
      vertex -22.478928 10.008264 22.000000
      vertex -24.068544 5.115927 22.000000
    endloop
  endfacet
  facet normal 0.951057 -0.309017 0.000000
    outer loop
      vertex -24.068544 5.115927 0.000000
      vertex -22.478928 10.008264 0.000000
      vertex -24.068544 5.115927 22.000000
    endloop
  endfacet
  facet normal 0.866025 -0.500000 0.000000
    outer loop
      vertex -19.906874 14.463191 0.000000
      vertex -19.906874 14.463191 22.000000
      vertex -22.478928 10.008264 22.000000
    endloop
  endfacet
  facet normal 0.866025 -0.500000 0.000000
    outer loop
      vertex -22.478928 10.008264 0.000000
      vertex -19.906874 14.463191 0.000000
      vertex -22.478928 10.008264 22.000000
    endloop
  endfacet
  facet normal 0.743145 -0.669131 0.000000
    outer loop
      vertex -16.464795 18.286007 0.000000
      vertex -16.464795 18.286007 22.000000
      vertex -19.906874 14.463191 22.000000
    endloop
  endfacet
  facet normal 0.743145 -0.669131 0.000000
    outer loop
      vertex -19.906874 14.463191 0.000000
      vertex -16.464795 18.286007 0.000000
      vertex -19.906874 14.463191 22.000000
    endloop
  endfacet
  facet normal 0.587785 -0.809017 0.000000
    outer loop
      vertex -12.303125 21.309638 0.000000
      vertex -12.303125 21.309638 22.000000
      vertex -16.464795 18.286007 22.000000
    endloop
  endfacet
  facet normal 0.587785 -0.809017 0.000000
    outer loop
      vertex -16.464795 18.286007 0.000000
      vertex -12.303125 21.309638 0.000000
      vertex -16.464795 18.286007 22.000000
    endloop
  endfacet
  facet normal 0.406736 -0.913546 0.000000
    outer loop
      vertex -7.603749 23.401934 0.000000
      vertex -7.603749 23.401934 22.000000
      vertex -12.303125 21.309638 22.000000
    endloop
  endfacet
  facet normal 0.406736 -0.913546 0.000000
    outer loop
      vertex -12.303125 21.309638 0.000000
      vertex -7.603749 23.401934 0.000000
      vertex -12.303125 21.309638 22.000000
    endloop
  endfacet
  facet normal 0.207912 -0.978148 0.000000
    outer loop
      vertex -2.572053 24.471454 30.000000
      vertex -4.000000 24.167934 9.000000
      vertex -2.572053 24.471454 9.000000
    endloop
  endfacet
  facet normal 0.207912 -0.978148 -0.000000
    outer loop
      vertex -3.500000 24.274213 22.000000
      vertex -4.000000 24.167934 9.000000
      vertex -2.572053 24.471454 30.000000
    endloop
  endfacet
  facet normal 0.207912 -0.978148 0.000000
    outer loop
      vertex -4.000000 24.167934 0.000000
      vertex -4.000000 24.167934 9.000000
      vertex -7.603749 23.401934 22.000000
    endloop
  endfacet
  facet normal 0.207912 -0.978148 0.000000
    outer loop
      vertex -3.500000 24.274213 30.000000
      vertex -3.500000 24.274213 22.000000
      vertex -2.572053 24.471454 30.000000
    endloop
  endfacet
  facet normal 0.207912 -0.978148 0.000000
    outer loop
      vertex -7.603749 23.401934 0.000000
      vertex -4.000000 24.167934 0.000000
      vertex -7.603749 23.401934 22.000000
    endloop
  endfacet
  facet normal 0.207912 -0.978148 -0.000000
    outer loop
      vertex -3.500000 24.274213 22.000000
      vertex -7.603749 23.401934 22.000000
      vertex -4.000000 24.167934 9.000000
    endloop
  endfacet
  facet normal 1.000000 0.000000 0.000000
    outer loop
      vertex -4.000000 29.000000 0.000000
      vertex -4.000000 29.000000 9.000000
      vertex -4.000000 24.167934 9.000000
    endloop
  endfacet
  facet normal 1.000000 0.000000 0.000000
    outer loop
      vertex -4.000000 24.167934 0.000000
      vertex -4.000000 29.000000 0.000000
      vertex -4.000000 24.167934 9.000000
    endloop
  endfacet
  facet normal 0.000000 -1.000000 0.000000
    outer loop
      vertex 4.000000 29.000000 0.000000
      vertex 4.000000 29.000000 9.000000
      vertex -4.000000 29.000000 9.000000
    endloop
  endfacet
  facet normal -0.000000 -1.000000 -0.000000
    outer loop
      vertex -4.000000 29.000000 0.000000
      vertex 4.000000 29.000000 0.000000
      vertex -4.000000 29.000000 9.000000
    endloop
  endfacet
  facet normal -1.000000 0.000000 0.000000
    outer loop
      vertex 4.000000 29.000000 9.000000
      vertex 4.000000 29.000000 0.000000
      vertex 4.000000 24.167934 9.000000
    endloop
  endfacet
  facet normal -1.000000 0.000000 0.000000
    outer loop
      vertex 4.000000 24.167934 9.000000
      vertex 4.000000 29.000000 0.000000
      vertex 4.000000 24.167934 0.000000
    endloop
  endfacet
  facet normal -0.207912 -0.978148 0.000000
    outer loop
      vertex 4.000000 24.167934 9.000000
      vertex 4.000000 24.167934 0.000000
      vertex 7.603749 23.401934 0.000000
    endloop
  endfacet
  facet normal -0.207912 -0.978148 -0.000000
    outer loop
      vertex 3.500000 24.274213 22.000000
      vertex 4.000000 24.167934 9.000000
      vertex 7.603749 23.401934 22.000000
    endloop
  endfacet
  facet normal -0.207912 -0.978148 0.000000
    outer loop
      vertex 7.603749 23.401934 22.000000
      vertex 4.000000 24.167934 9.000000
      vertex 7.603749 23.401934 0.000000
    endloop
  endfacet
  facet normal -0.207912 -0.978148 0.000000
    outer loop
      vertex 2.572053 24.471454 30.000000
      vertex 3.500000 24.274213 22.000000
      vertex 3.500000 24.274213 30.000000
    endloop
  endfacet
  facet normal -0.207912 -0.978148 -0.000000
    outer loop
      vertex 2.572053 24.471454 9.000000
      vertex 3.500000 24.274213 22.000000
      vertex 2.572053 24.471454 30.000000
    endloop
  endfacet
  facet normal -0.207912 -0.978148 -0.000000
    outer loop
      vertex 2.572053 24.471454 9.000000
      vertex 4.000000 24.167934 9.000000
      vertex 3.500000 24.274213 22.000000
    endloop
  endfacet
  facet normal -0.406736 -0.913546 -0.000000
    outer loop
      vertex 12.303125 21.309638 0.000000
      vertex 12.303125 21.309638 22.000000
      vertex 7.603749 23.401934 22.000000
    endloop
  endfacet
  facet normal -0.406736 -0.913546 -0.000000
    outer loop
      vertex 7.603749 23.401934 0.000000
      vertex 12.303125 21.309638 0.000000
      vertex 7.603749 23.401934 22.000000
    endloop
  endfacet
  facet normal -0.587785 -0.809017 -0.000000
    outer loop
      vertex 16.464795 18.286007 0.000000
      vertex 16.464795 18.286007 22.000000
      vertex 12.303125 21.309638 22.000000
    endloop
  endfacet
  facet normal -0.587785 -0.809017 -0.000000
    outer loop
      vertex 12.303125 21.309638 0.000000
      vertex 16.464795 18.286007 0.000000
      vertex 12.303125 21.309638 22.000000
    endloop
  endfacet
  facet normal -0.743145 -0.669131 0.000000
    outer loop
      vertex 19.906874 14.463191 22.000000
      vertex 16.464795 18.286007 22.000000
      vertex 19.906874 14.463191 0.000000
    endloop
  endfacet
  facet normal -0.743145 -0.669131 0.000000
    outer loop
      vertex 19.906874 14.463191 0.000000
      vertex 16.464795 18.286007 22.000000
      vertex 16.464795 18.286007 0.000000
    endloop
  endfacet
  facet normal -0.866025 -0.500000 0.000000
    outer loop
      vertex 22.478928 10.008264 22.000000
      vertex 19.906874 14.463191 22.000000
      vertex 22.478928 10.008264 0.000000
    endloop
  endfacet
  facet normal -0.866025 -0.500000 0.000000
    outer loop
      vertex 22.478928 10.008264 0.000000
      vertex 19.906874 14.463191 22.000000
      vertex 19.906874 14.463191 0.000000
    endloop
  endfacet
  facet normal -0.951057 -0.309017 0.000000
    outer loop
      vertex 24.068544 5.115927 22.000000
      vertex 22.478928 10.008264 22.000000
      vertex 24.068544 5.115927 0.000000
    endloop
  endfacet
  facet normal -0.951057 -0.309017 0.000000
    outer loop
      vertex 24.068544 5.115927 0.000000
      vertex 22.478928 10.008264 22.000000
      vertex 22.478928 10.008264 0.000000
    endloop
  endfacet
  facet normal -0.994522 -0.104529 0.000000
    outer loop
      vertex 24.606250 0.000000 22.000000
      vertex 24.068544 5.115927 22.000000
      vertex 24.606250 0.000000 0.000000
    endloop
  endfacet
  facet normal -0.994522 -0.104529 0.000000
    outer loop
      vertex 24.606250 0.000000 0.000000
      vertex 24.068544 5.115927 22.000000
      vertex 24.068544 5.115927 0.000000
    endloop
  endfacet
  facet normal -0.994522 0.104529 0.000000
    outer loop
      vertex 24.606250 0.000000 22.000000
      vertex 24.606250 0.000000 0.000000
      vertex 24.068544 -5.115927 22.000000
    endloop
  endfacet
  facet normal -0.994522 0.104529 0.000000
    outer loop
      vertex 24.068544 -5.115927 22.000000
      vertex 24.606250 0.000000 0.000000
      vertex 24.068544 -5.115927 0.000000
    endloop
  endfacet
  facet normal -0.951057 0.309017 0.000000
    outer loop
      vertex 24.068544 -5.115927 22.000000
      vertex 24.068544 -5.115927 0.000000
      vertex 22.478928 -10.008264 22.000000
    endloop
  endfacet
  facet normal -0.951057 0.309017 0.000000
    outer loop
      vertex 22.478928 -10.008264 22.000000
      vertex 24.068544 -5.115927 0.000000
      vertex 22.478928 -10.008264 0.000000
    endloop
  endfacet
  facet normal -0.866025 0.500000 0.000000
    outer loop
      vertex 22.478928 -10.008264 22.000000
      vertex 22.478928 -10.008264 0.000000
      vertex 19.906874 -14.463191 22.000000
    endloop
  endfacet
  facet normal -0.866025 0.500000 0.000000
    outer loop
      vertex 19.906874 -14.463191 22.000000
      vertex 22.478928 -10.008264 0.000000
      vertex 19.906874 -14.463191 0.000000
    endloop
  endfacet
  facet normal -0.743145 0.669131 0.000000
    outer loop
      vertex 19.906874 -14.463191 22.000000
      vertex 19.906874 -14.463191 0.000000
      vertex 16.464795 -18.286007 22.000000
    endloop
  endfacet
  facet normal -0.743145 0.669131 0.000000
    outer loop
      vertex 16.464795 -18.286007 22.000000
      vertex 19.906874 -14.463191 0.000000
      vertex 16.464795 -18.286007 0.000000
    endloop
  endfacet
  facet normal -0.587785 0.809017 0.000000
    outer loop
      vertex 16.464795 -18.286007 22.000000
      vertex 16.464795 -18.286007 0.000000
      vertex 12.303125 -21.309638 22.000000
    endloop
  endfacet
  facet normal -0.587785 0.809017 0.000000
    outer loop
      vertex 12.303125 -21.309638 22.000000
      vertex 16.464795 -18.286007 0.000000
      vertex 12.303125 -21.309638 0.000000
    endloop
  endfacet
  facet normal -0.406736 0.913546 0.000000
    outer loop
      vertex 12.303125 -21.309638 22.000000
      vertex 12.303125 -21.309638 0.000000
      vertex 7.603749 -23.401934 22.000000
    endloop
  endfacet
  facet normal -0.406736 0.913546 0.000000
    outer loop
      vertex 7.603749 -23.401934 22.000000
      vertex 12.303125 -21.309638 0.000000
      vertex 7.603749 -23.401934 0.000000
    endloop
  endfacet
  facet normal -0.207912 0.978148 0.000000
    outer loop
      vertex 3.500000 -24.274213 30.000000
      vertex 3.500000 -24.274213 22.000000
      vertex 2.572053 -24.471454 30.000000
    endloop
  endfacet
  facet normal -0.207912 0.978148 0.000000
    outer loop
      vertex 7.603749 -23.401934 0.000000
      vertex 3.500000 -24.274213 22.000000
      vertex 7.603749 -23.401934 22.000000
    endloop
  endfacet
  facet normal -0.207912 0.978148 -0.000000
    outer loop
      vertex 4.000000 -24.167934 9.000000
      vertex 3.500000 -24.274213 22.000000
      vertex 7.603749 -23.401934 0.000000
    endloop
  endfacet
  facet normal -0.207912 0.978148 0.000000
    outer loop
      vertex 4.000000 -24.167934 0.000000
      vertex 4.000000 -24.167934 9.000000
      vertex 7.603749 -23.401934 0.000000
    endloop
  endfacet
  facet normal -0.207912 0.978148 0.000000
    outer loop
      vertex 2.572053 -24.471454 9.000000
      vertex 2.572053 -24.471454 30.000000
      vertex 3.500000 -24.274213 22.000000
    endloop
  endfacet
  facet normal -0.207912 0.978148 -0.000000
    outer loop
      vertex 2.572053 -24.471454 9.000000
      vertex 3.500000 -24.274213 22.000000
      vertex 4.000000 -24.167934 9.000000
    endloop
  endfacet
  facet normal -1.000000 0.000000 0.000000
    outer loop
      vertex 4.000000 -24.167934 9.000000
      vertex 4.000000 -24.167934 0.000000
      vertex 4.000000 -29.000000 9.000000
    endloop
  endfacet
  facet normal -1.000000 0.000000 0.000000
    outer loop
      vertex 4.000000 -29.000000 9.000000
      vertex 4.000000 -24.167934 0.000000
      vertex 4.000000 -29.000000 0.000000
    endloop
  endfacet
  facet normal 0.000000 1.000000 0.000000
    outer loop
      vertex 4.000000 -29.000000 9.000000
      vertex 4.000000 -29.000000 0.000000
      vertex -4.000000 -29.000000 9.000000
    endloop
  endfacet
  facet normal 0.000000 1.000000 -0.000000
    outer loop
      vertex -4.000000 -29.000000 9.000000
      vertex 4.000000 -29.000000 0.000000
      vertex -4.000000 -29.000000 0.000000
    endloop
  endfacet
  facet normal 1.000000 0.000000 0.000000
    outer loop
      vertex -4.000000 -24.167934 0.000000
      vertex -4.000000 -24.167934 9.000000
      vertex -4.000000 -29.000000 9.000000
    endloop
  endfacet
  facet normal 1.000000 0.000000 0.000000
    outer loop
      vertex -4.000000 -29.000000 0.000000
      vertex -4.000000 -24.167934 0.000000
      vertex -4.000000 -29.000000 9.000000
    endloop
  endfacet
  facet normal 0.207912 0.978148 0.000000
    outer loop
      vertex -3.500000 -24.274213 22.000000
      vertex -3.500000 -24.274213 30.000000
      vertex -2.572053 -24.471454 30.000000
    endloop
  endfacet
  facet normal 0.207912 0.978148 0.000000
    outer loop
      vertex -3.500000 -24.274213 22.000000
      vertex -2.572053 -24.471454 30.000000
      vertex -2.572053 -24.471454 9.000000
    endloop
  endfacet
  facet normal 0.207912 0.978148 -0.000000
    outer loop
      vertex -3.500000 -24.274213 22.000000
      vertex -2.572053 -24.471454 9.000000
      vertex -7.603749 -23.401934 22.000000
    endloop
  endfacet
  facet normal 0.207912 0.978148 0.000000
    outer loop
      vertex -2.572053 -24.471454 9.000000
      vertex -4.000000 -24.167934 9.000000
      vertex -7.603749 -23.401934 22.000000
    endloop
  endfacet
  facet normal 0.207912 0.978148 -0.000000
    outer loop
      vertex -4.000000 -24.167934 9.000000
      vertex -4.000000 -24.167934 0.000000
      vertex -7.603749 -23.401934 22.000000
    endloop
  endfacet
  facet normal 0.207912 0.978148 0.000000
    outer loop
      vertex -4.000000 -24.167934 0.000000
      vertex -7.603749 -23.401934 0.000000
      vertex -7.603749 -23.401934 22.000000
    endloop
  endfacet
  facet normal 0.406736 0.913546 -0.000000
    outer loop
      vertex -7.603749 -23.401934 22.000000
      vertex -7.603749 -23.401934 0.000000
      vertex -12.303125 -21.309638 22.000000
    endloop
  endfacet
  facet normal 0.406736 0.913546 -0.000000
    outer loop
      vertex -12.303125 -21.309638 22.000000
      vertex -7.603749 -23.401934 0.000000
      vertex -12.303125 -21.309638 0.000000
    endloop
  endfacet
  facet normal 0.587785 0.809017 -0.000000
    outer loop
      vertex -12.303125 -21.309638 22.000000
      vertex -12.303125 -21.309638 0.000000
      vertex -16.464795 -18.286007 22.000000
    endloop
  endfacet
  facet normal 0.587785 0.809017 -0.000000
    outer loop
      vertex -16.464795 -18.286007 22.000000
      vertex -12.303125 -21.309638 0.000000
      vertex -16.464795 -18.286007 0.000000
    endloop
  endfacet
  facet normal 0.743145 0.669131 0.000000
    outer loop
      vertex -19.906874 -14.463191 22.000000
      vertex -16.464795 -18.286007 22.000000
      vertex -16.464795 -18.286007 0.000000
    endloop
  endfacet
  facet normal 0.743145 0.669131 0.000000
    outer loop
      vertex -19.906874 -14.463191 0.000000
      vertex -19.906874 -14.463191 22.000000
      vertex -16.464795 -18.286007 0.000000
    endloop
  endfacet
  facet normal 0.866025 0.500000 0.000000
    outer loop
      vertex -22.478928 -10.008264 22.000000
      vertex -19.906874 -14.463191 22.000000
      vertex -19.906874 -14.463191 0.000000
    endloop
  endfacet
  facet normal 0.866025 0.500000 0.000000
    outer loop
      vertex -22.478928 -10.008264 0.000000
      vertex -22.478928 -10.008264 22.000000
      vertex -19.906874 -14.463191 0.000000
    endloop
  endfacet
  facet normal 0.951057 0.309017 0.000000
    outer loop
      vertex -24.068544 -5.115927 22.000000
      vertex -22.478928 -10.008264 22.000000
      vertex -22.478928 -10.008264 0.000000
    endloop
  endfacet
  facet normal 0.951057 0.309017 0.000000
    outer loop
      vertex -24.068544 -5.115927 0.000000
      vertex -24.068544 -5.115927 22.000000
      vertex -22.478928 -10.008264 0.000000
    endloop
  endfacet
  facet normal 0.000000 0.000000 1.000000
    outer loop
      vertex -32.278871 6.861086 22.000000
      vertex -33.000000 0.000000 22.000000
      vertex -32.278871 -6.861086 22.000000
    endloop
  endfacet
  facet normal 0.000000 0.000000 1.000000
    outer loop
      vertex -26.697561 -19.396913 22.000000
      vertex -32.278871 6.861086 22.000000
      vertex -30.147000 -13.422309 22.000000
    endloop
  endfacet
  facet normal 0.000000 0.000000 1.000000
    outer loop
      vertex -30.147000 -13.422309 22.000000
      vertex -32.278871 6.861086 22.000000
      vertex -32.278871 -6.861086 22.000000
    endloop
  endfacet
  facet normal 0.000000 0.000000 1.000000
    outer loop
      vertex -22.081310 -24.523779 22.000000
      vertex -32.278871 6.861086 22.000000
      vertex -26.697561 -19.396913 22.000000
    endloop
  endfacet
  facet normal 0.000000 0.000000 1.000000
    outer loop
      vertex -16.500000 -28.578838 22.000000
      vertex -32.278871 6.861086 22.000000
      vertex -22.081310 -24.523779 22.000000
    endloop
  endfacet
  facet normal 0.000000 0.000000 1.000000
    outer loop
      vertex -10.197561 -31.384865 22.000000
      vertex -32.278871 6.861086 22.000000
      vertex -16.500000 -28.578838 22.000000
    endloop
  endfacet
  facet normal -0.000000 -0.000000 1.000000
    outer loop
      vertex -19.906874 -14.463191 22.000000
      vertex -32.278871 6.861086 22.000000
      vertex -10.197561 -31.384865 22.000000
    endloop
  endfacet
  facet normal 0.000000 -0.000000 1.000000
    outer loop
      vertex 3.500000 -24.274213 22.000000
      vertex 3.500000 -28.000000 22.000000
      vertex 10.197561 -31.384865 22.000000
    endloop
  endfacet
  facet normal -0.000000 0.000000 1.000000
    outer loop
      vertex -3.500000 24.274213 22.000000
      vertex -3.500000 28.000000 22.000000
      vertex -7.603749 23.401934 22.000000
    endloop
  endfacet
  facet normal 0.000000 0.000000 1.000000
    outer loop
      vertex 16.464795 18.286007 22.000000
      vertex 19.906874 14.463191 22.000000
      vertex 26.697561 19.396913 22.000000
    endloop
  endfacet
  facet normal -0.000000 0.000000 1.000000
    outer loop
      vertex -12.303125 21.309638 22.000000
      vertex -3.500000 28.000000 22.000000
      vertex -32.278871 6.861086 22.000000
    endloop
  endfacet
  facet normal 0.000000 -0.000000 1.000000
    outer loop
      vertex -10.197561 31.384865 22.000000
      vertex -32.278871 6.861086 22.000000
      vertex -3.449439 32.819223 22.000000
    endloop
  endfacet
  facet normal 0.000000 -0.000000 1.000000
    outer loop
      vertex -16.500000 28.578838 22.000000
      vertex -32.278871 6.861086 22.000000
      vertex -10.197561 31.384865 22.000000
    endloop
  endfacet
  facet normal 0.000000 -0.000000 1.000000
    outer loop
      vertex -22.081310 24.523779 22.000000
      vertex -32.278871 6.861086 22.000000
      vertex -16.500000 28.578838 22.000000
    endloop
  endfacet
  facet normal 0.000000 -0.000000 1.000000
    outer loop
      vertex -26.697561 19.396913 22.000000
      vertex -32.278871 6.861086 22.000000
      vertex -22.081310 24.523779 22.000000
    endloop
  endfacet
  facet normal 0.000000 -0.000000 1.000000
    outer loop
      vertex -30.147000 13.422309 22.000000
      vertex -32.278871 6.861086 22.000000
      vertex -26.697561 19.396913 22.000000
    endloop
  endfacet
  facet normal 0.000000 0.000000 1.000000
    outer loop
      vertex -24.606250 0.000000 22.000000
      vertex -24.068544 5.115927 22.000000
      vertex -32.278871 6.861086 22.000000
    endloop
  endfacet
  facet normal 0.000000 -0.000000 1.000000
    outer loop
      vertex 19.906874 -14.463191 22.000000
      vertex 16.464795 -18.286007 22.000000
      vertex 26.697561 -19.396913 22.000000
    endloop
  endfacet
  facet normal 0.000000 0.000000 1.000000
    outer loop
      vertex 19.906874 14.463191 22.000000
      vertex 22.478928 10.008264 22.000000
      vertex 30.147000 13.422309 22.000000
    endloop
  endfacet
  facet normal -0.000000 0.000000 1.000000
    outer loop
      vertex -7.603749 23.401934 22.000000
      vertex -3.500000 28.000000 22.000000
      vertex -12.303125 21.309638 22.000000
    endloop
  endfacet
  facet normal 0.000000 0.000000 1.000000
    outer loop
      vertex 3.500000 24.274213 22.000000
      vertex 7.603749 23.401934 22.000000
      vertex 16.500000 28.578838 22.000000
    endloop
  endfacet
  facet normal 0.000000 0.000000 1.000000
    outer loop
      vertex -16.464795 18.286007 22.000000
      vertex -32.278871 6.861086 22.000000
      vertex -19.906874 14.463191 22.000000
    endloop
  endfacet
  facet normal 0.000000 0.000000 1.000000
    outer loop
      vertex -3.500000 28.000000 22.000000
      vertex 3.500000 28.000000 22.000000
      vertex 10.197561 31.384865 22.000000
    endloop
  endfacet
  facet normal 0.000000 -0.000000 1.000000
    outer loop
      vertex 3.500000 28.000000 22.000000
      vertex 3.500000 24.274213 22.000000
      vertex 10.197561 31.384865 22.000000
    endloop
  endfacet
  facet normal 0.000000 0.000000 1.000000
    outer loop
      vertex -3.500000 28.000000 22.000000
      vertex 10.197561 31.384865 22.000000
      vertex 3.449439 32.819223 22.000000
    endloop
  endfacet
  facet normal 0.000000 0.000000 1.000000
    outer loop
      vertex 7.603749 23.401934 22.000000
      vertex 12.303125 21.309638 22.000000
      vertex 22.081310 24.523779 22.000000
    endloop
  endfacet
  facet normal 0.000000 -0.000000 1.000000
    outer loop
      vertex -3.449439 32.819223 22.000000
      vertex -3.500000 28.000000 22.000000
      vertex 3.449439 32.819223 22.000000
    endloop
  endfacet
  facet normal 0.000000 0.000000 1.000000
    outer loop
      vertex -3.449439 32.819223 22.000000
      vertex -32.278871 6.861086 22.000000
      vertex -3.500000 28.000000 22.000000
    endloop
  endfacet
  facet normal 0.000000 -0.000000 1.000000
    outer loop
      vertex 10.197561 31.384865 22.000000
      vertex 3.500000 24.274213 22.000000
      vertex 16.500000 28.578838 22.000000
    endloop
  endfacet
  facet normal 0.000000 -0.000000 1.000000
    outer loop
      vertex 16.500000 28.578838 22.000000
      vertex 7.603749 23.401934 22.000000
      vertex 22.081310 24.523779 22.000000
    endloop
  endfacet
  facet normal 0.000000 0.000000 1.000000
    outer loop
      vertex -12.303125 21.309638 22.000000
      vertex -32.278871 6.861086 22.000000
      vertex -16.464795 18.286007 22.000000
    endloop
  endfacet
  facet normal 0.000000 -0.000000 1.000000
    outer loop
      vertex 22.081310 24.523779 22.000000
      vertex 12.303125 21.309638 22.000000
      vertex 26.697561 19.396913 22.000000
    endloop
  endfacet
  facet normal 0.000000 0.000000 1.000000
    outer loop
      vertex 12.303125 21.309638 22.000000
      vertex 16.464795 18.286007 22.000000
      vertex 26.697561 19.396913 22.000000
    endloop
  endfacet
  facet normal 0.000000 -0.000000 1.000000
    outer loop
      vertex 26.697561 19.396913 22.000000
      vertex 19.906874 14.463191 22.000000
      vertex 30.147000 13.422309 22.000000
    endloop
  endfacet
  facet normal 0.000000 -0.000000 1.000000
    outer loop
      vertex 30.147000 13.422309 22.000000
      vertex 22.478928 10.008264 22.000000
      vertex 32.278871 6.861086 22.000000
    endloop
  endfacet
  facet normal 0.000000 -0.000000 1.000000
    outer loop
      vertex 12.303125 -21.309638 22.000000
      vertex 7.603749 -23.401934 22.000000
      vertex 16.500000 -28.578838 22.000000
    endloop
  endfacet
  facet normal 0.000000 -0.000000 1.000000
    outer loop
      vertex 32.278871 6.861086 22.000000
      vertex 24.068544 5.115927 22.000000
      vertex 33.000000 0.000000 22.000000
    endloop
  endfacet
  facet normal -0.000000 0.000000 1.000000
    outer loop
      vertex -22.478928 10.008264 22.000000
      vertex -19.906874 14.463191 22.000000
      vertex -32.278871 6.861086 22.000000
    endloop
  endfacet
  facet normal 0.000000 0.000000 1.000000
    outer loop
      vertex 33.000000 0.000000 22.000000
      vertex 24.606250 0.000000 22.000000
      vertex 32.278871 -6.861086 22.000000
    endloop
  endfacet
  facet normal 0.000000 -0.000000 1.000000
    outer loop
      vertex 24.606250 0.000000 22.000000
      vertex 24.068544 -5.115927 22.000000
      vertex 32.278871 -6.861086 22.000000
    endloop
  endfacet
  facet normal 0.000000 0.000000 1.000000
    outer loop
      vertex 32.278871 -6.861086 22.000000
      vertex 22.478928 -10.008264 22.000000
      vertex 30.147000 -13.422309 22.000000
    endloop
  endfacet
  facet normal 0.000000 0.000000 1.000000
    outer loop
      vertex 30.147000 -13.422309 22.000000
      vertex 19.906874 -14.463191 22.000000
      vertex 26.697561 -19.396913 22.000000
    endloop
  endfacet
  facet normal 0.000000 0.000000 1.000000
    outer loop
      vertex 22.478928 10.008264 22.000000
      vertex 24.068544 5.115927 22.000000
      vertex 32.278871 6.861086 22.000000
    endloop
  endfacet
  facet normal -0.000000 0.000000 1.000000
    outer loop
      vertex 26.697561 -19.396913 22.000000
      vertex 16.464795 -18.286007 22.000000
      vertex 22.081310 -24.523779 22.000000
    endloop
  endfacet
  facet normal 0.000000 0.000000 1.000000
    outer loop
      vertex 24.068544 5.115927 22.000000
      vertex 24.606250 0.000000 22.000000
      vertex 33.000000 0.000000 22.000000
    endloop
  endfacet
  facet normal -0.000000 0.000000 1.000000
    outer loop
      vertex 22.081310 -24.523779 22.000000
      vertex 12.303125 -21.309638 22.000000
      vertex 16.500000 -28.578838 22.000000
    endloop
  endfacet
  facet normal 0.000000 -0.000000 1.000000
    outer loop
      vertex 24.068544 -5.115927 22.000000
      vertex 22.478928 -10.008264 22.000000
      vertex 32.278871 -6.861086 22.000000
    endloop
  endfacet
  facet normal -0.000000 0.000000 1.000000
    outer loop
      vertex 16.500000 -28.578838 22.000000
      vertex 7.603749 -23.401934 22.000000
      vertex 10.197561 -31.384865 22.000000
    endloop
  endfacet
  facet normal 0.000000 -0.000000 1.000000
    outer loop
      vertex 7.603749 -23.401934 22.000000
      vertex 3.500000 -24.274213 22.000000
      vertex 10.197561 -31.384865 22.000000
    endloop
  endfacet
  facet normal -0.000000 0.000000 1.000000
    outer loop
      vertex 10.197561 -31.384865 22.000000
      vertex 3.500000 -28.000000 22.000000
      vertex 3.449439 -32.819223 22.000000
    endloop
  endfacet
  facet normal 0.000000 -0.000000 1.000000
    outer loop
      vertex 16.464795 -18.286007 22.000000
      vertex 12.303125 -21.309638 22.000000
      vertex 22.081310 -24.523779 22.000000
    endloop
  endfacet
  facet normal -0.000000 0.000000 1.000000
    outer loop
      vertex 3.449439 -32.819223 22.000000
      vertex -3.500000 -28.000000 22.000000
      vertex -3.449439 -32.819223 22.000000
    endloop
  endfacet
  facet normal -0.000000 -0.000000 1.000000
    outer loop
      vertex -7.603749 -23.401934 22.000000
      vertex -12.303125 -21.309638 22.000000
      vertex -3.449439 -32.819223 22.000000
    endloop
  endfacet
  facet normal -0.000000 -0.000000 1.000000
    outer loop
      vertex -3.500000 -28.000000 22.000000
      vertex -7.603749 -23.401934 22.000000
      vertex -3.449439 -32.819223 22.000000
    endloop
  endfacet
  facet normal 0.000000 0.000000 1.000000
    outer loop
      vertex 3.500000 -28.000000 22.000000
      vertex -3.500000 -28.000000 22.000000
      vertex 3.449439 -32.819223 22.000000
    endloop
  endfacet
  facet normal 0.000000 0.000000 1.000000
    outer loop
      vertex -3.449439 -32.819223 22.000000
      vertex -12.303125 -21.309638 22.000000
      vertex -10.197561 -31.384865 22.000000
    endloop
  endfacet
  facet normal -0.000000 -0.000000 1.000000
    outer loop
      vertex -12.303125 -21.309638 22.000000
      vertex -16.464795 -18.286007 22.000000
      vertex -10.197561 -31.384865 22.000000
    endloop
  endfacet
  facet normal -0.000000 -0.000000 1.000000
    outer loop
      vertex -22.478928 -10.008264 22.000000
      vertex -32.278871 6.861086 22.000000
      vertex -19.906874 -14.463191 22.000000
    endloop
  endfacet
  facet normal -0.000000 -0.000000 1.000000
    outer loop
      vertex -24.068544 -5.115927 22.000000
      vertex -32.278871 6.861086 22.000000
      vertex -22.478928 -10.008264 22.000000
    endloop
  endfacet
  facet normal -0.000000 0.000000 1.000000
    outer loop
      vertex -3.500000 -24.274213 22.000000
      vertex -7.603749 -23.401934 22.000000
      vertex -3.500000 -28.000000 22.000000
    endloop
  endfacet
  facet normal -0.000000 -0.000000 1.000000
    outer loop
      vertex -16.464795 -18.286007 22.000000
      vertex -19.906874 -14.463191 22.000000
      vertex -10.197561 -31.384865 22.000000
    endloop
  endfacet
  facet normal 0.000000 0.000000 1.000000
    outer loop
      vertex -24.068544 -5.115927 22.000000
      vertex -24.606250 0.000000 22.000000
      vertex -32.278871 6.861086 22.000000
    endloop
  endfacet
  facet normal 0.000000 -0.000000 1.000000
    outer loop
      vertex 22.478928 -10.008264 22.000000
      vertex 19.906874 -14.463191 22.000000
      vertex 30.147000 -13.422309 22.000000
    endloop
  endfacet
  facet normal 0.000000 0.000000 1.000000
    outer loop
      vertex -24.068544 5.115927 22.000000
      vertex -22.478928 10.008264 22.000000
      vertex -32.278871 6.861086 22.000000
    endloop
  endfacet
  facet normal -1.000000 -0.000000 -0.000000
    outer loop
      vertex -3.500000 24.274213 22.000000
      vertex -3.500000 24.274213 30.000000
      vertex -3.500000 28.000000 22.000000
    endloop
  endfacet
  facet normal -1.000000 0.000000 0.000000
    outer loop
      vertex -3.500000 28.000000 22.000000
      vertex -3.500000 24.274213 30.000000
      vertex -3.500000 28.000000 30.000000
    endloop
  endfacet
  facet normal 0.000000 -0.000000 1.000000
    outer loop
      vertex -3.500000 28.000000 30.000000
      vertex -3.500000 24.274213 30.000000
      vertex -2.572053 24.471454 30.000000
    endloop
  endfacet
  facet normal -0.000000 0.000000 1.000000
    outer loop
      vertex 2.572053 24.471454 30.000000
      vertex -3.500000 28.000000 30.000000
      vertex -2.572053 24.471454 30.000000
    endloop
  endfacet
  facet normal 0.000000 0.000000 1.000000
    outer loop
      vertex 2.572053 24.471454 30.000000
      vertex 3.500000 24.274213 30.000000
      vertex -3.500000 28.000000 30.000000
    endloop
  endfacet
  facet normal 0.000000 0.000000 1.000000
    outer loop
      vertex 3.500000 24.274213 30.000000
      vertex 3.500000 28.000000 30.000000
      vertex -3.500000 28.000000 30.000000
    endloop
  endfacet
  facet normal 0.000000 -1.000000 0.000000
    outer loop
      vertex 2.572053 24.471454 9.000000
      vertex 2.572053 24.471454 30.000000
      vertex -2.572053 24.471454 30.000000
    endloop
  endfacet
  facet normal -0.000000 -1.000000 -0.000000
    outer loop
      vertex -2.572053 24.471454 9.000000
      vertex 2.572053 24.471454 9.000000
      vertex -2.572053 24.471454 30.000000
    endloop
  endfacet
  facet normal 0.000000 0.000000 -1.000000
    outer loop
      vertex 4.000000 29.000000 9.000000
      vertex 4.000000 24.167934 9.000000
      vertex -4.000000 29.000000 9.000000
    endloop
  endfacet
  facet normal 0.000000 0.000000 -1.000000
    outer loop
      vertex -4.000000 29.000000 9.000000
      vertex 4.000000 24.167934 9.000000
      vertex 2.572053 24.471454 9.000000
    endloop
  endfacet
  facet normal 0.000000 0.000000 -1.000000
    outer loop
      vertex -4.000000 29.000000 9.000000
      vertex 2.572053 24.471454 9.000000
      vertex -2.572053 24.471454 9.000000
    endloop
  endfacet
  facet normal 0.000000 0.000000 -1.000000
    outer loop
      vertex -2.572053 24.471454 9.000000
      vertex -4.000000 24.167934 9.000000
      vertex -4.000000 29.000000 9.000000
    endloop
  endfacet
  facet normal 1.000000 0.000000 -0.000000
    outer loop
      vertex 3.500000 24.274213 30.000000
      vertex 3.500000 24.274213 22.000000
      vertex 3.500000 28.000000 22.000000
    endloop
  endfacet
  facet normal 1.000000 0.000000 0.000000
    outer loop
      vertex 3.500000 28.000000 30.000000
      vertex 3.500000 24.274213 30.000000
      vertex 3.500000 28.000000 22.000000
    endloop
  endfacet
  facet normal 0.000000 -0.000000 1.000000
    outer loop
      vertex -3.500000 -24.274213 30.000000
      vertex -3.500000 -28.000000 30.000000
      vertex 3.500000 -28.000000 30.000000
    endloop
  endfacet
  facet normal -0.000000 -0.000000 1.000000
    outer loop
      vertex -2.572053 -24.471454 30.000000
      vertex -3.500000 -24.274213 30.000000
      vertex 3.500000 -28.000000 30.000000
    endloop
  endfacet
  facet normal 0.000000 0.000000 1.000000
    outer loop
      vertex 3.500000 -24.274213 30.000000
      vertex 2.572053 -24.471454 30.000000
      vertex 3.500000 -28.000000 30.000000
    endloop
  endfacet
  facet normal 0.000000 -0.000000 1.000000
    outer loop
      vertex 2.572053 -24.471454 30.000000
      vertex -2.572053 -24.471454 30.000000
      vertex 3.500000 -28.000000 30.000000
    endloop
  endfacet
  facet normal 0.000000 1.000000 0.000000
    outer loop
      vertex 2.572053 -24.471454 30.000000
      vertex 2.572053 -24.471454 9.000000
      vertex -2.572053 -24.471454 30.000000
    endloop
  endfacet
  facet normal 0.000000 1.000000 -0.000000
    outer loop
      vertex -2.572053 -24.471454 30.000000
      vertex 2.572053 -24.471454 9.000000
      vertex -2.572053 -24.471454 9.000000
    endloop
  endfacet
  facet normal 0.000000 0.000000 -1.000000
    outer loop
      vertex -2.572053 -24.471454 9.000000
      vertex 2.572053 -24.471454 9.000000
      vertex 4.000000 -29.000000 9.000000
    endloop
  endfacet
  facet normal 0.000000 0.000000 -1.000000
    outer loop
      vertex 4.000000 -29.000000 9.000000
      vertex 2.572053 -24.471454 9.000000
      vertex 4.000000 -24.167934 9.000000
    endloop
  endfacet
  facet normal 0.000000 0.000000 -1.000000
    outer loop
      vertex -2.572053 -24.471454 9.000000
      vertex 4.000000 -29.000000 9.000000
      vertex -4.000000 -24.167934 9.000000
    endloop
  endfacet
  facet normal 0.000000 0.000000 -1.000000
    outer loop
      vertex 4.000000 -29.000000 9.000000
      vertex -4.000000 -29.000000 9.000000
      vertex -4.000000 -24.167934 9.000000
    endloop
  endfacet
  facet normal 1.000000 0.000000 -0.000000
    outer loop
      vertex 3.500000 -28.000000 30.000000
      vertex 3.500000 -28.000000 22.000000
      vertex 3.500000 -24.274213 22.000000
    endloop
  endfacet
  facet normal 1.000000 0.000000 0.000000
    outer loop
      vertex 3.500000 -24.274213 30.000000
      vertex 3.500000 -28.000000 30.000000
      vertex 3.500000 -24.274213 22.000000
    endloop
  endfacet
  facet normal -1.000000 -0.000000 -0.000000
    outer loop
      vertex -3.500000 -28.000000 22.000000
      vertex -3.500000 -28.000000 30.000000
      vertex -3.500000 -24.274213 22.000000
    endloop
  endfacet
  facet normal -1.000000 0.000000 0.000000
    outer loop
      vertex -3.500000 -24.274213 22.000000
      vertex -3.500000 -28.000000 30.000000
      vertex -3.500000 -24.274213 30.000000
    endloop
  endfacet
  facet normal 0.000000 -1.000000 0.000000
    outer loop
      vertex -3.500000 -28.000000 30.000000
      vertex -3.500000 -28.000000 22.000000
      vertex 3.500000 -28.000000 22.000000
    endloop
  endfacet
  facet normal 0.000000 -1.000000 0.000000
    outer loop
      vertex 3.500000 -28.000000 30.000000
      vertex -3.500000 -28.000000 30.000000
      vertex 3.500000 -28.000000 22.000000
    endloop
  endfacet
  facet normal 0.000000 1.000000 0.000000
    outer loop
      vertex -3.500000 28.000000 22.000000
      vertex -3.500000 28.000000 30.000000
      vertex 3.500000 28.000000 22.000000
    endloop
  endfacet
  facet normal 0.000000 1.000000 0.000000
    outer loop
      vertex 3.500000 28.000000 22.000000
      vertex -3.500000 28.000000 30.000000
      vertex 3.500000 28.000000 30.000000
    endloop
  endfacet
endsolid OpenSCAD_Model
