solid OpenSCAD_Model
  facet normal -1.000000 -0.000000 -0.000000
    outer loop
      vertex -41.000000 -41.000000 0.000000
      vertex -41.000000 -41.000000 20.000000
      vertex -41.000000 41.000000 0.000000
    endloop
  endfacet
  facet normal -1.000000 0.000000 0.000000
    outer loop
      vertex -41.000000 41.000000 0.000000
      vertex -41.000000 -41.000000 20.000000
      vertex -41.000000 41.000000 20.000000
    endloop
  endfacet
  facet normal 0.000000 -1.000000 0.000000
    outer loop
      vertex -41.000000 -41.000000 20.000000
      vertex -41.000000 -41.000000 0.000000
      vertex 41.000000 -41.000000 0.000000
    endloop
  endfacet
  facet normal 0.000000 -1.000000 0.000000
    outer loop
      vertex 41.000000 -41.000000 20.000000
      vertex -41.000000 -41.000000 20.000000
      vertex 41.000000 -41.000000 0.000000
    endloop
  endfacet
  facet normal 0.000000 -0.000000 -1.000000
    outer loop
      vertex -38.500000 39.000000 0.000000
      vertex -41.000000 41.000000 0.000000
      vertex 41.000000 41.000000 0.000000
    endloop
  endfacet
  facet normal 0.000000 -0.000000 -1.000000
    outer loop
      vertex -31.500000 39.000000 0.000000
      vertex -38.500000 39.000000 0.000000
      vertex 41.000000 41.000000 0.000000
    endloop
  endfacet
  facet normal 0.000000 -0.000000 -1.000000
    outer loop
      vertex -41.000000 -41.000000 0.000000
      vertex -41.000000 41.000000 0.000000
      vertex -38.500000 -39.000000 0.000000
    endloop
  endfacet
  facet normal -0.000000 0.000000 -1.000000
    outer loop
      vertex -41.000000 -41.000000 0.000000
      vertex -38.500000 -39.000000 0.000000
      vertex 41.000000 -41.000000 0.000000
    endloop
  endfacet
  facet normal -0.000000 0.000000 -1.000000
    outer loop
      vertex 38.500000 39.000000 0.000000
      vertex 41.000000 41.000000 0.000000
      vertex 41.000000 -41.000000 0.000000
    endloop
  endfacet
  facet normal 0.000000 0.000000 -1.000000
    outer loop
      vertex -38.500000 -39.000000 0.000000
      vertex -31.500000 -39.000000 0.000000
      vertex 41.000000 -41.000000 0.000000
    endloop
  endfacet
  facet normal 0.000000 0.000000 -1.000000
    outer loop
      vertex -28.500000 -39.000000 0.000000
      vertex -31.500000 39.000000 0.000000
      vertex -28.500000 39.000000 0.000000
    endloop
  endfacet
  facet normal 0.000000 -0.000000 -1.000000
    outer loop
      vertex -28.500000 39.000000 0.000000
      vertex -31.500000 39.000000 0.000000
      vertex 41.000000 41.000000 0.000000
    endloop
  endfacet
  facet normal 0.000000 0.000000 -1.000000
    outer loop
      vertex -1.500000 -25.465976 0.000000
      vertex 1.500000 -39.000000 0.000000
      vertex -1.500000 -39.000000 0.000000
    endloop
  endfacet
  facet normal 0.000000 -0.000000 -1.000000
    outer loop
      vertex -18.500000 39.000000 0.000000
      vertex -28.500000 39.000000 0.000000
      vertex 41.000000 41.000000 0.000000
    endloop
  endfacet
  facet normal 0.000000 0.000000 -1.000000
    outer loop
      vertex 28.500000 20.500000 0.000000
      vertex 31.500000 -39.000000 0.000000
      vertex 28.500000 -39.000000 0.000000
    endloop
  endfacet
  facet normal -0.000000 0.000000 -1.000000
    outer loop
      vertex -31.500000 -39.000000 0.000000
      vertex -28.500000 -39.000000 0.000000
      vertex 41.000000 -41.000000 0.000000
    endloop
  endfacet
  facet normal 0.000000 0.000000 -1.000000
    outer loop
      vertex -8.500000 24.091538 0.000000
      vertex -11.500000 39.000000 0.000000
      vertex -8.500000 39.000000 0.000000
    endloop
  endfacet
  facet normal 0.000000 0.000000 -1.000000
    outer loop
      vertex -28.500000 -39.000000 0.000000
      vertex -21.500000 -39.000000 0.000000
      vertex 41.000000 -41.000000 0.000000
    endloop
  endfacet
  facet normal 0.000000 -0.000000 -1.000000
    outer loop
      vertex -21.500000 -39.000000 0.000000
      vertex -21.500000 -13.692859 0.000000
      vertex -20.715891 -15.050976 0.000000
    endloop
  endfacet
  facet normal 0.000000 0.000000 -1.000000
    outer loop
      vertex -21.500000 -39.000000 0.000000
      vertex -20.715891 -15.050976 0.000000
      vertex -18.500000 -17.511973 0.000000
    endloop
  endfacet
  facet normal 0.000000 0.000000 -1.000000
    outer loop
      vertex -21.500000 -39.000000 0.000000
      vertex -18.500000 -17.511973 0.000000
      vertex -18.500000 -39.000000 0.000000
    endloop
  endfacet
  facet normal -0.000000 0.000000 -1.000000
    outer loop
      vertex -21.500000 -39.000000 0.000000
      vertex -18.500000 -39.000000 0.000000
      vertex 41.000000 -41.000000 0.000000
    endloop
  endfacet
  facet normal 0.000000 0.000000 -1.000000
    outer loop
      vertex -18.500000 -39.000000 0.000000
      vertex -11.500000 -39.000000 0.000000
      vertex 41.000000 -41.000000 0.000000
    endloop
  endfacet
  facet normal 0.000000 0.000000 -1.000000
    outer loop
      vertex -11.500000 -39.000000 0.000000
      vertex -11.500000 -22.755852 0.000000
      vertex -8.500000 -24.091538 0.000000
    endloop
  endfacet
  facet normal 0.000000 0.000000 -1.000000
    outer loop
      vertex -11.500000 -39.000000 0.000000
      vertex -8.500000 -24.091538 0.000000
      vertex -8.500000 -39.000000 0.000000
    endloop
  endfacet
  facet normal -0.000000 0.000000 -1.000000
    outer loop
      vertex -11.500000 -39.000000 0.000000
      vertex -8.500000 -39.000000 0.000000
      vertex 41.000000 -41.000000 0.000000
    endloop
  endfacet
  facet normal 0.000000 0.000000 -1.000000
    outer loop
      vertex -8.500000 -39.000000 0.000000
      vertex -1.500000 -39.000000 0.000000
      vertex 41.000000 -41.000000 0.000000
    endloop
  endfacet
  facet normal 0.000000 0.000000 -1.000000
    outer loop
      vertex 1.500000 -39.000000 0.000000
      vertex -1.500000 -25.465976 0.000000
      vertex 1.500000 -25.465976 0.000000
    endloop
  endfacet
  facet normal -0.000000 0.000000 -1.000000
    outer loop
      vertex -1.500000 -39.000000 0.000000
      vertex 1.500000 -39.000000 0.000000
      vertex 41.000000 -41.000000 0.000000
    endloop
  endfacet
  facet normal 0.000000 0.000000 -1.000000
    outer loop
      vertex 1.500000 -39.000000 0.000000
      vertex 8.500000 -39.000000 0.000000
      vertex 41.000000 -41.000000 0.000000
    endloop
  endfacet
  facet normal 0.000000 0.000000 -1.000000
    outer loop
      vertex 38.500000 39.000000 0.000000
      vertex 41.000000 -41.000000 0.000000
      vertex 38.500000 -39.000000 0.000000
    endloop
  endfacet
  facet normal 0.000000 0.000000 -1.000000
    outer loop
      vertex 11.500000 -39.000000 0.000000
      vertex 8.500000 -24.091538 0.000000
      vertex 11.500000 -22.755852 0.000000
    endloop
  endfacet
  facet normal 0.000000 0.000000 -1.000000
    outer loop
      vertex 8.500000 -24.091538 0.000000
      vertex 11.500000 -39.000000 0.000000
      vertex 8.500000 -39.000000 0.000000
    endloop
  endfacet
  facet normal -0.000000 0.000000 -1.000000
    outer loop
      vertex 8.500000 -39.000000 0.000000
      vertex 11.500000 -39.000000 0.000000
      vertex 41.000000 -41.000000 0.000000
    endloop
  endfacet
  facet normal 0.000000 0.000000 -1.000000
    outer loop
      vertex 11.500000 -39.000000 0.000000
      vertex 18.500000 -39.000000 0.000000
      vertex 41.000000 -41.000000 0.000000
    endloop
  endfacet
  facet normal 0.000000 0.000000 -1.000000
    outer loop
      vertex 21.500000 -39.000000 0.000000
      vertex 20.715891 -15.050976 0.000000
      vertex 21.500000 -13.692859 0.000000
    endloop
  endfacet
  facet normal 0.000000 0.000000 -1.000000
    outer loop
      vertex 18.500000 -17.511973 0.000000
      vertex 21.500000 -39.000000 0.000000
      vertex 18.500000 -39.000000 0.000000
    endloop
  endfacet
  facet normal 0.000000 0.000000 -1.000000
    outer loop
      vertex 21.500000 -39.000000 0.000000
      vertex 18.500000 -17.511973 0.000000
      vertex 20.715891 -15.050976 0.000000
    endloop
  endfacet
  facet normal 0.000000 0.000000 -1.000000
    outer loop
      vertex 31.500000 25.813708 0.000000
      vertex 28.500000 39.000000 0.000000
      vertex 31.500000 39.000000 0.000000
    endloop
  endfacet
  facet normal -0.000000 0.000000 -1.000000
    outer loop
      vertex 18.500000 -39.000000 0.000000
      vertex 21.500000 -39.000000 0.000000
      vertex 41.000000 -41.000000 0.000000
    endloop
  endfacet
  facet normal 0.000000 -0.000000 0.000000
    outer loop
      vertex 28.500000 39.000000 0.000000
      vertex 21.500000 39.000000 0.000000
      vertex 31.500000 39.000000 0.000000
    endloop
  endfacet
  facet normal 0.000000 0.000000 -1.000000
    outer loop
      vertex 21.500000 -39.000000 0.000000
      vertex 28.500000 -39.000000 0.000000
      vertex 41.000000 -41.000000 0.000000
    endloop
  endfacet
  facet normal 0.000000 0.000000 -1.000000
    outer loop
      vertex 31.500000 -39.000000 0.000000
      vertex 28.500000 20.500000 0.000000
      vertex 31.500000 23.500000 0.000000
    endloop
  endfacet
  facet normal -0.000000 0.000000 -1.000000
    outer loop
      vertex 28.500000 -39.000000 0.000000
      vertex 31.500000 -39.000000 0.000000
      vertex 41.000000 -41.000000 0.000000
    endloop
  endfacet
  facet normal 0.000000 0.000000 -1.000000
    outer loop
      vertex -31.500000 39.000000 0.000000
      vertex -28.500000 -39.000000 0.000000
      vertex -31.500000 -39.000000 0.000000
    endloop
  endfacet
  facet normal -0.000000 0.000000 -1.000000
    outer loop
      vertex 21.500000 39.000000 0.000000
      vertex 41.000000 41.000000 0.000000
      vertex 31.500000 39.000000 0.000000
    endloop
  endfacet
  facet normal 0.000000 -0.000000 -1.000000
    outer loop
      vertex 38.500000 39.000000 0.000000
      vertex 31.500000 39.000000 0.000000
      vertex 41.000000 41.000000 0.000000
    endloop
  endfacet
  facet normal 0.000000 -0.000000 0.000000
    outer loop
      vertex 8.500000 39.000000 0.000000
      vertex 1.500000 39.000000 0.000000
      vertex 11.500000 39.000000 0.000000
    endloop
  endfacet
  facet normal 0.000000 0.000000 -1.000000
    outer loop
      vertex 31.500000 25.813708 0.000000
      vertex 28.500000 28.813708 0.000000
      vertex 28.500000 39.000000 0.000000
    endloop
  endfacet
  facet normal 0.000000 0.000000 -1.000000
    outer loop
      vertex 8.500000 39.000000 0.000000
      vertex 11.500000 22.755852 0.000000
      vertex 8.500000 24.091538 0.000000
    endloop
  endfacet
  facet normal -0.000000 0.000000 -1.000000
    outer loop
      vertex 11.500000 39.000000 0.000000
      vertex 41.000000 41.000000 0.000000
      vertex 21.500000 39.000000 0.000000
    endloop
  endfacet
  facet normal 0.000000 -0.000000 0.000000
    outer loop
      vertex 18.500000 39.000000 0.000000
      vertex 11.500000 39.000000 0.000000
      vertex 21.500000 39.000000 0.000000
    endloop
  endfacet
  facet normal 0.000000 0.000000 -1.000000
    outer loop
      vertex 11.500000 22.755852 0.000000
      vertex 8.500000 39.000000 0.000000
      vertex 11.500000 39.000000 0.000000
    endloop
  endfacet
  facet normal 0.000000 -0.000000 0.000000
    outer loop
      vertex -21.500000 39.000000 0.000000
      vertex -28.500000 39.000000 0.000000
      vertex -18.500000 39.000000 0.000000
    endloop
  endfacet
  facet normal 0.000000 0.000000 -1.000000
    outer loop
      vertex -11.500000 39.000000 0.000000
      vertex -8.500000 24.091538 0.000000
      vertex -11.500000 22.755852 0.000000
    endloop
  endfacet
  facet normal 0.000000 0.000000 -1.000000
    outer loop
      vertex -1.500000 39.000000 0.000000
      vertex 1.500000 25.465976 0.000000
      vertex -1.500000 25.465976 0.000000
    endloop
  endfacet
  facet normal 0.000000 0.000000 -1.000000
    outer loop
      vertex 18.500000 39.000000 0.000000
      vertex 21.500000 24.813708 0.000000
      vertex 21.343146 24.656854 0.000000
    endloop
  endfacet
  facet normal 0.000000 0.000000 -1.000000
    outer loop
      vertex 21.343146 24.656854 0.000000
      vertex 21.500000 24.500000 0.000000
      vertex 18.500000 17.511973 0.000000
    endloop
  endfacet
  facet normal -0.000000 0.000000 -1.000000
    outer loop
      vertex 1.500000 39.000000 0.000000
      vertex 41.000000 41.000000 0.000000
      vertex 11.500000 39.000000 0.000000
    endloop
  endfacet
  facet normal 0.000000 -0.000000 0.000000
    outer loop
      vertex -11.500000 39.000000 0.000000
      vertex -18.500000 39.000000 0.000000
      vertex -8.500000 39.000000 0.000000
    endloop
  endfacet
  facet normal 0.000000 0.000000 -1.000000
    outer loop
      vertex 18.500000 39.000000 0.000000
      vertex 21.343146 24.656854 0.000000
      vertex 18.500000 17.511973 0.000000
    endloop
  endfacet
  facet normal -0.000000 0.000000 -1.000000
    outer loop
      vertex -8.500000 39.000000 0.000000
      vertex 41.000000 41.000000 0.000000
      vertex 1.500000 39.000000 0.000000
    endloop
  endfacet
  facet normal 0.000000 0.000000 -1.000000
    outer loop
      vertex 1.500000 25.465976 0.000000
      vertex -1.500000 39.000000 0.000000
      vertex 1.500000 39.000000 0.000000
    endloop
  endfacet
  facet normal 0.000000 0.000000 -1.000000
    outer loop
      vertex 21.500000 13.692859 0.000000
      vertex 20.715891 15.050976 0.000000
      vertex 21.500000 24.500000 0.000000
    endloop
  endfacet
  facet normal -0.000000 0.000000 -1.000000
    outer loop
      vertex -18.500000 39.000000 0.000000
      vertex 41.000000 41.000000 0.000000
      vertex -8.500000 39.000000 0.000000
    endloop
  endfacet
  facet normal 0.000000 -0.000000 0.000000
    outer loop
      vertex -1.500000 39.000000 0.000000
      vertex -8.500000 39.000000 0.000000
      vertex 1.500000 39.000000 0.000000
    endloop
  endfacet
  facet normal 0.000000 0.000000 -1.000000
    outer loop
      vertex -18.500000 17.511973 0.000000
      vertex -21.500000 39.000000 0.000000
      vertex -18.500000 39.000000 0.000000
    endloop
  endfacet
  facet normal 0.000000 -0.000000 -1.000000
    outer loop
      vertex 20.715891 15.050976 0.000000
      vertex 18.500000 17.511973 0.000000
      vertex 21.500000 24.500000 0.000000
    endloop
  endfacet
  facet normal 0.000000 0.000000 -1.000000
    outer loop
      vertex -21.500000 39.000000 0.000000
      vertex -20.715891 15.050976 0.000000
      vertex -21.500000 13.692859 0.000000
    endloop
  endfacet
  facet normal 0.000000 0.000000 -1.000000
    outer loop
      vertex 38.500000 -39.000000 0.000000
      vertex 41.000000 -41.000000 0.000000
      vertex 31.500000 -39.000000 0.000000
    endloop
  endfacet
  facet normal 0.000000 0.000000 -1.000000
    outer loop
      vertex -38.500000 -39.000000 0.000000
      vertex -41.000000 41.000000 0.000000
      vertex -38.500000 39.000000 0.000000
    endloop
  endfacet
  facet normal 0.000000 0.000000 -1.000000
    outer loop
      vertex -21.500000 39.000000 0.000000
      vertex -18.500000 17.511973 0.000000
      vertex -20.715891 15.050976 0.000000
    endloop
  endfacet
  facet normal 0.000000 0.000000 -1.000000
    outer loop
      vertex 21.500000 24.813708 0.000000
      vertex 18.500000 39.000000 0.000000
      vertex 21.500000 39.000000 0.000000
    endloop
  endfacet
  facet normal 0.000000 1.000000 0.000000
    outer loop
      vertex -41.000000 41.000000 0.000000
      vertex -41.000000 41.000000 20.000000
      vertex 41.000000 41.000000 0.000000
    endloop
  endfacet
  facet normal 0.000000 1.000000 0.000000
    outer loop
      vertex 41.000000 41.000000 0.000000
      vertex -41.000000 41.000000 20.000000
      vertex 41.000000 41.000000 20.000000
    endloop
  endfacet
  facet normal 0.000000 -0.000000 1.000000
    outer loop
      vertex 7.912766 -24.352991 20.000000
      vertex -41.000000 -41.000000 20.000000
      vertex 41.000000 -41.000000 20.000000
    endloop
  endfacet
  facet normal 0.000000 0.000000 1.000000
    outer loop
      vertex 32.656854 24.656854 20.000000
      vertex 27.000000 19.000000 20.000000
      vertex 23.392473 10.415000 20.000000
    endloop
  endfacet
  facet normal 0.000000 -0.000000 1.000000
    outer loop
      vertex -41.000000 41.000000 20.000000
      vertex -41.000000 -41.000000 20.000000
      vertex -25.046692 -5.323839 20.000000
    endloop
  endfacet
  facet normal 0.000000 0.000000 1.000000
    outer loop
      vertex 27.000000 19.000000 20.000000
      vertex 21.343146 24.656854 20.000000
      vertex 17.133926 19.029152 20.000000
    endloop
  endfacet
  facet normal 0.000000 0.000000 1.000000
    outer loop
      vertex -41.000000 41.000000 20.000000
      vertex -25.046692 -5.323839 20.000000
      vertex -25.606250 0.000000 20.000000
    endloop
  endfacet
  facet normal 0.000000 0.000000 1.000000
    outer loop
      vertex -41.000000 41.000000 20.000000
      vertex -25.606250 0.000000 20.000000
      vertex -25.046692 5.323839 20.000000
    endloop
  endfacet
  facet normal 0.000000 -0.000000 1.000000
    outer loop
      vertex 12.803125 -22.175663 20.000000
      vertex 7.912766 -24.352991 20.000000
      vertex 41.000000 -41.000000 20.000000
    endloop
  endfacet
  facet normal 0.000000 0.000000 1.000000
    outer loop
      vertex -41.000000 41.000000 20.000000
      vertex -25.046692 5.323839 20.000000
      vertex -23.392473 10.415000 20.000000
    endloop
  endfacet
  facet normal 0.000000 0.000000 1.000000
    outer loop
      vertex -41.000000 41.000000 20.000000
      vertex -23.392473 10.415000 20.000000
      vertex -20.715891 15.050976 20.000000
    endloop
  endfacet
  facet normal -0.000000 0.000000 1.000000
    outer loop
      vertex -12.803125 22.175663 20.000000
      vertex -41.000000 41.000000 20.000000
      vertex -17.133926 19.029152 20.000000
    endloop
  endfacet
  facet normal -0.000000 0.000000 1.000000
    outer loop
      vertex -7.912766 24.352991 20.000000
      vertex -41.000000 41.000000 20.000000
      vertex -12.803125 22.175663 20.000000
    endloop
  endfacet
  facet normal 0.000000 0.000000 1.000000
    outer loop
      vertex -2.676582 25.465976 20.000000
      vertex 2.676582 25.465976 20.000000
      vertex 41.000000 41.000000 20.000000
    endloop
  endfacet
  facet normal 0.000000 0.000000 1.000000
    outer loop
      vertex 41.000000 41.000000 20.000000
      vertex -41.000000 41.000000 20.000000
      vertex -7.912766 24.352991 20.000000
    endloop
  endfacet
  facet normal 0.000000 0.000000 1.000000
    outer loop
      vertex 25.046692 5.323839 20.000000
      vertex 25.606250 0.000000 20.000000
      vertex 41.000000 -41.000000 20.000000
    endloop
  endfacet
  facet normal 0.000000 -0.000000 1.000000
    outer loop
      vertex 20.715891 -15.050976 20.000000
      vertex 17.133926 -19.029152 20.000000
      vertex 41.000000 -41.000000 20.000000
    endloop
  endfacet
  facet normal 0.000000 -0.000000 1.000000
    outer loop
      vertex 23.392473 -10.415000 20.000000
      vertex 20.715891 -15.050976 20.000000
      vertex 41.000000 -41.000000 20.000000
    endloop
  endfacet
  facet normal 0.000000 0.000000 1.000000
    outer loop
      vertex 41.000000 41.000000 20.000000
      vertex 2.676582 25.465976 20.000000
      vertex 7.912766 24.352991 20.000000
    endloop
  endfacet
  facet normal 0.000000 -0.000000 1.000000
    outer loop
      vertex 25.046692 -5.323839 20.000000
      vertex 23.392473 -10.415000 20.000000
      vertex 41.000000 -41.000000 20.000000
    endloop
  endfacet
  facet normal 0.000000 0.000000 1.000000
    outer loop
      vertex 41.000000 41.000000 20.000000
      vertex 7.912766 24.352991 20.000000
      vertex 12.803125 22.175663 20.000000
    endloop
  endfacet
  facet normal 0.000000 0.000000 1.000000
    outer loop
      vertex 21.343146 24.656854 20.000000
      vertex 12.803125 22.175663 20.000000
      vertex 17.133926 19.029152 20.000000
    endloop
  endfacet
  facet normal 0.000000 -0.000000 1.000000
    outer loop
      vertex 32.656854 24.656854 20.000000
      vertex 23.392473 10.415000 20.000000
      vertex 41.000000 -41.000000 20.000000
    endloop
  endfacet
  facet normal 0.000000 0.000000 1.000000
    outer loop
      vertex 27.000000 19.000000 20.000000
      vertex 20.715891 15.050976 20.000000
      vertex 23.392473 10.415000 20.000000
    endloop
  endfacet
  facet normal 0.000000 0.000000 1.000000
    outer loop
      vertex 23.392473 10.415000 20.000000
      vertex 25.046692 5.323839 20.000000
      vertex 41.000000 -41.000000 20.000000
    endloop
  endfacet
  facet normal 0.000000 0.000000 1.000000
    outer loop
      vertex -7.912766 24.352991 20.000000
      vertex -2.676582 25.465976 20.000000
      vertex 41.000000 41.000000 20.000000
    endloop
  endfacet
  facet normal 0.000000 -0.000000 1.000000
    outer loop
      vertex 25.606250 0.000000 20.000000
      vertex 25.046692 -5.323839 20.000000
      vertex 41.000000 -41.000000 20.000000
    endloop
  endfacet
  facet normal 0.000000 -0.000000 1.000000
    outer loop
      vertex 2.676582 -25.465976 20.000000
      vertex -41.000000 -41.000000 20.000000
      vertex 7.912766 -24.352991 20.000000
    endloop
  endfacet
  facet normal 0.000000 -0.000000 1.000000
    outer loop
      vertex -2.676582 -25.465976 20.000000
      vertex -41.000000 -41.000000 20.000000
      vertex 2.676582 -25.465976 20.000000
    endloop
  endfacet
  facet normal 0.000000 -0.000000 1.000000
    outer loop
      vertex -7.912766 -24.352991 20.000000
      vertex -41.000000 -41.000000 20.000000
      vertex -2.676582 -25.465976 20.000000
    endloop
  endfacet
  facet normal 0.000000 -0.000000 1.000000
    outer loop
      vertex -12.803125 -22.175663 20.000000
      vertex -41.000000 -41.000000 20.000000
      vertex -7.912766 -24.352991 20.000000
    endloop
  endfacet
  facet normal 0.000000 -0.000000 1.000000
    outer loop
      vertex -17.133926 -19.029152 20.000000
      vertex -41.000000 -41.000000 20.000000
      vertex -12.803125 -22.175663 20.000000
    endloop
  endfacet
  facet normal 0.000000 -0.000000 1.000000
    outer loop
      vertex -20.715891 -15.050976 20.000000
      vertex -41.000000 -41.000000 20.000000
      vertex -17.133926 -19.029152 20.000000
    endloop
  endfacet
  facet normal 0.000000 -0.000000 1.000000
    outer loop
      vertex -23.392473 -10.415000 20.000000
      vertex -41.000000 -41.000000 20.000000
      vertex -20.715891 -15.050976 20.000000
    endloop
  endfacet
  facet normal 0.000000 -0.000000 1.000000
    outer loop
      vertex -25.046692 -5.323839 20.000000
      vertex -41.000000 -41.000000 20.000000
      vertex -23.392473 -10.415000 20.000000
    endloop
  endfacet
  facet normal 0.000000 0.000000 1.000000
    outer loop
      vertex 27.000000 30.313708 20.000000
      vertex 32.656854 24.656854 20.000000
      vertex 41.000000 41.000000 20.000000
    endloop
  endfacet
  facet normal 0.000000 0.000000 1.000000
    outer loop
      vertex 27.000000 30.313708 20.000000
      vertex 12.803125 22.175663 20.000000
      vertex 21.343146 24.656854 20.000000
    endloop
  endfacet
  facet normal 0.000000 0.000000 1.000000
    outer loop
      vertex 41.000000 41.000000 20.000000
      vertex 12.803125 22.175663 20.000000
      vertex 27.000000 30.313708 20.000000
    endloop
  endfacet
  facet normal 0.000000 0.000000 1.000000
    outer loop
      vertex 41.000000 41.000000 20.000000
      vertex 32.656854 24.656854 20.000000
      vertex 41.000000 -41.000000 20.000000
    endloop
  endfacet
  facet normal -0.000000 0.000000 1.000000
    outer loop
      vertex 27.000000 19.000000 20.000000
      vertex 17.133926 19.029152 20.000000
      vertex 20.715891 15.050976 20.000000
    endloop
  endfacet
  facet normal 0.000000 0.000000 1.000000
    outer loop
      vertex -20.715891 15.050976 20.000000
      vertex -17.133926 19.029152 20.000000
      vertex -41.000000 41.000000 20.000000
    endloop
  endfacet
  facet normal 0.000000 -0.000000 1.000000
    outer loop
      vertex 17.133926 -19.029152 20.000000
      vertex 12.803125 -22.175663 20.000000
      vertex 41.000000 -41.000000 20.000000
    endloop
  endfacet
  facet normal 1.000000 0.000000 -0.000000
    outer loop
      vertex 41.000000 -41.000000 20.000000
      vertex 41.000000 -41.000000 0.000000
      vertex 41.000000 41.000000 0.000000
    endloop
  endfacet
  facet normal 1.000000 0.000000 0.000000
    outer loop
      vertex 41.000000 41.000000 20.000000
      vertex 41.000000 -41.000000 20.000000
      vertex 41.000000 41.000000 0.000000
    endloop
  endfacet
  facet normal 0.707107 -0.000000 -0.707107
    outer loop
      vertex -38.500000 39.000000 0.000000
      vertex -35.000000 39.000000 3.500000
      vertex -35.000000 -39.000000 3.500000
    endloop
  endfacet
  facet normal 0.707107 0.000000 -0.707107
    outer loop
      vertex -38.500000 -39.000000 0.000000
      vertex -38.500000 39.000000 0.000000
      vertex -35.000000 -39.000000 3.500000
    endloop
  endfacet
  facet normal 0.000000 -1.000000 0.000000
    outer loop
      vertex -31.500000 39.000000 0.000000
      vertex -35.000000 39.000000 3.500000
      vertex -38.500000 39.000000 0.000000
    endloop
  endfacet
  facet normal -0.707107 0.000000 -0.707107
    outer loop
      vertex -31.500000 39.000000 0.000000
      vertex -31.500000 -39.000000 0.000000
      vertex -35.000000 39.000000 3.500000
    endloop
  endfacet
  facet normal -0.707107 0.000000 -0.707107
    outer loop
      vertex -35.000000 39.000000 3.500000
      vertex -31.500000 -39.000000 0.000000
      vertex -35.000000 -39.000000 3.500000
    endloop
  endfacet
  facet normal 0.000000 1.000000 0.000000
    outer loop
      vertex -35.000000 -39.000000 3.500000
      vertex -31.500000 -39.000000 0.000000
      vertex -38.500000 -39.000000 0.000000
    endloop
  endfacet
  facet normal 0.707107 0.000000 -0.707107
    outer loop
      vertex -28.500000 39.000000 0.000000
      vertex -25.000000 39.000000 3.500000
      vertex -25.000000 5.467542 3.500000
    endloop
  endfacet
  facet normal 0.707107 -0.000000 -0.707107
    outer loop
      vertex -25.606250 0.000000 2.893750
      vertex -28.500000 39.000000 0.000000
      vertex -25.046692 5.323839 3.453308
    endloop
  endfacet
  facet normal 0.707107 -0.000000 -0.707107
    outer loop
      vertex -25.046692 5.323839 3.453308
      vertex -28.500000 39.000000 0.000000
      vertex -25.000000 5.467542 3.500000
    endloop
  endfacet
  facet normal 0.707107 0.000000 -0.707107
    outer loop
      vertex -25.000000 -39.000000 3.500000
      vertex -28.500000 39.000000 0.000000
      vertex -25.606250 0.000000 2.893750
    endloop
  endfacet
  facet normal 0.707107 0.000000 -0.707107
    outer loop
      vertex -25.000000 -39.000000 3.500000
      vertex -25.606250 0.000000 2.893750
      vertex -25.046692 -5.323839 3.453308
    endloop
  endfacet
  facet normal 0.707107 0.000000 -0.707107
    outer loop
      vertex -25.000000 -39.000000 3.500000
      vertex -25.046692 -5.323839 3.453308
      vertex -25.000000 -5.467542 3.500000
    endloop
  endfacet
  facet normal 0.707107 0.000000 -0.707107
    outer loop
      vertex -28.500000 -39.000000 0.000000
      vertex -28.500000 39.000000 0.000000
      vertex -25.000000 -39.000000 3.500000
    endloop
  endfacet
  facet normal 0.000000 -1.000000 0.000000
    outer loop
      vertex -21.500000 39.000000 0.000000
      vertex -25.000000 39.000000 3.500000
      vertex -28.500000 39.000000 0.000000
    endloop
  endfacet
  facet normal -0.707107 0.000000 -0.707107
    outer loop
      vertex -21.500000 39.000000 0.000000
      vertex -21.500000 13.692859 0.000000
      vertex -25.000000 39.000000 3.500000
    endloop
  endfacet
  facet normal -0.707107 0.000000 -0.707107
    outer loop
      vertex -25.000000 39.000000 3.500000
      vertex -21.500000 13.692859 0.000000
      vertex -23.392473 10.415000 1.892473
    endloop
  endfacet
  facet normal -0.707107 0.000000 -0.707107
    outer loop
      vertex -25.000000 39.000000 3.500000
      vertex -23.392473 10.415000 1.892473
      vertex -25.000000 5.467542 3.500000
    endloop
  endfacet
  facet normal 0.866025 -0.500000 0.000000
    outer loop
      vertex -21.500000 13.692859 0.000000
      vertex -20.715891 15.050976 0.000000
      vertex -20.715891 15.050976 20.000000
    endloop
  endfacet
  facet normal 0.866025 -0.500000 0.000000
    outer loop
      vertex -23.392473 10.415000 1.892473
      vertex -21.500000 13.692859 0.000000
      vertex -23.392473 10.415000 20.000000
    endloop
  endfacet
  facet normal 0.866025 -0.500000 0.000000
    outer loop
      vertex -23.392473 10.415000 20.000000
      vertex -21.500000 13.692859 0.000000
      vertex -20.715891 15.050976 20.000000
    endloop
  endfacet
  facet normal 0.743145 -0.669131 0.000000
    outer loop
      vertex -18.500000 17.511973 0.000000
      vertex -17.133926 19.029152 1.366074
      vertex -17.133926 19.029152 20.000000
    endloop
  endfacet
  facet normal 0.743145 -0.669131 0.000000
    outer loop
      vertex -20.715891 15.050976 0.000000
      vertex -18.500000 17.511973 0.000000
      vertex -20.715891 15.050976 20.000000
    endloop
  endfacet
  facet normal 0.743145 -0.669131 0.000000
    outer loop
      vertex -20.715891 15.050976 20.000000
      vertex -18.500000 17.511973 0.000000
      vertex -17.133926 19.029152 20.000000
    endloop
  endfacet
  facet normal 0.707107 0.000000 -0.707107
    outer loop
      vertex -18.500000 39.000000 0.000000
      vertex -15.000000 39.000000 3.500000
      vertex -15.000000 20.579540 3.500000
    endloop
  endfacet
  facet normal 0.707107 0.000000 -0.707107
    outer loop
      vertex -18.500000 17.511973 0.000000
      vertex -18.500000 39.000000 0.000000
      vertex -17.133926 19.029152 1.366074
    endloop
  endfacet
  facet normal 0.707107 -0.000000 -0.707107
    outer loop
      vertex -17.133926 19.029152 1.366074
      vertex -18.500000 39.000000 0.000000
      vertex -15.000000 20.579540 3.500000
    endloop
  endfacet
  facet normal 0.000000 -1.000000 0.000000
    outer loop
      vertex -11.500000 39.000000 0.000000
      vertex -15.000000 39.000000 3.500000
      vertex -18.500000 39.000000 0.000000
    endloop
  endfacet
  facet normal -0.707107 0.000000 -0.707107
    outer loop
      vertex -11.500000 39.000000 0.000000
      vertex -11.500000 22.755852 0.000000
      vertex -15.000000 39.000000 3.500000
    endloop
  endfacet
  facet normal -0.707107 0.000000 -0.707107
    outer loop
      vertex -15.000000 39.000000 3.500000
      vertex -11.500000 22.755852 0.000000
      vertex -12.803125 22.175663 1.303125
    endloop
  endfacet
  facet normal -0.707107 0.000000 -0.707107
    outer loop
      vertex -15.000000 39.000000 3.500000
      vertex -12.803125 22.175663 1.303125
      vertex -15.000000 20.579540 3.500000
    endloop
  endfacet
  facet normal 0.406737 -0.913545 0.000000
    outer loop
      vertex -11.500000 22.755852 0.000000
      vertex -8.500000 24.091538 0.000000
      vertex -7.912766 24.352991 0.587234
    endloop
  endfacet
  facet normal 0.406737 -0.913545 0.000000
    outer loop
      vertex -12.803125 22.175663 20.000000
      vertex -11.500000 22.755852 0.000000
      vertex -7.912766 24.352991 20.000000
    endloop
  endfacet
  facet normal 0.406737 -0.913545 0.000000
    outer loop
      vertex -7.912766 24.352991 20.000000
      vertex -11.500000 22.755852 0.000000
      vertex -7.912766 24.352991 0.587234
    endloop
  endfacet
  facet normal 0.406737 -0.913545 0.000000
    outer loop
      vertex -12.803125 22.175663 1.303125
      vertex -11.500000 22.755852 0.000000
      vertex -12.803125 22.175663 20.000000
    endloop
  endfacet
  facet normal 0.707107 0.000000 -0.707107
    outer loop
      vertex -8.500000 39.000000 0.000000
      vertex -5.000000 39.000000 3.500000
      vertex -5.000000 24.972118 3.500000
    endloop
  endfacet
  facet normal 0.707107 0.000000 -0.707107
    outer loop
      vertex -8.500000 24.091538 0.000000
      vertex -8.500000 39.000000 0.000000
      vertex -7.912766 24.352991 0.587234
    endloop
  endfacet
  facet normal 0.707107 -0.000000 -0.707107
    outer loop
      vertex -7.912766 24.352991 0.587234
      vertex -8.500000 39.000000 0.000000
      vertex -5.000000 24.972118 3.500000
    endloop
  endfacet
  facet normal 0.000000 -1.000000 0.000000
    outer loop
      vertex -1.500000 39.000000 0.000000
      vertex -5.000000 39.000000 3.500000
      vertex -8.500000 39.000000 0.000000
    endloop
  endfacet
  facet normal -0.707107 0.000000 -0.707107
    outer loop
      vertex -1.500000 39.000000 0.000000
      vertex -1.500000 25.465976 0.000000
      vertex -5.000000 39.000000 3.500000
    endloop
  endfacet
  facet normal -0.707107 0.000000 -0.707107
    outer loop
      vertex -5.000000 39.000000 3.500000
      vertex -1.500000 25.465976 0.000000
      vertex -2.676582 25.465976 1.176582
    endloop
  endfacet
  facet normal -0.707107 0.000000 -0.707107
    outer loop
      vertex -5.000000 39.000000 3.500000
      vertex -2.676582 25.465976 1.176582
      vertex -5.000000 24.972118 3.500000
    endloop
  endfacet
  facet normal -0.000000 -1.000000 0.000000
    outer loop
      vertex -1.500000 25.465976 0.000000
      vertex 1.500000 25.465976 0.000000
      vertex 2.676582 25.465976 1.176582
    endloop
  endfacet
  facet normal 0.000000 -1.000000 0.000000
    outer loop
      vertex -2.676582 25.465976 20.000000
      vertex -1.500000 25.465976 0.000000
      vertex 2.676582 25.465976 20.000000
    endloop
  endfacet
  facet normal 0.000000 -1.000000 0.000000
    outer loop
      vertex 2.676582 25.465976 20.000000
      vertex -1.500000 25.465976 0.000000
      vertex 2.676582 25.465976 1.176582
    endloop
  endfacet
  facet normal -0.000000 -1.000000 -0.000000
    outer loop
      vertex -2.676582 25.465976 1.176582
      vertex -1.500000 25.465976 0.000000
      vertex -2.676582 25.465976 20.000000
    endloop
  endfacet
  facet normal 0.707107 0.000000 -0.707107
    outer loop
      vertex 1.500000 39.000000 0.000000
      vertex 5.000000 39.000000 3.500000
      vertex 5.000000 24.972118 3.500000
    endloop
  endfacet
  facet normal 0.707107 0.000000 -0.707107
    outer loop
      vertex 1.500000 25.465976 0.000000
      vertex 1.500000 39.000000 0.000000
      vertex 2.676582 25.465976 1.176582
    endloop
  endfacet
  facet normal 0.707107 0.000000 -0.707107
    outer loop
      vertex 2.676582 25.465976 1.176582
      vertex 1.500000 39.000000 0.000000
      vertex 5.000000 24.972118 3.500000
    endloop
  endfacet
  facet normal 0.000000 -1.000000 0.000000
    outer loop
      vertex 8.500000 39.000000 0.000000
      vertex 5.000000 39.000000 3.500000
      vertex 1.500000 39.000000 0.000000
    endloop
  endfacet
  facet normal -0.707107 0.000000 -0.707107
    outer loop
      vertex 8.500000 39.000000 0.000000
      vertex 8.500000 24.091538 0.000000
      vertex 5.000000 39.000000 3.500000
    endloop
  endfacet
  facet normal -0.707107 -0.000000 -0.707107
    outer loop
      vertex 5.000000 39.000000 3.500000
      vertex 8.500000 24.091538 0.000000
      vertex 7.912766 24.352991 0.587234
    endloop
  endfacet
  facet normal -0.707107 0.000000 -0.707107
    outer loop
      vertex 5.000000 39.000000 3.500000
      vertex 7.912766 24.352991 0.587234
      vertex 5.000000 24.972118 3.500000
    endloop
  endfacet
  facet normal -0.406737 -0.913545 0.000000
    outer loop
      vertex 8.500000 24.091538 0.000000
      vertex 11.500000 22.755852 0.000000
      vertex 12.803125 22.175663 1.303125
    endloop
  endfacet
  facet normal -0.406737 -0.913545 0.000000
    outer loop
      vertex 7.912766 24.352991 20.000000
      vertex 8.500000 24.091538 0.000000
      vertex 12.803125 22.175663 20.000000
    endloop
  endfacet
  facet normal -0.406737 -0.913545 0.000000
    outer loop
      vertex 12.803125 22.175663 20.000000
      vertex 8.500000 24.091538 0.000000
      vertex 12.803125 22.175663 1.303125
    endloop
  endfacet
  facet normal -0.406737 -0.913545 -0.000000
    outer loop
      vertex 7.912766 24.352991 0.587234
      vertex 8.500000 24.091538 0.000000
      vertex 7.912766 24.352991 20.000000
    endloop
  endfacet
  facet normal 0.707107 0.000000 -0.707107
    outer loop
      vertex 11.500000 39.000000 0.000000
      vertex 15.000000 39.000000 3.500000
      vertex 15.000000 20.579540 3.500000
    endloop
  endfacet
  facet normal 0.707107 0.000000 -0.707107
    outer loop
      vertex 11.500000 22.755852 0.000000
      vertex 11.500000 39.000000 0.000000
      vertex 12.803125 22.175663 1.303125
    endloop
  endfacet
  facet normal 0.707107 0.000000 -0.707107
    outer loop
      vertex 12.803125 22.175663 1.303125
      vertex 11.500000 39.000000 0.000000
      vertex 15.000000 20.579540 3.500000
    endloop
  endfacet
  facet normal 0.000000 -1.000000 0.000000
    outer loop
      vertex 18.500000 39.000000 0.000000
      vertex 15.000000 39.000000 3.500000
      vertex 11.500000 39.000000 0.000000
    endloop
  endfacet
  facet normal -0.707107 0.000000 -0.707107
    outer loop
      vertex 18.500000 39.000000 0.000000
      vertex 18.500000 17.511973 0.000000
      vertex 15.000000 39.000000 3.500000
    endloop
  endfacet
  facet normal -0.707107 -0.000000 -0.707107
    outer loop
      vertex 15.000000 39.000000 3.500000
      vertex 18.500000 17.511973 0.000000
      vertex 17.133926 19.029152 1.366074
    endloop
  endfacet
  facet normal -0.707107 0.000000 -0.707107
    outer loop
      vertex 15.000000 39.000000 3.500000
      vertex 17.133926 19.029152 1.366074
      vertex 15.000000 20.579540 3.500000
    endloop
  endfacet
  facet normal -0.743145 -0.669131 -0.000000
    outer loop
      vertex 20.715891 15.050976 0.000000
      vertex 20.715891 15.050976 20.000000
      vertex 18.500000 17.511973 0.000000
    endloop
  endfacet
  facet normal -0.743145 -0.669131 0.000000
    outer loop
      vertex 18.500000 17.511973 0.000000
      vertex 20.715891 15.050976 20.000000
      vertex 17.133926 19.029152 20.000000
    endloop
  endfacet
  facet normal -0.743145 -0.669131 0.000000
    outer loop
      vertex 18.500000 17.511973 0.000000
      vertex 17.133926 19.029152 20.000000
      vertex 17.133926 19.029152 1.366074
    endloop
  endfacet
  facet normal -0.866025 -0.500000 -0.000000
    outer loop
      vertex 23.392473 10.415000 1.892473
      vertex 23.392473 10.415000 20.000000
      vertex 21.500000 13.692859 0.000000
    endloop
  endfacet
  facet normal -0.866025 -0.500000 0.000000
    outer loop
      vertex 21.500000 13.692859 0.000000
      vertex 23.392473 10.415000 20.000000
      vertex 20.715891 15.050976 20.000000
    endloop
  endfacet
  facet normal -0.866025 -0.500000 0.000000
    outer loop
      vertex 21.500000 13.692859 0.000000
      vertex 20.715891 15.050976 20.000000
      vertex 20.715891 15.050976 0.000000
    endloop
  endfacet
  facet normal 0.707107 0.000000 -0.707107
    outer loop
      vertex 21.500000 24.500000 0.000000
      vertex 25.000000 21.000000 3.500000
      vertex 25.000000 5.467542 3.500000
    endloop
  endfacet
  facet normal 0.707107 0.000000 -0.707107
    outer loop
      vertex 21.500000 13.692859 0.000000
      vertex 21.500000 24.500000 0.000000
      vertex 23.392473 10.415000 1.892473
    endloop
  endfacet
  facet normal 0.707107 0.000000 -0.707107
    outer loop
      vertex 23.392473 10.415000 1.892473
      vertex 21.500000 24.500000 0.000000
      vertex 25.000000 5.467542 3.500000
    endloop
  endfacet
  facet normal 0.707107 0.707107 0.000000
    outer loop
      vertex 21.343146 24.656854 20.000000
      vertex 27.000000 19.000000 20.000000
      vertex 27.000000 19.000000 1.500000
    endloop
  endfacet
  facet normal 0.707107 0.707107 -0.000000
    outer loop
      vertex 21.500000 24.500000 0.000000
      vertex 21.343146 24.656854 20.000000
      vertex 25.000000 21.000000 3.500000
    endloop
  endfacet
  facet normal 0.707107 0.707107 -0.000000
    outer loop
      vertex 25.000000 21.000000 3.500000
      vertex 21.343146 24.656854 20.000000
      vertex 27.000000 19.000000 1.500000
    endloop
  endfacet
  facet normal 0.707107 0.707107 0.000000
    outer loop
      vertex 21.343146 24.656854 0.000000
      vertex 21.343146 24.656854 20.000000
      vertex 21.500000 24.500000 0.000000
    endloop
  endfacet
  facet normal 0.707107 -0.707107 0.000000
    outer loop
      vertex 21.500000 24.813708 0.000000
      vertex 25.000000 28.313708 3.500000
      vertex 27.000000 30.313708 20.000000
    endloop
  endfacet
  facet normal 0.707107 -0.707107 0.000000
    outer loop
      vertex 27.000000 30.313708 20.000000
      vertex 25.000000 28.313708 3.500000
      vertex 27.000000 30.313708 1.500000
    endloop
  endfacet
  facet normal 0.707107 -0.707107 0.000000
    outer loop
      vertex 21.500000 24.813708 0.000000
      vertex 27.000000 30.313708 20.000000
      vertex 21.343146 24.656854 20.000000
    endloop
  endfacet
  facet normal 0.707107 -0.707107 0.000000
    outer loop
      vertex 21.500000 24.813708 0.000000
      vertex 21.343146 24.656854 20.000000
      vertex 21.343146 24.656854 0.000000
    endloop
  endfacet
  facet normal 0.707107 0.000000 -0.707107
    outer loop
      vertex 21.500000 39.000000 0.000000
      vertex 25.000000 39.000000 3.500000
      vertex 25.000000 28.313708 3.500000
    endloop
  endfacet
  facet normal 0.707107 0.000000 -0.707107
    outer loop
      vertex 21.500000 24.813708 0.000000
      vertex 21.500000 39.000000 0.000000
      vertex 25.000000 28.313708 3.500000
    endloop
  endfacet
  facet normal 0.000000 -1.000000 0.000000
    outer loop
      vertex 28.500000 39.000000 0.000000
      vertex 25.000000 39.000000 3.500000
      vertex 21.500000 39.000000 0.000000
    endloop
  endfacet
  facet normal -0.707107 0.000000 -0.707107
    outer loop
      vertex 28.500000 39.000000 0.000000
      vertex 28.500000 28.813708 0.000000
      vertex 25.000000 39.000000 3.500000
    endloop
  endfacet
  facet normal -0.707107 0.000000 -0.707107
    outer loop
      vertex 25.000000 39.000000 3.500000
      vertex 28.500000 28.813708 0.000000
      vertex 27.000000 30.313708 1.500000
    endloop
  endfacet
  facet normal -0.707107 0.000000 -0.707107
    outer loop
      vertex 25.000000 39.000000 3.500000
      vertex 27.000000 30.313708 1.500000
      vertex 25.000000 28.313708 3.500000
    endloop
  endfacet
  facet normal -0.707107 -0.707107 0.000000
    outer loop
      vertex 31.500000 25.813708 0.000000
      vertex 32.656854 24.656854 1.156854
      vertex 28.500000 28.813708 0.000000
    endloop
  endfacet
  facet normal -0.707107 -0.707107 0.000000
    outer loop
      vertex 28.500000 28.813708 0.000000
      vertex 32.656854 24.656854 1.156854
      vertex 32.656854 24.656854 20.000000
    endloop
  endfacet
  facet normal -0.707107 -0.707107 -0.000000
    outer loop
      vertex 28.500000 28.813708 0.000000
      vertex 32.656854 24.656854 20.000000
      vertex 27.000000 30.313708 20.000000
    endloop
  endfacet
  facet normal -0.707107 -0.707107 0.000000
    outer loop
      vertex 28.500000 28.813708 0.000000
      vertex 27.000000 30.313708 20.000000
      vertex 27.000000 30.313708 1.500000
    endloop
  endfacet
  facet normal 0.707107 0.000000 -0.707107
    outer loop
      vertex 31.500000 39.000000 0.000000
      vertex 32.656854 24.656854 1.156854
      vertex 31.500000 25.813708 0.000000
    endloop
  endfacet
  facet normal 0.707107 -0.000000 -0.707107
    outer loop
      vertex 35.000000 39.000000 3.500000
      vertex 32.656854 24.656854 1.156854
      vertex 31.500000 39.000000 0.000000
    endloop
  endfacet
  facet normal 0.707107 0.000000 -0.707107
    outer loop
      vertex 31.500000 23.500000 0.000000
      vertex 32.656854 24.656854 1.156854
      vertex 35.000000 -39.000000 3.500000
    endloop
  endfacet
  facet normal 0.707107 -0.000000 -0.707107
    outer loop
      vertex 35.000000 -39.000000 3.500000
      vertex 32.656854 24.656854 1.156854
      vertex 35.000000 39.000000 3.500000
    endloop
  endfacet
  facet normal 0.707107 0.000000 -0.707107
    outer loop
      vertex 31.500000 -39.000000 0.000000
      vertex 31.500000 23.500000 0.000000
      vertex 35.000000 -39.000000 3.500000
    endloop
  endfacet
  facet normal 0.000000 -1.000000 0.000000
    outer loop
      vertex 38.500000 39.000000 0.000000
      vertex 35.000000 39.000000 3.500000
      vertex 31.500000 39.000000 0.000000
    endloop
  endfacet
  facet normal -0.707107 0.000000 -0.707107
    outer loop
      vertex 38.500000 39.000000 0.000000
      vertex 38.500000 -39.000000 0.000000
      vertex 35.000000 39.000000 3.500000
    endloop
  endfacet
  facet normal -0.707107 0.000000 -0.707107
    outer loop
      vertex 35.000000 39.000000 3.500000
      vertex 38.500000 -39.000000 0.000000
      vertex 35.000000 -39.000000 3.500000
    endloop
  endfacet
  facet normal 0.000000 1.000000 0.000000
    outer loop
      vertex 35.000000 -39.000000 3.500000
      vertex 38.500000 -39.000000 0.000000
      vertex 31.500000 -39.000000 0.000000
    endloop
  endfacet
  facet normal -0.707107 0.707107 0.000000
    outer loop
      vertex 32.656854 24.656854 20.000000
      vertex 32.656854 24.656854 1.156854
      vertex 27.000000 19.000000 20.000000
    endloop
  endfacet
  facet normal -0.707107 0.707107 -0.000000
    outer loop
      vertex 27.000000 19.000000 20.000000
      vertex 32.656854 24.656854 1.156854
      vertex 31.500000 23.500000 0.000000
    endloop
  endfacet
  facet normal -0.707107 0.707107 0.000000
    outer loop
      vertex 27.000000 19.000000 20.000000
      vertex 31.500000 23.500000 0.000000
      vertex 28.500000 20.500000 0.000000
    endloop
  endfacet
  facet normal -0.707107 0.707107 0.000000
    outer loop
      vertex 27.000000 19.000000 20.000000
      vertex 28.500000 20.500000 0.000000
      vertex 27.000000 19.000000 1.500000
    endloop
  endfacet
  facet normal -0.707107 0.000000 -0.707107
    outer loop
      vertex 27.000000 19.000000 1.500000
      vertex 25.606250 0.000000 2.893750
      vertex 25.000000 21.000000 3.500000
    endloop
  endfacet
  facet normal -0.707107 0.000000 -0.707107
    outer loop
      vertex 25.000000 21.000000 3.500000
      vertex 25.046692 5.323839 3.453308
      vertex 25.000000 5.467542 3.500000
    endloop
  endfacet
  facet normal -0.707107 0.000000 -0.707107
    outer loop
      vertex 25.606250 0.000000 2.893750
      vertex 25.046692 5.323839 3.453308
      vertex 25.000000 21.000000 3.500000
    endloop
  endfacet
  facet normal -0.707107 0.000000 -0.707107
    outer loop
      vertex 25.046692 -5.323839 3.453308
      vertex 25.606250 0.000000 2.893750
      vertex 28.500000 20.500000 0.000000
    endloop
  endfacet
  facet normal -0.707107 0.000000 -0.707107
    outer loop
      vertex 25.606250 0.000000 2.893750
      vertex 27.000000 19.000000 1.500000
      vertex 28.500000 20.500000 0.000000
    endloop
  endfacet
  facet normal -0.707107 0.000000 -0.707107
    outer loop
      vertex 25.046692 -5.323839 3.453308
      vertex 28.500000 20.500000 0.000000
      vertex 28.500000 -39.000000 0.000000
    endloop
  endfacet
  facet normal -0.707107 0.000000 -0.707107
    outer loop
      vertex 25.046692 -5.323839 3.453308
      vertex 28.500000 -39.000000 0.000000
      vertex 25.000000 -5.467542 3.500000
    endloop
  endfacet
  facet normal -0.707107 0.000000 -0.707107
    outer loop
      vertex 28.500000 -39.000000 0.000000
      vertex 25.000000 -39.000000 3.500000
      vertex 25.000000 -5.467542 3.500000
    endloop
  endfacet
  facet normal 0.000000 1.000000 0.000000
    outer loop
      vertex 25.000000 -39.000000 3.500000
      vertex 28.500000 -39.000000 0.000000
      vertex 21.500000 -39.000000 0.000000
    endloop
  endfacet
  facet normal 0.707107 -0.000000 -0.707107
    outer loop
      vertex 21.500000 -13.692859 0.000000
      vertex 23.392473 -10.415000 1.892473
      vertex 25.000000 -39.000000 3.500000
    endloop
  endfacet
  facet normal 0.707107 0.000000 -0.707107
    outer loop
      vertex 25.000000 -39.000000 3.500000
      vertex 23.392473 -10.415000 1.892473
      vertex 25.000000 -5.467542 3.500000
    endloop
  endfacet
  facet normal 0.707107 0.000000 -0.707107
    outer loop
      vertex 21.500000 -13.692859 0.000000
      vertex 25.000000 -39.000000 3.500000
      vertex 21.500000 -39.000000 0.000000
    endloop
  endfacet
  facet normal -0.866025 0.500000 0.000000
    outer loop
      vertex 23.392473 -10.415000 20.000000
      vertex 23.392473 -10.415000 1.892473
      vertex 20.715891 -15.050976 20.000000
    endloop
  endfacet
  facet normal -0.866025 0.500000 0.000000
    outer loop
      vertex 20.715891 -15.050976 20.000000
      vertex 23.392473 -10.415000 1.892473
      vertex 21.500000 -13.692859 0.000000
    endloop
  endfacet
  facet normal -0.866025 0.500000 0.000000
    outer loop
      vertex 20.715891 -15.050976 20.000000
      vertex 21.500000 -13.692859 0.000000
      vertex 20.715891 -15.050976 0.000000
    endloop
  endfacet
  facet normal -0.743145 0.669131 0.000000
    outer loop
      vertex 20.715891 -15.050976 20.000000
      vertex 20.715891 -15.050976 0.000000
      vertex 17.133926 -19.029152 20.000000
    endloop
  endfacet
  facet normal -0.743145 0.669131 0.000000
    outer loop
      vertex 17.133926 -19.029152 20.000000
      vertex 20.715891 -15.050976 0.000000
      vertex 18.500000 -17.511973 0.000000
    endloop
  endfacet
  facet normal -0.743145 0.669131 0.000000
    outer loop
      vertex 17.133926 -19.029152 20.000000
      vertex 18.500000 -17.511973 0.000000
      vertex 17.133926 -19.029152 1.366074
    endloop
  endfacet
  facet normal -0.707107 0.000000 -0.707107
    outer loop
      vertex 17.133926 -19.029152 1.366074
      vertex 18.500000 -17.511973 0.000000
      vertex 18.500000 -39.000000 0.000000
    endloop
  endfacet
  facet normal -0.707107 0.000000 -0.707107
    outer loop
      vertex 17.133926 -19.029152 1.366074
      vertex 18.500000 -39.000000 0.000000
      vertex 15.000000 -20.579540 3.500000
    endloop
  endfacet
  facet normal -0.707107 0.000000 -0.707107
    outer loop
      vertex 18.500000 -39.000000 0.000000
      vertex 15.000000 -39.000000 3.500000
      vertex 15.000000 -20.579540 3.500000
    endloop
  endfacet
  facet normal 0.000000 1.000000 0.000000
    outer loop
      vertex 15.000000 -39.000000 3.500000
      vertex 18.500000 -39.000000 0.000000
      vertex 11.500000 -39.000000 0.000000
    endloop
  endfacet
  facet normal 0.707107 -0.000000 -0.707107
    outer loop
      vertex 11.500000 -22.755852 0.000000
      vertex 12.803125 -22.175663 1.303125
      vertex 15.000000 -39.000000 3.500000
    endloop
  endfacet
  facet normal 0.707107 0.000000 -0.707107
    outer loop
      vertex 15.000000 -39.000000 3.500000
      vertex 12.803125 -22.175663 1.303125
      vertex 15.000000 -20.579540 3.500000
    endloop
  endfacet
  facet normal 0.707107 0.000000 -0.707107
    outer loop
      vertex 11.500000 -22.755852 0.000000
      vertex 15.000000 -39.000000 3.500000
      vertex 11.500000 -39.000000 0.000000
    endloop
  endfacet
  facet normal -0.406737 0.913545 0.000000
    outer loop
      vertex 12.803125 -22.175663 20.000000
      vertex 12.803125 -22.175663 1.303125
      vertex 7.912766 -24.352991 20.000000
    endloop
  endfacet
  facet normal -0.406737 0.913545 0.000000
    outer loop
      vertex 7.912766 -24.352991 20.000000
      vertex 12.803125 -22.175663 1.303125
      vertex 11.500000 -22.755852 0.000000
    endloop
  endfacet
  facet normal -0.406737 0.913545 0.000000
    outer loop
      vertex 7.912766 -24.352991 20.000000
      vertex 11.500000 -22.755852 0.000000
      vertex 8.500000 -24.091538 0.000000
    endloop
  endfacet
  facet normal -0.406737 0.913545 0.000000
    outer loop
      vertex 7.912766 -24.352991 20.000000
      vertex 8.500000 -24.091538 0.000000
      vertex 7.912766 -24.352991 0.587234
    endloop
  endfacet
  facet normal -0.707107 0.000000 -0.707107
    outer loop
      vertex 7.912766 -24.352991 0.587234
      vertex 8.500000 -24.091538 0.000000
      vertex 8.500000 -39.000000 0.000000
    endloop
  endfacet
  facet normal -0.707107 0.000000 -0.707107
    outer loop
      vertex 7.912766 -24.352991 0.587234
      vertex 8.500000 -39.000000 0.000000
      vertex 5.000000 -24.972118 3.500000
    endloop
  endfacet
  facet normal -0.707107 0.000000 -0.707107
    outer loop
      vertex 8.500000 -39.000000 0.000000
      vertex 5.000000 -39.000000 3.500000
      vertex 5.000000 -24.972118 3.500000
    endloop
  endfacet
  facet normal 0.000000 1.000000 0.000000
    outer loop
      vertex 5.000000 -39.000000 3.500000
      vertex 8.500000 -39.000000 0.000000
      vertex 1.500000 -39.000000 0.000000
    endloop
  endfacet
  facet normal 0.707107 -0.000000 -0.707107
    outer loop
      vertex 1.500000 -25.465976 0.000000
      vertex 2.676582 -25.465976 1.176582
      vertex 5.000000 -39.000000 3.500000
    endloop
  endfacet
  facet normal 0.707107 0.000000 -0.707107
    outer loop
      vertex 5.000000 -39.000000 3.500000
      vertex 2.676582 -25.465976 1.176582
      vertex 5.000000 -24.972118 3.500000
    endloop
  endfacet
  facet normal 0.707107 0.000000 -0.707107
    outer loop
      vertex 1.500000 -25.465976 0.000000
      vertex 5.000000 -39.000000 3.500000
      vertex 1.500000 -39.000000 0.000000
    endloop
  endfacet
  facet normal 0.000000 1.000000 0.000000
    outer loop
      vertex 2.676582 -25.465976 20.000000
      vertex 2.676582 -25.465976 1.176582
      vertex -2.676582 -25.465976 20.000000
    endloop
  endfacet
  facet normal 0.000000 1.000000 0.000000
    outer loop
      vertex -2.676582 -25.465976 20.000000
      vertex 2.676582 -25.465976 1.176582
      vertex 1.500000 -25.465976 0.000000
    endloop
  endfacet
  facet normal 0.000000 1.000000 0.000000
    outer loop
      vertex -2.676582 -25.465976 20.000000
      vertex 1.500000 -25.465976 0.000000
      vertex -1.500000 -25.465976 0.000000
    endloop
  endfacet
  facet normal 0.000000 1.000000 -0.000000
    outer loop
      vertex -2.676582 -25.465976 20.000000
      vertex -1.500000 -25.465976 0.000000
      vertex -2.676582 -25.465976 1.176582
    endloop
  endfacet
  facet normal -0.707107 0.000000 -0.707107
    outer loop
      vertex -2.676582 -25.465976 1.176582
      vertex -1.500000 -25.465976 0.000000
      vertex -1.500000 -39.000000 0.000000
    endloop
  endfacet
  facet normal -0.707107 0.000000 -0.707107
    outer loop
      vertex -2.676582 -25.465976 1.176582
      vertex -1.500000 -39.000000 0.000000
      vertex -5.000000 -24.972118 3.500000
    endloop
  endfacet
  facet normal -0.707107 0.000000 -0.707107
    outer loop
      vertex -1.500000 -39.000000 0.000000
      vertex -5.000000 -39.000000 3.500000
      vertex -5.000000 -24.972118 3.500000
    endloop
  endfacet
  facet normal 0.000000 1.000000 0.000000
    outer loop
      vertex -5.000000 -39.000000 3.500000
      vertex -1.500000 -39.000000 0.000000
      vertex -8.500000 -39.000000 0.000000
    endloop
  endfacet
  facet normal 0.707107 0.000000 -0.707107
    outer loop
      vertex -8.500000 -24.091538 0.000000
      vertex -7.912766 -24.352991 0.587234
      vertex -5.000000 -39.000000 3.500000
    endloop
  endfacet
  facet normal 0.707107 0.000000 -0.707107
    outer loop
      vertex -5.000000 -39.000000 3.500000
      vertex -7.912766 -24.352991 0.587234
      vertex -5.000000 -24.972118 3.500000
    endloop
  endfacet
  facet normal 0.707107 0.000000 -0.707107
    outer loop
      vertex -8.500000 -24.091538 0.000000
      vertex -5.000000 -39.000000 3.500000
      vertex -8.500000 -39.000000 0.000000
    endloop
  endfacet
  facet normal 0.406737 0.913545 -0.000000
    outer loop
      vertex -7.912766 -24.352991 20.000000
      vertex -7.912766 -24.352991 0.587234
      vertex -12.803125 -22.175663 20.000000
    endloop
  endfacet
  facet normal 0.406737 0.913545 0.000000
    outer loop
      vertex -12.803125 -22.175663 20.000000
      vertex -7.912766 -24.352991 0.587234
      vertex -8.500000 -24.091538 0.000000
    endloop
  endfacet
  facet normal 0.406737 0.913545 -0.000000
    outer loop
      vertex -12.803125 -22.175663 20.000000
      vertex -8.500000 -24.091538 0.000000
      vertex -11.500000 -22.755852 0.000000
    endloop
  endfacet
  facet normal 0.406737 0.913545 -0.000000
    outer loop
      vertex -12.803125 -22.175663 20.000000
      vertex -11.500000 -22.755852 0.000000
      vertex -12.803125 -22.175663 1.303125
    endloop
  endfacet
  facet normal -0.707107 0.000000 -0.707107
    outer loop
      vertex -12.803125 -22.175663 1.303125
      vertex -11.500000 -22.755852 0.000000
      vertex -11.500000 -39.000000 0.000000
    endloop
  endfacet
  facet normal -0.707107 0.000000 -0.707107
    outer loop
      vertex -12.803125 -22.175663 1.303125
      vertex -11.500000 -39.000000 0.000000
      vertex -15.000000 -20.579540 3.500000
    endloop
  endfacet
  facet normal -0.707107 0.000000 -0.707107
    outer loop
      vertex -11.500000 -39.000000 0.000000
      vertex -15.000000 -39.000000 3.500000
      vertex -15.000000 -20.579540 3.500000
    endloop
  endfacet
  facet normal 0.000000 1.000000 0.000000
    outer loop
      vertex -15.000000 -39.000000 3.500000
      vertex -11.500000 -39.000000 0.000000
      vertex -18.500000 -39.000000 0.000000
    endloop
  endfacet
  facet normal 0.707107 0.000000 -0.707107
    outer loop
      vertex -18.500000 -17.511973 0.000000
      vertex -17.133926 -19.029152 1.366074
      vertex -15.000000 -39.000000 3.500000
    endloop
  endfacet
  facet normal 0.707107 0.000000 -0.707107
    outer loop
      vertex -15.000000 -39.000000 3.500000
      vertex -17.133926 -19.029152 1.366074
      vertex -15.000000 -20.579540 3.500000
    endloop
  endfacet
  facet normal 0.707107 0.000000 -0.707107
    outer loop
      vertex -18.500000 -17.511973 0.000000
      vertex -15.000000 -39.000000 3.500000
      vertex -18.500000 -39.000000 0.000000
    endloop
  endfacet
  facet normal 0.743145 0.669131 0.000000
    outer loop
      vertex -20.715891 -15.050976 20.000000
      vertex -17.133926 -19.029152 20.000000
      vertex -17.133926 -19.029152 1.366074
    endloop
  endfacet
  facet normal 0.743145 0.669131 0.000000
    outer loop
      vertex -20.715891 -15.050976 0.000000
      vertex -20.715891 -15.050976 20.000000
      vertex -18.500000 -17.511973 0.000000
    endloop
  endfacet
  facet normal 0.743145 0.669131 0.000000
    outer loop
      vertex -18.500000 -17.511973 0.000000
      vertex -20.715891 -15.050976 20.000000
      vertex -17.133926 -19.029152 1.366074
    endloop
  endfacet
  facet normal 0.866025 0.500000 0.000000
    outer loop
      vertex -23.392473 -10.415000 20.000000
      vertex -20.715891 -15.050976 20.000000
      vertex -20.715891 -15.050976 0.000000
    endloop
  endfacet
  facet normal 0.866025 0.500000 0.000000
    outer loop
      vertex -23.392473 -10.415000 1.892473
      vertex -23.392473 -10.415000 20.000000
      vertex -21.500000 -13.692859 0.000000
    endloop
  endfacet
  facet normal 0.866025 0.500000 0.000000
    outer loop
      vertex -21.500000 -13.692859 0.000000
      vertex -23.392473 -10.415000 20.000000
      vertex -20.715891 -15.050976 0.000000
    endloop
  endfacet
  facet normal -0.707107 0.000000 -0.707107
    outer loop
      vertex -23.392473 -10.415000 1.892473
      vertex -21.500000 -13.692859 0.000000
      vertex -21.500000 -39.000000 0.000000
    endloop
  endfacet
  facet normal -0.707107 -0.000000 -0.707107
    outer loop
      vertex -23.392473 -10.415000 1.892473
      vertex -21.500000 -39.000000 0.000000
      vertex -25.000000 -5.467542 3.500000
    endloop
  endfacet
  facet normal -0.707107 0.000000 -0.707107
    outer loop
      vertex -21.500000 -39.000000 0.000000
      vertex -25.000000 -39.000000 3.500000
      vertex -25.000000 -5.467542 3.500000
    endloop
  endfacet
  facet normal 0.000000 1.000000 0.000000
    outer loop
      vertex -25.000000 -39.000000 3.500000
      vertex -21.500000 -39.000000 0.000000
      vertex -28.500000 -39.000000 0.000000
    endloop
  endfacet
  facet normal 0.994522 0.104528 0.000000
    outer loop
      vertex -25.606250 0.000000 20.000000
      vertex -25.046692 -5.323839 20.000000
      vertex -25.046692 -5.323839 3.453308
    endloop
  endfacet
  facet normal 0.994522 0.104528 0.000000
    outer loop
      vertex -25.606250 0.000000 2.893750
      vertex -25.606250 0.000000 20.000000
      vertex -25.046692 -5.323839 3.453308
    endloop
  endfacet
  facet normal 0.951056 0.309017 0.000000
    outer loop
      vertex -25.046692 -5.323839 20.000000
      vertex -23.392473 -10.415000 20.000000
      vertex -23.392473 -10.415000 1.892473
    endloop
  endfacet
  facet normal 0.951056 0.309017 0.000000
    outer loop
      vertex -25.046692 -5.323839 3.453308
      vertex -25.046692 -5.323839 20.000000
      vertex -25.000000 -5.467542 3.500000
    endloop
  endfacet
  facet normal 0.951056 0.309017 0.000000
    outer loop
      vertex -25.000000 -5.467542 3.500000
      vertex -25.046692 -5.323839 20.000000
      vertex -23.392473 -10.415000 1.892473
    endloop
  endfacet
  facet normal 0.587785 0.809017 -0.000000
    outer loop
      vertex -12.803125 -22.175663 20.000000
      vertex -12.803125 -22.175663 1.303125
      vertex -17.133926 -19.029152 20.000000
    endloop
  endfacet
  facet normal 0.587785 0.809017 0.000000
    outer loop
      vertex -17.133926 -19.029152 20.000000
      vertex -12.803125 -22.175663 1.303125
      vertex -15.000000 -20.579540 3.500000
    endloop
  endfacet
  facet normal 0.587785 0.809017 -0.000000
    outer loop
      vertex -17.133926 -19.029152 20.000000
      vertex -15.000000 -20.579540 3.500000
      vertex -17.133926 -19.029152 1.366074
    endloop
  endfacet
  facet normal 0.207912 0.978148 -0.000000
    outer loop
      vertex -2.676582 -25.465976 20.000000
      vertex -2.676582 -25.465976 1.176582
      vertex -7.912766 -24.352991 20.000000
    endloop
  endfacet
  facet normal 0.207912 0.978148 0.000000
    outer loop
      vertex -7.912766 -24.352991 20.000000
      vertex -2.676582 -25.465976 1.176582
      vertex -5.000000 -24.972118 3.500000
    endloop
  endfacet
  facet normal 0.207912 0.978148 -0.000000
    outer loop
      vertex -7.912766 -24.352991 20.000000
      vertex -5.000000 -24.972118 3.500000
      vertex -7.912766 -24.352991 0.587234
    endloop
  endfacet
  facet normal -0.207912 0.978148 0.000000
    outer loop
      vertex 7.912766 -24.352991 20.000000
      vertex 7.912766 -24.352991 0.587234
      vertex 2.676582 -25.465976 20.000000
    endloop
  endfacet
  facet normal -0.207912 0.978148 0.000000
    outer loop
      vertex 2.676582 -25.465976 20.000000
      vertex 7.912766 -24.352991 0.587234
      vertex 5.000000 -24.972118 3.500000
    endloop
  endfacet
  facet normal -0.207912 0.978148 0.000000
    outer loop
      vertex 2.676582 -25.465976 20.000000
      vertex 5.000000 -24.972118 3.500000
      vertex 2.676582 -25.465976 1.176582
    endloop
  endfacet
  facet normal -0.587785 0.809017 0.000000
    outer loop
      vertex 17.133926 -19.029152 20.000000
      vertex 17.133926 -19.029152 1.366074
      vertex 12.803125 -22.175663 20.000000
    endloop
  endfacet
  facet normal -0.587785 0.809017 0.000000
    outer loop
      vertex 12.803125 -22.175663 20.000000
      vertex 17.133926 -19.029152 1.366074
      vertex 15.000000 -20.579540 3.500000
    endloop
  endfacet
  facet normal -0.587785 0.809017 0.000000
    outer loop
      vertex 12.803125 -22.175663 20.000000
      vertex 15.000000 -20.579540 3.500000
      vertex 12.803125 -22.175663 1.303125
    endloop
  endfacet
  facet normal -0.951056 0.309017 0.000000
    outer loop
      vertex 25.046692 -5.323839 20.000000
      vertex 25.046692 -5.323839 3.453308
      vertex 23.392473 -10.415000 20.000000
    endloop
  endfacet
  facet normal -0.951056 0.309017 0.000000
    outer loop
      vertex 23.392473 -10.415000 20.000000
      vertex 25.046692 -5.323839 3.453308
      vertex 25.000000 -5.467542 3.500000
    endloop
  endfacet
  facet normal -0.951056 0.309017 0.000000
    outer loop
      vertex 23.392473 -10.415000 20.000000
      vertex 25.000000 -5.467542 3.500000
      vertex 23.392473 -10.415000 1.892473
    endloop
  endfacet
  facet normal -0.994522 0.104528 0.000000
    outer loop
      vertex 25.606250 0.000000 20.000000
      vertex 25.606250 0.000000 2.893750
      vertex 25.046692 -5.323839 20.000000
    endloop
  endfacet
  facet normal -0.994522 0.104528 0.000000
    outer loop
      vertex 25.046692 -5.323839 20.000000
      vertex 25.606250 0.000000 2.893750
      vertex 25.046692 -5.323839 3.453308
    endloop
  endfacet
  facet normal -0.994522 -0.104528 0.000000
    outer loop
      vertex 25.606250 0.000000 20.000000
      vertex 25.046692 5.323839 20.000000
      vertex 25.606250 0.000000 2.893750
    endloop
  endfacet
  facet normal -0.994522 -0.104528 0.000000
    outer loop
      vertex 25.606250 0.000000 2.893750
      vertex 25.046692 5.323839 20.000000
      vertex 25.046692 5.323839 3.453308
    endloop
  endfacet
  facet normal -0.951056 -0.309017 -0.000000
    outer loop
      vertex 25.046692 5.323839 3.453308
      vertex 25.046692 5.323839 20.000000
      vertex 25.000000 5.467542 3.500000
    endloop
  endfacet
  facet normal -0.951056 -0.309017 0.000000
    outer loop
      vertex 25.000000 5.467542 3.500000
      vertex 25.046692 5.323839 20.000000
      vertex 23.392473 10.415000 20.000000
    endloop
  endfacet
  facet normal -0.951056 -0.309017 0.000000
    outer loop
      vertex 25.000000 5.467542 3.500000
      vertex 23.392473 10.415000 20.000000
      vertex 23.392473 10.415000 1.892473
    endloop
  endfacet
  facet normal -0.587785 -0.809017 0.000000
    outer loop
      vertex 15.000000 20.579540 3.500000
      vertex 17.133926 19.029152 1.366074
      vertex 17.133926 19.029152 20.000000
    endloop
  endfacet
  facet normal -0.587785 -0.809017 -0.000000
    outer loop
      vertex 12.803125 22.175663 1.303125
      vertex 15.000000 20.579540 3.500000
      vertex 12.803125 22.175663 20.000000
    endloop
  endfacet
  facet normal -0.587785 -0.809017 0.000000
    outer loop
      vertex 12.803125 22.175663 20.000000
      vertex 15.000000 20.579540 3.500000
      vertex 17.133926 19.029152 20.000000
    endloop
  endfacet
  facet normal -0.207912 -0.978148 0.000000
    outer loop
      vertex 5.000000 24.972118 3.500000
      vertex 7.912766 24.352991 0.587234
      vertex 7.912766 24.352991 20.000000
    endloop
  endfacet
  facet normal -0.207912 -0.978148 -0.000000
    outer loop
      vertex 2.676582 25.465976 1.176582
      vertex 5.000000 24.972118 3.500000
      vertex 2.676582 25.465976 20.000000
    endloop
  endfacet
  facet normal -0.207912 -0.978148 0.000000
    outer loop
      vertex 2.676582 25.465976 20.000000
      vertex 5.000000 24.972118 3.500000
      vertex 7.912766 24.352991 20.000000
    endloop
  endfacet
  facet normal 0.207912 -0.978148 0.000000
    outer loop
      vertex -5.000000 24.972118 3.500000
      vertex -2.676582 25.465976 1.176582
      vertex -2.676582 25.465976 20.000000
    endloop
  endfacet
  facet normal 0.207912 -0.978148 0.000000
    outer loop
      vertex -7.912766 24.352991 0.587234
      vertex -5.000000 24.972118 3.500000
      vertex -7.912766 24.352991 20.000000
    endloop
  endfacet
  facet normal 0.207912 -0.978148 0.000000
    outer loop
      vertex -7.912766 24.352991 20.000000
      vertex -5.000000 24.972118 3.500000
      vertex -2.676582 25.465976 20.000000
    endloop
  endfacet
  facet normal 0.587785 -0.809017 0.000000
    outer loop
      vertex -15.000000 20.579540 3.500000
      vertex -12.803125 22.175663 1.303125
      vertex -12.803125 22.175663 20.000000
    endloop
  endfacet
  facet normal 0.587785 -0.809017 0.000000
    outer loop
      vertex -17.133926 19.029152 1.366074
      vertex -15.000000 20.579540 3.500000
      vertex -17.133926 19.029152 20.000000
    endloop
  endfacet
  facet normal 0.587785 -0.809017 0.000000
    outer loop
      vertex -17.133926 19.029152 20.000000
      vertex -15.000000 20.579540 3.500000
      vertex -12.803125 22.175663 20.000000
    endloop
  endfacet
  facet normal 0.951056 -0.309017 0.000000
    outer loop
      vertex -25.000000 5.467542 3.500000
      vertex -23.392473 10.415000 1.892473
      vertex -23.392473 10.415000 20.000000
    endloop
  endfacet
  facet normal 0.951056 -0.309017 0.000000
    outer loop
      vertex -25.046692 5.323839 3.453308
      vertex -25.000000 5.467542 3.500000
      vertex -25.046692 5.323839 20.000000
    endloop
  endfacet
  facet normal 0.951056 -0.309017 0.000000
    outer loop
      vertex -25.046692 5.323839 20.000000
      vertex -25.000000 5.467542 3.500000
      vertex -23.392473 10.415000 20.000000
    endloop
  endfacet
  facet normal 0.994522 -0.104528 0.000000
    outer loop
      vertex -25.046692 5.323839 3.453308
      vertex -25.046692 5.323839 20.000000
      vertex -25.606250 0.000000 20.000000
    endloop
  endfacet
  facet normal 0.994522 -0.104528 0.000000
    outer loop
      vertex -25.606250 0.000000 2.893750
      vertex -25.046692 5.323839 3.453308
      vertex -25.606250 0.000000 20.000000
    endloop
  endfacet
endsolid OpenSCAD_Model
