solid OpenSCAD_Model
  facet normal -1.000000 0.000000 0.000000
    outer loop
      vertex 0.000000 0.000000 0.000000
      vertex 0.000000 0.000000 15.000000
      vertex 0.000000 3.000000 0.000000
    endloop
  endfacet
  facet normal -1.000000 0.000000 0.000000
    outer loop
      vertex 0.000000 3.000000 0.000000
      vertex 0.000000 0.000000 15.000000
      vertex 0.000000 3.000000 15.000000
    endloop
  endfacet
  facet normal 0.000000 -1.000000 0.000000
    outer loop
      vertex 0.000000 0.000000 15.000000
      vertex 0.000000 0.000000 0.000000
      vertex 15.000000 0.000000 0.000000
    endloop
  endfacet
  facet normal 0.000000 -1.000000 0.000000
    outer loop
      vertex 15.000000 0.000000 15.000000
      vertex 0.000000 0.000000 15.000000
      vertex 15.000000 0.000000 0.000000
    endloop
  endfacet
  facet normal 0.000000 0.000000 -1.000000
    outer loop
      vertex 0.000000 0.000000 0.000000
      vertex 0.000000 3.000000 0.000000
      vertex 15.000000 0.000000 0.000000
    endloop
  endfacet
  facet normal 0.000000 0.000000 -1.000000
    outer loop
      vertex 15.000000 0.000000 0.000000
      vertex 0.000000 3.000000 0.000000
      vertex 15.000000 3.000000 0.000000
    endloop
  endfacet
  facet normal 0.000000 1.000000 0.000000
    outer loop
      vertex 0.000000 3.000000 0.000000
      vertex 0.000000 3.000000 15.000000
      vertex 15.000000 3.000000 0.000000
    endloop
  endfacet
  facet normal 0.000000 1.000000 0.000000
    outer loop
      vertex 15.000000 3.000000 0.000000
      vertex 0.000000 3.000000 15.000000
      vertex 15.000000 3.000000 15.000000
    endloop
  endfacet
  facet normal 0.000000 0.000000 1.000000
    outer loop
      vertex 0.000000 3.000000 15.000000
      vertex 0.000000 0.000000 15.000000
      vertex 15.000000 0.000000 15.000000
    endloop
  endfacet
  facet normal 0.000000 0.000000 1.000000
    outer loop
      vertex 15.000000 3.000000 15.000000
      vertex 0.000000 3.000000 15.000000
      vertex 15.000000 0.000000 15.000000
    endloop
  endfacet
  facet normal 1.000000 0.000000 0.000000
    outer loop
      vertex 15.000000 0.000000 15.000000
      vertex 15.000000 0.000000 0.000000
      vertex 15.000000 3.000000 0.000000
    endloop
  endfacet
  facet normal 1.000000 0.000000 0.000000
    outer loop
      vertex 15.000000 3.000000 15.000000
      vertex 15.000000 0.000000 15.000000
      vertex 15.000000 3.000000 0.000000
    endloop
  endfacet
  facet normal 0.000000 0.000000 1.000000
    outer loop
      vertex 12.500000 8.000000 4.000000
      vertex 2.500000 8.000000 4.000000
      vertex 2.500000 7.430469 4.000000
    endloop
  endfacet
  facet normal 0.000000 0.000000 1.000000
    outer loop
      vertex 9.397752 3.000000 4.000000
      vertex 12.500000 8.000000 4.000000
      vertex 5.602248 3.000000 4.000000
    endloop
  endfacet
  facet normal 0.000000 0.000000 1.000000
    outer loop
      vertex 5.602248 3.000000 4.000000
      vertex 12.500000 8.000000 4.000000
      vertex 2.500000 7.430469 4.000000
    endloop
  endfacet
  facet normal 0.000000 0.000000 1.000000
    outer loop
      vertex 12.500000 7.430469 4.000000
      vertex 12.500000 8.000000 4.000000
      vertex 9.397752 3.000000 4.000000
    endloop
  endfacet
  facet normal -1.000000 0.000000 0.000000
    outer loop
      vertex 2.500000 8.000000 4.000000
      vertex 2.500000 8.000000 0.000000
      vertex 2.500000 7.430469 4.000000
    endloop
  endfacet
  facet normal -1.000000 0.000000 0.000000
    outer loop
      vertex 2.500000 7.430469 4.000000
      vertex 2.500000 8.000000 0.000000
      vertex 2.500000 7.430469 0.000000
    endloop
  endfacet
  facet normal 0.000000 1.000000 0.000000
    outer loop
      vertex 2.500000 8.000000 4.000000
      vertex 12.500000 8.000000 4.000000
      vertex 2.500000 8.000000 0.000000
    endloop
  endfacet
  facet normal 0.000000 1.000000 0.000000
    outer loop
      vertex 2.500000 8.000000 0.000000
      vertex 12.500000 8.000000 4.000000
      vertex 12.500000 8.000000 0.000000
    endloop
  endfacet
  facet normal 1.000000 0.000000 0.000000
    outer loop
      vertex 12.500000 8.000000 0.000000
      vertex 12.500000 8.000000 4.000000
      vertex 12.500000 7.430469 4.000000
    endloop
  endfacet
  facet normal 1.000000 0.000000 0.000000
    outer loop
      vertex 12.500000 7.430469 0.000000
      vertex 12.500000 8.000000 0.000000
      vertex 12.500000 7.430469 4.000000
    endloop
  endfacet
  facet normal 0.819152 -0.573576 0.000000
    outer loop
      vertex 9.397752 3.000000 0.000000
      vertex 12.500000 7.430469 0.000000
      vertex 12.500000 7.430469 4.000000
    endloop
  endfacet
  facet normal 0.819152 -0.573576 0.000000
    outer loop
      vertex 9.397752 3.000000 4.000000
      vertex 9.397752 3.000000 0.000000
      vertex 12.500000 7.430469 4.000000
    endloop
  endfacet
  facet normal 0.000000 -1.000000 0.000000
    outer loop
      vertex 9.397752 3.000000 4.000000
      vertex 5.602248 3.000000 4.000000
      vertex 5.602248 3.000000 0.000000
    endloop
  endfacet
  facet normal 0.000000 -1.000000 0.000000
    outer loop
      vertex 9.397752 3.000000 0.000000
      vertex 9.397752 3.000000 4.000000
      vertex 5.602248 3.000000 0.000000
    endloop
  endfacet
  facet normal -0.819152 -0.573576 0.000000
    outer loop
      vertex 5.602248 3.000000 0.000000
      vertex 5.602248 3.000000 4.000000
      vertex 2.500000 7.430469 0.000000
    endloop
  endfacet
  facet normal -0.819152 -0.573576 0.000000
    outer loop
      vertex 2.500000 7.430469 0.000000
      vertex 5.602248 3.000000 4.000000
      vertex 2.500000 7.430469 4.000000
    endloop
  endfacet
  facet normal 0.000000 0.000000 -1.000000
    outer loop
      vertex 2.500000 8.000000 0.000000
      vertex 12.500000 8.000000 0.000000
      vertex 2.500000 7.430469 0.000000
    endloop
  endfacet
  facet normal 0.000000 0.000000 -1.000000
    outer loop
      vertex 2.500000 7.430469 0.000000
      vertex 12.500000 8.000000 0.000000
      vertex 12.500000 7.430469 0.000000
    endloop
  endfacet
  facet normal 0.000000 0.000000 -1.000000
    outer loop
      vertex 2.500000 7.430469 0.000000
      vertex 12.500000 7.430469 0.000000
      vertex 9.397752 3.000000 0.000000
    endloop
  endfacet
  facet normal 0.000000 0.000000 -1.000000
    outer loop
      vertex 2.500000 7.430469 0.000000
      vertex 9.397752 3.000000 0.000000
      vertex 5.602248 3.000000 0.000000
    endloop
  endfacet
  facet normal -1.000000 0.000000 0.000000
    outer loop
      vertex 0.000000 15.000000 0.000000
      vertex 0.000000 15.000000 15.000000
      vertex 0.000000 18.000000 0.000000
    endloop
  endfacet
  facet normal -1.000000 0.000000 0.000000
    outer loop
      vertex 0.000000 18.000000 0.000000
      vertex 0.000000 15.000000 15.000000
      vertex 0.000000 18.000000 15.000000
    endloop
  endfacet
  facet normal 0.000000 -1.000000 0.000000
    outer loop
      vertex 0.000000 15.000000 15.000000
      vertex 0.000000 15.000000 0.000000
      vertex 15.000000 15.000000 0.000000
    endloop
  endfacet
  facet normal 0.000000 -1.000000 0.000000
    outer loop
      vertex 15.000000 15.000000 15.000000
      vertex 0.000000 15.000000 15.000000
      vertex 15.000000 15.000000 0.000000
    endloop
  endfacet
  facet normal 0.000000 0.000000 -1.000000
    outer loop
      vertex 0.000000 15.000000 0.000000
      vertex 0.000000 18.000000 0.000000
      vertex 15.000000 15.000000 0.000000
    endloop
  endfacet
  facet normal 0.000000 0.000000 -1.000000
    outer loop
      vertex 15.000000 15.000000 0.000000
      vertex 0.000000 18.000000 0.000000
      vertex 15.000000 18.000000 0.000000
    endloop
  endfacet
  facet normal 0.000000 1.000000 0.000000
    outer loop
      vertex 0.000000 18.000000 0.000000
      vertex 0.000000 18.000000 15.000000
      vertex 15.000000 18.000000 0.000000
    endloop
  endfacet
  facet normal 0.000000 1.000000 0.000000
    outer loop
      vertex 15.000000 18.000000 0.000000
      vertex 0.000000 18.000000 15.000000
      vertex 15.000000 18.000000 15.000000
    endloop
  endfacet
  facet normal 0.000000 0.000000 1.000000
    outer loop
      vertex 0.000000 18.000000 15.000000
      vertex 0.000000 15.000000 15.000000
      vertex 15.000000 15.000000 15.000000
    endloop
  endfacet
  facet normal 0.000000 0.000000 1.000000
    outer loop
      vertex 15.000000 18.000000 15.000000
      vertex 0.000000 18.000000 15.000000
      vertex 15.000000 15.000000 15.000000
    endloop
  endfacet
  facet normal 1.000000 0.000000 0.000000
    outer loop
      vertex 15.000000 15.000000 15.000000
      vertex 15.000000 15.000000 0.000000
      vertex 15.000000 18.000000 0.000000
    endloop
  endfacet
  facet normal 1.000000 0.000000 0.000000
    outer loop
      vertex 15.000000 18.000000 15.000000
      vertex 15.000000 15.000000 15.000000
      vertex 15.000000 18.000000 0.000000
    endloop
  endfacet
  facet normal 0.000000 0.000000 1.000000
    outer loop
      vertex 12.500000 23.000000 4.000000
      vertex 2.500000 23.000000 4.000000
      vertex 2.500000 22.430469 4.000000
    endloop
  endfacet
  facet normal 0.000000 0.000000 1.000000
    outer loop
      vertex 9.397752 18.000000 4.000000
      vertex 12.500000 23.000000 4.000000
      vertex 5.602248 18.000000 4.000000
    endloop
  endfacet
  facet normal 0.000000 0.000000 1.000000
    outer loop
      vertex 5.602248 18.000000 4.000000
      vertex 12.500000 23.000000 4.000000
      vertex 2.500000 22.430469 4.000000
    endloop
  endfacet
  facet normal 0.000000 0.000000 1.000000
    outer loop
      vertex 12.500000 22.430469 4.000000
      vertex 12.500000 23.000000 4.000000
      vertex 9.397752 18.000000 4.000000
    endloop
  endfacet
  facet normal -1.000000 0.000000 0.000000
    outer loop
      vertex 2.500000 23.000000 4.000000
      vertex 2.500000 23.000000 0.000000
      vertex 2.500000 22.430469 4.000000
    endloop
  endfacet
  facet normal -1.000000 0.000000 0.000000
    outer loop
      vertex 2.500000 22.430469 4.000000
      vertex 2.500000 23.000000 0.000000
      vertex 2.500000 22.430469 0.000000
    endloop
  endfacet
  facet normal 0.000000 1.000000 0.000000
    outer loop
      vertex 2.500000 23.000000 4.000000
      vertex 12.500000 23.000000 4.000000
      vertex 2.500000 23.000000 0.000000
    endloop
  endfacet
  facet normal 0.000000 1.000000 0.000000
    outer loop
      vertex 2.500000 23.000000 0.000000
      vertex 12.500000 23.000000 4.000000
      vertex 12.500000 23.000000 0.000000
    endloop
  endfacet
  facet normal 1.000000 0.000000 0.000000
    outer loop
      vertex 12.500000 23.000000 0.000000
      vertex 12.500000 23.000000 4.000000
      vertex 12.500000 22.430469 4.000000
    endloop
  endfacet
  facet normal 1.000000 0.000000 0.000000
    outer loop
      vertex 12.500000 22.430469 0.000000
      vertex 12.500000 23.000000 0.000000
      vertex 12.500000 22.430469 4.000000
    endloop
  endfacet
  facet normal 0.819152 -0.573576 0.000000
    outer loop
      vertex 9.397752 18.000000 0.000000
      vertex 12.500000 22.430469 0.000000
      vertex 12.500000 22.430469 4.000000
    endloop
  endfacet
  facet normal 0.819152 -0.573576 0.000000
    outer loop
      vertex 9.397752 18.000000 4.000000
      vertex 9.397752 18.000000 0.000000
      vertex 12.500000 22.430469 4.000000
    endloop
  endfacet
  facet normal 0.000000 -1.000000 0.000000
    outer loop
      vertex 9.397752 18.000000 4.000000
      vertex 5.602248 18.000000 4.000000
      vertex 5.602248 18.000000 0.000000
    endloop
  endfacet
  facet normal 0.000000 -1.000000 0.000000
    outer loop
      vertex 9.397752 18.000000 0.000000
      vertex 9.397752 18.000000 4.000000
      vertex 5.602248 18.000000 0.000000
    endloop
  endfacet
  facet normal -0.819152 -0.573576 0.000000
    outer loop
      vertex 5.602248 18.000000 0.000000
      vertex 5.602248 18.000000 4.000000
      vertex 2.500000 22.430469 0.000000
    endloop
  endfacet
  facet normal -0.819152 -0.573576 0.000000
    outer loop
      vertex 2.500000 22.430469 0.000000
      vertex 5.602248 18.000000 4.000000
      vertex 2.500000 22.430469 4.000000
    endloop
  endfacet
  facet normal 0.000000 0.000000 -1.000000
    outer loop
      vertex 2.500000 23.000000 0.000000
      vertex 12.500000 23.000000 0.000000
      vertex 2.500000 22.430469 0.000000
    endloop
  endfacet
  facet normal 0.000000 0.000000 -1.000000
    outer loop
      vertex 2.500000 22.430469 0.000000
      vertex 12.500000 23.000000 0.000000
      vertex 12.500000 22.430469 0.000000
    endloop
  endfacet
  facet normal 0.000000 0.000000 -1.000000
    outer loop
      vertex 2.500000 22.430469 0.000000
      vertex 12.500000 22.430469 0.000000
      vertex 9.397752 18.000000 0.000000
    endloop
  endfacet
  facet normal 0.000000 0.000000 -1.000000
    outer loop
      vertex 2.500000 22.430469 0.000000
      vertex 9.397752 18.000000 0.000000
      vertex 5.602248 18.000000 0.000000
    endloop
  endfacet
  facet normal -1.000000 0.000000 0.000000
    outer loop
      vertex 20.000000 0.000000 0.000000
      vertex 20.000000 0.000000 15.000000
      vertex 20.000000 3.000000 0.000000
    endloop
  endfacet
  facet normal -1.000000 0.000000 0.000000
    outer loop
      vertex 20.000000 3.000000 0.000000
      vertex 20.000000 0.000000 15.000000
      vertex 20.000000 3.000000 15.000000
    endloop
  endfacet
  facet normal 0.000000 -1.000000 0.000000
    outer loop
      vertex 20.000000 0.000000 15.000000
      vertex 20.000000 0.000000 0.000000
      vertex 35.000000 0.000000 0.000000
    endloop
  endfacet
  facet normal 0.000000 -1.000000 0.000000
    outer loop
      vertex 35.000000 0.000000 15.000000
      vertex 20.000000 0.000000 15.000000
      vertex 35.000000 0.000000 0.000000
    endloop
  endfacet
  facet normal 0.000000 0.000000 -1.000000
    outer loop
      vertex 20.000000 0.000000 0.000000
      vertex 20.000000 3.000000 0.000000
      vertex 35.000000 0.000000 0.000000
    endloop
  endfacet
  facet normal 0.000000 0.000000 -1.000000
    outer loop
      vertex 35.000000 0.000000 0.000000
      vertex 20.000000 3.000000 0.000000
      vertex 35.000000 3.000000 0.000000
    endloop
  endfacet
  facet normal 0.000000 1.000000 0.000000
    outer loop
      vertex 20.000000 3.000000 0.000000
      vertex 20.000000 3.000000 15.000000
      vertex 35.000000 3.000000 0.000000
    endloop
  endfacet
  facet normal 0.000000 1.000000 0.000000
    outer loop
      vertex 35.000000 3.000000 0.000000
      vertex 20.000000 3.000000 15.000000
      vertex 35.000000 3.000000 15.000000
    endloop
  endfacet
  facet normal 0.000000 0.000000 1.000000
    outer loop
      vertex 20.000000 3.000000 15.000000
      vertex 20.000000 0.000000 15.000000
      vertex 35.000000 0.000000 15.000000
    endloop
  endfacet
  facet normal 0.000000 0.000000 1.000000
    outer loop
      vertex 35.000000 3.000000 15.000000
      vertex 20.000000 3.000000 15.000000
      vertex 35.000000 0.000000 15.000000
    endloop
  endfacet
  facet normal 1.000000 0.000000 0.000000
    outer loop
      vertex 35.000000 0.000000 15.000000
      vertex 35.000000 0.000000 0.000000
      vertex 35.000000 3.000000 0.000000
    endloop
  endfacet
  facet normal 1.000000 0.000000 0.000000
    outer loop
      vertex 35.000000 3.000000 15.000000
      vertex 35.000000 0.000000 15.000000
      vertex 35.000000 3.000000 0.000000
    endloop
  endfacet
  facet normal 0.000000 0.000000 1.000000
    outer loop
      vertex 32.500000 8.000000 4.000000
      vertex 22.500000 8.000000 4.000000
      vertex 22.500000 7.430469 4.000000
    endloop
  endfacet
  facet normal 0.000000 0.000000 1.000000
    outer loop
      vertex 29.397752 3.000000 4.000000
      vertex 32.500000 8.000000 4.000000
      vertex 25.602248 3.000000 4.000000
    endloop
  endfacet
  facet normal 0.000000 0.000000 1.000000
    outer loop
      vertex 25.602248 3.000000 4.000000
      vertex 32.500000 8.000000 4.000000
      vertex 22.500000 7.430469 4.000000
    endloop
  endfacet
  facet normal 0.000000 0.000000 1.000000
    outer loop
      vertex 32.500000 7.430469 4.000000
      vertex 32.500000 8.000000 4.000000
      vertex 29.397752 3.000000 4.000000
    endloop
  endfacet
  facet normal -1.000000 0.000000 0.000000
    outer loop
      vertex 22.500000 8.000000 4.000000
      vertex 22.500000 8.000000 0.000000
      vertex 22.500000 7.430469 4.000000
    endloop
  endfacet
  facet normal -1.000000 0.000000 0.000000
    outer loop
      vertex 22.500000 7.430469 4.000000
      vertex 22.500000 8.000000 0.000000
      vertex 22.500000 7.430469 0.000000
    endloop
  endfacet
  facet normal 0.000000 1.000000 0.000000
    outer loop
      vertex 22.500000 8.000000 4.000000
      vertex 32.500000 8.000000 4.000000
      vertex 22.500000 8.000000 0.000000
    endloop
  endfacet
  facet normal 0.000000 1.000000 0.000000
    outer loop
      vertex 22.500000 8.000000 0.000000
      vertex 32.500000 8.000000 4.000000
      vertex 32.500000 8.000000 0.000000
    endloop
  endfacet
  facet normal 1.000000 0.000000 0.000000
    outer loop
      vertex 32.500000 8.000000 0.000000
      vertex 32.500000 8.000000 4.000000
      vertex 32.500000 7.430469 4.000000
    endloop
  endfacet
  facet normal 1.000000 0.000000 0.000000
    outer loop
      vertex 32.500000 7.430469 0.000000
      vertex 32.500000 8.000000 0.000000
      vertex 32.500000 7.430469 4.000000
    endloop
  endfacet
  facet normal 0.819152 -0.573576 0.000000
    outer loop
      vertex 29.397752 3.000000 0.000000
      vertex 32.500000 7.430469 0.000000
      vertex 32.500000 7.430469 4.000000
    endloop
  endfacet
  facet normal 0.819152 -0.573576 0.000000
    outer loop
      vertex 29.397752 3.000000 4.000000
      vertex 29.397752 3.000000 0.000000
      vertex 32.500000 7.430469 4.000000
    endloop
  endfacet
  facet normal 0.000000 -1.000000 0.000000
    outer loop
      vertex 29.397752 3.000000 4.000000
      vertex 25.602248 3.000000 4.000000
      vertex 25.602248 3.000000 0.000000
    endloop
  endfacet
  facet normal 0.000000 -1.000000 0.000000
    outer loop
      vertex 29.397752 3.000000 0.000000
      vertex 29.397752 3.000000 4.000000
      vertex 25.602248 3.000000 0.000000
    endloop
  endfacet
  facet normal -0.819152 -0.573576 0.000000
    outer loop
      vertex 25.602248 3.000000 0.000000
      vertex 25.602248 3.000000 4.000000
      vertex 22.500000 7.430469 0.000000
    endloop
  endfacet
  facet normal -0.819152 -0.573576 0.000000
    outer loop
      vertex 22.500000 7.430469 0.000000
      vertex 25.602248 3.000000 4.000000
      vertex 22.500000 7.430469 4.000000
    endloop
  endfacet
  facet normal 0.000000 0.000000 -1.000000
    outer loop
      vertex 22.500000 8.000000 0.000000
      vertex 32.500000 8.000000 0.000000
      vertex 22.500000 7.430469 0.000000
    endloop
  endfacet
  facet normal 0.000000 0.000000 -1.000000
    outer loop
      vertex 22.500000 7.430469 0.000000
      vertex 32.500000 8.000000 0.000000
      vertex 32.500000 7.430469 0.000000
    endloop
  endfacet
  facet normal 0.000000 0.000000 -1.000000
    outer loop
      vertex 22.500000 7.430469 0.000000
      vertex 32.500000 7.430469 0.000000
      vertex 29.397752 3.000000 0.000000
    endloop
  endfacet
  facet normal 0.000000 0.000000 -1.000000
    outer loop
      vertex 22.500000 7.430469 0.000000
      vertex 29.397752 3.000000 0.000000
      vertex 25.602248 3.000000 0.000000
    endloop
  endfacet
  facet normal -1.000000 0.000000 0.000000
    outer loop
      vertex 20.000000 15.000000 0.000000
      vertex 20.000000 15.000000 15.000000
      vertex 20.000000 18.000000 0.000000
    endloop
  endfacet
  facet normal -1.000000 0.000000 0.000000
    outer loop
      vertex 20.000000 18.000000 0.000000
      vertex 20.000000 15.000000 15.000000
      vertex 20.000000 18.000000 15.000000
    endloop
  endfacet
  facet normal 0.000000 -1.000000 0.000000
    outer loop
      vertex 20.000000 15.000000 15.000000
      vertex 20.000000 15.000000 0.000000
      vertex 35.000000 15.000000 0.000000
    endloop
  endfacet
  facet normal 0.000000 -1.000000 0.000000
    outer loop
      vertex 35.000000 15.000000 15.000000
      vertex 20.000000 15.000000 15.000000
      vertex 35.000000 15.000000 0.000000
    endloop
  endfacet
  facet normal 0.000000 0.000000 -1.000000
    outer loop
      vertex 20.000000 15.000000 0.000000
      vertex 20.000000 18.000000 0.000000
      vertex 35.000000 15.000000 0.000000
    endloop
  endfacet
  facet normal 0.000000 0.000000 -1.000000
    outer loop
      vertex 35.000000 15.000000 0.000000
      vertex 20.000000 18.000000 0.000000
      vertex 35.000000 18.000000 0.000000
    endloop
  endfacet
  facet normal 0.000000 1.000000 0.000000
    outer loop
      vertex 20.000000 18.000000 0.000000
      vertex 20.000000 18.000000 15.000000
      vertex 35.000000 18.000000 0.000000
    endloop
  endfacet
  facet normal 0.000000 1.000000 0.000000
    outer loop
      vertex 35.000000 18.000000 0.000000
      vertex 20.000000 18.000000 15.000000
      vertex 35.000000 18.000000 15.000000
    endloop
  endfacet
  facet normal 0.000000 0.000000 1.000000
    outer loop
      vertex 20.000000 18.000000 15.000000
      vertex 20.000000 15.000000 15.000000
      vertex 35.000000 15.000000 15.000000
    endloop
  endfacet
  facet normal 0.000000 0.000000 1.000000
    outer loop
      vertex 35.000000 18.000000 15.000000
      vertex 20.000000 18.000000 15.000000
      vertex 35.000000 15.000000 15.000000
    endloop
  endfacet
  facet normal 1.000000 0.000000 0.000000
    outer loop
      vertex 35.000000 15.000000 15.000000
      vertex 35.000000 15.000000 0.000000
      vertex 35.000000 18.000000 0.000000
    endloop
  endfacet
  facet normal 1.000000 0.000000 0.000000
    outer loop
      vertex 35.000000 18.000000 15.000000
      vertex 35.000000 15.000000 15.000000
      vertex 35.000000 18.000000 0.000000
    endloop
  endfacet
  facet normal 0.000000 0.000000 1.000000
    outer loop
      vertex 32.500000 23.000000 4.000000
      vertex 22.500000 23.000000 4.000000
      vertex 22.500000 22.430469 4.000000
    endloop
  endfacet
  facet normal 0.000000 0.000000 1.000000
    outer loop
      vertex 29.397752 18.000000 4.000000
      vertex 32.500000 23.000000 4.000000
      vertex 25.602248 18.000000 4.000000
    endloop
  endfacet
  facet normal 0.000000 0.000000 1.000000
    outer loop
      vertex 25.602248 18.000000 4.000000
      vertex 32.500000 23.000000 4.000000
      vertex 22.500000 22.430469 4.000000
    endloop
  endfacet
  facet normal 0.000000 0.000000 1.000000
    outer loop
      vertex 32.500000 22.430469 4.000000
      vertex 32.500000 23.000000 4.000000
      vertex 29.397752 18.000000 4.000000
    endloop
  endfacet
  facet normal -1.000000 0.000000 0.000000
    outer loop
      vertex 22.500000 23.000000 4.000000
      vertex 22.500000 23.000000 0.000000
      vertex 22.500000 22.430469 4.000000
    endloop
  endfacet
  facet normal -1.000000 0.000000 0.000000
    outer loop
      vertex 22.500000 22.430469 4.000000
      vertex 22.500000 23.000000 0.000000
      vertex 22.500000 22.430469 0.000000
    endloop
  endfacet
  facet normal 0.000000 1.000000 0.000000
    outer loop
      vertex 22.500000 23.000000 4.000000
      vertex 32.500000 23.000000 4.000000
      vertex 22.500000 23.000000 0.000000
    endloop
  endfacet
  facet normal 0.000000 1.000000 0.000000
    outer loop
      vertex 22.500000 23.000000 0.000000
      vertex 32.500000 23.000000 4.000000
      vertex 32.500000 23.000000 0.000000
    endloop
  endfacet
  facet normal 1.000000 0.000000 0.000000
    outer loop
      vertex 32.500000 23.000000 0.000000
      vertex 32.500000 23.000000 4.000000
      vertex 32.500000 22.430469 4.000000
    endloop
  endfacet
  facet normal 1.000000 0.000000 0.000000
    outer loop
      vertex 32.500000 22.430469 0.000000
      vertex 32.500000 23.000000 0.000000
      vertex 32.500000 22.430469 4.000000
    endloop
  endfacet
  facet normal 0.819152 -0.573576 0.000000
    outer loop
      vertex 29.397752 18.000000 0.000000
      vertex 32.500000 22.430469 0.000000
      vertex 32.500000 22.430469 4.000000
    endloop
  endfacet
  facet normal 0.819152 -0.573576 0.000000
    outer loop
      vertex 29.397752 18.000000 4.000000
      vertex 29.397752 18.000000 0.000000
      vertex 32.500000 22.430469 4.000000
    endloop
  endfacet
  facet normal 0.000000 -1.000000 0.000000
    outer loop
      vertex 29.397752 18.000000 4.000000
      vertex 25.602248 18.000000 4.000000
      vertex 25.602248 18.000000 0.000000
    endloop
  endfacet
  facet normal 0.000000 -1.000000 0.000000
    outer loop
      vertex 29.397752 18.000000 0.000000
      vertex 29.397752 18.000000 4.000000
      vertex 25.602248 18.000000 0.000000
    endloop
  endfacet
  facet normal -0.819152 -0.573576 0.000000
    outer loop
      vertex 25.602248 18.000000 0.000000
      vertex 25.602248 18.000000 4.000000
      vertex 22.500000 22.430469 0.000000
    endloop
  endfacet
  facet normal -0.819152 -0.573576 0.000000
    outer loop
      vertex 22.500000 22.430469 0.000000
      vertex 25.602248 18.000000 4.000000
      vertex 22.500000 22.430469 4.000000
    endloop
  endfacet
  facet normal 0.000000 0.000000 -1.000000
    outer loop
      vertex 22.500000 23.000000 0.000000
      vertex 32.500000 23.000000 0.000000
      vertex 22.500000 22.430469 0.000000
    endloop
  endfacet
  facet normal 0.000000 0.000000 -1.000000
    outer loop
      vertex 22.500000 22.430469 0.000000
      vertex 32.500000 23.000000 0.000000
      vertex 32.500000 22.430469 0.000000
    endloop
  endfacet
  facet normal 0.000000 0.000000 -1.000000
    outer loop
      vertex 22.500000 22.430469 0.000000
      vertex 32.500000 22.430469 0.000000
      vertex 29.397752 18.000000 0.000000
    endloop
  endfacet
  facet normal 0.000000 0.000000 -1.000000
    outer loop
      vertex 22.500000 22.430469 0.000000
      vertex 29.397752 18.000000 0.000000
      vertex 25.602248 18.000000 0.000000
    endloop
  endfacet
endsolid OpenSCAD_Model
