solid Default
  facet normal 0.000000e+00 0.000000e+00 1.000000e+00
    outer loop
      vertex 1.277161e+01 -6.387390e+00 2.539484e+01
      vertex -5.334473e-02 6.387390e+00 2.539484e+01
      vertex -5.334473e-02 -6.387390e+00 2.539484e+01
    endloop
  endfacet
  facet normal 0.000000e+00 0.000000e+00 1.000000e+00
    outer loop
      vertex 1.277161e+01 -6.387390e+00 2.539484e+01
      vertex -5.334473e-02 6.387390e+00 2.539484e+01
      vertex -5.334473e-02 -6.387390e+00 2.539484e+01
    endloop
  endfacet
  facet normal 0.000000e+00 0.000000e+00 1.000000e+00
    outer loop
      vertex 1.277161e+01 -6.387390e+00 2.539484e+01
      vertex -5.334473e-02 6.387390e+00 2.539484e+01
      vertex -5.334473e-02 -6.387390e+00 2.539484e+01
    endloop
  endfacet
  facet normal 0.000000e+00 0.000000e+00 1.000000e+00
    outer loop
      vertex -5.334473e-02 6.387390e+00 2.539484e+01
      vertex 1.277161e+01 -6.387390e+00 2.539484e+01
      vertex 1.277161e+01 6.387390e+00 2.539484e+01
    endloop
  endfacet
  facet normal 0.000000e+00 0.000000e+00 1.000000e+00
    outer loop
      vertex -5.334473e-02 6.387390e+00 2.539484e+01
      vertex 1.277161e+01 -6.387390e+00 2.539484e+01
      vertex 1.277161e+01 6.387390e+00 2.539484e+01
    endloop
  endfacet
  facet normal 0.000000e+00 0.000000e+00 1.000000e+00
    outer loop
      vertex -5.334473e-02 6.387390e+00 2.539484e+01
      vertex 1.277161e+01 -6.387390e+00 2.539484e+01
      vertex 1.277161e+01 6.387390e+00 2.539484e+01
    endloop
  endfacet
  facet normal 0.000000e+00 1.000000e+00 0.000000e+00
    outer loop
      vertex -1.277161e+01 6.387390e+00 1.265761e+01
      vertex 1.277161e+01 6.387390e+00 0.000000e+00
      vertex -1.277161e+01 6.387390e+00 0.000000e+00
    endloop
  endfacet
  facet normal 0.000000e+00 1.000000e+00 0.000000e+00
    outer loop
      vertex -1.277161e+01 6.387390e+00 1.265761e+01
      vertex 1.277161e+01 6.387390e+00 0.000000e+00
      vertex -1.277161e+01 6.387390e+00 0.000000e+00
    endloop
  endfacet
  facet normal 0.000000e+00 1.000000e+00 0.000000e+00
    outer loop
      vertex -1.277161e+01 6.387390e+00 1.265761e+01
      vertex 1.277161e+01 6.387390e+00 0.000000e+00
      vertex -1.277161e+01 6.387390e+00 0.000000e+00
    endloop
  endfacet
  facet normal 0.000000e+00 1.000000e+00 0.000000e+00
    outer loop
      vertex 1.277161e+01 6.387390e+00 0.000000e+00
      vertex -1.277161e+01 6.387390e+00 1.265761e+01
      vertex -5.334473e-02 6.387390e+00 1.265761e+01
    endloop
  endfacet
  facet normal 0.000000e+00 1.000000e+00 0.000000e+00
    outer loop
      vertex 1.277161e+01 6.387390e+00 0.000000e+00
      vertex -1.277161e+01 6.387390e+00 1.265761e+01
      vertex -5.334473e-02 6.387390e+00 1.265761e+01
    endloop
  endfacet
  facet normal 0.000000e+00 1.000000e+00 0.000000e+00
    outer loop
      vertex 1.277161e+01 6.387390e+00 0.000000e+00
      vertex -1.277161e+01 6.387390e+00 1.265761e+01
      vertex -5.334473e-02 6.387390e+00 1.265761e+01
    endloop
  endfacet
  facet normal 0.000000e+00 1.000000e+00 0.000000e+00
    outer loop
      vertex 1.277161e+01 6.387390e+00 0.000000e+00
      vertex -5.334473e-02 6.387390e+00 1.265761e+01
      vertex 1.277161e+01 6.387390e+00 2.539484e+01
    endloop
  endfacet
  facet normal 0.000000e+00 1.000000e+00 0.000000e+00
    outer loop
      vertex 1.277161e+01 6.387390e+00 0.000000e+00
      vertex -5.334473e-02 6.387390e+00 1.265761e+01
      vertex 1.277161e+01 6.387390e+00 2.539484e+01
    endloop
  endfacet
  facet normal 0.000000e+00 1.000000e+00 0.000000e+00
    outer loop
      vertex 1.277161e+01 6.387390e+00 0.000000e+00
      vertex -5.334473e-02 6.387390e+00 1.265761e+01
      vertex 1.277161e+01 6.387390e+00 2.539484e+01
    endloop
  endfacet
  facet normal 0.000000e+00 1.000000e+00 0.000000e+00
    outer loop
      vertex 1.277161e+01 6.387390e+00 2.539484e+01
      vertex -5.334473e-02 6.387390e+00 1.265761e+01
      vertex -5.334473e-02 6.387390e+00 2.539484e+01
    endloop
  endfacet
  facet normal 0.000000e+00 1.000000e+00 0.000000e+00
    outer loop
      vertex 1.277161e+01 6.387390e+00 2.539484e+01
      vertex -5.334473e-02 6.387390e+00 1.265761e+01
      vertex -5.334473e-02 6.387390e+00 2.539484e+01
    endloop
  endfacet
  facet normal 0.000000e+00 1.000000e+00 0.000000e+00
    outer loop
      vertex 1.277161e+01 6.387390e+00 2.539484e+01
      vertex -5.334473e-02 6.387390e+00 1.265761e+01
      vertex -5.334473e-02 6.387390e+00 2.539484e+01
    endloop
  endfacet
  facet normal -1.000000e+00 0.000000e+00 0.000000e+00
    outer loop
      vertex -1.277161e+01 6.387390e+00 1.265761e+01
      vertex -1.277161e+01 -6.387390e+00 0.000000e+00
      vertex -1.277161e+01 -6.387390e+00 1.265761e+01
    endloop
  endfacet
  facet normal -1.000000e+00 0.000000e+00 0.000000e+00
    outer loop
      vertex -1.277161e+01 6.387390e+00 1.265761e+01
      vertex -1.277161e+01 -6.387390e+00 0.000000e+00
      vertex -1.277161e+01 -6.387390e+00 1.265761e+01
    endloop
  endfacet
  facet normal -1.000000e+00 0.000000e+00 0.000000e+00
    outer loop
      vertex -1.277161e+01 6.387390e+00 1.265761e+01
      vertex -1.277161e+01 -6.387390e+00 0.000000e+00
      vertex -1.277161e+01 -6.387390e+00 1.265761e+01
    endloop
  endfacet
  facet normal -1.000000e+00 0.000000e+00 0.000000e+00
    outer loop
      vertex -1.277161e+01 -6.387390e+00 0.000000e+00
      vertex -1.277161e+01 6.387390e+00 1.265761e+01
      vertex -1.277161e+01 6.387390e+00 0.000000e+00
    endloop
  endfacet
  facet normal -1.000000e+00 0.000000e+00 0.000000e+00
    outer loop
      vertex -1.277161e+01 -6.387390e+00 0.000000e+00
      vertex -1.277161e+01 6.387390e+00 1.265761e+01
      vertex -1.277161e+01 6.387390e+00 0.000000e+00
    endloop
  endfacet
  facet normal -1.000000e+00 0.000000e+00 0.000000e+00
    outer loop
      vertex -1.277161e+01 -6.387390e+00 0.000000e+00
      vertex -1.277161e+01 6.387390e+00 1.265761e+01
      vertex -1.277161e+01 6.387390e+00 0.000000e+00
    endloop
  endfacet
  facet normal -0.000000e+00 -1.000000e+00 -0.000000e+00
    outer loop
      vertex 1.277161e+01 -6.387390e+00 2.539484e+01
      vertex -1.277161e+01 -6.387390e+00 0.000000e+00
      vertex 1.277161e+01 -6.387390e+00 0.000000e+00
    endloop
  endfacet
  facet normal -0.000000e+00 -1.000000e+00 -0.000000e+00
    outer loop
      vertex 1.277161e+01 -6.387390e+00 2.539484e+01
      vertex -1.277161e+01 -6.387390e+00 0.000000e+00
      vertex 1.277161e+01 -6.387390e+00 0.000000e+00
    endloop
  endfacet
  facet normal -0.000000e+00 -1.000000e+00 -0.000000e+00
    outer loop
      vertex 1.277161e+01 -6.387390e+00 2.539484e+01
      vertex -1.277161e+01 -6.387390e+00 0.000000e+00
      vertex 1.277161e+01 -6.387390e+00 0.000000e+00
    endloop
  endfacet
  facet normal -0.000000e+00 -1.000000e+00 -0.000000e+00
    outer loop
      vertex -1.277161e+01 -6.387390e+00 0.000000e+00
      vertex 1.277161e+01 -6.387390e+00 2.539484e+01
      vertex -5.334473e-02 -6.387390e+00 1.265761e+01
    endloop
  endfacet
  facet normal -0.000000e+00 -1.000000e+00 -0.000000e+00
    outer loop
      vertex -1.277161e+01 -6.387390e+00 0.000000e+00
      vertex 1.277161e+01 -6.387390e+00 2.539484e+01
      vertex -5.334473e-02 -6.387390e+00 1.265761e+01
    endloop
  endfacet
  facet normal -0.000000e+00 -1.000000e+00 -0.000000e+00
    outer loop
      vertex -1.277161e+01 -6.387390e+00 0.000000e+00
      vertex 1.277161e+01 -6.387390e+00 2.539484e+01
      vertex -5.334473e-02 -6.387390e+00 1.265761e+01
    endloop
  endfacet
  facet normal -0.000000e+00 -1.000000e+00 -0.000000e+00
    outer loop
      vertex -5.334473e-02 -6.387390e+00 1.265761e+01
      vertex 1.277161e+01 -6.387390e+00 2.539484e+01
      vertex -5.334473e-02 -6.387390e+00 2.539484e+01
    endloop
  endfacet
  facet normal -0.000000e+00 -1.000000e+00 -0.000000e+00
    outer loop
      vertex -5.334473e-02 -6.387390e+00 1.265761e+01
      vertex 1.277161e+01 -6.387390e+00 2.539484e+01
      vertex -5.334473e-02 -6.387390e+00 2.539484e+01
    endloop
  endfacet
  facet normal -0.000000e+00 -1.000000e+00 -0.000000e+00
    outer loop
      vertex -5.334473e-02 -6.387390e+00 1.265761e+01
      vertex 1.277161e+01 -6.387390e+00 2.539484e+01
      vertex -5.334473e-02 -6.387390e+00 2.539484e+01
    endloop
  endfacet
  facet normal -0.000000e+00 -1.000000e+00 -0.000000e+00
    outer loop
      vertex -1.277161e+01 -6.387390e+00 1.265761e+01
      vertex -1.277161e+01 -6.387390e+00 0.000000e+00
      vertex -5.334473e-02 -6.387390e+00 1.265761e+01
    endloop
  endfacet
  facet normal -0.000000e+00 -1.000000e+00 -0.000000e+00
    outer loop
      vertex -1.277161e+01 -6.387390e+00 1.265761e+01
      vertex -1.277161e+01 -6.387390e+00 0.000000e+00
      vertex -5.334473e-02 -6.387390e+00 1.265761e+01
    endloop
  endfacet
  facet normal -0.000000e+00 -1.000000e+00 -0.000000e+00
    outer loop
      vertex -1.277161e+01 -6.387390e+00 1.265761e+01
      vertex -1.277161e+01 -6.387390e+00 0.000000e+00
      vertex -5.334473e-02 -6.387390e+00 1.265761e+01
    endloop
  endfacet
  facet normal 1.000000e+00 0.000000e+00 0.000000e+00
    outer loop
      vertex 1.277161e+01 6.387390e+00 0.000000e+00
      vertex 1.277161e+01 -6.387390e+00 2.539484e+01
      vertex 1.277161e+01 -6.387390e+00 0.000000e+00
    endloop
  endfacet
  facet normal 1.000000e+00 0.000000e+00 0.000000e+00
    outer loop
      vertex 1.277161e+01 6.387390e+00 0.000000e+00
      vertex 1.277161e+01 -6.387390e+00 2.539484e+01
      vertex 1.277161e+01 -6.387390e+00 0.000000e+00
    endloop
  endfacet
  facet normal 1.000000e+00 0.000000e+00 0.000000e+00
    outer loop
      vertex 1.277161e+01 6.387390e+00 0.000000e+00
      vertex 1.277161e+01 -6.387390e+00 2.539484e+01
      vertex 1.277161e+01 -6.387390e+00 0.000000e+00
    endloop
  endfacet
  facet normal 1.000000e+00 0.000000e+00 0.000000e+00
    outer loop
      vertex 1.277161e+01 -6.387390e+00 2.539484e+01
      vertex 1.277161e+01 6.387390e+00 0.000000e+00
      vertex 1.277161e+01 6.387390e+00 2.539484e+01
    endloop
  endfacet
  facet normal 1.000000e+00 0.000000e+00 0.000000e+00
    outer loop
      vertex 1.277161e+01 -6.387390e+00 2.539484e+01
      vertex 1.277161e+01 6.387390e+00 0.000000e+00
      vertex 1.277161e+01 6.387390e+00 2.539484e+01
    endloop
  endfacet
  facet normal 1.000000e+00 0.000000e+00 0.000000e+00
    outer loop
      vertex 1.277161e+01 -6.387390e+00 2.539484e+01
      vertex 1.277161e+01 6.387390e+00 0.000000e+00
      vertex 1.277161e+01 6.387390e+00 2.539484e+01
    endloop
  endfacet
  facet normal 0.000000e+00 0.000000e+00 -1.000000e+00
    outer loop
      vertex 1.277161e+01 6.387390e+00 0.000000e+00
      vertex -1.277161e+01 -6.387390e+00 0.000000e+00
      vertex -1.277161e+01 6.387390e+00 0.000000e+00
    endloop
  endfacet
  facet normal 0.000000e+00 0.000000e+00 -1.000000e+00
    outer loop
      vertex 1.277161e+01 6.387390e+00 0.000000e+00
      vertex -1.277161e+01 -6.387390e+00 0.000000e+00
      vertex -1.277161e+01 6.387390e+00 0.000000e+00
    endloop
  endfacet
  facet normal 0.000000e+00 0.000000e+00 -1.000000e+00
    outer loop
      vertex 1.277161e+01 6.387390e+00 0.000000e+00
      vertex -1.277161e+01 -6.387390e+00 0.000000e+00
      vertex -1.277161e+01 6.387390e+00 0.000000e+00
    endloop
  endfacet
  facet normal 0.000000e+00 0.000000e+00 -1.000000e+00
    outer loop
      vertex -1.277161e+01 -6.387390e+00 0.000000e+00
      vertex 1.277161e+01 6.387390e+00 0.000000e+00
      vertex 1.277161e+01 -6.387390e+00 0.000000e+00
    endloop
  endfacet
  facet normal 0.000000e+00 0.000000e+00 -1.000000e+00
    outer loop
      vertex -1.277161e+01 -6.387390e+00 0.000000e+00
      vertex 1.277161e+01 6.387390e+00 0.000000e+00
      vertex 1.277161e+01 -6.387390e+00 0.000000e+00
    endloop
  endfacet
  facet normal 0.000000e+00 0.000000e+00 -1.000000e+00
    outer loop
      vertex -1.277161e+01 -6.387390e+00 0.000000e+00
      vertex 1.277161e+01 6.387390e+00 0.000000e+00
      vertex 1.277161e+01 -6.387390e+00 0.000000e+00
    endloop
  endfacet
  facet normal -1.000000e+00 0.000000e+00 0.000000e+00
    outer loop
      vertex -5.334473e-02 6.387390e+00 2.539484e+01
      vertex -5.334473e-02 -6.387390e+00 1.265761e+01
      vertex -5.334473e-02 -6.387390e+00 2.539484e+01
    endloop
  endfacet
  facet normal -1.000000e+00 0.000000e+00 0.000000e+00
    outer loop
      vertex -5.334473e-02 6.387390e+00 2.539484e+01
      vertex -5.334473e-02 -6.387390e+00 1.265761e+01
      vertex -5.334473e-02 -6.387390e+00 2.539484e+01
    endloop
  endfacet
  facet normal -1.000000e+00 0.000000e+00 0.000000e+00
    outer loop
      vertex -5.334473e-02 6.387390e+00 2.539484e+01
      vertex -5.334473e-02 -6.387390e+00 1.265761e+01
      vertex -5.334473e-02 -6.387390e+00 2.539484e+01
    endloop
  endfacet
  facet normal -1.000000e+00 0.000000e+00 0.000000e+00
    outer loop
      vertex -5.334473e-02 -6.387390e+00 1.265761e+01
      vertex -5.334473e-02 6.387390e+00 2.539484e+01
      vertex -5.334473e-02 6.387390e+00 1.265761e+01
    endloop
  endfacet
  facet normal -1.000000e+00 0.000000e+00 0.000000e+00
    outer loop
      vertex -5.334473e-02 -6.387390e+00 1.265761e+01
      vertex -5.334473e-02 6.387390e+00 2.539484e+01
      vertex -5.334473e-02 6.387390e+00 1.265761e+01
    endloop
  endfacet
  facet normal -1.000000e+00 0.000000e+00 0.000000e+00
    outer loop
      vertex -5.334473e-02 -6.387390e+00 1.265761e+01
      vertex -5.334473e-02 6.387390e+00 2.539484e+01
      vertex -5.334473e-02 6.387390e+00 1.265761e+01
    endloop
  endfacet
  facet normal 0.000000e+00 0.000000e+00 1.000000e+00
    outer loop
      vertex -5.334473e-02 -6.387390e+00 1.265761e+01
      vertex -1.277161e+01 6.387390e+00 1.265761e+01
      vertex -1.277161e+01 -6.387390e+00 1.265761e+01
    endloop
  endfacet
  facet normal 0.000000e+00 0.000000e+00 1.000000e+00
    outer loop
      vertex -5.334473e-02 -6.387390e+00 1.265761e+01
      vertex -1.277161e+01 6.387390e+00 1.265761e+01
      vertex -1.277161e+01 -6.387390e+00 1.265761e+01
    endloop
  endfacet
  facet normal 0.000000e+00 0.000000e+00 1.000000e+00
    outer loop
      vertex -5.334473e-02 -6.387390e+00 1.265761e+01
      vertex -1.277161e+01 6.387390e+00 1.265761e+01
      vertex -1.277161e+01 -6.387390e+00 1.265761e+01
    endloop
  endfacet
  facet normal 0.000000e+00 0.000000e+00 1.000000e+00
    outer loop
      vertex -1.277161e+01 6.387390e+00 1.265761e+01
      vertex -5.334473e-02 -6.387390e+00 1.265761e+01
      vertex -5.334473e-02 6.387390e+00 1.265761e+01
    endloop
  endfacet
  facet normal 0.000000e+00 0.000000e+00 1.000000e+00
    outer loop
      vertex -1.277161e+01 6.387390e+00 1.265761e+01
      vertex -5.334473e-02 -6.387390e+00 1.265761e+01
      vertex -5.334473e-02 6.387390e+00 1.265761e+01
    endloop
  endfacet
  facet normal 0.000000e+00 0.000000e+00 1.000000e+00
    outer loop
      vertex -1.277161e+01 6.387390e+00 1.265761e+01
      vertex -5.334473e-02 -6.387390e+00 1.265761e+01
      vertex -5.334473e-02 6.387390e+00 1.265761e+01
    endloop
  endfacet
endsolid Default
