solid Default
  facet normal 1.000000e+00 0.000000e+00 0.000000e+00
    outer loop
      vertex 6.400024e+00 6.768799e-02 0.000000e+00
      vertex 6.400024e+00 -1.275494e+01 1.260335e+01
      vertex 6.400024e+00 -1.275494e+01 0.000000e+00
    endloop
  endfacet
  facet normal 1.000000e+00 0.000000e+00 0.000000e+00
    outer loop
      vertex 6.400024e+00 6.768799e-02 0.000000e+00
      vertex 6.400024e+00 -1.275494e+01 1.260335e+01
      vertex 6.400024e+00 -1.275494e+01 0.000000e+00
    endloop
  endfacet
  facet normal 1.000000e+00 0.000000e+00 0.000000e+00
    outer loop
      vertex 6.400024e+00 6.768799e-02 0.000000e+00
      vertex 6.400024e+00 -1.275494e+01 1.260335e+01
      vertex 6.400024e+00 -1.275494e+01 0.000000e+00
    endloop
  endfacet
  facet normal 1.000000e+00 0.000000e+00 0.000000e+00
    outer loop
      vertex 6.400024e+00 -1.275494e+01 1.260335e+01
      vertex 6.400024e+00 6.768799e-02 0.000000e+00
      vertex 6.400024e+00 6.768799e-02 1.260335e+01
    endloop
  endfacet
  facet normal 1.000000e+00 0.000000e+00 0.000000e+00
    outer loop
      vertex 6.400024e+00 -1.275494e+01 1.260335e+01
      vertex 6.400024e+00 6.768799e-02 0.000000e+00
      vertex 6.400024e+00 6.768799e-02 1.260335e+01
    endloop
  endfacet
  facet normal 1.000000e+00 0.000000e+00 0.000000e+00
    outer loop
      vertex 6.400024e+00 -1.275494e+01 1.260335e+01
      vertex 6.400024e+00 6.768799e-02 0.000000e+00
      vertex 6.400024e+00 6.768799e-02 1.260335e+01
    endloop
  endfacet
  facet normal 9.998981e-01 1.427279e-02 0.000000e+00
    outer loop
      vertex 1.898962e+01 1.275494e+01 0.000000e+00
      vertex 1.917065e+01 6.768799e-02 1.260335e+01
      vertex 1.917065e+01 6.768799e-02 0.000000e+00
    endloop
  endfacet
  facet normal 9.998981e-01 1.427279e-02 0.000000e+00
    outer loop
      vertex 1.898962e+01 1.275494e+01 0.000000e+00
      vertex 1.917065e+01 6.768799e-02 1.260335e+01
      vertex 1.917065e+01 6.768799e-02 0.000000e+00
    endloop
  endfacet
  facet normal 9.998981e-01 1.427279e-02 0.000000e+00
    outer loop
      vertex 1.898962e+01 1.275494e+01 0.000000e+00
      vertex 1.917065e+01 6.768799e-02 1.260335e+01
      vertex 1.917065e+01 6.768799e-02 0.000000e+00
    endloop
  endfacet
  facet normal 9.998981e-01 1.427279e-02 0.000000e+00
    outer loop
      vertex 1.917065e+01 6.768799e-02 1.260335e+01
      vertex 1.898962e+01 1.275494e+01 0.000000e+00
      vertex 1.898962e+01 1.275494e+01 1.260335e+01
    endloop
  endfacet
  facet normal 9.998981e-01 1.427279e-02 0.000000e+00
    outer loop
      vertex 1.917065e+01 6.768799e-02 1.260335e+01
      vertex 1.898962e+01 1.275494e+01 0.000000e+00
      vertex 1.898962e+01 1.275494e+01 1.260335e+01
    endloop
  endfacet
  facet normal 9.998981e-01 1.427279e-02 0.000000e+00
    outer loop
      vertex 1.917065e+01 6.768799e-02 1.260335e+01
      vertex 1.898962e+01 1.275494e+01 0.000000e+00
      vertex 1.898962e+01 1.275494e+01 1.260335e+01
    endloop
  endfacet
  facet normal -1.000000e+00 0.000000e+00 0.000000e+00
    outer loop
      vertex -6.469604e+00 6.768799e-02 1.260335e+01
      vertex -6.469604e+00 -1.275494e+01 0.000000e+00
      vertex -6.469604e+00 -1.275494e+01 1.260335e+01
    endloop
  endfacet
  facet normal -1.000000e+00 0.000000e+00 0.000000e+00
    outer loop
      vertex -6.469604e+00 6.768799e-02 1.260335e+01
      vertex -6.469604e+00 -1.275494e+01 0.000000e+00
      vertex -6.469604e+00 -1.275494e+01 1.260335e+01
    endloop
  endfacet
  facet normal -1.000000e+00 0.000000e+00 0.000000e+00
    outer loop
      vertex -6.469604e+00 6.768799e-02 1.260335e+01
      vertex -6.469604e+00 -1.275494e+01 0.000000e+00
      vertex -6.469604e+00 -1.275494e+01 1.260335e+01
    endloop
  endfacet
  facet normal -1.000000e+00 0.000000e+00 0.000000e+00
    outer loop
      vertex -6.469604e+00 -1.275494e+01 0.000000e+00
      vertex -6.469604e+00 6.768799e-02 1.260335e+01
      vertex -6.469604e+00 6.768799e-02 0.000000e+00
    endloop
  endfacet
  facet normal -1.000000e+00 0.000000e+00 0.000000e+00
    outer loop
      vertex -6.469604e+00 -1.275494e+01 0.000000e+00
      vertex -6.469604e+00 6.768799e-02 1.260335e+01
      vertex -6.469604e+00 6.768799e-02 0.000000e+00
    endloop
  endfacet
  facet normal -1.000000e+00 0.000000e+00 0.000000e+00
    outer loop
      vertex -6.469604e+00 -1.275494e+01 0.000000e+00
      vertex -6.469604e+00 6.768799e-02 1.260335e+01
      vertex -6.469604e+00 6.768799e-02 0.000000e+00
    endloop
  endfacet
  facet normal 0.000000e+00 1.000000e+00 0.000000e+00
    outer loop
      vertex -1.917065e+01 1.275494e+01 1.260335e+01
      vertex 1.898962e+01 1.275494e+01 0.000000e+00
      vertex -1.917065e+01 1.275494e+01 0.000000e+00
    endloop
  endfacet
  facet normal 0.000000e+00 1.000000e+00 0.000000e+00
    outer loop
      vertex -1.917065e+01 1.275494e+01 1.260335e+01
      vertex 1.898962e+01 1.275494e+01 0.000000e+00
      vertex -1.917065e+01 1.275494e+01 0.000000e+00
    endloop
  endfacet
  facet normal 0.000000e+00 1.000000e+00 0.000000e+00
    outer loop
      vertex -1.917065e+01 1.275494e+01 1.260335e+01
      vertex 1.898962e+01 1.275494e+01 0.000000e+00
      vertex -1.917065e+01 1.275494e+01 0.000000e+00
    endloop
  endfacet
  facet normal 0.000000e+00 1.000000e+00 0.000000e+00
    outer loop
      vertex 1.898962e+01 1.275494e+01 0.000000e+00
      vertex -1.917065e+01 1.275494e+01 1.260335e+01
      vertex 1.898962e+01 1.275494e+01 1.260335e+01
    endloop
  endfacet
  facet normal 0.000000e+00 1.000000e+00 0.000000e+00
    outer loop
      vertex 1.898962e+01 1.275494e+01 0.000000e+00
      vertex -1.917065e+01 1.275494e+01 1.260335e+01
      vertex 1.898962e+01 1.275494e+01 1.260335e+01
    endloop
  endfacet
  facet normal 0.000000e+00 1.000000e+00 0.000000e+00
    outer loop
      vertex 1.898962e+01 1.275494e+01 0.000000e+00
      vertex -1.917065e+01 1.275494e+01 1.260335e+01
      vertex 1.898962e+01 1.275494e+01 1.260335e+01
    endloop
  endfacet
  facet normal -0.000000e+00 -1.000000e+00 -0.000000e+00
    outer loop
      vertex -6.469604e+00 6.768799e-02 1.260335e+01
      vertex -1.917065e+01 6.768799e-02 0.000000e+00
      vertex -6.469604e+00 6.768799e-02 0.000000e+00
    endloop
  endfacet
  facet normal -0.000000e+00 -1.000000e+00 -0.000000e+00
    outer loop
      vertex -6.469604e+00 6.768799e-02 1.260335e+01
      vertex -1.917065e+01 6.768799e-02 0.000000e+00
      vertex -6.469604e+00 6.768799e-02 0.000000e+00
    endloop
  endfacet
  facet normal -0.000000e+00 -1.000000e+00 -0.000000e+00
    outer loop
      vertex -6.469604e+00 6.768799e-02 1.260335e+01
      vertex -1.917065e+01 6.768799e-02 0.000000e+00
      vertex -6.469604e+00 6.768799e-02 0.000000e+00
    endloop
  endfacet
  facet normal -0.000000e+00 -1.000000e+00 -0.000000e+00
    outer loop
      vertex -1.917065e+01 6.768799e-02 0.000000e+00
      vertex -6.469604e+00 6.768799e-02 1.260335e+01
      vertex -1.917065e+01 6.768799e-02 1.260335e+01
    endloop
  endfacet
  facet normal -0.000000e+00 -1.000000e+00 -0.000000e+00
    outer loop
      vertex -1.917065e+01 6.768799e-02 0.000000e+00
      vertex -6.469604e+00 6.768799e-02 1.260335e+01
      vertex -1.917065e+01 6.768799e-02 1.260335e+01
    endloop
  endfacet
  facet normal -0.000000e+00 -1.000000e+00 -0.000000e+00
    outer loop
      vertex -1.917065e+01 6.768799e-02 0.000000e+00
      vertex -6.469604e+00 6.768799e-02 1.260335e+01
      vertex -1.917065e+01 6.768799e-02 1.260335e+01
    endloop
  endfacet
  facet normal 0.000000e+00 0.000000e+00 -1.000000e+00
    outer loop
      vertex 1.898962e+01 1.275494e+01 0.000000e+00
      vertex -1.917065e+01 6.768799e-02 0.000000e+00
      vertex -1.917065e+01 1.275494e+01 0.000000e+00
    endloop
  endfacet
  facet normal 0.000000e+00 0.000000e+00 -1.000000e+00
    outer loop
      vertex 1.898962e+01 1.275494e+01 0.000000e+00
      vertex -1.917065e+01 6.768799e-02 0.000000e+00
      vertex -1.917065e+01 1.275494e+01 0.000000e+00
    endloop
  endfacet
  facet normal 0.000000e+00 0.000000e+00 -1.000000e+00
    outer loop
      vertex 1.898962e+01 1.275494e+01 0.000000e+00
      vertex -1.917065e+01 6.768799e-02 0.000000e+00
      vertex -1.917065e+01 1.275494e+01 0.000000e+00
    endloop
  endfacet
  facet normal 0.000000e+00 0.000000e+00 -1.000000e+00
    outer loop
      vertex -1.917065e+01 6.768799e-02 0.000000e+00
      vertex 1.898962e+01 1.275494e+01 0.000000e+00
      vertex -6.469604e+00 6.768799e-02 0.000000e+00
    endloop
  endfacet
  facet normal 0.000000e+00 0.000000e+00 -1.000000e+00
    outer loop
      vertex -1.917065e+01 6.768799e-02 0.000000e+00
      vertex 1.898962e+01 1.275494e+01 0.000000e+00
      vertex -6.469604e+00 6.768799e-02 0.000000e+00
    endloop
  endfacet
  facet normal 0.000000e+00 0.000000e+00 -1.000000e+00
    outer loop
      vertex -1.917065e+01 6.768799e-02 0.000000e+00
      vertex 1.898962e+01 1.275494e+01 0.000000e+00
      vertex -6.469604e+00 6.768799e-02 0.000000e+00
    endloop
  endfacet
  facet normal 0.000000e+00 0.000000e+00 -1.000000e+00
    outer loop
      vertex -6.469604e+00 6.768799e-02 0.000000e+00
      vertex 1.898962e+01 1.275494e+01 0.000000e+00
      vertex -6.469604e+00 -1.275494e+01 0.000000e+00
    endloop
  endfacet
  facet normal 0.000000e+00 0.000000e+00 -1.000000e+00
    outer loop
      vertex -6.469604e+00 6.768799e-02 0.000000e+00
      vertex 1.898962e+01 1.275494e+01 0.000000e+00
      vertex -6.469604e+00 -1.275494e+01 0.000000e+00
    endloop
  endfacet
  facet normal 0.000000e+00 0.000000e+00 -1.000000e+00
    outer loop
      vertex -6.469604e+00 6.768799e-02 0.000000e+00
      vertex 1.898962e+01 1.275494e+01 0.000000e+00
      vertex -6.469604e+00 -1.275494e+01 0.000000e+00
    endloop
  endfacet
  facet normal 0.000000e+00 0.000000e+00 -1.000000e+00
    outer loop
      vertex -6.469604e+00 -1.275494e+01 0.000000e+00
      vertex 1.898962e+01 1.275494e+01 0.000000e+00
      vertex 6.400024e+00 6.768799e-02 0.000000e+00
    endloop
  endfacet
  facet normal 0.000000e+00 0.000000e+00 -1.000000e+00
    outer loop
      vertex -6.469604e+00 -1.275494e+01 0.000000e+00
      vertex 1.898962e+01 1.275494e+01 0.000000e+00
      vertex 6.400024e+00 6.768799e-02 0.000000e+00
    endloop
  endfacet
  facet normal 0.000000e+00 0.000000e+00 -1.000000e+00
    outer loop
      vertex -6.469604e+00 -1.275494e+01 0.000000e+00
      vertex 1.898962e+01 1.275494e+01 0.000000e+00
      vertex 6.400024e+00 6.768799e-02 0.000000e+00
    endloop
  endfacet
  facet normal 0.000000e+00 0.000000e+00 -1.000000e+00
    outer loop
      vertex 6.400024e+00 6.768799e-02 0.000000e+00
      vertex 1.898962e+01 1.275494e+01 0.000000e+00
      vertex 1.917065e+01 6.768799e-02 0.000000e+00
    endloop
  endfacet
  facet normal 0.000000e+00 0.000000e+00 -1.000000e+00
    outer loop
      vertex 6.400024e+00 6.768799e-02 0.000000e+00
      vertex 1.898962e+01 1.275494e+01 0.000000e+00
      vertex 1.917065e+01 6.768799e-02 0.000000e+00
    endloop
  endfacet
  facet normal 0.000000e+00 0.000000e+00 -1.000000e+00
    outer loop
      vertex 6.400024e+00 6.768799e-02 0.000000e+00
      vertex 1.898962e+01 1.275494e+01 0.000000e+00
      vertex 1.917065e+01 6.768799e-02 0.000000e+00
    endloop
  endfacet
  facet normal 0.000000e+00 0.000000e+00 -1.000000e+00
    outer loop
      vertex 6.400024e+00 -1.275494e+01 0.000000e+00
      vertex -6.469604e+00 -1.275494e+01 0.000000e+00
      vertex 6.400024e+00 6.768799e-02 0.000000e+00
    endloop
  endfacet
  facet normal 0.000000e+00 0.000000e+00 -1.000000e+00
    outer loop
      vertex 6.400024e+00 -1.275494e+01 0.000000e+00
      vertex -6.469604e+00 -1.275494e+01 0.000000e+00
      vertex 6.400024e+00 6.768799e-02 0.000000e+00
    endloop
  endfacet
  facet normal 0.000000e+00 0.000000e+00 -1.000000e+00
    outer loop
      vertex 6.400024e+00 -1.275494e+01 0.000000e+00
      vertex -6.469604e+00 -1.275494e+01 0.000000e+00
      vertex 6.400024e+00 6.768799e-02 0.000000e+00
    endloop
  endfacet
  facet normal -0.000000e+00 -1.000000e+00 -0.000000e+00
    outer loop
      vertex 1.917065e+01 6.768799e-02 1.260335e+01
      vertex 6.400024e+00 6.768799e-02 0.000000e+00
      vertex 1.917065e+01 6.768799e-02 0.000000e+00
    endloop
  endfacet
  facet normal -0.000000e+00 -1.000000e+00 -0.000000e+00
    outer loop
      vertex 1.917065e+01 6.768799e-02 1.260335e+01
      vertex 6.400024e+00 6.768799e-02 0.000000e+00
      vertex 1.917065e+01 6.768799e-02 0.000000e+00
    endloop
  endfacet
  facet normal -0.000000e+00 -1.000000e+00 -0.000000e+00
    outer loop
      vertex 1.917065e+01 6.768799e-02 1.260335e+01
      vertex 6.400024e+00 6.768799e-02 0.000000e+00
      vertex 1.917065e+01 6.768799e-02 0.000000e+00
    endloop
  endfacet
  facet normal -0.000000e+00 -1.000000e+00 -0.000000e+00
    outer loop
      vertex 6.400024e+00 6.768799e-02 0.000000e+00
      vertex 1.917065e+01 6.768799e-02 1.260335e+01
      vertex 6.400024e+00 6.768799e-02 1.260335e+01
    endloop
  endfacet
  facet normal -0.000000e+00 -1.000000e+00 -0.000000e+00
    outer loop
      vertex 6.400024e+00 6.768799e-02 0.000000e+00
      vertex 1.917065e+01 6.768799e-02 1.260335e+01
      vertex 6.400024e+00 6.768799e-02 1.260335e+01
    endloop
  endfacet
  facet normal -0.000000e+00 -1.000000e+00 -0.000000e+00
    outer loop
      vertex 6.400024e+00 6.768799e-02 0.000000e+00
      vertex 1.917065e+01 6.768799e-02 1.260335e+01
      vertex 6.400024e+00 6.768799e-02 1.260335e+01
    endloop
  endfacet
  facet normal 0.000000e+00 0.000000e+00 1.000000e+00
    outer loop
      vertex 6.400024e+00 -1.275494e+01 1.260335e+01
      vertex -6.469604e+00 6.768799e-02 1.260335e+01
      vertex -6.469604e+00 -1.275494e+01 1.260335e+01
    endloop
  endfacet
  facet normal 0.000000e+00 0.000000e+00 1.000000e+00
    outer loop
      vertex 6.400024e+00 -1.275494e+01 1.260335e+01
      vertex -6.469604e+00 6.768799e-02 1.260335e+01
      vertex -6.469604e+00 -1.275494e+01 1.260335e+01
    endloop
  endfacet
  facet normal 0.000000e+00 0.000000e+00 1.000000e+00
    outer loop
      vertex 6.400024e+00 -1.275494e+01 1.260335e+01
      vertex -6.469604e+00 6.768799e-02 1.260335e+01
      vertex -6.469604e+00 -1.275494e+01 1.260335e+01
    endloop
  endfacet
  facet normal 0.000000e+00 0.000000e+00 1.000000e+00
    outer loop
      vertex -6.469604e+00 6.768799e-02 1.260335e+01
      vertex -1.917065e+01 1.275494e+01 1.260335e+01
      vertex -1.917065e+01 6.768799e-02 1.260335e+01
    endloop
  endfacet
  facet normal 0.000000e+00 0.000000e+00 1.000000e+00
    outer loop
      vertex -6.469604e+00 6.768799e-02 1.260335e+01
      vertex -1.917065e+01 1.275494e+01 1.260335e+01
      vertex -1.917065e+01 6.768799e-02 1.260335e+01
    endloop
  endfacet
  facet normal 0.000000e+00 0.000000e+00 1.000000e+00
    outer loop
      vertex -6.469604e+00 6.768799e-02 1.260335e+01
      vertex -1.917065e+01 1.275494e+01 1.260335e+01
      vertex -1.917065e+01 6.768799e-02 1.260335e+01
    endloop
  endfacet
  facet normal 0.000000e+00 0.000000e+00 1.000000e+00
    outer loop
      vertex -1.917065e+01 1.275494e+01 1.260335e+01
      vertex -6.469604e+00 6.768799e-02 1.260335e+01
      vertex 1.898962e+01 1.275494e+01 1.260335e+01
    endloop
  endfacet
  facet normal 0.000000e+00 0.000000e+00 1.000000e+00
    outer loop
      vertex -1.917065e+01 1.275494e+01 1.260335e+01
      vertex -6.469604e+00 6.768799e-02 1.260335e+01
      vertex 1.898962e+01 1.275494e+01 1.260335e+01
    endloop
  endfacet
  facet normal 0.000000e+00 0.000000e+00 1.000000e+00
    outer loop
      vertex -1.917065e+01 1.275494e+01 1.260335e+01
      vertex -6.469604e+00 6.768799e-02 1.260335e+01
      vertex 1.898962e+01 1.275494e+01 1.260335e+01
    endloop
  endfacet
  facet normal 0.000000e+00 0.000000e+00 1.000000e+00
    outer loop
      vertex 1.898962e+01 1.275494e+01 1.260335e+01
      vertex -6.469604e+00 6.768799e-02 1.260335e+01
      vertex 6.400024e+00 6.768799e-02 1.260335e+01
    endloop
  endfacet
  facet normal 0.000000e+00 0.000000e+00 1.000000e+00
    outer loop
      vertex 1.898962e+01 1.275494e+01 1.260335e+01
      vertex -6.469604e+00 6.768799e-02 1.260335e+01
      vertex 6.400024e+00 6.768799e-02 1.260335e+01
    endloop
  endfacet
  facet normal 0.000000e+00 0.000000e+00 1.000000e+00
    outer loop
      vertex 1.898962e+01 1.275494e+01 1.260335e+01
      vertex -6.469604e+00 6.768799e-02 1.260335e+01
      vertex 6.400024e+00 6.768799e-02 1.260335e+01
    endloop
  endfacet
  facet normal 0.000000e+00 0.000000e+00 1.000000e+00
    outer loop
      vertex 6.400024e+00 6.768799e-02 1.260335e+01
      vertex -6.469604e+00 6.768799e-02 1.260335e+01
      vertex 6.400024e+00 -1.275494e+01 1.260335e+01
    endloop
  endfacet
  facet normal 0.000000e+00 0.000000e+00 1.000000e+00
    outer loop
      vertex 6.400024e+00 6.768799e-02 1.260335e+01
      vertex -6.469604e+00 6.768799e-02 1.260335e+01
      vertex 6.400024e+00 -1.275494e+01 1.260335e+01
    endloop
  endfacet
  facet normal 0.000000e+00 0.000000e+00 1.000000e+00
    outer loop
      vertex 6.400024e+00 6.768799e-02 1.260335e+01
      vertex -6.469604e+00 6.768799e-02 1.260335e+01
      vertex 6.400024e+00 -1.275494e+01 1.260335e+01
    endloop
  endfacet
  facet normal 0.000000e+00 0.000000e+00 1.000000e+00
    outer loop
      vertex 1.898962e+01 1.275494e+01 1.260335e+01
      vertex 6.400024e+00 6.768799e-02 1.260335e+01
      vertex 1.917065e+01 6.768799e-02 1.260335e+01
    endloop
  endfacet
  facet normal 0.000000e+00 0.000000e+00 1.000000e+00
    outer loop
      vertex 1.898962e+01 1.275494e+01 1.260335e+01
      vertex 6.400024e+00 6.768799e-02 1.260335e+01
      vertex 1.917065e+01 6.768799e-02 1.260335e+01
    endloop
  endfacet
  facet normal 0.000000e+00 0.000000e+00 1.000000e+00
    outer loop
      vertex 1.898962e+01 1.275494e+01 1.260335e+01
      vertex 6.400024e+00 6.768799e-02 1.260335e+01
      vertex 1.917065e+01 6.768799e-02 1.260335e+01
    endloop
  endfacet
  facet normal -1.000000e+00 0.000000e+00 0.000000e+00
    outer loop
      vertex -1.917065e+01 1.275494e+01 1.260335e+01
      vertex -1.917065e+01 6.768799e-02 0.000000e+00
      vertex -1.917065e+01 6.768799e-02 1.260335e+01
    endloop
  endfacet
  facet normal -1.000000e+00 0.000000e+00 0.000000e+00
    outer loop
      vertex -1.917065e+01 1.275494e+01 1.260335e+01
      vertex -1.917065e+01 6.768799e-02 0.000000e+00
      vertex -1.917065e+01 6.768799e-02 1.260335e+01
    endloop
  endfacet
  facet normal -1.000000e+00 0.000000e+00 0.000000e+00
    outer loop
      vertex -1.917065e+01 1.275494e+01 1.260335e+01
      vertex -1.917065e+01 6.768799e-02 0.000000e+00
      vertex -1.917065e+01 6.768799e-02 1.260335e+01
    endloop
  endfacet
  facet normal -1.000000e+00 0.000000e+00 0.000000e+00
    outer loop
      vertex -1.917065e+01 6.768799e-02 0.000000e+00
      vertex -1.917065e+01 1.275494e+01 1.260335e+01
      vertex -1.917065e+01 1.275494e+01 0.000000e+00
    endloop
  endfacet
  facet normal -1.000000e+00 0.000000e+00 0.000000e+00
    outer loop
      vertex -1.917065e+01 6.768799e-02 0.000000e+00
      vertex -1.917065e+01 1.275494e+01 1.260335e+01
      vertex -1.917065e+01 1.275494e+01 0.000000e+00
    endloop
  endfacet
  facet normal -1.000000e+00 0.000000e+00 0.000000e+00
    outer loop
      vertex -1.917065e+01 6.768799e-02 0.000000e+00
      vertex -1.917065e+01 1.275494e+01 1.260335e+01
      vertex -1.917065e+01 1.275494e+01 0.000000e+00
    endloop
  endfacet
  facet normal -0.000000e+00 -1.000000e+00 -0.000000e+00
    outer loop
      vertex 6.400024e+00 -1.275494e+01 1.260335e+01
      vertex -6.469604e+00 -1.275494e+01 0.000000e+00
      vertex 6.400024e+00 -1.275494e+01 0.000000e+00
    endloop
  endfacet
  facet normal -0.000000e+00 -1.000000e+00 -0.000000e+00
    outer loop
      vertex 6.400024e+00 -1.275494e+01 1.260335e+01
      vertex -6.469604e+00 -1.275494e+01 0.000000e+00
      vertex 6.400024e+00 -1.275494e+01 0.000000e+00
    endloop
  endfacet
  facet normal -0.000000e+00 -1.000000e+00 -0.000000e+00
    outer loop
      vertex 6.400024e+00 -1.275494e+01 1.260335e+01
      vertex -6.469604e+00 -1.275494e+01 0.000000e+00
      vertex 6.400024e+00 -1.275494e+01 0.000000e+00
    endloop
  endfacet
  facet normal -0.000000e+00 -1.000000e+00 -0.000000e+00
    outer loop
      vertex -6.469604e+00 -1.275494e+01 0.000000e+00
      vertex 6.400024e+00 -1.275494e+01 1.260335e+01
      vertex -6.469604e+00 -1.275494e+01 1.260335e+01
    endloop
  endfacet
  facet normal -0.000000e+00 -1.000000e+00 -0.000000e+00
    outer loop
      vertex -6.469604e+00 -1.275494e+01 0.000000e+00
      vertex 6.400024e+00 -1.275494e+01 1.260335e+01
      vertex -6.469604e+00 -1.275494e+01 1.260335e+01
    endloop
  endfacet
  facet normal -0.000000e+00 -1.000000e+00 -0.000000e+00
    outer loop
      vertex -6.469604e+00 -1.275494e+01 0.000000e+00
      vertex 6.400024e+00 -1.275494e+01 1.260335e+01
      vertex -6.469604e+00 -1.275494e+01 1.260335e+01
    endloop
  endfacet
endsolid Default
