solid Default
  facet normal 0.000000e+00 0.000000e+00 1.000000e+00
    outer loop
      vertex 0.000000e+00 -1.268860e+01 1.262090e+01
      vertex 1.273022e+01 -1.837158e-01 1.262090e+01
      vertex -1.586914e-03 -1.837158e-01 1.262090e+01
    endloop
  endfacet
  facet normal 0.000000e+00 0.000000e+00 1.000000e+00
    outer loop
      vertex 0.000000e+00 -1.268860e+01 1.262090e+01
      vertex 1.273022e+01 -1.837158e-01 1.262090e+01
      vertex -1.586914e-03 -1.837158e-01 1.262090e+01
    endloop
  endfacet
  facet normal 0.000000e+00 0.000000e+00 1.000000e+00
    outer loop
      vertex 0.000000e+00 -1.268860e+01 1.262090e+01
      vertex 1.273022e+01 -1.837158e-01 1.262090e+01
      vertex -1.586914e-03 -1.837158e-01 1.262090e+01
    endloop
  endfacet
  facet normal 0.000000e+00 0.000000e+00 1.000000e+00
    outer loop
      vertex 1.273022e+01 -1.837158e-01 1.262090e+01
      vertex 0.000000e+00 -1.268860e+01 1.262090e+01
      vertex 1.273022e+01 -1.268860e+01 1.262090e+01
    endloop
  endfacet
  facet normal 0.000000e+00 0.000000e+00 1.000000e+00
    outer loop
      vertex 1.273022e+01 -1.837158e-01 1.262090e+01
      vertex 0.000000e+00 -1.268860e+01 1.262090e+01
      vertex 1.273022e+01 -1.268860e+01 1.262090e+01
    endloop
  endfacet
  facet normal 0.000000e+00 0.000000e+00 1.000000e+00
    outer loop
      vertex 1.273022e+01 -1.837158e-01 1.262090e+01
      vertex 0.000000e+00 -1.268860e+01 1.262090e+01
      vertex 1.273022e+01 -1.268860e+01 1.262090e+01
    endloop
  endfacet
  facet normal 0.000000e+00 0.000000e+00 1.000000e+00
    outer loop
      vertex 0.000000e+00 -1.268860e+01 2.533785e+01
      vertex -1.273022e+01 -1.837158e-01 2.533785e+01
      vertex -1.273022e+01 -1.268860e+01 2.533785e+01
    endloop
  endfacet
  facet normal 0.000000e+00 0.000000e+00 1.000000e+00
    outer loop
      vertex 0.000000e+00 -1.268860e+01 2.533785e+01
      vertex -1.273022e+01 -1.837158e-01 2.533785e+01
      vertex -1.273022e+01 -1.268860e+01 2.533785e+01
    endloop
  endfacet
  facet normal 0.000000e+00 0.000000e+00 1.000000e+00
    outer loop
      vertex 0.000000e+00 -1.268860e+01 2.533785e+01
      vertex -1.273022e+01 -1.837158e-01 2.533785e+01
      vertex -1.273022e+01 -1.268860e+01 2.533785e+01
    endloop
  endfacet
  facet normal 0.000000e+00 0.000000e+00 1.000000e+00
    outer loop
      vertex -1.273022e+01 -1.837158e-01 2.533785e+01
      vertex 0.000000e+00 -1.268860e+01 2.533785e+01
      vertex -1.586914e-03 -1.837158e-01 2.533785e+01
    endloop
  endfacet
  facet normal 0.000000e+00 0.000000e+00 1.000000e+00
    outer loop
      vertex -1.273022e+01 -1.837158e-01 2.533785e+01
      vertex 0.000000e+00 -1.268860e+01 2.533785e+01
      vertex -1.586914e-03 -1.837158e-01 2.533785e+01
    endloop
  endfacet
  facet normal 0.000000e+00 0.000000e+00 1.000000e+00
    outer loop
      vertex -1.273022e+01 -1.837158e-01 2.533785e+01
      vertex 0.000000e+00 -1.268860e+01 2.533785e+01
      vertex -1.586914e-03 -1.837158e-01 2.533785e+01
    endloop
  endfacet
  facet normal 0.000000e+00 1.000000e+00 0.000000e+00
    outer loop
      vertex -1.273022e+01 1.268860e+01 1.262090e+01
      vertex -1.586914e-03 1.268860e+01 0.000000e+00
      vertex -1.273022e+01 1.268860e+01 0.000000e+00
    endloop
  endfacet
  facet normal 0.000000e+00 1.000000e+00 0.000000e+00
    outer loop
      vertex -1.273022e+01 1.268860e+01 1.262090e+01
      vertex -1.586914e-03 1.268860e+01 0.000000e+00
      vertex -1.273022e+01 1.268860e+01 0.000000e+00
    endloop
  endfacet
  facet normal 0.000000e+00 1.000000e+00 0.000000e+00
    outer loop
      vertex -1.273022e+01 1.268860e+01 1.262090e+01
      vertex -1.586914e-03 1.268860e+01 0.000000e+00
      vertex -1.273022e+01 1.268860e+01 0.000000e+00
    endloop
  endfacet
  facet normal 0.000000e+00 1.000000e+00 0.000000e+00
    outer loop
      vertex -1.586914e-03 1.268860e+01 0.000000e+00
      vertex -1.273022e+01 1.268860e+01 1.262090e+01
      vertex -1.586914e-03 1.268860e+01 1.262090e+01
    endloop
  endfacet
  facet normal 0.000000e+00 1.000000e+00 0.000000e+00
    outer loop
      vertex -1.586914e-03 1.268860e+01 0.000000e+00
      vertex -1.273022e+01 1.268860e+01 1.262090e+01
      vertex -1.586914e-03 1.268860e+01 1.262090e+01
    endloop
  endfacet
  facet normal 0.000000e+00 1.000000e+00 0.000000e+00
    outer loop
      vertex -1.586914e-03 1.268860e+01 0.000000e+00
      vertex -1.273022e+01 1.268860e+01 1.262090e+01
      vertex -1.586914e-03 1.268860e+01 1.262090e+01
    endloop
  endfacet
  facet normal -1.000000e+00 0.000000e+00 0.000000e+00
    outer loop
      vertex -1.273022e+01 -1.837158e-01 2.533785e+01
      vertex -1.273022e+01 -1.268860e+01 0.000000e+00
      vertex -1.273022e+01 -1.268860e+01 2.533785e+01
    endloop
  endfacet
  facet normal -1.000000e+00 0.000000e+00 0.000000e+00
    outer loop
      vertex -1.273022e+01 -1.837158e-01 2.533785e+01
      vertex -1.273022e+01 -1.268860e+01 0.000000e+00
      vertex -1.273022e+01 -1.268860e+01 2.533785e+01
    endloop
  endfacet
  facet normal -1.000000e+00 0.000000e+00 0.000000e+00
    outer loop
      vertex -1.273022e+01 -1.837158e-01 2.533785e+01
      vertex -1.273022e+01 -1.268860e+01 0.000000e+00
      vertex -1.273022e+01 -1.268860e+01 2.533785e+01
    endloop
  endfacet
  facet normal -1.000000e+00 0.000000e+00 0.000000e+00
    outer loop
      vertex -1.273022e+01 -1.268860e+01 0.000000e+00
      vertex -1.273022e+01 -1.837158e-01 2.533785e+01
      vertex -1.273022e+01 -1.837158e-01 1.262090e+01
    endloop
  endfacet
  facet normal -1.000000e+00 0.000000e+00 0.000000e+00
    outer loop
      vertex -1.273022e+01 -1.268860e+01 0.000000e+00
      vertex -1.273022e+01 -1.837158e-01 2.533785e+01
      vertex -1.273022e+01 -1.837158e-01 1.262090e+01
    endloop
  endfacet
  facet normal -1.000000e+00 0.000000e+00 0.000000e+00
    outer loop
      vertex -1.273022e+01 -1.268860e+01 0.000000e+00
      vertex -1.273022e+01 -1.837158e-01 2.533785e+01
      vertex -1.273022e+01 -1.837158e-01 1.262090e+01
    endloop
  endfacet
  facet normal -1.000000e+00 0.000000e+00 0.000000e+00
    outer loop
      vertex -1.273022e+01 -1.268860e+01 0.000000e+00
      vertex -1.273022e+01 -1.837158e-01 1.262090e+01
      vertex -1.273022e+01 1.268860e+01 0.000000e+00
    endloop
  endfacet
  facet normal -1.000000e+00 0.000000e+00 0.000000e+00
    outer loop
      vertex -1.273022e+01 -1.268860e+01 0.000000e+00
      vertex -1.273022e+01 -1.837158e-01 1.262090e+01
      vertex -1.273022e+01 1.268860e+01 0.000000e+00
    endloop
  endfacet
  facet normal -1.000000e+00 0.000000e+00 0.000000e+00
    outer loop
      vertex -1.273022e+01 -1.268860e+01 0.000000e+00
      vertex -1.273022e+01 -1.837158e-01 1.262090e+01
      vertex -1.273022e+01 1.268860e+01 0.000000e+00
    endloop
  endfacet
  facet normal -1.000000e+00 0.000000e+00 0.000000e+00
    outer loop
      vertex -1.273022e+01 1.268860e+01 0.000000e+00
      vertex -1.273022e+01 -1.837158e-01 1.262090e+01
      vertex -1.273022e+01 1.268860e+01 1.262090e+01
    endloop
  endfacet
  facet normal -1.000000e+00 0.000000e+00 0.000000e+00
    outer loop
      vertex -1.273022e+01 1.268860e+01 0.000000e+00
      vertex -1.273022e+01 -1.837158e-01 1.262090e+01
      vertex -1.273022e+01 1.268860e+01 1.262090e+01
    endloop
  endfacet
  facet normal -1.000000e+00 0.000000e+00 0.000000e+00
    outer loop
      vertex -1.273022e+01 1.268860e+01 0.000000e+00
      vertex -1.273022e+01 -1.837158e-01 1.262090e+01
      vertex -1.273022e+01 1.268860e+01 1.262090e+01
    endloop
  endfacet
  facet normal 0.000000e+00 0.000000e+00 -1.000000e+00
    outer loop
      vertex -1.586914e-03 1.268860e+01 0.000000e+00
      vertex -1.273022e+01 -1.268860e+01 0.000000e+00
      vertex -1.273022e+01 1.268860e+01 0.000000e+00
    endloop
  endfacet
  facet normal 0.000000e+00 0.000000e+00 -1.000000e+00
    outer loop
      vertex -1.586914e-03 1.268860e+01 0.000000e+00
      vertex -1.273022e+01 -1.268860e+01 0.000000e+00
      vertex -1.273022e+01 1.268860e+01 0.000000e+00
    endloop
  endfacet
  facet normal 0.000000e+00 0.000000e+00 -1.000000e+00
    outer loop
      vertex -1.586914e-03 1.268860e+01 0.000000e+00
      vertex -1.273022e+01 -1.268860e+01 0.000000e+00
      vertex -1.273022e+01 1.268860e+01 0.000000e+00
    endloop
  endfacet
  facet normal 0.000000e+00 0.000000e+00 -1.000000e+00
    outer loop
      vertex -1.273022e+01 -1.268860e+01 0.000000e+00
      vertex -1.586914e-03 1.268860e+01 0.000000e+00
      vertex -1.586914e-03 -1.837158e-01 0.000000e+00
    endloop
  endfacet
  facet normal 0.000000e+00 0.000000e+00 -1.000000e+00
    outer loop
      vertex -1.273022e+01 -1.268860e+01 0.000000e+00
      vertex -1.586914e-03 1.268860e+01 0.000000e+00
      vertex -1.586914e-03 -1.837158e-01 0.000000e+00
    endloop
  endfacet
  facet normal 0.000000e+00 0.000000e+00 -1.000000e+00
    outer loop
      vertex -1.273022e+01 -1.268860e+01 0.000000e+00
      vertex -1.586914e-03 1.268860e+01 0.000000e+00
      vertex -1.586914e-03 -1.837158e-01 0.000000e+00
    endloop
  endfacet
  facet normal 0.000000e+00 0.000000e+00 -1.000000e+00
    outer loop
      vertex -1.273022e+01 -1.268860e+01 0.000000e+00
      vertex -1.586914e-03 -1.837158e-01 0.000000e+00
      vertex 1.273022e+01 -1.268860e+01 0.000000e+00
    endloop
  endfacet
  facet normal 0.000000e+00 0.000000e+00 -1.000000e+00
    outer loop
      vertex -1.273022e+01 -1.268860e+01 0.000000e+00
      vertex -1.586914e-03 -1.837158e-01 0.000000e+00
      vertex 1.273022e+01 -1.268860e+01 0.000000e+00
    endloop
  endfacet
  facet normal 0.000000e+00 0.000000e+00 -1.000000e+00
    outer loop
      vertex -1.273022e+01 -1.268860e+01 0.000000e+00
      vertex -1.586914e-03 -1.837158e-01 0.000000e+00
      vertex 1.273022e+01 -1.268860e+01 0.000000e+00
    endloop
  endfacet
  facet normal 0.000000e+00 0.000000e+00 -1.000000e+00
    outer loop
      vertex 1.273022e+01 -1.268860e+01 0.000000e+00
      vertex -1.586914e-03 -1.837158e-01 0.000000e+00
      vertex 1.273022e+01 -1.837158e-01 0.000000e+00
    endloop
  endfacet
  facet normal 0.000000e+00 0.000000e+00 -1.000000e+00
    outer loop
      vertex 1.273022e+01 -1.268860e+01 0.000000e+00
      vertex -1.586914e-03 -1.837158e-01 0.000000e+00
      vertex 1.273022e+01 -1.837158e-01 0.000000e+00
    endloop
  endfacet
  facet normal 0.000000e+00 0.000000e+00 -1.000000e+00
    outer loop
      vertex 1.273022e+01 -1.268860e+01 0.000000e+00
      vertex -1.586914e-03 -1.837158e-01 0.000000e+00
      vertex 1.273022e+01 -1.837158e-01 0.000000e+00
    endloop
  endfacet
  facet normal 1.000000e+00 0.000000e+00 0.000000e+00
    outer loop
      vertex 1.273022e+01 -1.837158e-01 0.000000e+00
      vertex 1.273022e+01 -1.268860e+01 1.262090e+01
      vertex 1.273022e+01 -1.268860e+01 0.000000e+00
    endloop
  endfacet
  facet normal 1.000000e+00 0.000000e+00 0.000000e+00
    outer loop
      vertex 1.273022e+01 -1.837158e-01 0.000000e+00
      vertex 1.273022e+01 -1.268860e+01 1.262090e+01
      vertex 1.273022e+01 -1.268860e+01 0.000000e+00
    endloop
  endfacet
  facet normal 1.000000e+00 0.000000e+00 0.000000e+00
    outer loop
      vertex 1.273022e+01 -1.837158e-01 0.000000e+00
      vertex 1.273022e+01 -1.268860e+01 1.262090e+01
      vertex 1.273022e+01 -1.268860e+01 0.000000e+00
    endloop
  endfacet
  facet normal 1.000000e+00 0.000000e+00 0.000000e+00
    outer loop
      vertex 1.273022e+01 -1.268860e+01 1.262090e+01
      vertex 1.273022e+01 -1.837158e-01 0.000000e+00
      vertex 1.273022e+01 -1.837158e-01 1.262090e+01
    endloop
  endfacet
  facet normal 1.000000e+00 0.000000e+00 0.000000e+00
    outer loop
      vertex 1.273022e+01 -1.268860e+01 1.262090e+01
      vertex 1.273022e+01 -1.837158e-01 0.000000e+00
      vertex 1.273022e+01 -1.837158e-01 1.262090e+01
    endloop
  endfacet
  facet normal 1.000000e+00 0.000000e+00 0.000000e+00
    outer loop
      vertex 1.273022e+01 -1.268860e+01 1.262090e+01
      vertex 1.273022e+01 -1.837158e-01 0.000000e+00
      vertex 1.273022e+01 -1.837158e-01 1.262090e+01
    endloop
  endfacet
  facet normal 1.000000e+00 1.249193e-04 0.000000e+00
    outer loop
      vertex -1.586914e-03 -1.837158e-01 1.262090e+01
      vertex 0.000000e+00 -1.268860e+01 2.533785e+01
      vertex 0.000000e+00 -1.268860e+01 1.262090e+01
    endloop
  endfacet
  facet normal 1.000000e+00 1.249193e-04 0.000000e+00
    outer loop
      vertex -1.586914e-03 -1.837158e-01 1.262090e+01
      vertex 0.000000e+00 -1.268860e+01 2.533785e+01
      vertex 0.000000e+00 -1.268860e+01 1.262090e+01
    endloop
  endfacet
  facet normal 1.000000e+00 1.249193e-04 0.000000e+00
    outer loop
      vertex -1.586914e-03 -1.837158e-01 1.262090e+01
      vertex 0.000000e+00 -1.268860e+01 2.533785e+01
      vertex 0.000000e+00 -1.268860e+01 1.262090e+01
    endloop
  endfacet
  facet normal 1.000000e+00 1.249193e-04 0.000000e+00
    outer loop
      vertex 0.000000e+00 -1.268860e+01 2.533785e+01
      vertex -1.586914e-03 -1.837158e-01 1.262090e+01
      vertex -1.586914e-03 -1.837158e-01 2.533785e+01
    endloop
  endfacet
  facet normal 1.000000e+00 1.249193e-04 0.000000e+00
    outer loop
      vertex 0.000000e+00 -1.268860e+01 2.533785e+01
      vertex -1.586914e-03 -1.837158e-01 1.262090e+01
      vertex -1.586914e-03 -1.837158e-01 2.533785e+01
    endloop
  endfacet
  facet normal 1.000000e+00 1.249193e-04 0.000000e+00
    outer loop
      vertex 0.000000e+00 -1.268860e+01 2.533785e+01
      vertex -1.586914e-03 -1.837158e-01 1.262090e+01
      vertex -1.586914e-03 -1.837158e-01 2.533785e+01
    endloop
  endfacet
  facet normal 0.000000e+00 1.000000e+00 0.000000e+00
    outer loop
      vertex -1.586914e-03 -1.837158e-01 1.262090e+01
      vertex 1.273022e+01 -1.837158e-01 0.000000e+00
      vertex -1.586914e-03 -1.837158e-01 0.000000e+00
    endloop
  endfacet
  facet normal 0.000000e+00 1.000000e+00 0.000000e+00
    outer loop
      vertex -1.586914e-03 -1.837158e-01 1.262090e+01
      vertex 1.273022e+01 -1.837158e-01 0.000000e+00
      vertex -1.586914e-03 -1.837158e-01 0.000000e+00
    endloop
  endfacet
  facet normal 0.000000e+00 1.000000e+00 0.000000e+00
    outer loop
      vertex -1.586914e-03 -1.837158e-01 1.262090e+01
      vertex 1.273022e+01 -1.837158e-01 0.000000e+00
      vertex -1.586914e-03 -1.837158e-01 0.000000e+00
    endloop
  endfacet
  facet normal 0.000000e+00 1.000000e+00 0.000000e+00
    outer loop
      vertex 1.273022e+01 -1.837158e-01 0.000000e+00
      vertex -1.586914e-03 -1.837158e-01 1.262090e+01
      vertex 1.273022e+01 -1.837158e-01 1.262090e+01
    endloop
  endfacet
  facet normal 0.000000e+00 1.000000e+00 0.000000e+00
    outer loop
      vertex 1.273022e+01 -1.837158e-01 0.000000e+00
      vertex -1.586914e-03 -1.837158e-01 1.262090e+01
      vertex 1.273022e+01 -1.837158e-01 1.262090e+01
    endloop
  endfacet
  facet normal 0.000000e+00 1.000000e+00 0.000000e+00
    outer loop
      vertex 1.273022e+01 -1.837158e-01 0.000000e+00
      vertex -1.586914e-03 -1.837158e-01 1.262090e+01
      vertex 1.273022e+01 -1.837158e-01 1.262090e+01
    endloop
  endfacet
  facet normal 0.000000e+00 0.000000e+00 1.000000e+00
    outer loop
      vertex -1.586914e-03 -1.837158e-01 1.262090e+01
      vertex -1.273022e+01 1.268860e+01 1.262090e+01
      vertex -1.273022e+01 -1.837158e-01 1.262090e+01
    endloop
  endfacet
  facet normal 0.000000e+00 0.000000e+00 1.000000e+00
    outer loop
      vertex -1.586914e-03 -1.837158e-01 1.262090e+01
      vertex -1.273022e+01 1.268860e+01 1.262090e+01
      vertex -1.273022e+01 -1.837158e-01 1.262090e+01
    endloop
  endfacet
  facet normal 0.000000e+00 0.000000e+00 1.000000e+00
    outer loop
      vertex -1.586914e-03 -1.837158e-01 1.262090e+01
      vertex -1.273022e+01 1.268860e+01 1.262090e+01
      vertex -1.273022e+01 -1.837158e-01 1.262090e+01
    endloop
  endfacet
  facet normal 0.000000e+00 0.000000e+00 1.000000e+00
    outer loop
      vertex -1.273022e+01 1.268860e+01 1.262090e+01
      vertex -1.586914e-03 -1.837158e-01 1.262090e+01
      vertex -1.586914e-03 1.268860e+01 1.262090e+01
    endloop
  endfacet
  facet normal 0.000000e+00 0.000000e+00 1.000000e+00
    outer loop
      vertex -1.273022e+01 1.268860e+01 1.262090e+01
      vertex -1.586914e-03 -1.837158e-01 1.262090e+01
      vertex -1.586914e-03 1.268860e+01 1.262090e+01
    endloop
  endfacet
  facet normal 0.000000e+00 0.000000e+00 1.000000e+00
    outer loop
      vertex -1.273022e+01 1.268860e+01 1.262090e+01
      vertex -1.586914e-03 -1.837158e-01 1.262090e+01
      vertex -1.586914e-03 1.268860e+01 1.262090e+01
    endloop
  endfacet
  facet normal -0.000000e+00 -1.000000e+00 -0.000000e+00
    outer loop
      vertex 1.273022e+01 -1.268860e+01 1.262090e+01
      vertex -1.273022e+01 -1.268860e+01 0.000000e+00
      vertex 1.273022e+01 -1.268860e+01 0.000000e+00
    endloop
  endfacet
  facet normal -0.000000e+00 -1.000000e+00 -0.000000e+00
    outer loop
      vertex 1.273022e+01 -1.268860e+01 1.262090e+01
      vertex -1.273022e+01 -1.268860e+01 0.000000e+00
      vertex 1.273022e+01 -1.268860e+01 0.000000e+00
    endloop
  endfacet
  facet normal -0.000000e+00 -1.000000e+00 -0.000000e+00
    outer loop
      vertex 1.273022e+01 -1.268860e+01 1.262090e+01
      vertex -1.273022e+01 -1.268860e+01 0.000000e+00
      vertex 1.273022e+01 -1.268860e+01 0.000000e+00
    endloop
  endfacet
  facet normal -0.000000e+00 -1.000000e+00 -0.000000e+00
    outer loop
      vertex -1.273022e+01 -1.268860e+01 0.000000e+00
      vertex 1.273022e+01 -1.268860e+01 1.262090e+01
      vertex 0.000000e+00 -1.268860e+01 1.262090e+01
    endloop
  endfacet
  facet normal -0.000000e+00 -1.000000e+00 -0.000000e+00
    outer loop
      vertex -1.273022e+01 -1.268860e+01 0.000000e+00
      vertex 1.273022e+01 -1.268860e+01 1.262090e+01
      vertex 0.000000e+00 -1.268860e+01 1.262090e+01
    endloop
  endfacet
  facet normal -0.000000e+00 -1.000000e+00 -0.000000e+00
    outer loop
      vertex -1.273022e+01 -1.268860e+01 0.000000e+00
      vertex 1.273022e+01 -1.268860e+01 1.262090e+01
      vertex 0.000000e+00 -1.268860e+01 1.262090e+01
    endloop
  endfacet
  facet normal -0.000000e+00 -1.000000e+00 -0.000000e+00
    outer loop
      vertex -1.273022e+01 -1.268860e+01 0.000000e+00
      vertex 0.000000e+00 -1.268860e+01 1.262090e+01
      vertex -1.273022e+01 -1.268860e+01 2.533785e+01
    endloop
  endfacet
  facet normal -0.000000e+00 -1.000000e+00 -0.000000e+00
    outer loop
      vertex -1.273022e+01 -1.268860e+01 0.000000e+00
      vertex 0.000000e+00 -1.268860e+01 1.262090e+01
      vertex -1.273022e+01 -1.268860e+01 2.533785e+01
    endloop
  endfacet
  facet normal -0.000000e+00 -1.000000e+00 -0.000000e+00
    outer loop
      vertex -1.273022e+01 -1.268860e+01 0.000000e+00
      vertex 0.000000e+00 -1.268860e+01 1.262090e+01
      vertex -1.273022e+01 -1.268860e+01 2.533785e+01
    endloop
  endfacet
  facet normal -0.000000e+00 -1.000000e+00 -0.000000e+00
    outer loop
      vertex -1.273022e+01 -1.268860e+01 2.533785e+01
      vertex 0.000000e+00 -1.268860e+01 1.262090e+01
      vertex 0.000000e+00 -1.268860e+01 2.533785e+01
    endloop
  endfacet
  facet normal -0.000000e+00 -1.000000e+00 -0.000000e+00
    outer loop
      vertex -1.273022e+01 -1.268860e+01 2.533785e+01
      vertex 0.000000e+00 -1.268860e+01 1.262090e+01
      vertex 0.000000e+00 -1.268860e+01 2.533785e+01
    endloop
  endfacet
  facet normal -0.000000e+00 -1.000000e+00 -0.000000e+00
    outer loop
      vertex -1.273022e+01 -1.268860e+01 2.533785e+01
      vertex 0.000000e+00 -1.268860e+01 1.262090e+01
      vertex 0.000000e+00 -1.268860e+01 2.533785e+01
    endloop
  endfacet
  facet normal 0.000000e+00 1.000000e+00 0.000000e+00
    outer loop
      vertex -1.273022e+01 -1.837158e-01 2.533785e+01
      vertex -1.586914e-03 -1.837158e-01 1.262090e+01
      vertex -1.273022e+01 -1.837158e-01 1.262090e+01
    endloop
  endfacet
  facet normal 0.000000e+00 1.000000e+00 0.000000e+00
    outer loop
      vertex -1.273022e+01 -1.837158e-01 2.533785e+01
      vertex -1.586914e-03 -1.837158e-01 1.262090e+01
      vertex -1.273022e+01 -1.837158e-01 1.262090e+01
    endloop
  endfacet
  facet normal 0.000000e+00 1.000000e+00 0.000000e+00
    outer loop
      vertex -1.273022e+01 -1.837158e-01 2.533785e+01
      vertex -1.586914e-03 -1.837158e-01 1.262090e+01
      vertex -1.273022e+01 -1.837158e-01 1.262090e+01
    endloop
  endfacet
  facet normal 0.000000e+00 1.000000e+00 0.000000e+00
    outer loop
      vertex -1.586914e-03 -1.837158e-01 1.262090e+01
      vertex -1.273022e+01 -1.837158e-01 2.533785e+01
      vertex -1.586914e-03 -1.837158e-01 2.533785e+01
    endloop
  endfacet
  facet normal 0.000000e+00 1.000000e+00 0.000000e+00
    outer loop
      vertex -1.586914e-03 -1.837158e-01 1.262090e+01
      vertex -1.273022e+01 -1.837158e-01 2.533785e+01
      vertex -1.586914e-03 -1.837158e-01 2.533785e+01
    endloop
  endfacet
  facet normal 0.000000e+00 1.000000e+00 0.000000e+00
    outer loop
      vertex -1.586914e-03 -1.837158e-01 1.262090e+01
      vertex -1.273022e+01 -1.837158e-01 2.533785e+01
      vertex -1.586914e-03 -1.837158e-01 2.533785e+01
    endloop
  endfacet
  facet normal 1.000000e+00 0.000000e+00 0.000000e+00
    outer loop
      vertex -1.586914e-03 1.268860e+01 0.000000e+00
      vertex -1.586914e-03 -1.837158e-01 1.262090e+01
      vertex -1.586914e-03 -1.837158e-01 0.000000e+00
    endloop
  endfacet
  facet normal 1.000000e+00 0.000000e+00 0.000000e+00
    outer loop
      vertex -1.586914e-03 1.268860e+01 0.000000e+00
      vertex -1.586914e-03 -1.837158e-01 1.262090e+01
      vertex -1.586914e-03 -1.837158e-01 0.000000e+00
    endloop
  endfacet
  facet normal 1.000000e+00 0.000000e+00 0.000000e+00
    outer loop
      vertex -1.586914e-03 1.268860e+01 0.000000e+00
      vertex -1.586914e-03 -1.837158e-01 1.262090e+01
      vertex -1.586914e-03 -1.837158e-01 0.000000e+00
    endloop
  endfacet
  facet normal 1.000000e+00 0.000000e+00 0.000000e+00
    outer loop
      vertex -1.586914e-03 -1.837158e-01 1.262090e+01
      vertex -1.586914e-03 1.268860e+01 0.000000e+00
      vertex -1.586914e-03 1.268860e+01 1.262090e+01
    endloop
  endfacet
  facet normal 1.000000e+00 0.000000e+00 0.000000e+00
    outer loop
      vertex -1.586914e-03 -1.837158e-01 1.262090e+01
      vertex -1.586914e-03 1.268860e+01 0.000000e+00
      vertex -1.586914e-03 1.268860e+01 1.262090e+01
    endloop
  endfacet
  facet normal 1.000000e+00 0.000000e+00 0.000000e+00
    outer loop
      vertex -1.586914e-03 -1.837158e-01 1.262090e+01
      vertex -1.586914e-03 1.268860e+01 0.000000e+00
      vertex -1.586914e-03 1.268860e+01 1.262090e+01
    endloop
  endfacet
endsolid Default
