solid Default
  facet normal 0.000000e+00 0.000000e+00 -1.000000e+00
    outer loop
      vertex -3.000000e+01 0.000000e+00 0.000000e+00
      vertex -2.934443e+01 6.237351e+00 0.000000e+00
      vertex -2.934443e+01 -6.237351e+00 0.000000e+00
    endloop
  endfacet
  facet normal 0.000000e+00 0.000000e+00 -1.000000e+00
    outer loop
      vertex -2.934443e+01 -6.237351e+00 0.000000e+00
      vertex -2.934443e+01 6.237351e+00 0.000000e+00
      vertex -2.740636e+01 1.220210e+01 0.000000e+00
    endloop
  endfacet
  facet normal 0.000000e+00 0.000000e+00 -1.000000e+00
    outer loop
      vertex -2.934443e+01 -6.237351e+00 0.000000e+00
      vertex -2.740636e+01 1.220210e+01 0.000000e+00
      vertex -2.427051e+01 1.763356e+01 0.000000e+00
    endloop
  endfacet
  facet normal 0.000000e+00 0.000000e+00 -1.000000e+00
    outer loop
      vertex -2.934443e+01 -6.237351e+00 0.000000e+00
      vertex -2.427051e+01 1.763356e+01 0.000000e+00
      vertex -2.007392e+01 2.229435e+01 0.000000e+00
    endloop
  endfacet
  facet normal 0.000000e+00 0.000000e+00 -1.000000e+00
    outer loop
      vertex -2.934443e+01 -6.237351e+00 0.000000e+00
      vertex -2.007392e+01 2.229435e+01 0.000000e+00
      vertex -1.500000e+01 2.598076e+01 0.000000e+00
    endloop
  endfacet
  facet normal 0.000000e+00 0.000000e+00 -1.000000e+00
    outer loop
      vertex -2.934443e+01 -6.237351e+00 0.000000e+00
      vertex -1.500000e+01 2.598076e+01 0.000000e+00
      vertex -9.270510e+00 2.853169e+01 0.000000e+00
    endloop
  endfacet
  facet normal 0.000000e+00 0.000000e+00 -1.000000e+00
    outer loop
      vertex -2.934443e+01 -6.237351e+00 0.000000e+00
      vertex -9.270510e+00 2.853169e+01 0.000000e+00
      vertex -3.135854e+00 2.983566e+01 0.000000e+00
    endloop
  endfacet
  facet normal 0.000000e+00 0.000000e+00 -1.000000e+00
    outer loop
      vertex -2.934443e+01 -6.237351e+00 0.000000e+00
      vertex -3.135854e+00 2.983566e+01 0.000000e+00
      vertex 3.135854e+00 2.983566e+01 0.000000e+00
    endloop
  endfacet
  facet normal 0.000000e+00 0.000000e+00 -1.000000e+00
    outer loop
      vertex -2.934443e+01 -6.237351e+00 0.000000e+00
      vertex 3.135854e+00 2.983566e+01 0.000000e+00
      vertex 9.270510e+00 2.853169e+01 0.000000e+00
    endloop
  endfacet
  facet normal 0.000000e+00 0.000000e+00 -1.000000e+00
    outer loop
      vertex -2.934443e+01 -6.237351e+00 0.000000e+00
      vertex 9.270510e+00 2.853169e+01 0.000000e+00
      vertex 1.500000e+01 2.598076e+01 0.000000e+00
    endloop
  endfacet
  facet normal 0.000000e+00 0.000000e+00 -1.000000e+00
    outer loop
      vertex -1.149813e+00 1.093974e+01 0.000000e+00
      vertex 1.500000e+01 2.598076e+01 0.000000e+00
      vertex 2.007392e+01 2.229435e+01 0.000000e+00
    endloop
  endfacet
  facet normal 0.000000e+00 0.000000e+00 -1.000000e+00
    outer loop
      vertex 5.500000e+00 9.526279e+00 0.000000e+00
      vertex 2.007392e+01 2.229435e+01 0.000000e+00
      vertex 2.427051e+01 1.763356e+01 0.000000e+00
    endloop
  endfacet
  facet normal 0.000000e+00 0.000000e+00 -1.000000e+00
    outer loop
      vertex 8.899187e+00 6.465638e+00 0.000000e+00
      vertex 2.427051e+01 1.763356e+01 0.000000e+00
      vertex 2.740636e+01 1.220210e+01 0.000000e+00
    endloop
  endfacet
  facet normal 0.000000e+00 0.000000e+00 -1.000000e+00
    outer loop
      vertex 1.075962e+01 2.287029e+00 0.000000e+00
      vertex 2.740636e+01 1.220210e+01 0.000000e+00
      vertex 2.934443e+01 6.237351e+00 0.000000e+00
    endloop
  endfacet
  facet normal 0.000000e+00 0.000000e+00 -1.000000e+00
    outer loop
      vertex 1.100000e+01 0.000000e+00 0.000000e+00
      vertex 2.934443e+01 6.237351e+00 0.000000e+00
      vertex 3.000000e+01 0.000000e+00 0.000000e+00
    endloop
  endfacet
  facet normal 0.000000e+00 0.000000e+00 -1.000000e+00
    outer loop
      vertex 1.004900e+01 -4.474103e+00 0.000000e+00
      vertex 3.000000e+01 0.000000e+00 0.000000e+00
      vertex 2.934443e+01 -6.237351e+00 0.000000e+00
    endloop
  endfacet
  facet normal 0.000000e+00 0.000000e+00 -1.000000e+00
    outer loop
      vertex 7.360437e+00 -8.174593e+00 0.000000e+00
      vertex 2.934443e+01 -6.237351e+00 0.000000e+00
      vertex 2.740636e+01 -1.220210e+01 0.000000e+00
    endloop
  endfacet
  facet normal 0.000000e+00 0.000000e+00 -1.000000e+00
    outer loop
      vertex 1.149813e+00 -1.093974e+01 0.000000e+00
      vertex 2.740636e+01 -1.220210e+01 0.000000e+00
      vertex 2.427051e+01 -1.763356e+01 0.000000e+00
    endloop
  endfacet
  facet normal 0.000000e+00 0.000000e+00 -1.000000e+00
    outer loop
      vertex -2.934443e+01 -6.237351e+00 0.000000e+00
      vertex 2.427051e+01 -1.763356e+01 0.000000e+00
      vertex 2.007392e+01 -2.229435e+01 0.000000e+00
    endloop
  endfacet
  facet normal 0.000000e+00 0.000000e+00 -1.000000e+00
    outer loop
      vertex -2.934443e+01 -6.237351e+00 0.000000e+00
      vertex 2.007392e+01 -2.229435e+01 0.000000e+00
      vertex 1.500000e+01 -2.598076e+01 0.000000e+00
    endloop
  endfacet
  facet normal 0.000000e+00 0.000000e+00 -1.000000e+00
    outer loop
      vertex -2.934443e+01 -6.237351e+00 0.000000e+00
      vertex 1.500000e+01 -2.598076e+01 0.000000e+00
      vertex 9.270510e+00 -2.853169e+01 0.000000e+00
    endloop
  endfacet
  facet normal 0.000000e+00 0.000000e+00 -1.000000e+00
    outer loop
      vertex -2.934443e+01 -6.237351e+00 0.000000e+00
      vertex 9.270510e+00 -2.853169e+01 0.000000e+00
      vertex 3.135854e+00 -2.983566e+01 0.000000e+00
    endloop
  endfacet
  facet normal 0.000000e+00 0.000000e+00 -1.000000e+00
    outer loop
      vertex -2.934443e+01 -6.237351e+00 0.000000e+00
      vertex 3.135854e+00 -2.983566e+01 0.000000e+00
      vertex -3.135854e+00 -2.983566e+01 0.000000e+00
    endloop
  endfacet
  facet normal 0.000000e+00 0.000000e+00 -1.000000e+00
    outer loop
      vertex -2.934443e+01 -6.237351e+00 0.000000e+00
      vertex -3.135854e+00 -2.983566e+01 0.000000e+00
      vertex -9.270510e+00 -2.853169e+01 0.000000e+00
    endloop
  endfacet
  facet normal 0.000000e+00 0.000000e+00 -1.000000e+00
    outer loop
      vertex -2.934443e+01 -6.237351e+00 0.000000e+00
      vertex -9.270510e+00 -2.853169e+01 0.000000e+00
      vertex -1.500000e+01 -2.598076e+01 0.000000e+00
    endloop
  endfacet
  facet normal 0.000000e+00 0.000000e+00 -1.000000e+00
    outer loop
      vertex -2.934443e+01 -6.237351e+00 0.000000e+00
      vertex -1.500000e+01 -2.598076e+01 0.000000e+00
      vertex -2.007392e+01 -2.229435e+01 0.000000e+00
    endloop
  endfacet
  facet normal 0.000000e+00 0.000000e+00 -1.000000e+00
    outer loop
      vertex -2.934443e+01 -6.237351e+00 0.000000e+00
      vertex -2.007392e+01 -2.229435e+01 0.000000e+00
      vertex -2.427051e+01 -1.763356e+01 0.000000e+00
    endloop
  endfacet
  facet normal 0.000000e+00 0.000000e+00 -1.000000e+00
    outer loop
      vertex -2.934443e+01 -6.237351e+00 0.000000e+00
      vertex -2.427051e+01 -1.763356e+01 0.000000e+00
      vertex -2.740636e+01 -1.220210e+01 0.000000e+00
    endloop
  endfacet
  facet normal 0.000000e+00 0.000000e+00 -1.000000e+00
    outer loop
      vertex -1.075962e+01 -2.287029e+00 0.000000e+00
      vertex -2.934443e+01 -6.237351e+00 0.000000e+00
      vertex -1.100000e+01 0.000000e+00 0.000000e+00
    endloop
  endfacet
  facet normal 0.000000e+00 0.000000e+00 -1.000000e+00
    outer loop
      vertex -1.004900e+01 -4.474103e+00 0.000000e+00
      vertex -2.934443e+01 -6.237351e+00 0.000000e+00
      vertex -1.075962e+01 -2.287029e+00 0.000000e+00
    endloop
  endfacet
  facet normal 0.000000e+00 0.000000e+00 -1.000000e+00
    outer loop
      vertex -8.899187e+00 -6.465638e+00 0.000000e+00
      vertex -2.934443e+01 -6.237351e+00 0.000000e+00
      vertex -1.004900e+01 -4.474103e+00 0.000000e+00
    endloop
  endfacet
  facet normal 0.000000e+00 0.000000e+00 -1.000000e+00
    outer loop
      vertex -5.500000e+00 -9.526279e+00 0.000000e+00
      vertex -2.934443e+01 -6.237351e+00 0.000000e+00
      vertex -7.360437e+00 -8.174593e+00 0.000000e+00
    endloop
  endfacet
  facet normal 0.000000e+00 0.000000e+00 -1.000000e+00
    outer loop
      vertex -2.934443e+01 -6.237351e+00 0.000000e+00
      vertex -8.899187e+00 -6.465638e+00 0.000000e+00
      vertex -7.360437e+00 -8.174593e+00 0.000000e+00
    endloop
  endfacet
  facet normal 0.000000e+00 0.000000e+00 -1.000000e+00
    outer loop
      vertex 1.149813e+00 -1.093974e+01 0.000000e+00
      vertex 2.427051e+01 -1.763356e+01 0.000000e+00
      vertex -1.149813e+00 -1.093974e+01 0.000000e+00
    endloop
  endfacet
  facet normal 0.000000e+00 0.000000e+00 -1.000000e+00
    outer loop
      vertex -2.934443e+01 -6.237351e+00 0.000000e+00
      vertex -5.500000e+00 -9.526279e+00 0.000000e+00
      vertex -3.399187e+00 -1.046162e+01 0.000000e+00
    endloop
  endfacet
  facet normal 0.000000e+00 0.000000e+00 -1.000000e+00
    outer loop
      vertex -2.934443e+01 -6.237351e+00 0.000000e+00
      vertex -3.399187e+00 -1.046162e+01 0.000000e+00
      vertex 2.427051e+01 -1.763356e+01 0.000000e+00
    endloop
  endfacet
  facet normal 0.000000e+00 0.000000e+00 -1.000000e+00
    outer loop
      vertex -3.399187e+00 -1.046162e+01 0.000000e+00
      vertex -1.149813e+00 -1.093974e+01 0.000000e+00
      vertex 2.427051e+01 -1.763356e+01 0.000000e+00
    endloop
  endfacet
  facet normal 0.000000e+00 0.000000e+00 -1.000000e+00
    outer loop
      vertex 3.399187e+00 -1.046162e+01 0.000000e+00
      vertex 2.740636e+01 -1.220210e+01 0.000000e+00
      vertex 1.149813e+00 -1.093974e+01 0.000000e+00
    endloop
  endfacet
  facet normal 0.000000e+00 0.000000e+00 -1.000000e+00
    outer loop
      vertex 5.500000e+00 -9.526279e+00 0.000000e+00
      vertex 2.740636e+01 -1.220210e+01 0.000000e+00
      vertex 3.399187e+00 -1.046162e+01 0.000000e+00
    endloop
  endfacet
  facet normal 0.000000e+00 0.000000e+00 -1.000000e+00
    outer loop
      vertex 7.360437e+00 -8.174593e+00 0.000000e+00
      vertex 2.740636e+01 -1.220210e+01 0.000000e+00
      vertex 5.500000e+00 -9.526279e+00 0.000000e+00
    endloop
  endfacet
  facet normal 0.000000e+00 0.000000e+00 -1.000000e+00
    outer loop
      vertex 8.899187e+00 -6.465638e+00 0.000000e+00
      vertex 2.934443e+01 -6.237351e+00 0.000000e+00
      vertex 7.360437e+00 -8.174593e+00 0.000000e+00
    endloop
  endfacet
  facet normal 0.000000e+00 0.000000e+00 -1.000000e+00
    outer loop
      vertex 1.004900e+01 -4.474103e+00 0.000000e+00
      vertex 2.934443e+01 -6.237351e+00 0.000000e+00
      vertex 8.899187e+00 -6.465638e+00 0.000000e+00
    endloop
  endfacet
  facet normal 0.000000e+00 0.000000e+00 -1.000000e+00
    outer loop
      vertex 1.075962e+01 -2.287029e+00 0.000000e+00
      vertex 3.000000e+01 0.000000e+00 0.000000e+00
      vertex 1.004900e+01 -4.474103e+00 0.000000e+00
    endloop
  endfacet
  facet normal 0.000000e+00 0.000000e+00 -1.000000e+00
    outer loop
      vertex 1.100000e+01 0.000000e+00 0.000000e+00
      vertex 3.000000e+01 0.000000e+00 0.000000e+00
      vertex 1.075962e+01 -2.287029e+00 0.000000e+00
    endloop
  endfacet
  facet normal 0.000000e+00 0.000000e+00 -1.000000e+00
    outer loop
      vertex 1.075962e+01 2.287029e+00 0.000000e+00
      vertex 2.934443e+01 6.237351e+00 0.000000e+00
      vertex 1.100000e+01 0.000000e+00 0.000000e+00
    endloop
  endfacet
  facet normal 0.000000e+00 0.000000e+00 -1.000000e+00
    outer loop
      vertex 1.004900e+01 4.474103e+00 0.000000e+00
      vertex 2.740636e+01 1.220210e+01 0.000000e+00
      vertex 1.075962e+01 2.287029e+00 0.000000e+00
    endloop
  endfacet
  facet normal 0.000000e+00 0.000000e+00 -1.000000e+00
    outer loop
      vertex 7.360437e+00 8.174593e+00 0.000000e+00
      vertex 2.427051e+01 1.763356e+01 0.000000e+00
      vertex 8.899187e+00 6.465638e+00 0.000000e+00
    endloop
  endfacet
  facet normal 0.000000e+00 0.000000e+00 -1.000000e+00
    outer loop
      vertex 5.500000e+00 9.526279e+00 0.000000e+00
      vertex 2.427051e+01 1.763356e+01 0.000000e+00
      vertex 7.360437e+00 8.174593e+00 0.000000e+00
    endloop
  endfacet
  facet normal 0.000000e+00 0.000000e+00 -1.000000e+00
    outer loop
      vertex 3.399187e+00 1.046162e+01 0.000000e+00
      vertex 2.007392e+01 2.229435e+01 0.000000e+00
      vertex 5.500000e+00 9.526279e+00 0.000000e+00
    endloop
  endfacet
  facet normal 0.000000e+00 0.000000e+00 -1.000000e+00
    outer loop
      vertex 1.149813e+00 1.093974e+01 0.000000e+00
      vertex 2.007392e+01 2.229435e+01 0.000000e+00
      vertex 3.399187e+00 1.046162e+01 0.000000e+00
    endloop
  endfacet
  facet normal 0.000000e+00 0.000000e+00 -1.000000e+00
    outer loop
      vertex -3.399187e+00 1.046162e+01 0.000000e+00
      vertex 1.500000e+01 2.598076e+01 0.000000e+00
      vertex -1.149813e+00 1.093974e+01 0.000000e+00
    endloop
  endfacet
  facet normal 0.000000e+00 0.000000e+00 -1.000000e+00
    outer loop
      vertex -8.899187e+00 6.465638e+00 0.000000e+00
      vertex -2.934443e+01 -6.237351e+00 0.000000e+00
      vertex -7.360437e+00 8.174593e+00 0.000000e+00
    endloop
  endfacet
  facet normal 0.000000e+00 0.000000e+00 -1.000000e+00
    outer loop
      vertex -5.500000e+00 9.526279e+00 0.000000e+00
      vertex 1.500000e+01 2.598076e+01 0.000000e+00
      vertex -3.399187e+00 1.046162e+01 0.000000e+00
    endloop
  endfacet
  facet normal 0.000000e+00 0.000000e+00 -1.000000e+00
    outer loop
      vertex -2.934443e+01 -6.237351e+00 0.000000e+00
      vertex 1.500000e+01 2.598076e+01 0.000000e+00
      vertex -5.500000e+00 9.526279e+00 0.000000e+00
    endloop
  endfacet
  facet normal 0.000000e+00 0.000000e+00 -1.000000e+00
    outer loop
      vertex -2.934443e+01 -6.237351e+00 0.000000e+00
      vertex -5.500000e+00 9.526279e+00 0.000000e+00
      vertex -7.360437e+00 8.174593e+00 0.000000e+00
    endloop
  endfacet
  facet normal 0.000000e+00 0.000000e+00 -1.000000e+00
    outer loop
      vertex -1.004900e+01 4.474103e+00 0.000000e+00
      vertex -2.934443e+01 -6.237351e+00 0.000000e+00
      vertex -8.899187e+00 6.465638e+00 0.000000e+00
    endloop
  endfacet
  facet normal 0.000000e+00 0.000000e+00 -1.000000e+00
    outer loop
      vertex -1.075962e+01 2.287029e+00 0.000000e+00
      vertex -2.934443e+01 -6.237351e+00 0.000000e+00
      vertex -1.004900e+01 4.474103e+00 0.000000e+00
    endloop
  endfacet
  facet normal 0.000000e+00 0.000000e+00 -1.000000e+00
    outer loop
      vertex -1.100000e+01 0.000000e+00 0.000000e+00
      vertex -2.934443e+01 -6.237351e+00 0.000000e+00
      vertex -1.075962e+01 2.287029e+00 0.000000e+00
    endloop
  endfacet
  facet normal 0.000000e+00 0.000000e+00 -1.000000e+00
    outer loop
      vertex -1.149813e+00 1.093974e+01 0.000000e+00
      vertex 2.007392e+01 2.229435e+01 0.000000e+00
      vertex 1.149813e+00 1.093974e+01 0.000000e+00
    endloop
  endfacet
  facet normal 0.000000e+00 0.000000e+00 -1.000000e+00
    outer loop
      vertex 8.899187e+00 6.465638e+00 0.000000e+00
      vertex 2.740636e+01 1.220210e+01 0.000000e+00
      vertex 1.004900e+01 4.474103e+00 0.000000e+00
    endloop
  endfacet
  facet normal -9.945220e-01 1.045280e-01 0.000000e+00
    outer loop
      vertex -3.000000e+01 0.000000e+00 0.000000e+00
      vertex -3.000000e+01 0.000000e+00 1.000000e+01
      vertex -2.934443e+01 6.237351e+00 0.000000e+00
    endloop
  endfacet
  facet normal -9.945220e-01 1.045280e-01 0.000000e+00
    outer loop
      vertex -2.934443e+01 6.237351e+00 0.000000e+00
      vertex -3.000000e+01 0.000000e+00 1.000000e+01
      vertex -2.934443e+01 6.237351e+00 1.000000e+01
    endloop
  endfacet
  facet normal -9.945220e-01 -1.045280e-01 0.000000e+00
    outer loop
      vertex -3.000000e+01 0.000000e+00 0.000000e+00
      vertex -2.934443e+01 -6.237351e+00 0.000000e+00
      vertex -3.000000e+01 0.000000e+00 1.000000e+01
    endloop
  endfacet
  facet normal -9.945220e-01 -1.045280e-01 0.000000e+00
    outer loop
      vertex -3.000000e+01 0.000000e+00 1.000000e+01
      vertex -2.934443e+01 -6.237351e+00 0.000000e+00
      vertex -2.934443e+01 -6.237351e+00 1.000000e+01
    endloop
  endfacet
  facet normal -9.510565e-01 -3.090169e-01 0.000000e+00
    outer loop
      vertex -2.934443e+01 -6.237351e+00 0.000000e+00
      vertex -2.740636e+01 -1.220210e+01 0.000000e+00
      vertex -2.934443e+01 -6.237351e+00 1.000000e+01
    endloop
  endfacet
  facet normal -9.510565e-01 -3.090169e-01 0.000000e+00
    outer loop
      vertex -2.934443e+01 -6.237351e+00 1.000000e+01
      vertex -2.740636e+01 -1.220210e+01 0.000000e+00
      vertex -2.740636e+01 -1.220210e+01 1.000000e+01
    endloop
  endfacet
  facet normal -8.660253e-01 -5.000002e-01 0.000000e+00
    outer loop
      vertex -2.740636e+01 -1.220210e+01 0.000000e+00
      vertex -2.427051e+01 -1.763356e+01 0.000000e+00
      vertex -2.740636e+01 -1.220210e+01 1.000000e+01
    endloop
  endfacet
  facet normal -8.660253e-01 -5.000002e-01 0.000000e+00
    outer loop
      vertex -2.740636e+01 -1.220210e+01 1.000000e+01
      vertex -2.427051e+01 -1.763356e+01 0.000000e+00
      vertex -2.427051e+01 -1.763356e+01 1.000000e+01
    endloop
  endfacet
  facet normal -7.431448e-01 -6.691307e-01 0.000000e+00
    outer loop
      vertex -2.427051e+01 -1.763356e+01 0.000000e+00
      vertex -2.007392e+01 -2.229435e+01 0.000000e+00
      vertex -2.427051e+01 -1.763356e+01 1.000000e+01
    endloop
  endfacet
  facet normal -7.431448e-01 -6.691307e-01 0.000000e+00
    outer loop
      vertex -2.427051e+01 -1.763356e+01 1.000000e+01
      vertex -2.007392e+01 -2.229435e+01 0.000000e+00
      vertex -2.007392e+01 -2.229435e+01 1.000000e+01
    endloop
  endfacet
  facet normal -5.877851e-01 -8.090171e-01 0.000000e+00
    outer loop
      vertex -2.007392e+01 -2.229435e+01 1.000000e+01
      vertex -2.007392e+01 -2.229435e+01 0.000000e+00
      vertex -1.500000e+01 -2.598076e+01 0.000000e+00
    endloop
  endfacet
  facet normal -5.877851e-01 -8.090171e-01 0.000000e+00
    outer loop
      vertex -1.500000e+01 -2.598076e+01 1.000000e+01
      vertex -2.007392e+01 -2.229435e+01 1.000000e+01
      vertex -1.500000e+01 -2.598076e+01 0.000000e+00
    endloop
  endfacet
  facet normal -4.067371e-01 -9.135453e-01 0.000000e+00
    outer loop
      vertex -1.500000e+01 -2.598076e+01 1.000000e+01
      vertex -1.500000e+01 -2.598076e+01 0.000000e+00
      vertex -9.270510e+00 -2.853169e+01 0.000000e+00
    endloop
  endfacet
  facet normal -4.067371e-01 -9.135453e-01 0.000000e+00
    outer loop
      vertex -9.270510e+00 -2.853169e+01 1.000000e+01
      vertex -1.500000e+01 -2.598076e+01 1.000000e+01
      vertex -9.270510e+00 -2.853169e+01 0.000000e+00
    endloop
  endfacet
  facet normal -2.079119e-01 -9.781476e-01 0.000000e+00
    outer loop
      vertex -9.270510e+00 -2.853169e+01 1.000000e+01
      vertex -9.270510e+00 -2.853169e+01 0.000000e+00
      vertex -3.135854e+00 -2.983566e+01 0.000000e+00
    endloop
  endfacet
  facet normal -2.079119e-01 -9.781476e-01 0.000000e+00
    outer loop
      vertex -3.135854e+00 -2.983566e+01 1.000000e+01
      vertex -9.270510e+00 -2.853169e+01 1.000000e+01
      vertex -3.135854e+00 -2.983566e+01 0.000000e+00
    endloop
  endfacet
  facet normal 0.000000e+00 -1.000000e+00 0.000000e+00
    outer loop
      vertex -3.135854e+00 -2.983566e+01 1.000000e+01
      vertex -3.135854e+00 -2.983566e+01 0.000000e+00
      vertex 3.135854e+00 -2.983566e+01 0.000000e+00
    endloop
  endfacet
  facet normal 0.000000e+00 -1.000000e+00 0.000000e+00
    outer loop
      vertex 3.135854e+00 -2.983566e+01 1.000000e+01
      vertex -3.135854e+00 -2.983566e+01 1.000000e+01
      vertex 3.135854e+00 -2.983566e+01 0.000000e+00
    endloop
  endfacet
  facet normal 2.079119e-01 -9.781476e-01 0.000000e+00
    outer loop
      vertex 3.135854e+00 -2.983566e+01 1.000000e+01
      vertex 3.135854e+00 -2.983566e+01 0.000000e+00
      vertex 9.270510e+00 -2.853169e+01 0.000000e+00
    endloop
  endfacet
  facet normal 2.079119e-01 -9.781476e-01 0.000000e+00
    outer loop
      vertex 9.270510e+00 -2.853169e+01 1.000000e+01
      vertex 3.135854e+00 -2.983566e+01 1.000000e+01
      vertex 9.270510e+00 -2.853169e+01 0.000000e+00
    endloop
  endfacet
  facet normal 4.067371e-01 -9.135453e-01 0.000000e+00
    outer loop
      vertex 9.270510e+00 -2.853169e+01 1.000000e+01
      vertex 9.270510e+00 -2.853169e+01 0.000000e+00
      vertex 1.500000e+01 -2.598076e+01 0.000000e+00
    endloop
  endfacet
  facet normal 4.067371e-01 -9.135453e-01 0.000000e+00
    outer loop
      vertex 1.500000e+01 -2.598076e+01 1.000000e+01
      vertex 9.270510e+00 -2.853169e+01 1.000000e+01
      vertex 1.500000e+01 -2.598076e+01 0.000000e+00
    endloop
  endfacet
  facet normal 5.877851e-01 -8.090171e-01 0.000000e+00
    outer loop
      vertex 1.500000e+01 -2.598076e+01 1.000000e+01
      vertex 1.500000e+01 -2.598076e+01 0.000000e+00
      vertex 2.007392e+01 -2.229435e+01 0.000000e+00
    endloop
  endfacet
  facet normal 5.877851e-01 -8.090171e-01 0.000000e+00
    outer loop
      vertex 2.007392e+01 -2.229435e+01 1.000000e+01
      vertex 1.500000e+01 -2.598076e+01 1.000000e+01
      vertex 2.007392e+01 -2.229435e+01 0.000000e+00
    endloop
  endfacet
  facet normal 7.431448e-01 -6.691307e-01 0.000000e+00
    outer loop
      vertex 2.007392e+01 -2.229435e+01 1.000000e+01
      vertex 2.007392e+01 -2.229435e+01 0.000000e+00
      vertex 2.427051e+01 -1.763356e+01 0.000000e+00
    endloop
  endfacet
  facet normal 7.431448e-01 -6.691307e-01 0.000000e+00
    outer loop
      vertex 2.427051e+01 -1.763356e+01 1.000000e+01
      vertex 2.007392e+01 -2.229435e+01 1.000000e+01
      vertex 2.427051e+01 -1.763356e+01 0.000000e+00
    endloop
  endfacet
  facet normal 8.660253e-01 -5.000002e-01 0.000000e+00
    outer loop
      vertex 2.427051e+01 -1.763356e+01 1.000000e+01
      vertex 2.427051e+01 -1.763356e+01 0.000000e+00
      vertex 2.740636e+01 -1.220210e+01 0.000000e+00
    endloop
  endfacet
  facet normal 8.660253e-01 -5.000002e-01 0.000000e+00
    outer loop
      vertex 2.740636e+01 -1.220210e+01 1.000000e+01
      vertex 2.427051e+01 -1.763356e+01 1.000000e+01
      vertex 2.740636e+01 -1.220210e+01 0.000000e+00
    endloop
  endfacet
  facet normal 9.510565e-01 -3.090169e-01 0.000000e+00
    outer loop
      vertex 2.740636e+01 -1.220210e+01 1.000000e+01
      vertex 2.740636e+01 -1.220210e+01 0.000000e+00
      vertex 2.934443e+01 -6.237351e+00 0.000000e+00
    endloop
  endfacet
  facet normal 9.510565e-01 -3.090169e-01 0.000000e+00
    outer loop
      vertex 2.934443e+01 -6.237351e+00 1.000000e+01
      vertex 2.740636e+01 -1.220210e+01 1.000000e+01
      vertex 2.934443e+01 -6.237351e+00 0.000000e+00
    endloop
  endfacet
  facet normal 9.945220e-01 -1.045280e-01 0.000000e+00
    outer loop
      vertex 2.934443e+01 -6.237351e+00 1.000000e+01
      vertex 2.934443e+01 -6.237351e+00 0.000000e+00
      vertex 3.000000e+01 0.000000e+00 0.000000e+00
    endloop
  endfacet
  facet normal 9.945220e-01 -1.045280e-01 0.000000e+00
    outer loop
      vertex 3.000000e+01 0.000000e+00 1.000000e+01
      vertex 2.934443e+01 -6.237351e+00 1.000000e+01
      vertex 3.000000e+01 0.000000e+00 0.000000e+00
    endloop
  endfacet
  facet normal 9.945220e-01 1.045280e-01 0.000000e+00
    outer loop
      vertex 3.000000e+01 0.000000e+00 0.000000e+00
      vertex 2.934443e+01 6.237351e+00 0.000000e+00
      vertex 2.934443e+01 6.237351e+00 1.000000e+01
    endloop
  endfacet
  facet normal 9.945220e-01 1.045280e-01 0.000000e+00
    outer loop
      vertex 3.000000e+01 0.000000e+00 1.000000e+01
      vertex 3.000000e+01 0.000000e+00 0.000000e+00
      vertex 2.934443e+01 6.237351e+00 1.000000e+01
    endloop
  endfacet
  facet normal 9.510565e-01 3.090169e-01 0.000000e+00
    outer loop
      vertex 2.934443e+01 6.237351e+00 0.000000e+00
      vertex 2.740636e+01 1.220210e+01 0.000000e+00
      vertex 2.740636e+01 1.220210e+01 1.000000e+01
    endloop
  endfacet
  facet normal 9.510565e-01 3.090169e-01 0.000000e+00
    outer loop
      vertex 2.934443e+01 6.237351e+00 1.000000e+01
      vertex 2.934443e+01 6.237351e+00 0.000000e+00
      vertex 2.740636e+01 1.220210e+01 1.000000e+01
    endloop
  endfacet
  facet normal 8.660253e-01 5.000002e-01 0.000000e+00
    outer loop
      vertex 2.740636e+01 1.220210e+01 0.000000e+00
      vertex 2.427051e+01 1.763356e+01 0.000000e+00
      vertex 2.427051e+01 1.763356e+01 1.000000e+01
    endloop
  endfacet
  facet normal 8.660253e-01 5.000002e-01 0.000000e+00
    outer loop
      vertex 2.740636e+01 1.220210e+01 1.000000e+01
      vertex 2.740636e+01 1.220210e+01 0.000000e+00
      vertex 2.427051e+01 1.763356e+01 1.000000e+01
    endloop
  endfacet
  facet normal 7.431448e-01 6.691307e-01 0.000000e+00
    outer loop
      vertex 2.427051e+01 1.763356e+01 0.000000e+00
      vertex 2.007392e+01 2.229435e+01 0.000000e+00
      vertex 2.007392e+01 2.229435e+01 1.000000e+01
    endloop
  endfacet
  facet normal 7.431448e-01 6.691307e-01 0.000000e+00
    outer loop
      vertex 2.427051e+01 1.763356e+01 1.000000e+01
      vertex 2.427051e+01 1.763356e+01 0.000000e+00
      vertex 2.007392e+01 2.229435e+01 1.000000e+01
    endloop
  endfacet
  facet normal 5.877851e-01 8.090171e-01 0.000000e+00
    outer loop
      vertex 1.500000e+01 2.598076e+01 0.000000e+00
      vertex 1.500000e+01 2.598076e+01 1.000000e+01
      vertex 2.007392e+01 2.229435e+01 0.000000e+00
    endloop
  endfacet
  facet normal 5.877851e-01 8.090171e-01 0.000000e+00
    outer loop
      vertex 2.007392e+01 2.229435e+01 0.000000e+00
      vertex 1.500000e+01 2.598076e+01 1.000000e+01
      vertex 2.007392e+01 2.229435e+01 1.000000e+01
    endloop
  endfacet
  facet normal 4.067371e-01 9.135453e-01 0.000000e+00
    outer loop
      vertex 9.270510e+00 2.853169e+01 0.000000e+00
      vertex 9.270510e+00 2.853169e+01 1.000000e+01
      vertex 1.500000e+01 2.598076e+01 0.000000e+00
    endloop
  endfacet
  facet normal 4.067371e-01 9.135453e-01 0.000000e+00
    outer loop
      vertex 1.500000e+01 2.598076e+01 0.000000e+00
      vertex 9.270510e+00 2.853169e+01 1.000000e+01
      vertex 1.500000e+01 2.598076e+01 1.000000e+01
    endloop
  endfacet
  facet normal 2.079119e-01 9.781476e-01 0.000000e+00
    outer loop
      vertex 3.135854e+00 2.983566e+01 0.000000e+00
      vertex 3.135854e+00 2.983566e+01 1.000000e+01
      vertex 9.270510e+00 2.853169e+01 0.000000e+00
    endloop
  endfacet
  facet normal 2.079119e-01 9.781476e-01 0.000000e+00
    outer loop
      vertex 9.270510e+00 2.853169e+01 0.000000e+00
      vertex 3.135854e+00 2.983566e+01 1.000000e+01
      vertex 9.270510e+00 2.853169e+01 1.000000e+01
    endloop
  endfacet
  facet normal 0.000000e+00 1.000000e+00 0.000000e+00
    outer loop
      vertex -3.135854e+00 2.983566e+01 0.000000e+00
      vertex -3.135854e+00 2.983566e+01 1.000000e+01
      vertex 3.135854e+00 2.983566e+01 0.000000e+00
    endloop
  endfacet
  facet normal 0.000000e+00 1.000000e+00 0.000000e+00
    outer loop
      vertex 3.135854e+00 2.983566e+01 0.000000e+00
      vertex -3.135854e+00 2.983566e+01 1.000000e+01
      vertex 3.135854e+00 2.983566e+01 1.000000e+01
    endloop
  endfacet
  facet normal -2.079119e-01 9.781476e-01 0.000000e+00
    outer loop
      vertex -9.270510e+00 2.853169e+01 0.000000e+00
      vertex -9.270510e+00 2.853169e+01 1.000000e+01
      vertex -3.135854e+00 2.983566e+01 0.000000e+00
    endloop
  endfacet
  facet normal -2.079119e-01 9.781476e-01 0.000000e+00
    outer loop
      vertex -3.135854e+00 2.983566e+01 0.000000e+00
      vertex -9.270510e+00 2.853169e+01 1.000000e+01
      vertex -3.135854e+00 2.983566e+01 1.000000e+01
    endloop
  endfacet
  facet normal -4.067371e-01 9.135453e-01 0.000000e+00
    outer loop
      vertex -1.500000e+01 2.598076e+01 0.000000e+00
      vertex -1.500000e+01 2.598076e+01 1.000000e+01
      vertex -9.270510e+00 2.853169e+01 0.000000e+00
    endloop
  endfacet
  facet normal -4.067371e-01 9.135453e-01 0.000000e+00
    outer loop
      vertex -9.270510e+00 2.853169e+01 0.000000e+00
      vertex -1.500000e+01 2.598076e+01 1.000000e+01
      vertex -9.270510e+00 2.853169e+01 1.000000e+01
    endloop
  endfacet
  facet normal -5.877851e-01 8.090171e-01 0.000000e+00
    outer loop
      vertex -2.007392e+01 2.229435e+01 0.000000e+00
      vertex -2.007392e+01 2.229435e+01 1.000000e+01
      vertex -1.500000e+01 2.598076e+01 0.000000e+00
    endloop
  endfacet
  facet normal -5.877851e-01 8.090171e-01 0.000000e+00
    outer loop
      vertex -1.500000e+01 2.598076e+01 0.000000e+00
      vertex -2.007392e+01 2.229435e+01 1.000000e+01
      vertex -1.500000e+01 2.598076e+01 1.000000e+01
    endloop
  endfacet
  facet normal -7.431448e-01 6.691307e-01 0.000000e+00
    outer loop
      vertex -2.427051e+01 1.763356e+01 0.000000e+00
      vertex -2.427051e+01 1.763356e+01 1.000000e+01
      vertex -2.007392e+01 2.229435e+01 0.000000e+00
    endloop
  endfacet
  facet normal -7.431448e-01 6.691307e-01 0.000000e+00
    outer loop
      vertex -2.007392e+01 2.229435e+01 0.000000e+00
      vertex -2.427051e+01 1.763356e+01 1.000000e+01
      vertex -2.007392e+01 2.229435e+01 1.000000e+01
    endloop
  endfacet
  facet normal -8.660253e-01 5.000002e-01 0.000000e+00
    outer loop
      vertex -2.740636e+01 1.220210e+01 0.000000e+00
      vertex -2.740636e+01 1.220210e+01 1.000000e+01
      vertex -2.427051e+01 1.763356e+01 0.000000e+00
    endloop
  endfacet
  facet normal -8.660253e-01 5.000002e-01 0.000000e+00
    outer loop
      vertex -2.427051e+01 1.763356e+01 0.000000e+00
      vertex -2.740636e+01 1.220210e+01 1.000000e+01
      vertex -2.427051e+01 1.763356e+01 1.000000e+01
    endloop
  endfacet
  facet normal -9.510565e-01 3.090169e-01 0.000000e+00
    outer loop
      vertex -2.934443e+01 6.237351e+00 0.000000e+00
      vertex -2.934443e+01 6.237351e+00 1.000000e+01
      vertex -2.740636e+01 1.220210e+01 0.000000e+00
    endloop
  endfacet
  facet normal -9.510565e-01 3.090169e-01 0.000000e+00
    outer loop
      vertex -2.740636e+01 1.220210e+01 0.000000e+00
      vertex -2.934443e+01 6.237351e+00 1.000000e+01
      vertex -2.740636e+01 1.220210e+01 1.000000e+01
    endloop
  endfacet
  facet normal 9.945220e-01 1.045280e-01 0.000000e+00
    outer loop
      vertex -1.100000e+01 0.000000e+00 2.000000e+01
      vertex -1.075962e+01 -2.287029e+00 2.000000e+01
      vertex -1.075962e+01 -2.287029e+00 0.000000e+00
    endloop
  endfacet
  facet normal 9.945220e-01 1.045280e-01 0.000000e+00
    outer loop
      vertex -1.100000e+01 0.000000e+00 0.000000e+00
      vertex -1.100000e+01 0.000000e+00 2.000000e+01
      vertex -1.075962e+01 -2.287029e+00 0.000000e+00
    endloop
  endfacet
  facet normal 9.945220e-01 -1.045280e-01 0.000000e+00
    outer loop
      vertex -1.075962e+01 2.287029e+00 0.000000e+00
      vertex -1.075962e+01 2.287029e+00 2.000000e+01
      vertex -1.100000e+01 0.000000e+00 2.000000e+01
    endloop
  endfacet
  facet normal 9.945220e-01 -1.045280e-01 0.000000e+00
    outer loop
      vertex -1.100000e+01 0.000000e+00 0.000000e+00
      vertex -1.075962e+01 2.287029e+00 0.000000e+00
      vertex -1.100000e+01 0.000000e+00 2.000000e+01
    endloop
  endfacet
  facet normal 9.510565e-01 -3.090172e-01 0.000000e+00
    outer loop
      vertex -1.004900e+01 4.474103e+00 0.000000e+00
      vertex -1.004900e+01 4.474103e+00 2.000000e+01
      vertex -1.075962e+01 2.287029e+00 2.000000e+01
    endloop
  endfacet
  facet normal 9.510565e-01 -3.090172e-01 0.000000e+00
    outer loop
      vertex -1.075962e+01 2.287029e+00 0.000000e+00
      vertex -1.004900e+01 4.474103e+00 0.000000e+00
      vertex -1.075962e+01 2.287029e+00 2.000000e+01
    endloop
  endfacet
  facet normal 8.660253e-01 -5.000002e-01 0.000000e+00
    outer loop
      vertex -8.899187e+00 6.465638e+00 0.000000e+00
      vertex -8.899187e+00 6.465638e+00 2.000000e+01
      vertex -1.004900e+01 4.474103e+00 2.000000e+01
    endloop
  endfacet
  facet normal 8.660253e-01 -5.000002e-01 0.000000e+00
    outer loop
      vertex -1.004900e+01 4.474103e+00 0.000000e+00
      vertex -8.899187e+00 6.465638e+00 0.000000e+00
      vertex -1.004900e+01 4.474103e+00 2.000000e+01
    endloop
  endfacet
  facet normal 7.431448e-01 -6.691307e-01 0.000000e+00
    outer loop
      vertex -7.360437e+00 8.174593e+00 0.000000e+00
      vertex -7.360437e+00 8.174593e+00 2.000000e+01
      vertex -8.899187e+00 6.465638e+00 2.000000e+01
    endloop
  endfacet
  facet normal 7.431448e-01 -6.691307e-01 0.000000e+00
    outer loop
      vertex -8.899187e+00 6.465638e+00 0.000000e+00
      vertex -7.360437e+00 8.174593e+00 0.000000e+00
      vertex -8.899187e+00 6.465638e+00 2.000000e+01
    endloop
  endfacet
  facet normal 5.877851e-01 -8.090171e-01 0.000000e+00
    outer loop
      vertex -5.500000e+00 9.526279e+00 0.000000e+00
      vertex -5.500000e+00 9.526279e+00 2.000000e+01
      vertex -7.360437e+00 8.174593e+00 2.000000e+01
    endloop
  endfacet
  facet normal 5.877851e-01 -8.090171e-01 0.000000e+00
    outer loop
      vertex -7.360437e+00 8.174593e+00 0.000000e+00
      vertex -5.500000e+00 9.526279e+00 0.000000e+00
      vertex -7.360437e+00 8.174593e+00 2.000000e+01
    endloop
  endfacet
  facet normal 4.067371e-01 -9.135453e-01 0.000000e+00
    outer loop
      vertex -3.399187e+00 1.046162e+01 0.000000e+00
      vertex -3.399187e+00 1.046162e+01 2.000000e+01
      vertex -5.500000e+00 9.526279e+00 2.000000e+01
    endloop
  endfacet
  facet normal 4.067371e-01 -9.135453e-01 0.000000e+00
    outer loop
      vertex -5.500000e+00 9.526279e+00 0.000000e+00
      vertex -3.399187e+00 1.046162e+01 0.000000e+00
      vertex -5.500000e+00 9.526279e+00 2.000000e+01
    endloop
  endfacet
  facet normal 2.079119e-01 -9.781476e-01 0.000000e+00
    outer loop
      vertex -1.149813e+00 1.093974e+01 0.000000e+00
      vertex -1.149813e+00 1.093974e+01 2.000000e+01
      vertex -3.399187e+00 1.046162e+01 2.000000e+01
    endloop
  endfacet
  facet normal 2.079119e-01 -9.781476e-01 0.000000e+00
    outer loop
      vertex -3.399187e+00 1.046162e+01 0.000000e+00
      vertex -1.149813e+00 1.093974e+01 0.000000e+00
      vertex -3.399187e+00 1.046162e+01 2.000000e+01
    endloop
  endfacet
  facet normal 0.000000e+00 -1.000000e+00 0.000000e+00
    outer loop
      vertex 1.149813e+00 1.093974e+01 0.000000e+00
      vertex 1.149813e+00 1.093974e+01 2.000000e+01
      vertex -1.149813e+00 1.093974e+01 2.000000e+01
    endloop
  endfacet
  facet normal 0.000000e+00 -1.000000e+00 0.000000e+00
    outer loop
      vertex -1.149813e+00 1.093974e+01 0.000000e+00
      vertex 1.149813e+00 1.093974e+01 0.000000e+00
      vertex -1.149813e+00 1.093974e+01 2.000000e+01
    endloop
  endfacet
  facet normal -2.079119e-01 -9.781476e-01 0.000000e+00
    outer loop
      vertex 3.399187e+00 1.046162e+01 0.000000e+00
      vertex 3.399187e+00 1.046162e+01 2.000000e+01
      vertex 1.149813e+00 1.093974e+01 2.000000e+01
    endloop
  endfacet
  facet normal -2.079119e-01 -9.781476e-01 0.000000e+00
    outer loop
      vertex 1.149813e+00 1.093974e+01 0.000000e+00
      vertex 3.399187e+00 1.046162e+01 0.000000e+00
      vertex 1.149813e+00 1.093974e+01 2.000000e+01
    endloop
  endfacet
  facet normal -4.067371e-01 -9.135453e-01 0.000000e+00
    outer loop
      vertex 5.500000e+00 9.526279e+00 0.000000e+00
      vertex 5.500000e+00 9.526279e+00 2.000000e+01
      vertex 3.399187e+00 1.046162e+01 2.000000e+01
    endloop
  endfacet
  facet normal -4.067371e-01 -9.135453e-01 0.000000e+00
    outer loop
      vertex 3.399187e+00 1.046162e+01 0.000000e+00
      vertex 5.500000e+00 9.526279e+00 0.000000e+00
      vertex 3.399187e+00 1.046162e+01 2.000000e+01
    endloop
  endfacet
  facet normal -5.877851e-01 -8.090171e-01 0.000000e+00
    outer loop
      vertex 7.360437e+00 8.174593e+00 0.000000e+00
      vertex 7.360437e+00 8.174593e+00 2.000000e+01
      vertex 5.500000e+00 9.526279e+00 2.000000e+01
    endloop
  endfacet
  facet normal -5.877851e-01 -8.090171e-01 0.000000e+00
    outer loop
      vertex 5.500000e+00 9.526279e+00 0.000000e+00
      vertex 7.360437e+00 8.174593e+00 0.000000e+00
      vertex 5.500000e+00 9.526279e+00 2.000000e+01
    endloop
  endfacet
  facet normal -7.431448e-01 -6.691307e-01 0.000000e+00
    outer loop
      vertex 8.899187e+00 6.465638e+00 2.000000e+01
      vertex 7.360437e+00 8.174593e+00 2.000000e+01
      vertex 8.899187e+00 6.465638e+00 0.000000e+00
    endloop
  endfacet
  facet normal -7.431448e-01 -6.691307e-01 0.000000e+00
    outer loop
      vertex 8.899187e+00 6.465638e+00 0.000000e+00
      vertex 7.360437e+00 8.174593e+00 2.000000e+01
      vertex 7.360437e+00 8.174593e+00 0.000000e+00
    endloop
  endfacet
  facet normal -8.660253e-01 -5.000002e-01 0.000000e+00
    outer loop
      vertex 1.004900e+01 4.474103e+00 2.000000e+01
      vertex 8.899187e+00 6.465638e+00 2.000000e+01
      vertex 1.004900e+01 4.474103e+00 0.000000e+00
    endloop
  endfacet
  facet normal -8.660253e-01 -5.000002e-01 0.000000e+00
    outer loop
      vertex 1.004900e+01 4.474103e+00 0.000000e+00
      vertex 8.899187e+00 6.465638e+00 2.000000e+01
      vertex 8.899187e+00 6.465638e+00 0.000000e+00
    endloop
  endfacet
  facet normal -9.510565e-01 -3.090172e-01 0.000000e+00
    outer loop
      vertex 1.075962e+01 2.287029e+00 2.000000e+01
      vertex 1.004900e+01 4.474103e+00 2.000000e+01
      vertex 1.075962e+01 2.287029e+00 0.000000e+00
    endloop
  endfacet
  facet normal -9.510565e-01 -3.090172e-01 0.000000e+00
    outer loop
      vertex 1.075962e+01 2.287029e+00 0.000000e+00
      vertex 1.004900e+01 4.474103e+00 2.000000e+01
      vertex 1.004900e+01 4.474103e+00 0.000000e+00
    endloop
  endfacet
  facet normal -9.945220e-01 -1.045280e-01 0.000000e+00
    outer loop
      vertex 1.100000e+01 0.000000e+00 2.000000e+01
      vertex 1.075962e+01 2.287029e+00 2.000000e+01
      vertex 1.100000e+01 0.000000e+00 0.000000e+00
    endloop
  endfacet
  facet normal -9.945220e-01 -1.045280e-01 0.000000e+00
    outer loop
      vertex 1.100000e+01 0.000000e+00 0.000000e+00
      vertex 1.075962e+01 2.287029e+00 2.000000e+01
      vertex 1.075962e+01 2.287029e+00 0.000000e+00
    endloop
  endfacet
  facet normal -9.945220e-01 1.045280e-01 0.000000e+00
    outer loop
      vertex 1.100000e+01 0.000000e+00 2.000000e+01
      vertex 1.100000e+01 0.000000e+00 0.000000e+00
      vertex 1.075962e+01 -2.287029e+00 2.000000e+01
    endloop
  endfacet
  facet normal -9.945220e-01 1.045280e-01 0.000000e+00
    outer loop
      vertex 1.075962e+01 -2.287029e+00 2.000000e+01
      vertex 1.100000e+01 0.000000e+00 0.000000e+00
      vertex 1.075962e+01 -2.287029e+00 0.000000e+00
    endloop
  endfacet
  facet normal -9.510565e-01 3.090172e-01 0.000000e+00
    outer loop
      vertex 1.075962e+01 -2.287029e+00 2.000000e+01
      vertex 1.075962e+01 -2.287029e+00 0.000000e+00
      vertex 1.004900e+01 -4.474103e+00 2.000000e+01
    endloop
  endfacet
  facet normal -9.510565e-01 3.090172e-01 0.000000e+00
    outer loop
      vertex 1.004900e+01 -4.474103e+00 2.000000e+01
      vertex 1.075962e+01 -2.287029e+00 0.000000e+00
      vertex 1.004900e+01 -4.474103e+00 0.000000e+00
    endloop
  endfacet
  facet normal -8.660253e-01 5.000002e-01 0.000000e+00
    outer loop
      vertex 1.004900e+01 -4.474103e+00 2.000000e+01
      vertex 1.004900e+01 -4.474103e+00 0.000000e+00
      vertex 8.899187e+00 -6.465638e+00 2.000000e+01
    endloop
  endfacet
  facet normal -8.660253e-01 5.000002e-01 0.000000e+00
    outer loop
      vertex 8.899187e+00 -6.465638e+00 2.000000e+01
      vertex 1.004900e+01 -4.474103e+00 0.000000e+00
      vertex 8.899187e+00 -6.465638e+00 0.000000e+00
    endloop
  endfacet
  facet normal -7.431448e-01 6.691307e-01 0.000000e+00
    outer loop
      vertex 8.899187e+00 -6.465638e+00 2.000000e+01
      vertex 8.899187e+00 -6.465638e+00 0.000000e+00
      vertex 7.360437e+00 -8.174593e+00 2.000000e+01
    endloop
  endfacet
  facet normal -7.431448e-01 6.691307e-01 0.000000e+00
    outer loop
      vertex 7.360437e+00 -8.174593e+00 2.000000e+01
      vertex 8.899187e+00 -6.465638e+00 0.000000e+00
      vertex 7.360437e+00 -8.174593e+00 0.000000e+00
    endloop
  endfacet
  facet normal -5.877851e-01 8.090171e-01 0.000000e+00
    outer loop
      vertex 7.360437e+00 -8.174593e+00 2.000000e+01
      vertex 7.360437e+00 -8.174593e+00 0.000000e+00
      vertex 5.500000e+00 -9.526279e+00 2.000000e+01
    endloop
  endfacet
  facet normal -5.877851e-01 8.090171e-01 0.000000e+00
    outer loop
      vertex 5.500000e+00 -9.526279e+00 2.000000e+01
      vertex 7.360437e+00 -8.174593e+00 0.000000e+00
      vertex 5.500000e+00 -9.526279e+00 0.000000e+00
    endloop
  endfacet
  facet normal -4.067371e-01 9.135453e-01 0.000000e+00
    outer loop
      vertex 5.500000e+00 -9.526279e+00 2.000000e+01
      vertex 5.500000e+00 -9.526279e+00 0.000000e+00
      vertex 3.399187e+00 -1.046162e+01 2.000000e+01
    endloop
  endfacet
  facet normal -4.067371e-01 9.135453e-01 0.000000e+00
    outer loop
      vertex 3.399187e+00 -1.046162e+01 2.000000e+01
      vertex 5.500000e+00 -9.526279e+00 0.000000e+00
      vertex 3.399187e+00 -1.046162e+01 0.000000e+00
    endloop
  endfacet
  facet normal -2.079119e-01 9.781476e-01 0.000000e+00
    outer loop
      vertex 3.399187e+00 -1.046162e+01 2.000000e+01
      vertex 3.399187e+00 -1.046162e+01 0.000000e+00
      vertex 1.149813e+00 -1.093974e+01 2.000000e+01
    endloop
  endfacet
  facet normal -2.079119e-01 9.781476e-01 0.000000e+00
    outer loop
      vertex 1.149813e+00 -1.093974e+01 2.000000e+01
      vertex 3.399187e+00 -1.046162e+01 0.000000e+00
      vertex 1.149813e+00 -1.093974e+01 0.000000e+00
    endloop
  endfacet
  facet normal 0.000000e+00 1.000000e+00 0.000000e+00
    outer loop
      vertex 1.149813e+00 -1.093974e+01 2.000000e+01
      vertex 1.149813e+00 -1.093974e+01 0.000000e+00
      vertex -1.149813e+00 -1.093974e+01 2.000000e+01
    endloop
  endfacet
  facet normal 0.000000e+00 1.000000e+00 0.000000e+00
    outer loop
      vertex -1.149813e+00 -1.093974e+01 2.000000e+01
      vertex 1.149813e+00 -1.093974e+01 0.000000e+00
      vertex -1.149813e+00 -1.093974e+01 0.000000e+00
    endloop
  endfacet
  facet normal 2.079119e-01 9.781476e-01 0.000000e+00
    outer loop
      vertex -1.149813e+00 -1.093974e+01 2.000000e+01
      vertex -1.149813e+00 -1.093974e+01 0.000000e+00
      vertex -3.399187e+00 -1.046162e+01 2.000000e+01
    endloop
  endfacet
  facet normal 2.079119e-01 9.781476e-01 0.000000e+00
    outer loop
      vertex -3.399187e+00 -1.046162e+01 2.000000e+01
      vertex -1.149813e+00 -1.093974e+01 0.000000e+00
      vertex -3.399187e+00 -1.046162e+01 0.000000e+00
    endloop
  endfacet
  facet normal 4.067371e-01 9.135453e-01 0.000000e+00
    outer loop
      vertex -3.399187e+00 -1.046162e+01 2.000000e+01
      vertex -3.399187e+00 -1.046162e+01 0.000000e+00
      vertex -5.500000e+00 -9.526279e+00 2.000000e+01
    endloop
  endfacet
  facet normal 4.067371e-01 9.135453e-01 0.000000e+00
    outer loop
      vertex -5.500000e+00 -9.526279e+00 2.000000e+01
      vertex -3.399187e+00 -1.046162e+01 0.000000e+00
      vertex -5.500000e+00 -9.526279e+00 0.000000e+00
    endloop
  endfacet
  facet normal 5.877851e-01 8.090171e-01 0.000000e+00
    outer loop
      vertex -5.500000e+00 -9.526279e+00 2.000000e+01
      vertex -5.500000e+00 -9.526279e+00 0.000000e+00
      vertex -7.360437e+00 -8.174593e+00 2.000000e+01
    endloop
  endfacet
  facet normal 5.877851e-01 8.090171e-01 0.000000e+00
    outer loop
      vertex -7.360437e+00 -8.174593e+00 2.000000e+01
      vertex -5.500000e+00 -9.526279e+00 0.000000e+00
      vertex -7.360437e+00 -8.174593e+00 0.000000e+00
    endloop
  endfacet
  facet normal 7.431448e-01 6.691307e-01 0.000000e+00
    outer loop
      vertex -8.899187e+00 -6.465638e+00 2.000000e+01
      vertex -7.360437e+00 -8.174593e+00 2.000000e+01
      vertex -7.360437e+00 -8.174593e+00 0.000000e+00
    endloop
  endfacet
  facet normal 7.431448e-01 6.691307e-01 0.000000e+00
    outer loop
      vertex -8.899187e+00 -6.465638e+00 0.000000e+00
      vertex -8.899187e+00 -6.465638e+00 2.000000e+01
      vertex -7.360437e+00 -8.174593e+00 0.000000e+00
    endloop
  endfacet
  facet normal 8.660253e-01 5.000002e-01 0.000000e+00
    outer loop
      vertex -1.004900e+01 -4.474103e+00 2.000000e+01
      vertex -8.899187e+00 -6.465638e+00 2.000000e+01
      vertex -8.899187e+00 -6.465638e+00 0.000000e+00
    endloop
  endfacet
  facet normal 8.660253e-01 5.000002e-01 0.000000e+00
    outer loop
      vertex -1.004900e+01 -4.474103e+00 0.000000e+00
      vertex -1.004900e+01 -4.474103e+00 2.000000e+01
      vertex -8.899187e+00 -6.465638e+00 0.000000e+00
    endloop
  endfacet
  facet normal 9.510565e-01 3.090172e-01 0.000000e+00
    outer loop
      vertex -1.075962e+01 -2.287029e+00 2.000000e+01
      vertex -1.004900e+01 -4.474103e+00 2.000000e+01
      vertex -1.004900e+01 -4.474103e+00 0.000000e+00
    endloop
  endfacet
  facet normal 9.510565e-01 3.090172e-01 0.000000e+00
    outer loop
      vertex -1.075962e+01 -2.287029e+00 0.000000e+00
      vertex -1.075962e+01 -2.287029e+00 2.000000e+01
      vertex -1.004900e+01 -4.474103e+00 0.000000e+00
    endloop
  endfacet
  facet normal 0.000000e+00 0.000000e+00 1.000000e+00
    outer loop
      vertex -2.934443e+01 -6.237351e+00 1.000000e+01
      vertex -2.740636e+01 -1.220210e+01 1.000000e+01
      vertex -2.427051e+01 -1.763356e+01 1.000000e+01
    endloop
  endfacet
  facet normal 0.000000e+00 0.000000e+00 1.000000e+00
    outer loop
      vertex -1.500000e+01 -2.598076e+01 1.000000e+01
      vertex -2.934443e+01 -6.237351e+00 1.000000e+01
      vertex -2.007392e+01 -2.229435e+01 1.000000e+01
    endloop
  endfacet
  facet normal 0.000000e+00 0.000000e+00 1.000000e+00
    outer loop
      vertex -2.007392e+01 -2.229435e+01 1.000000e+01
      vertex -2.934443e+01 -6.237351e+00 1.000000e+01
      vertex -2.427051e+01 -1.763356e+01 1.000000e+01
    endloop
  endfacet
  facet normal 0.000000e+00 0.000000e+00 1.000000e+00
    outer loop
      vertex -9.270510e+00 -2.853169e+01 1.000000e+01
      vertex -2.934443e+01 -6.237351e+00 1.000000e+01
      vertex -1.500000e+01 -2.598076e+01 1.000000e+01
    endloop
  endfacet
  facet normal 0.000000e+00 0.000000e+00 1.000000e+00
    outer loop
      vertex -3.135854e+00 -2.983566e+01 1.000000e+01
      vertex -2.934443e+01 -6.237351e+00 1.000000e+01
      vertex -9.270510e+00 -2.853169e+01 1.000000e+01
    endloop
  endfacet
  facet normal 0.000000e+00 0.000000e+00 1.000000e+00
    outer loop
      vertex -1.539000e+01 -1.709233e+01 1.000000e+01
      vertex -2.934443e+01 -6.237351e+00 1.000000e+01
      vertex -3.135854e+00 -2.983566e+01 1.000000e+01
    endloop
  endfacet
  facet normal 0.000000e+00 0.000000e+00 1.000000e+00
    outer loop
      vertex -7.107391e+00 -2.187430e+01 1.000000e+01
      vertex -1.150000e+01 -1.991858e+01 1.000000e+01
      vertex 3.135854e+00 -2.983566e+01 1.000000e+01
    endloop
  endfacet
  facet normal 0.000000e+00 0.000000e+00 1.000000e+00
    outer loop
      vertex 2.404155e+00 -2.287400e+01 1.000000e+01
      vertex -2.404155e+00 -2.287400e+01 1.000000e+01
      vertex 9.270510e+00 -2.853169e+01 1.000000e+01
    endloop
  endfacet
  facet normal 0.000000e+00 0.000000e+00 1.000000e+00
    outer loop
      vertex 7.107391e+00 -2.187430e+01 1.000000e+01
      vertex 2.404155e+00 -2.287400e+01 1.000000e+01
      vertex 1.500000e+01 -2.598076e+01 1.000000e+01
    endloop
  endfacet
  facet normal 0.000000e+00 0.000000e+00 1.000000e+00
    outer loop
      vertex 1.539000e+01 -1.709233e+01 1.000000e+01
      vertex 1.150000e+01 -1.991858e+01 1.000000e+01
      vertex 2.007392e+01 -2.229435e+01 1.000000e+01
    endloop
  endfacet
  facet normal 0.000000e+00 0.000000e+00 1.000000e+00
    outer loop
      vertex 1.860739e+01 -1.351906e+01 1.000000e+01
      vertex 1.539000e+01 -1.709233e+01 1.000000e+01
      vertex 2.427051e+01 -1.763356e+01 1.000000e+01
    endloop
  endfacet
  facet normal 0.000000e+00 0.000000e+00 1.000000e+00
    outer loop
      vertex 2.101155e+01 -9.354943e+00 1.000000e+01
      vertex 1.860739e+01 -1.351906e+01 1.000000e+01
      vertex 2.740636e+01 -1.220210e+01 1.000000e+01
    endloop
  endfacet
  facet normal 0.000000e+00 0.000000e+00 1.000000e+00
    outer loop
      vertex 2.249739e+01 -4.781969e+00 1.000000e+01
      vertex 2.101155e+01 -9.354943e+00 1.000000e+01
      vertex 2.934443e+01 -6.237351e+00 1.000000e+01
    endloop
  endfacet
  facet normal 0.000000e+00 0.000000e+00 1.000000e+00
    outer loop
      vertex 2.300000e+01 0.000000e+00 1.000000e+01
      vertex 2.249739e+01 -4.781969e+00 1.000000e+01
      vertex 3.000000e+01 0.000000e+00 1.000000e+01
    endloop
  endfacet
  facet normal 0.000000e+00 0.000000e+00 1.000000e+00
    outer loop
      vertex 2.404155e+00 2.287400e+01 1.000000e+01
      vertex 7.107391e+00 2.187430e+01 1.000000e+01
      vertex 9.270510e+00 2.853169e+01 1.000000e+01
    endloop
  endfacet
  facet normal 0.000000e+00 0.000000e+00 1.000000e+00
    outer loop
      vertex -1.860739e+01 1.351906e+01 1.000000e+01
      vertex -1.539000e+01 1.709233e+01 1.000000e+01
      vertex -9.270510e+00 2.853169e+01 1.000000e+01
    endloop
  endfacet
  facet normal 0.000000e+00 0.000000e+00 1.000000e+00
    outer loop
      vertex -1.150000e+01 1.991858e+01 1.000000e+01
      vertex -7.107391e+00 2.187430e+01 1.000000e+01
      vertex -3.135854e+00 2.983566e+01 1.000000e+01
    endloop
  endfacet
  facet normal 0.000000e+00 0.000000e+00 1.000000e+00
    outer loop
      vertex -2.007392e+01 2.229435e+01 1.000000e+01
      vertex -2.934443e+01 -6.237351e+00 1.000000e+01
      vertex -1.500000e+01 2.598076e+01 1.000000e+01
    endloop
  endfacet
  facet normal 0.000000e+00 0.000000e+00 1.000000e+00
    outer loop
      vertex -2.427051e+01 1.763356e+01 1.000000e+01
      vertex -2.934443e+01 -6.237351e+00 1.000000e+01
      vertex -2.007392e+01 2.229435e+01 1.000000e+01
    endloop
  endfacet
  facet normal 0.000000e+00 0.000000e+00 1.000000e+00
    outer loop
      vertex -2.740636e+01 1.220210e+01 1.000000e+01
      vertex -2.934443e+01 -6.237351e+00 1.000000e+01
      vertex -2.427051e+01 1.763356e+01 1.000000e+01
    endloop
  endfacet
  facet normal 0.000000e+00 0.000000e+00 1.000000e+00
    outer loop
      vertex -2.934443e+01 6.237351e+00 1.000000e+01
      vertex -2.934443e+01 -6.237351e+00 1.000000e+01
      vertex -2.740636e+01 1.220210e+01 1.000000e+01
    endloop
  endfacet
  facet normal 0.000000e+00 0.000000e+00 1.000000e+00
    outer loop
      vertex -3.000000e+01 0.000000e+00 1.000000e+01
      vertex -2.934443e+01 -6.237351e+00 1.000000e+01
      vertex -2.934443e+01 6.237351e+00 1.000000e+01
    endloop
  endfacet
  facet normal 0.000000e+00 0.000000e+00 1.000000e+00
    outer loop
      vertex 7.107391e+00 2.187430e+01 1.000000e+01
      vertex 1.150000e+01 1.991858e+01 1.000000e+01
      vertex 1.500000e+01 2.598076e+01 1.000000e+01
    endloop
  endfacet
  facet normal 0.000000e+00 0.000000e+00 1.000000e+00
    outer loop
      vertex -1.860739e+01 -1.351906e+01 1.000000e+01
      vertex -2.101155e+01 -9.354943e+00 1.000000e+01
      vertex -2.934443e+01 -6.237351e+00 1.000000e+01
    endloop
  endfacet
  facet normal 0.000000e+00 0.000000e+00 1.000000e+00
    outer loop
      vertex -7.107391e+00 2.187430e+01 1.000000e+01
      vertex -2.404155e+00 2.287400e+01 1.000000e+01
      vertex 3.135854e+00 2.983566e+01 1.000000e+01
    endloop
  endfacet
  facet normal 0.000000e+00 0.000000e+00 1.000000e+00
    outer loop
      vertex -1.500000e+01 2.598076e+01 1.000000e+01
      vertex -2.934443e+01 -6.237351e+00 1.000000e+01
      vertex -2.101155e+01 9.354943e+00 1.000000e+01
    endloop
  endfacet
  facet normal 0.000000e+00 0.000000e+00 1.000000e+00
    outer loop
      vertex -1.500000e+01 2.598076e+01 1.000000e+01
      vertex -1.860739e+01 1.351906e+01 1.000000e+01
      vertex -9.270510e+00 2.853169e+01 1.000000e+01
    endloop
  endfacet
  facet normal 0.000000e+00 0.000000e+00 1.000000e+00
    outer loop
      vertex -1.500000e+01 2.598076e+01 1.000000e+01
      vertex -2.101155e+01 9.354943e+00 1.000000e+01
      vertex -1.860739e+01 1.351906e+01 1.000000e+01
    endloop
  endfacet
  facet normal 0.000000e+00 0.000000e+00 1.000000e+00
    outer loop
      vertex -9.270510e+00 2.853169e+01 1.000000e+01
      vertex -1.539000e+01 1.709233e+01 1.000000e+01
      vertex -3.135854e+00 2.983566e+01 1.000000e+01
    endloop
  endfacet
  facet normal 0.000000e+00 0.000000e+00 1.000000e+00
    outer loop
      vertex -1.539000e+01 1.709233e+01 1.000000e+01
      vertex -1.150000e+01 1.991858e+01 1.000000e+01
      vertex -3.135854e+00 2.983566e+01 1.000000e+01
    endloop
  endfacet
  facet normal 0.000000e+00 0.000000e+00 1.000000e+00
    outer loop
      vertex -3.135854e+00 2.983566e+01 1.000000e+01
      vertex -7.107391e+00 2.187430e+01 1.000000e+01
      vertex 3.135854e+00 2.983566e+01 1.000000e+01
    endloop
  endfacet
  facet normal 0.000000e+00 0.000000e+00 1.000000e+00
    outer loop
      vertex -2.249739e+01 4.781969e+00 1.000000e+01
      vertex -2.101155e+01 9.354943e+00 1.000000e+01
      vertex -2.934443e+01 -6.237351e+00 1.000000e+01
    endloop
  endfacet
  facet normal 0.000000e+00 0.000000e+00 1.000000e+00
    outer loop
      vertex 3.135854e+00 2.983566e+01 1.000000e+01
      vertex -2.404155e+00 2.287400e+01 1.000000e+01
      vertex 9.270510e+00 2.853169e+01 1.000000e+01
    endloop
  endfacet
  facet normal 0.000000e+00 0.000000e+00 1.000000e+00
    outer loop
      vertex -2.404155e+00 2.287400e+01 1.000000e+01
      vertex 2.404155e+00 2.287400e+01 1.000000e+01
      vertex 9.270510e+00 2.853169e+01 1.000000e+01
    endloop
  endfacet
  facet normal 0.000000e+00 0.000000e+00 1.000000e+00
    outer loop
      vertex 9.270510e+00 2.853169e+01 1.000000e+01
      vertex 7.107391e+00 2.187430e+01 1.000000e+01
      vertex 1.500000e+01 2.598076e+01 1.000000e+01
    endloop
  endfacet
  facet normal 0.000000e+00 0.000000e+00 1.000000e+00
    outer loop
      vertex 2.101155e+01 9.354943e+00 1.000000e+01
      vertex 2.249739e+01 4.781969e+00 1.000000e+01
      vertex 2.934443e+01 6.237351e+00 1.000000e+01
    endloop
  endfacet
  facet normal 0.000000e+00 0.000000e+00 1.000000e+00
    outer loop
      vertex 1.500000e+01 2.598076e+01 1.000000e+01
      vertex 1.150000e+01 1.991858e+01 1.000000e+01
      vertex 2.007392e+01 2.229435e+01 1.000000e+01
    endloop
  endfacet
  facet normal 0.000000e+00 0.000000e+00 1.000000e+00
    outer loop
      vertex -2.300000e+01 0.000000e+00 1.000000e+01
      vertex -2.249739e+01 4.781969e+00 1.000000e+01
      vertex -2.934443e+01 -6.237351e+00 1.000000e+01
    endloop
  endfacet
  facet normal 0.000000e+00 0.000000e+00 1.000000e+00
    outer loop
      vertex 2.007392e+01 2.229435e+01 1.000000e+01
      vertex 1.539000e+01 1.709233e+01 1.000000e+01
      vertex 2.427051e+01 1.763356e+01 1.000000e+01
    endloop
  endfacet
  facet normal 0.000000e+00 0.000000e+00 1.000000e+00
    outer loop
      vertex 2.427051e+01 1.763356e+01 1.000000e+01
      vertex 1.860739e+01 1.351906e+01 1.000000e+01
      vertex 2.740636e+01 1.220210e+01 1.000000e+01
    endloop
  endfacet
  facet normal 0.000000e+00 0.000000e+00 1.000000e+00
    outer loop
      vertex -2.101155e+01 -9.354943e+00 1.000000e+01
      vertex -2.249739e+01 -4.781969e+00 1.000000e+01
      vertex -2.934443e+01 -6.237351e+00 1.000000e+01
    endloop
  endfacet
  facet normal 0.000000e+00 0.000000e+00 1.000000e+00
    outer loop
      vertex 2.740636e+01 1.220210e+01 1.000000e+01
      vertex 2.101155e+01 9.354943e+00 1.000000e+01
      vertex 2.934443e+01 6.237351e+00 1.000000e+01
    endloop
  endfacet
  facet normal 0.000000e+00 0.000000e+00 1.000000e+00
    outer loop
      vertex 2.934443e+01 6.237351e+00 1.000000e+01
      vertex 2.249739e+01 4.781969e+00 1.000000e+01
      vertex 3.000000e+01 0.000000e+00 1.000000e+01
    endloop
  endfacet
  facet normal 0.000000e+00 0.000000e+00 1.000000e+00
    outer loop
      vertex 2.249739e+01 4.781969e+00 1.000000e+01
      vertex 2.300000e+01 0.000000e+00 1.000000e+01
      vertex 3.000000e+01 0.000000e+00 1.000000e+01
    endloop
  endfacet
  facet normal 0.000000e+00 0.000000e+00 1.000000e+00
    outer loop
      vertex 3.000000e+01 0.000000e+00 1.000000e+01
      vertex 2.249739e+01 -4.781969e+00 1.000000e+01
      vertex 2.934443e+01 -6.237351e+00 1.000000e+01
    endloop
  endfacet
  facet normal 0.000000e+00 0.000000e+00 1.000000e+00
    outer loop
      vertex 2.934443e+01 -6.237351e+00 1.000000e+01
      vertex 2.101155e+01 -9.354943e+00 1.000000e+01
      vertex 2.740636e+01 -1.220210e+01 1.000000e+01
    endloop
  endfacet
  facet normal 0.000000e+00 0.000000e+00 1.000000e+00
    outer loop
      vertex 2.740636e+01 -1.220210e+01 1.000000e+01
      vertex 1.860739e+01 -1.351906e+01 1.000000e+01
      vertex 2.427051e+01 -1.763356e+01 1.000000e+01
    endloop
  endfacet
  facet normal 0.000000e+00 0.000000e+00 1.000000e+00
    outer loop
      vertex 2.427051e+01 -1.763356e+01 1.000000e+01
      vertex 1.539000e+01 -1.709233e+01 1.000000e+01
      vertex 2.007392e+01 -2.229435e+01 1.000000e+01
    endloop
  endfacet
  facet normal 0.000000e+00 0.000000e+00 1.000000e+00
    outer loop
      vertex 2.007392e+01 -2.229435e+01 1.000000e+01
      vertex 1.150000e+01 -1.991858e+01 1.000000e+01
      vertex 1.500000e+01 -2.598076e+01 1.000000e+01
    endloop
  endfacet
  facet normal 0.000000e+00 0.000000e+00 1.000000e+00
    outer loop
      vertex 1.150000e+01 -1.991858e+01 1.000000e+01
      vertex 7.107391e+00 -2.187430e+01 1.000000e+01
      vertex 1.500000e+01 -2.598076e+01 1.000000e+01
    endloop
  endfacet
  facet normal 0.000000e+00 0.000000e+00 1.000000e+00
    outer loop
      vertex 1.500000e+01 -2.598076e+01 1.000000e+01
      vertex 2.404155e+00 -2.287400e+01 1.000000e+01
      vertex 9.270510e+00 -2.853169e+01 1.000000e+01
    endloop
  endfacet
  facet normal 0.000000e+00 0.000000e+00 1.000000e+00
    outer loop
      vertex 9.270510e+00 -2.853169e+01 1.000000e+01
      vertex -2.404155e+00 -2.287400e+01 1.000000e+01
      vertex 3.135854e+00 -2.983566e+01 1.000000e+01
    endloop
  endfacet
  facet normal 0.000000e+00 0.000000e+00 1.000000e+00
    outer loop
      vertex -2.404155e+00 -2.287400e+01 1.000000e+01
      vertex -7.107391e+00 -2.187430e+01 1.000000e+01
      vertex 3.135854e+00 -2.983566e+01 1.000000e+01
    endloop
  endfacet
  facet normal 0.000000e+00 0.000000e+00 1.000000e+00
    outer loop
      vertex 3.135854e+00 -2.983566e+01 1.000000e+01
      vertex -1.150000e+01 -1.991858e+01 1.000000e+01
      vertex -3.135854e+00 -2.983566e+01 1.000000e+01
    endloop
  endfacet
  facet normal 0.000000e+00 0.000000e+00 1.000000e+00
    outer loop
      vertex -1.150000e+01 -1.991858e+01 1.000000e+01
      vertex -1.539000e+01 -1.709233e+01 1.000000e+01
      vertex -3.135854e+00 -2.983566e+01 1.000000e+01
    endloop
  endfacet
  facet normal 0.000000e+00 0.000000e+00 1.000000e+00
    outer loop
      vertex -1.539000e+01 -1.709233e+01 1.000000e+01
      vertex -1.860739e+01 -1.351906e+01 1.000000e+01
      vertex -2.934443e+01 -6.237351e+00 1.000000e+01
    endloop
  endfacet
  facet normal 0.000000e+00 0.000000e+00 1.000000e+00
    outer loop
      vertex 1.150000e+01 1.991858e+01 1.000000e+01
      vertex 1.539000e+01 1.709233e+01 1.000000e+01
      vertex 2.007392e+01 2.229435e+01 1.000000e+01
    endloop
  endfacet
  facet normal 0.000000e+00 0.000000e+00 1.000000e+00
    outer loop
      vertex 1.539000e+01 1.709233e+01 1.000000e+01
      vertex 1.860739e+01 1.351906e+01 1.000000e+01
      vertex 2.427051e+01 1.763356e+01 1.000000e+01
    endloop
  endfacet
  facet normal 0.000000e+00 0.000000e+00 1.000000e+00
    outer loop
      vertex 1.860739e+01 1.351906e+01 1.000000e+01
      vertex 2.101155e+01 9.354943e+00 1.000000e+01
      vertex 2.740636e+01 1.220210e+01 1.000000e+01
    endloop
  endfacet
  facet normal 0.000000e+00 0.000000e+00 1.000000e+00
    outer loop
      vertex -2.249739e+01 -4.781969e+00 1.000000e+01
      vertex -2.300000e+01 0.000000e+00 1.000000e+01
      vertex -2.934443e+01 -6.237351e+00 1.000000e+01
    endloop
  endfacet
  facet normal 0.000000e+00 0.000000e+00 1.000000e+00
    outer loop
      vertex -2.249739e+01 4.781969e+00 2.000000e+01
      vertex -2.300000e+01 0.000000e+00 2.000000e+01
      vertex -2.249739e+01 -4.781969e+00 2.000000e+01
    endloop
  endfacet
  facet normal 0.000000e+00 0.000000e+00 1.000000e+00
    outer loop
      vertex -1.860739e+01 -1.351906e+01 2.000000e+01
      vertex -2.249739e+01 4.781969e+00 2.000000e+01
      vertex -2.101155e+01 -9.354943e+00 2.000000e+01
    endloop
  endfacet
  facet normal 0.000000e+00 0.000000e+00 1.000000e+00
    outer loop
      vertex -2.101155e+01 -9.354943e+00 2.000000e+01
      vertex -2.249739e+01 4.781969e+00 2.000000e+01
      vertex -2.249739e+01 -4.781969e+00 2.000000e+01
    endloop
  endfacet
  facet normal 0.000000e+00 0.000000e+00 1.000000e+00
    outer loop
      vertex -1.539000e+01 -1.709233e+01 2.000000e+01
      vertex -2.249739e+01 4.781969e+00 2.000000e+01
      vertex -1.860739e+01 -1.351906e+01 2.000000e+01
    endloop
  endfacet
  facet normal 0.000000e+00 0.000000e+00 1.000000e+00
    outer loop
      vertex -1.150000e+01 -1.991858e+01 2.000000e+01
      vertex -2.249739e+01 4.781969e+00 2.000000e+01
      vertex -1.539000e+01 -1.709233e+01 2.000000e+01
    endloop
  endfacet
  facet normal 0.000000e+00 0.000000e+00 1.000000e+00
    outer loop
      vertex -7.107391e+00 -2.187430e+01 2.000000e+01
      vertex -2.249739e+01 4.781969e+00 2.000000e+01
      vertex -1.150000e+01 -1.991858e+01 2.000000e+01
    endloop
  endfacet
  facet normal 0.000000e+00 0.000000e+00 1.000000e+00
    outer loop
      vertex -2.404155e+00 -2.287400e+01 2.000000e+01
      vertex -2.249739e+01 4.781969e+00 2.000000e+01
      vertex -7.107391e+00 -2.187430e+01 2.000000e+01
    endloop
  endfacet
  facet normal 0.000000e+00 0.000000e+00 1.000000e+00
    outer loop
      vertex 2.404155e+00 -2.287400e+01 2.000000e+01
      vertex -2.249739e+01 4.781969e+00 2.000000e+01
      vertex -2.404155e+00 -2.287400e+01 2.000000e+01
    endloop
  endfacet
  facet normal 0.000000e+00 0.000000e+00 1.000000e+00
    outer loop
      vertex 7.107391e+00 -2.187430e+01 2.000000e+01
      vertex -2.249739e+01 4.781969e+00 2.000000e+01
      vertex 2.404155e+00 -2.287400e+01 2.000000e+01
    endloop
  endfacet
  facet normal 0.000000e+00 0.000000e+00 1.000000e+00
    outer loop
      vertex -7.360437e+00 -8.174593e+00 2.000000e+01
      vertex -2.249739e+01 4.781969e+00 2.000000e+01
      vertex 7.107391e+00 -2.187430e+01 2.000000e+01
    endloop
  endfacet
  facet normal 0.000000e+00 0.000000e+00 1.000000e+00
    outer loop
      vertex 5.500000e+00 -9.526279e+00 2.000000e+01
      vertex 3.399187e+00 -1.046162e+01 2.000000e+01
      vertex 1.539000e+01 -1.709233e+01 2.000000e+01
    endloop
  endfacet
  facet normal 0.000000e+00 0.000000e+00 1.000000e+00
    outer loop
      vertex -1.004900e+01 4.474103e+00 2.000000e+01
      vertex -8.899187e+00 6.465638e+00 2.000000e+01
      vertex -2.249739e+01 4.781969e+00 2.000000e+01
    endloop
  endfacet
  facet normal 0.000000e+00 0.000000e+00 1.000000e+00
    outer loop
      vertex 1.100000e+01 0.000000e+00 2.000000e+01
      vertex 1.075962e+01 -2.287029e+00 2.000000e+01
      vertex 2.249739e+01 -4.781969e+00 2.000000e+01
    endloop
  endfacet
  facet normal 0.000000e+00 0.000000e+00 1.000000e+00
    outer loop
      vertex 3.399187e+00 1.046162e+01 2.000000e+01
      vertex 5.500000e+00 9.526279e+00 2.000000e+01
      vertex 1.860739e+01 1.351906e+01 2.000000e+01
    endloop
  endfacet
  facet normal 0.000000e+00 0.000000e+00 1.000000e+00
    outer loop
      vertex 7.360437e+00 8.174593e+00 2.000000e+01
      vertex 8.899187e+00 6.465638e+00 2.000000e+01
      vertex 2.101155e+01 9.354943e+00 2.000000e+01
    endloop
  endfacet
  facet normal 0.000000e+00 0.000000e+00 1.000000e+00
    outer loop
      vertex 1.150000e+01 1.991858e+01 2.000000e+01
      vertex -2.249739e+01 4.781969e+00 2.000000e+01
      vertex 1.539000e+01 1.709233e+01 2.000000e+01
    endloop
  endfacet
  facet normal 0.000000e+00 0.000000e+00 1.000000e+00
    outer loop
      vertex 7.107391e+00 2.187430e+01 2.000000e+01
      vertex -2.249739e+01 4.781969e+00 2.000000e+01
      vertex 1.150000e+01 1.991858e+01 2.000000e+01
    endloop
  endfacet
  facet normal 0.000000e+00 0.000000e+00 1.000000e+00
    outer loop
      vertex 2.404155e+00 2.287400e+01 2.000000e+01
      vertex -2.249739e+01 4.781969e+00 2.000000e+01
      vertex 7.107391e+00 2.187430e+01 2.000000e+01
    endloop
  endfacet
  facet normal 0.000000e+00 0.000000e+00 1.000000e+00
    outer loop
      vertex -2.404155e+00 2.287400e+01 2.000000e+01
      vertex -2.249739e+01 4.781969e+00 2.000000e+01
      vertex 2.404155e+00 2.287400e+01 2.000000e+01
    endloop
  endfacet
  facet normal 0.000000e+00 0.000000e+00 1.000000e+00
    outer loop
      vertex -7.107391e+00 2.187430e+01 2.000000e+01
      vertex -2.249739e+01 4.781969e+00 2.000000e+01
      vertex -2.404155e+00 2.287400e+01 2.000000e+01
    endloop
  endfacet
  facet normal 0.000000e+00 0.000000e+00 1.000000e+00
    outer loop
      vertex -1.150000e+01 1.991858e+01 2.000000e+01
      vertex -2.249739e+01 4.781969e+00 2.000000e+01
      vertex -7.107391e+00 2.187430e+01 2.000000e+01
    endloop
  endfacet
  facet normal 0.000000e+00 0.000000e+00 1.000000e+00
    outer loop
      vertex -1.539000e+01 1.709233e+01 2.000000e+01
      vertex -2.249739e+01 4.781969e+00 2.000000e+01
      vertex -1.150000e+01 1.991858e+01 2.000000e+01
    endloop
  endfacet
  facet normal 0.000000e+00 0.000000e+00 1.000000e+00
    outer loop
      vertex -1.860739e+01 1.351906e+01 2.000000e+01
      vertex -2.249739e+01 4.781969e+00 2.000000e+01
      vertex -1.539000e+01 1.709233e+01 2.000000e+01
    endloop
  endfacet
  facet normal 0.000000e+00 0.000000e+00 1.000000e+00
    outer loop
      vertex -2.101155e+01 9.354943e+00 2.000000e+01
      vertex -2.249739e+01 4.781969e+00 2.000000e+01
      vertex -1.860739e+01 1.351906e+01 2.000000e+01
    endloop
  endfacet
  facet normal 0.000000e+00 0.000000e+00 1.000000e+00
    outer loop
      vertex -7.360437e+00 -8.174593e+00 2.000000e+01
      vertex -8.899187e+00 -6.465638e+00 2.000000e+01
      vertex -2.249739e+01 4.781969e+00 2.000000e+01
    endloop
  endfacet
  facet normal 0.000000e+00 0.000000e+00 1.000000e+00
    outer loop
      vertex 7.360437e+00 -8.174593e+00 2.000000e+01
      vertex 5.500000e+00 -9.526279e+00 2.000000e+01
      vertex 1.860739e+01 -1.351906e+01 2.000000e+01
    endloop
  endfacet
  facet normal 0.000000e+00 0.000000e+00 1.000000e+00
    outer loop
      vertex 1.075962e+01 2.287029e+00 2.000000e+01
      vertex 1.100000e+01 0.000000e+00 2.000000e+01
      vertex 2.300000e+01 0.000000e+00 2.000000e+01
    endloop
  endfacet
  facet normal 0.000000e+00 0.000000e+00 1.000000e+00
    outer loop
      vertex 1.004900e+01 -4.474103e+00 2.000000e+01
      vertex 8.899187e+00 -6.465638e+00 2.000000e+01
      vertex 2.101155e+01 -9.354943e+00 2.000000e+01
    endloop
  endfacet
  facet normal 0.000000e+00 0.000000e+00 1.000000e+00
    outer loop
      vertex -3.399187e+00 1.046162e+01 2.000000e+01
      vertex -1.149813e+00 1.093974e+01 2.000000e+01
      vertex 1.539000e+01 1.709233e+01 2.000000e+01
    endloop
  endfacet
  facet normal 0.000000e+00 0.000000e+00 1.000000e+00
    outer loop
      vertex 8.899187e+00 6.465638e+00 2.000000e+01
      vertex 1.004900e+01 4.474103e+00 2.000000e+01
      vertex 2.249739e+01 4.781969e+00 2.000000e+01
    endloop
  endfacet
  facet normal 0.000000e+00 0.000000e+00 1.000000e+00
    outer loop
      vertex -5.500000e+00 9.526279e+00 2.000000e+01
      vertex -2.249739e+01 4.781969e+00 2.000000e+01
      vertex -7.360437e+00 8.174593e+00 2.000000e+01
    endloop
  endfacet
  facet normal 0.000000e+00 0.000000e+00 1.000000e+00
    outer loop
      vertex -3.399187e+00 1.046162e+01 2.000000e+01
      vertex -2.249739e+01 4.781969e+00 2.000000e+01
      vertex -5.500000e+00 9.526279e+00 2.000000e+01
    endloop
  endfacet
  facet normal 0.000000e+00 0.000000e+00 1.000000e+00
    outer loop
      vertex -1.149813e+00 1.093974e+01 2.000000e+01
      vertex 1.149813e+00 1.093974e+01 2.000000e+01
      vertex 1.539000e+01 1.709233e+01 2.000000e+01
    endloop
  endfacet
  facet normal 0.000000e+00 0.000000e+00 1.000000e+00
    outer loop
      vertex 1.539000e+01 1.709233e+01 2.000000e+01
      vertex -2.249739e+01 4.781969e+00 2.000000e+01
      vertex -3.399187e+00 1.046162e+01 2.000000e+01
    endloop
  endfacet
  facet normal 0.000000e+00 0.000000e+00 1.000000e+00
    outer loop
      vertex 1.539000e+01 1.709233e+01 2.000000e+01
      vertex 1.149813e+00 1.093974e+01 2.000000e+01
      vertex 1.860739e+01 1.351906e+01 2.000000e+01
    endloop
  endfacet
  facet normal 0.000000e+00 0.000000e+00 1.000000e+00
    outer loop
      vertex 1.149813e+00 1.093974e+01 2.000000e+01
      vertex 3.399187e+00 1.046162e+01 2.000000e+01
      vertex 1.860739e+01 1.351906e+01 2.000000e+01
    endloop
  endfacet
  facet normal 0.000000e+00 0.000000e+00 1.000000e+00
    outer loop
      vertex 1.860739e+01 1.351906e+01 2.000000e+01
      vertex 5.500000e+00 9.526279e+00 2.000000e+01
      vertex 2.101155e+01 9.354943e+00 2.000000e+01
    endloop
  endfacet
  facet normal 0.000000e+00 0.000000e+00 1.000000e+00
    outer loop
      vertex 5.500000e+00 9.526279e+00 2.000000e+01
      vertex 7.360437e+00 8.174593e+00 2.000000e+01
      vertex 2.101155e+01 9.354943e+00 2.000000e+01
    endloop
  endfacet
  facet normal 0.000000e+00 0.000000e+00 1.000000e+00
    outer loop
      vertex 2.101155e+01 9.354943e+00 2.000000e+01
      vertex 8.899187e+00 6.465638e+00 2.000000e+01
      vertex 2.249739e+01 4.781969e+00 2.000000e+01
    endloop
  endfacet
  facet normal 0.000000e+00 0.000000e+00 1.000000e+00
    outer loop
      vertex -8.899187e+00 6.465638e+00 2.000000e+01
      vertex -7.360437e+00 8.174593e+00 2.000000e+01
      vertex -2.249739e+01 4.781969e+00 2.000000e+01
    endloop
  endfacet
  facet normal 0.000000e+00 0.000000e+00 1.000000e+00
    outer loop
      vertex 2.249739e+01 4.781969e+00 2.000000e+01
      vertex 1.004900e+01 4.474103e+00 2.000000e+01
      vertex 2.300000e+01 0.000000e+00 2.000000e+01
    endloop
  endfacet
  facet normal 0.000000e+00 0.000000e+00 1.000000e+00
    outer loop
      vertex 1.004900e+01 4.474103e+00 2.000000e+01
      vertex 1.075962e+01 2.287029e+00 2.000000e+01
      vertex 2.300000e+01 0.000000e+00 2.000000e+01
    endloop
  endfacet
  facet normal 0.000000e+00 0.000000e+00 1.000000e+00
    outer loop
      vertex 2.300000e+01 0.000000e+00 2.000000e+01
      vertex 1.100000e+01 0.000000e+00 2.000000e+01
      vertex 2.249739e+01 -4.781969e+00 2.000000e+01
    endloop
  endfacet
  facet normal 0.000000e+00 0.000000e+00 1.000000e+00
    outer loop
      vertex 2.249739e+01 -4.781969e+00 2.000000e+01
      vertex 1.075962e+01 -2.287029e+00 2.000000e+01
      vertex 2.101155e+01 -9.354943e+00 2.000000e+01
    endloop
  endfacet
  facet normal 0.000000e+00 0.000000e+00 1.000000e+00
    outer loop
      vertex -1.075962e+01 2.287029e+00 2.000000e+01
      vertex -1.004900e+01 4.474103e+00 2.000000e+01
      vertex -2.249739e+01 4.781969e+00 2.000000e+01
    endloop
  endfacet
  facet normal 0.000000e+00 0.000000e+00 1.000000e+00
    outer loop
      vertex 1.075962e+01 -2.287029e+00 2.000000e+01
      vertex 1.004900e+01 -4.474103e+00 2.000000e+01
      vertex 2.101155e+01 -9.354943e+00 2.000000e+01
    endloop
  endfacet
  facet normal 0.000000e+00 0.000000e+00 1.000000e+00
    outer loop
      vertex 2.101155e+01 -9.354943e+00 2.000000e+01
      vertex 8.899187e+00 -6.465638e+00 2.000000e+01
      vertex 1.860739e+01 -1.351906e+01 2.000000e+01
    endloop
  endfacet
  facet normal 0.000000e+00 0.000000e+00 1.000000e+00
    outer loop
      vertex 8.899187e+00 -6.465638e+00 2.000000e+01
      vertex 7.360437e+00 -8.174593e+00 2.000000e+01
      vertex 1.860739e+01 -1.351906e+01 2.000000e+01
    endloop
  endfacet
  facet normal 0.000000e+00 0.000000e+00 1.000000e+00
    outer loop
      vertex 1.860739e+01 -1.351906e+01 2.000000e+01
      vertex 5.500000e+00 -9.526279e+00 2.000000e+01
      vertex 1.539000e+01 -1.709233e+01 2.000000e+01
    endloop
  endfacet
  facet normal 0.000000e+00 0.000000e+00 1.000000e+00
    outer loop
      vertex 1.539000e+01 -1.709233e+01 2.000000e+01
      vertex 3.399187e+00 -1.046162e+01 2.000000e+01
      vertex 1.150000e+01 -1.991858e+01 2.000000e+01
    endloop
  endfacet
  facet normal 0.000000e+00 0.000000e+00 1.000000e+00
    outer loop
      vertex 3.399187e+00 -1.046162e+01 2.000000e+01
      vertex 1.149813e+00 -1.093974e+01 2.000000e+01
      vertex 1.150000e+01 -1.991858e+01 2.000000e+01
    endloop
  endfacet
  facet normal 0.000000e+00 0.000000e+00 1.000000e+00
    outer loop
      vertex 1.150000e+01 -1.991858e+01 2.000000e+01
      vertex -1.149813e+00 -1.093974e+01 2.000000e+01
      vertex 7.107391e+00 -2.187430e+01 2.000000e+01
    endloop
  endfacet
  facet normal 0.000000e+00 0.000000e+00 1.000000e+00
    outer loop
      vertex -1.149813e+00 -1.093974e+01 2.000000e+01
      vertex -3.399187e+00 -1.046162e+01 2.000000e+01
      vertex 7.107391e+00 -2.187430e+01 2.000000e+01
    endloop
  endfacet
  facet normal 0.000000e+00 0.000000e+00 1.000000e+00
    outer loop
      vertex -3.399187e+00 -1.046162e+01 2.000000e+01
      vertex -5.500000e+00 -9.526279e+00 2.000000e+01
      vertex 7.107391e+00 -2.187430e+01 2.000000e+01
    endloop
  endfacet
  facet normal 0.000000e+00 0.000000e+00 1.000000e+00
    outer loop
      vertex -5.500000e+00 -9.526279e+00 2.000000e+01
      vertex -7.360437e+00 -8.174593e+00 2.000000e+01
      vertex 7.107391e+00 -2.187430e+01 2.000000e+01
    endloop
  endfacet
  facet normal 0.000000e+00 0.000000e+00 1.000000e+00
    outer loop
      vertex -8.899187e+00 -6.465638e+00 2.000000e+01
      vertex -1.004900e+01 -4.474103e+00 2.000000e+01
      vertex -2.249739e+01 4.781969e+00 2.000000e+01
    endloop
  endfacet
  facet normal 0.000000e+00 0.000000e+00 1.000000e+00
    outer loop
      vertex 1.149813e+00 -1.093974e+01 2.000000e+01
      vertex -1.149813e+00 -1.093974e+01 2.000000e+01
      vertex 1.150000e+01 -1.991858e+01 2.000000e+01
    endloop
  endfacet
  facet normal 0.000000e+00 0.000000e+00 1.000000e+00
    outer loop
      vertex -1.004900e+01 -4.474103e+00 2.000000e+01
      vertex -1.075962e+01 -2.287029e+00 2.000000e+01
      vertex -2.249739e+01 4.781969e+00 2.000000e+01
    endloop
  endfacet
  facet normal 0.000000e+00 0.000000e+00 1.000000e+00
    outer loop
      vertex -1.075962e+01 -2.287029e+00 2.000000e+01
      vertex -1.100000e+01 0.000000e+00 2.000000e+01
      vertex -2.249739e+01 4.781969e+00 2.000000e+01
    endloop
  endfacet
  facet normal 0.000000e+00 0.000000e+00 1.000000e+00
    outer loop
      vertex -1.100000e+01 0.000000e+00 2.000000e+01
      vertex -1.075962e+01 2.287029e+00 2.000000e+01
      vertex -2.249739e+01 4.781969e+00 2.000000e+01
    endloop
  endfacet
  facet normal -9.945220e-01 1.045280e-01 0.000000e+00
    outer loop
      vertex -2.300000e+01 0.000000e+00 1.000000e+01
      vertex -2.300000e+01 0.000000e+00 2.000000e+01
      vertex -2.249739e+01 4.781969e+00 1.000000e+01
    endloop
  endfacet
  facet normal -9.945220e-01 1.045280e-01 0.000000e+00
    outer loop
      vertex -2.249739e+01 4.781969e+00 1.000000e+01
      vertex -2.300000e+01 0.000000e+00 2.000000e+01
      vertex -2.249739e+01 4.781969e+00 2.000000e+01
    endloop
  endfacet
  facet normal -9.945220e-01 -1.045280e-01 0.000000e+00
    outer loop
      vertex -2.300000e+01 0.000000e+00 1.000000e+01
      vertex -2.249739e+01 -4.781969e+00 1.000000e+01
      vertex -2.300000e+01 0.000000e+00 2.000000e+01
    endloop
  endfacet
  facet normal -9.945220e-01 -1.045280e-01 0.000000e+00
    outer loop
      vertex -2.300000e+01 0.000000e+00 2.000000e+01
      vertex -2.249739e+01 -4.781969e+00 1.000000e+01
      vertex -2.249739e+01 -4.781969e+00 2.000000e+01
    endloop
  endfacet
  facet normal -9.510565e-01 -3.090169e-01 0.000000e+00
    outer loop
      vertex -2.249739e+01 -4.781969e+00 1.000000e+01
      vertex -2.101155e+01 -9.354943e+00 1.000000e+01
      vertex -2.249739e+01 -4.781969e+00 2.000000e+01
    endloop
  endfacet
  facet normal -9.510565e-01 -3.090169e-01 0.000000e+00
    outer loop
      vertex -2.249739e+01 -4.781969e+00 2.000000e+01
      vertex -2.101155e+01 -9.354943e+00 1.000000e+01
      vertex -2.101155e+01 -9.354943e+00 2.000000e+01
    endloop
  endfacet
  facet normal -8.660253e-01 -5.000002e-01 0.000000e+00
    outer loop
      vertex -2.101155e+01 -9.354943e+00 1.000000e+01
      vertex -1.860739e+01 -1.351906e+01 1.000000e+01
      vertex -2.101155e+01 -9.354943e+00 2.000000e+01
    endloop
  endfacet
  facet normal -8.660253e-01 -5.000002e-01 0.000000e+00
    outer loop
      vertex -2.101155e+01 -9.354943e+00 2.000000e+01
      vertex -1.860739e+01 -1.351906e+01 1.000000e+01
      vertex -1.860739e+01 -1.351906e+01 2.000000e+01
    endloop
  endfacet
  facet normal -7.431448e-01 -6.691307e-01 0.000000e+00
    outer loop
      vertex -1.860739e+01 -1.351906e+01 1.000000e+01
      vertex -1.539000e+01 -1.709233e+01 1.000000e+01
      vertex -1.860739e+01 -1.351906e+01 2.000000e+01
    endloop
  endfacet
  facet normal -7.431448e-01 -6.691307e-01 0.000000e+00
    outer loop
      vertex -1.860739e+01 -1.351906e+01 2.000000e+01
      vertex -1.539000e+01 -1.709233e+01 1.000000e+01
      vertex -1.539000e+01 -1.709233e+01 2.000000e+01
    endloop
  endfacet
  facet normal -5.877851e-01 -8.090171e-01 0.000000e+00
    outer loop
      vertex -1.539000e+01 -1.709233e+01 2.000000e+01
      vertex -1.539000e+01 -1.709233e+01 1.000000e+01
      vertex -1.150000e+01 -1.991858e+01 1.000000e+01
    endloop
  endfacet
  facet normal -5.877851e-01 -8.090171e-01 0.000000e+00
    outer loop
      vertex -1.150000e+01 -1.991858e+01 2.000000e+01
      vertex -1.539000e+01 -1.709233e+01 2.000000e+01
      vertex -1.150000e+01 -1.991858e+01 1.000000e+01
    endloop
  endfacet
  facet normal -4.067371e-01 -9.135453e-01 0.000000e+00
    outer loop
      vertex -1.150000e+01 -1.991858e+01 2.000000e+01
      vertex -1.150000e+01 -1.991858e+01 1.000000e+01
      vertex -7.107391e+00 -2.187430e+01 1.000000e+01
    endloop
  endfacet
  facet normal -4.067371e-01 -9.135453e-01 0.000000e+00
    outer loop
      vertex -7.107391e+00 -2.187430e+01 2.000000e+01
      vertex -1.150000e+01 -1.991858e+01 2.000000e+01
      vertex -7.107391e+00 -2.187430e+01 1.000000e+01
    endloop
  endfacet
  facet normal -2.079119e-01 -9.781476e-01 0.000000e+00
    outer loop
      vertex -7.107391e+00 -2.187430e+01 2.000000e+01
      vertex -7.107391e+00 -2.187430e+01 1.000000e+01
      vertex -2.404155e+00 -2.287400e+01 1.000000e+01
    endloop
  endfacet
  facet normal -2.079119e-01 -9.781476e-01 0.000000e+00
    outer loop
      vertex -2.404155e+00 -2.287400e+01 2.000000e+01
      vertex -7.107391e+00 -2.187430e+01 2.000000e+01
      vertex -2.404155e+00 -2.287400e+01 1.000000e+01
    endloop
  endfacet
  facet normal 0.000000e+00 -1.000000e+00 0.000000e+00
    outer loop
      vertex -2.404155e+00 -2.287400e+01 2.000000e+01
      vertex -2.404155e+00 -2.287400e+01 1.000000e+01
      vertex 2.404155e+00 -2.287400e+01 1.000000e+01
    endloop
  endfacet
  facet normal 0.000000e+00 -1.000000e+00 0.000000e+00
    outer loop
      vertex 2.404155e+00 -2.287400e+01 2.000000e+01
      vertex -2.404155e+00 -2.287400e+01 2.000000e+01
      vertex 2.404155e+00 -2.287400e+01 1.000000e+01
    endloop
  endfacet
  facet normal 2.079119e-01 -9.781476e-01 0.000000e+00
    outer loop
      vertex 2.404155e+00 -2.287400e+01 2.000000e+01
      vertex 2.404155e+00 -2.287400e+01 1.000000e+01
      vertex 7.107391e+00 -2.187430e+01 1.000000e+01
    endloop
  endfacet
  facet normal 2.079119e-01 -9.781476e-01 0.000000e+00
    outer loop
      vertex 7.107391e+00 -2.187430e+01 2.000000e+01
      vertex 2.404155e+00 -2.287400e+01 2.000000e+01
      vertex 7.107391e+00 -2.187430e+01 1.000000e+01
    endloop
  endfacet
  facet normal 4.067371e-01 -9.135453e-01 0.000000e+00
    outer loop
      vertex 7.107391e+00 -2.187430e+01 2.000000e+01
      vertex 7.107391e+00 -2.187430e+01 1.000000e+01
      vertex 1.150000e+01 -1.991858e+01 1.000000e+01
    endloop
  endfacet
  facet normal 4.067371e-01 -9.135453e-01 0.000000e+00
    outer loop
      vertex 1.150000e+01 -1.991858e+01 2.000000e+01
      vertex 7.107391e+00 -2.187430e+01 2.000000e+01
      vertex 1.150000e+01 -1.991858e+01 1.000000e+01
    endloop
  endfacet
  facet normal 5.877851e-01 -8.090171e-01 0.000000e+00
    outer loop
      vertex 1.150000e+01 -1.991858e+01 2.000000e+01
      vertex 1.150000e+01 -1.991858e+01 1.000000e+01
      vertex 1.539000e+01 -1.709233e+01 1.000000e+01
    endloop
  endfacet
  facet normal 5.877851e-01 -8.090171e-01 0.000000e+00
    outer loop
      vertex 1.539000e+01 -1.709233e+01 2.000000e+01
      vertex 1.150000e+01 -1.991858e+01 2.000000e+01
      vertex 1.539000e+01 -1.709233e+01 1.000000e+01
    endloop
  endfacet
  facet normal 7.431448e-01 -6.691307e-01 0.000000e+00
    outer loop
      vertex 1.539000e+01 -1.709233e+01 2.000000e+01
      vertex 1.539000e+01 -1.709233e+01 1.000000e+01
      vertex 1.860739e+01 -1.351906e+01 1.000000e+01
    endloop
  endfacet
  facet normal 7.431448e-01 -6.691307e-01 0.000000e+00
    outer loop
      vertex 1.860739e+01 -1.351906e+01 2.000000e+01
      vertex 1.539000e+01 -1.709233e+01 2.000000e+01
      vertex 1.860739e+01 -1.351906e+01 1.000000e+01
    endloop
  endfacet
  facet normal 8.660253e-01 -5.000002e-01 0.000000e+00
    outer loop
      vertex 1.860739e+01 -1.351906e+01 2.000000e+01
      vertex 1.860739e+01 -1.351906e+01 1.000000e+01
      vertex 2.101155e+01 -9.354943e+00 1.000000e+01
    endloop
  endfacet
  facet normal 8.660253e-01 -5.000002e-01 0.000000e+00
    outer loop
      vertex 2.101155e+01 -9.354943e+00 2.000000e+01
      vertex 1.860739e+01 -1.351906e+01 2.000000e+01
      vertex 2.101155e+01 -9.354943e+00 1.000000e+01
    endloop
  endfacet
  facet normal 9.510565e-01 -3.090169e-01 0.000000e+00
    outer loop
      vertex 2.101155e+01 -9.354943e+00 2.000000e+01
      vertex 2.101155e+01 -9.354943e+00 1.000000e+01
      vertex 2.249739e+01 -4.781969e+00 1.000000e+01
    endloop
  endfacet
  facet normal 9.510565e-01 -3.090169e-01 0.000000e+00
    outer loop
      vertex 2.249739e+01 -4.781969e+00 2.000000e+01
      vertex 2.101155e+01 -9.354943e+00 2.000000e+01
      vertex 2.249739e+01 -4.781969e+00 1.000000e+01
    endloop
  endfacet
  facet normal 9.945220e-01 -1.045280e-01 0.000000e+00
    outer loop
      vertex 2.249739e+01 -4.781969e+00 2.000000e+01
      vertex 2.249739e+01 -4.781969e+00 1.000000e+01
      vertex 2.300000e+01 0.000000e+00 1.000000e+01
    endloop
  endfacet
  facet normal 9.945220e-01 -1.045280e-01 0.000000e+00
    outer loop
      vertex 2.300000e+01 0.000000e+00 2.000000e+01
      vertex 2.249739e+01 -4.781969e+00 2.000000e+01
      vertex 2.300000e+01 0.000000e+00 1.000000e+01
    endloop
  endfacet
  facet normal 9.945220e-01 1.045280e-01 0.000000e+00
    outer loop
      vertex 2.300000e+01 0.000000e+00 1.000000e+01
      vertex 2.249739e+01 4.781969e+00 1.000000e+01
      vertex 2.249739e+01 4.781969e+00 2.000000e+01
    endloop
  endfacet
  facet normal 9.945220e-01 1.045280e-01 0.000000e+00
    outer loop
      vertex 2.300000e+01 0.000000e+00 2.000000e+01
      vertex 2.300000e+01 0.000000e+00 1.000000e+01
      vertex 2.249739e+01 4.781969e+00 2.000000e+01
    endloop
  endfacet
  facet normal 9.510565e-01 3.090169e-01 0.000000e+00
    outer loop
      vertex 2.249739e+01 4.781969e+00 1.000000e+01
      vertex 2.101155e+01 9.354943e+00 1.000000e+01
      vertex 2.101155e+01 9.354943e+00 2.000000e+01
    endloop
  endfacet
  facet normal 9.510565e-01 3.090169e-01 0.000000e+00
    outer loop
      vertex 2.249739e+01 4.781969e+00 2.000000e+01
      vertex 2.249739e+01 4.781969e+00 1.000000e+01
      vertex 2.101155e+01 9.354943e+00 2.000000e+01
    endloop
  endfacet
  facet normal 8.660253e-01 5.000002e-01 0.000000e+00
    outer loop
      vertex 2.101155e+01 9.354943e+00 1.000000e+01
      vertex 1.860739e+01 1.351906e+01 1.000000e+01
      vertex 1.860739e+01 1.351906e+01 2.000000e+01
    endloop
  endfacet
  facet normal 8.660253e-01 5.000002e-01 0.000000e+00
    outer loop
      vertex 2.101155e+01 9.354943e+00 2.000000e+01
      vertex 2.101155e+01 9.354943e+00 1.000000e+01
      vertex 1.860739e+01 1.351906e+01 2.000000e+01
    endloop
  endfacet
  facet normal 7.431448e-01 6.691307e-01 0.000000e+00
    outer loop
      vertex 1.860739e+01 1.351906e+01 1.000000e+01
      vertex 1.539000e+01 1.709233e+01 1.000000e+01
      vertex 1.539000e+01 1.709233e+01 2.000000e+01
    endloop
  endfacet
  facet normal 7.431448e-01 6.691307e-01 0.000000e+00
    outer loop
      vertex 1.860739e+01 1.351906e+01 2.000000e+01
      vertex 1.860739e+01 1.351906e+01 1.000000e+01
      vertex 1.539000e+01 1.709233e+01 2.000000e+01
    endloop
  endfacet
  facet normal 5.877851e-01 8.090171e-01 0.000000e+00
    outer loop
      vertex 1.150000e+01 1.991858e+01 1.000000e+01
      vertex 1.150000e+01 1.991858e+01 2.000000e+01
      vertex 1.539000e+01 1.709233e+01 1.000000e+01
    endloop
  endfacet
  facet normal 5.877851e-01 8.090171e-01 0.000000e+00
    outer loop
      vertex 1.539000e+01 1.709233e+01 1.000000e+01
      vertex 1.150000e+01 1.991858e+01 2.000000e+01
      vertex 1.539000e+01 1.709233e+01 2.000000e+01
    endloop
  endfacet
  facet normal 4.067371e-01 9.135453e-01 0.000000e+00
    outer loop
      vertex 7.107391e+00 2.187430e+01 1.000000e+01
      vertex 7.107391e+00 2.187430e+01 2.000000e+01
      vertex 1.150000e+01 1.991858e+01 1.000000e+01
    endloop
  endfacet
  facet normal 4.067371e-01 9.135453e-01 0.000000e+00
    outer loop
      vertex 1.150000e+01 1.991858e+01 1.000000e+01
      vertex 7.107391e+00 2.187430e+01 2.000000e+01
      vertex 1.150000e+01 1.991858e+01 2.000000e+01
    endloop
  endfacet
  facet normal 2.079119e-01 9.781476e-01 0.000000e+00
    outer loop
      vertex 2.404155e+00 2.287400e+01 1.000000e+01
      vertex 2.404155e+00 2.287400e+01 2.000000e+01
      vertex 7.107391e+00 2.187430e+01 1.000000e+01
    endloop
  endfacet
  facet normal 2.079119e-01 9.781476e-01 0.000000e+00
    outer loop
      vertex 7.107391e+00 2.187430e+01 1.000000e+01
      vertex 2.404155e+00 2.287400e+01 2.000000e+01
      vertex 7.107391e+00 2.187430e+01 2.000000e+01
    endloop
  endfacet
  facet normal 0.000000e+00 1.000000e+00 0.000000e+00
    outer loop
      vertex -2.404155e+00 2.287400e+01 1.000000e+01
      vertex -2.404155e+00 2.287400e+01 2.000000e+01
      vertex 2.404155e+00 2.287400e+01 1.000000e+01
    endloop
  endfacet
  facet normal 0.000000e+00 1.000000e+00 0.000000e+00
    outer loop
      vertex 2.404155e+00 2.287400e+01 1.000000e+01
      vertex -2.404155e+00 2.287400e+01 2.000000e+01
      vertex 2.404155e+00 2.287400e+01 2.000000e+01
    endloop
  endfacet
  facet normal -2.079119e-01 9.781476e-01 0.000000e+00
    outer loop
      vertex -7.107391e+00 2.187430e+01 1.000000e+01
      vertex -7.107391e+00 2.187430e+01 2.000000e+01
      vertex -2.404155e+00 2.287400e+01 1.000000e+01
    endloop
  endfacet
  facet normal -2.079119e-01 9.781476e-01 0.000000e+00
    outer loop
      vertex -2.404155e+00 2.287400e+01 1.000000e+01
      vertex -7.107391e+00 2.187430e+01 2.000000e+01
      vertex -2.404155e+00 2.287400e+01 2.000000e+01
    endloop
  endfacet
  facet normal -4.067371e-01 9.135453e-01 0.000000e+00
    outer loop
      vertex -1.150000e+01 1.991858e+01 1.000000e+01
      vertex -1.150000e+01 1.991858e+01 2.000000e+01
      vertex -7.107391e+00 2.187430e+01 1.000000e+01
    endloop
  endfacet
  facet normal -4.067371e-01 9.135453e-01 0.000000e+00
    outer loop
      vertex -7.107391e+00 2.187430e+01 1.000000e+01
      vertex -1.150000e+01 1.991858e+01 2.000000e+01
      vertex -7.107391e+00 2.187430e+01 2.000000e+01
    endloop
  endfacet
  facet normal -5.877851e-01 8.090171e-01 0.000000e+00
    outer loop
      vertex -1.539000e+01 1.709233e+01 1.000000e+01
      vertex -1.539000e+01 1.709233e+01 2.000000e+01
      vertex -1.150000e+01 1.991858e+01 1.000000e+01
    endloop
  endfacet
  facet normal -5.877851e-01 8.090171e-01 0.000000e+00
    outer loop
      vertex -1.150000e+01 1.991858e+01 1.000000e+01
      vertex -1.539000e+01 1.709233e+01 2.000000e+01
      vertex -1.150000e+01 1.991858e+01 2.000000e+01
    endloop
  endfacet
  facet normal -7.431448e-01 6.691307e-01 0.000000e+00
    outer loop
      vertex -1.860739e+01 1.351906e+01 1.000000e+01
      vertex -1.860739e+01 1.351906e+01 2.000000e+01
      vertex -1.539000e+01 1.709233e+01 1.000000e+01
    endloop
  endfacet
  facet normal -7.431448e-01 6.691307e-01 0.000000e+00
    outer loop
      vertex -1.539000e+01 1.709233e+01 1.000000e+01
      vertex -1.860739e+01 1.351906e+01 2.000000e+01
      vertex -1.539000e+01 1.709233e+01 2.000000e+01
    endloop
  endfacet
  facet normal -8.660253e-01 5.000002e-01 0.000000e+00
    outer loop
      vertex -2.101155e+01 9.354943e+00 1.000000e+01
      vertex -2.101155e+01 9.354943e+00 2.000000e+01
      vertex -1.860739e+01 1.351906e+01 1.000000e+01
    endloop
  endfacet
  facet normal -8.660253e-01 5.000002e-01 0.000000e+00
    outer loop
      vertex -1.860739e+01 1.351906e+01 1.000000e+01
      vertex -2.101155e+01 9.354943e+00 2.000000e+01
      vertex -1.860739e+01 1.351906e+01 2.000000e+01
    endloop
  endfacet
  facet normal -9.510565e-01 3.090169e-01 0.000000e+00
    outer loop
      vertex -2.249739e+01 4.781969e+00 1.000000e+01
      vertex -2.249739e+01 4.781969e+00 2.000000e+01
      vertex -2.101155e+01 9.354943e+00 1.000000e+01
    endloop
  endfacet
  facet normal -9.510565e-01 3.090169e-01 0.000000e+00
    outer loop
      vertex -2.101155e+01 9.354943e+00 1.000000e+01
      vertex -2.249739e+01 4.781969e+00 2.000000e+01
      vertex -2.101155e+01 9.354943e+00 2.000000e+01
    endloop
  endfacet
endsolid Default
