solid Default
  facet normal 0.000000e+00 -1.000000e+00 0.000000e+00
    outer loop
      vertex -4.500000e+01 -2.050000e+01 6.300000e+01
      vertex -4.500000e+01 -2.050000e+01 3.000000e+00
      vertex -4.441724e+01 -2.050000e+01 3.000000e+00
    endloop
  endfacet
  facet normal 0.000000e+00 -1.000000e+00 0.000000e+00
    outer loop
      vertex 4.500000e+01 -2.050000e+01 3.000000e+00
      vertex -4.500000e+01 -2.050000e+01 6.300000e+01
      vertex -4.441724e+01 -2.050000e+01 3.000000e+00
    endloop
  endfacet
  facet normal 0.000000e+00 1.000000e+00 0.000000e+00
    outer loop
      vertex -4.441724e+01 -2.050000e+01 6.261150e+01
      vertex -4.441724e+01 -2.050000e+01 3.000000e+00
      vertex -4.500000e+01 -2.050000e+01 6.300000e+01
    endloop
  endfacet
  facet normal 0.000000e+00 1.000000e+00 0.000000e+00
    outer loop
      vertex -4.500000e+01 -2.050000e+01 6.300000e+01
      vertex -4.441724e+01 -2.050000e+01 3.000000e+00
      vertex -4.500000e+01 -2.050000e+01 3.000000e+00
    endloop
  endfacet
  facet normal 5.547002e-01 0.000000e+00 8.320503e-01
    outer loop
      vertex 1.727818e+01 5.500000e+00 2.148122e+01
      vertex 4.500000e+01 -2.050000e+01 3.000000e+00
      vertex 4.500000e+01 2.050000e+01 3.000000e+00
    endloop
  endfacet
  facet normal 5.547002e-01 0.000000e+00 8.320503e-01
    outer loop
      vertex 1.272183e+01 5.500000e+00 2.451878e+01
      vertex 1.727818e+01 5.500000e+00 2.148122e+01
      vertex 4.500000e+01 2.050000e+01 3.000000e+00
    endloop
  endfacet
  facet normal 5.547002e-01 0.000000e+00 8.320503e-01
    outer loop
      vertex -4.441724e+01 -2.050000e+01 6.261150e+01
      vertex 4.500000e+01 -2.050000e+01 3.000000e+00
      vertex -2.040000e+01 3.517244e+00 4.660000e+01
    endloop
  endfacet
  facet normal 0.000000e+00 -1.000000e+00 0.000000e+00
    outer loop
      vertex -4.500000e+01 -2.050000e+01 6.300000e+01
      vertex 4.500000e+01 -2.050000e+01 3.000000e+00
      vertex -4.441724e+01 -2.050000e+01 6.261150e+01
    endloop
  endfacet
  facet normal 5.547002e-01 0.000000e+00 8.320503e-01
    outer loop
      vertex 2.050000e+01 -2.278175e+00 1.933333e+01
      vertex 1.727818e+01 -5.500000e+00 2.148122e+01
      vertex 4.500000e+01 -2.050000e+01 3.000000e+00
    endloop
  endfacet
  facet normal 5.547002e-01 0.000000e+00 8.320503e-01
    outer loop
      vertex -2.040000e+01 2.050000e+01 4.660000e+01
      vertex 1.272183e+01 5.500000e+00 2.451878e+01
      vertex 4.500000e+01 2.050000e+01 3.000000e+00
    endloop
  endfacet
  facet normal 5.547002e-01 0.000000e+00 8.320503e-01
    outer loop
      vertex -2.040000e+01 2.050000e+01 4.660000e+01
      vertex 9.500001e+00 2.278175e+00 2.666667e+01
      vertex 1.272183e+01 5.500000e+00 2.451878e+01
    endloop
  endfacet
  facet normal 5.547002e-01 0.000000e+00 8.320503e-01
    outer loop
      vertex 2.050000e+01 2.278175e+00 1.933333e+01
      vertex 4.500000e+01 -2.050000e+01 3.000000e+00
      vertex 1.727818e+01 5.500000e+00 2.148122e+01
    endloop
  endfacet
  facet normal 5.547002e-01 0.000000e+00 8.320503e-01
    outer loop
      vertex 2.050000e+01 -2.278175e+00 1.933333e+01
      vertex 4.500000e+01 -2.050000e+01 3.000000e+00
      vertex 2.050000e+01 2.278175e+00 1.933333e+01
    endloop
  endfacet
  facet normal 5.547002e-01 0.000000e+00 8.320503e-01
    outer loop
      vertex 1.272183e+01 -5.500000e+00 2.451878e+01
      vertex 9.500001e+00 -2.278175e+00 2.666667e+01
      vertex -2.040000e+01 3.517244e+00 4.660000e+01
    endloop
  endfacet
  facet normal 5.547002e-01 0.000000e+00 8.320503e-01
    outer loop
      vertex 1.272183e+01 -5.500000e+00 2.451878e+01
      vertex 4.500000e+01 -2.050000e+01 3.000000e+00
      vertex 1.727818e+01 -5.500000e+00 2.148122e+01
    endloop
  endfacet
  facet normal 5.547002e-01 0.000000e+00 8.320503e-01
    outer loop
      vertex -2.040000e+01 3.517244e+00 4.660000e+01
      vertex 4.500000e+01 -2.050000e+01 3.000000e+00
      vertex 1.272183e+01 -5.500000e+00 2.451878e+01
    endloop
  endfacet
  facet normal 5.547002e-01 0.000000e+00 8.320503e-01
    outer loop
      vertex -2.040000e+01 3.517244e+00 4.660000e+01
      vertex 9.500001e+00 -2.278175e+00 2.666667e+01
      vertex -2.040000e+01 2.050000e+01 4.660000e+01
    endloop
  endfacet
  facet normal 5.547002e-01 0.000000e+00 8.320503e-01
    outer loop
      vertex 9.500001e+00 -2.278175e+00 2.666667e+01
      vertex 9.500001e+00 2.278175e+00 2.666667e+01
      vertex -2.040000e+01 2.050000e+01 4.660000e+01
    endloop
  endfacet
  facet normal 0.000000e+00 -1.000000e+00 0.000000e+00
    outer loop
      vertex 4.500000e+01 -2.050000e+01 3.000000e+00
      vertex -4.441724e+01 -2.050000e+01 3.000000e+00
      vertex -4.441724e+01 -2.050000e+01 0.000000e+00
    endloop
  endfacet
  facet normal 0.000000e+00 -1.000000e+00 0.000000e+00
    outer loop
      vertex 4.500000e+01 -2.050000e+01 0.000000e+00
      vertex 4.500000e+01 -2.050000e+01 3.000000e+00
      vertex -4.441724e+01 -2.050000e+01 0.000000e+00
    endloop
  endfacet
  facet normal -7.071068e-01 7.071068e-01 0.000000e+00
    outer loop
      vertex -2.040000e+01 3.517244e+00 0.000000e+00
      vertex -4.441724e+01 -2.050000e+01 0.000000e+00
      vertex -2.040000e+01 3.517244e+00 4.660000e+01
    endloop
  endfacet
  facet normal -7.071068e-01 7.071068e-01 0.000000e+00
    outer loop
      vertex -2.040000e+01 3.517244e+00 4.660000e+01
      vertex -4.441724e+01 -2.050000e+01 0.000000e+00
      vertex -4.441724e+01 -2.050000e+01 3.000000e+00
    endloop
  endfacet
  facet normal -7.071068e-01 7.071068e-01 0.000000e+00
    outer loop
      vertex -2.040000e+01 3.517244e+00 4.660000e+01
      vertex -4.441724e+01 -2.050000e+01 3.000000e+00
      vertex -4.441724e+01 -2.050000e+01 6.261150e+01
    endloop
  endfacet
  facet normal -1.000000e+00 0.000000e+00 0.000000e+00
    outer loop
      vertex -2.040000e+01 3.517244e+00 0.000000e+00
      vertex -2.040000e+01 3.517244e+00 4.660000e+01
      vertex -2.040000e+01 2.050000e+01 0.000000e+00
    endloop
  endfacet
  facet normal -1.000000e+00 0.000000e+00 0.000000e+00
    outer loop
      vertex -2.040000e+01 2.050000e+01 0.000000e+00
      vertex -2.040000e+01 3.517244e+00 4.660000e+01
      vertex -2.040000e+01 2.050000e+01 4.660000e+01
    endloop
  endfacet
  facet normal NaN NaN NaN
    outer loop
      vertex -2.040000e+01 2.050000e+01 0.000000e+00
      vertex -2.040000e+01 2.050000e+01 4.660000e+01
      vertex -2.040000e+01 2.050000e+01 3.000000e+00
    endloop
  endfacet
  facet normal 0.000000e+00 1.000000e+00 0.000000e+00
    outer loop
      vertex 4.500000e+01 2.050000e+01 3.000000e+00
      vertex -2.040000e+01 2.050000e+01 3.000000e+00
      vertex -2.040000e+01 2.050000e+01 4.660000e+01
    endloop
  endfacet
  facet normal 7.071068e-01 -7.071068e-01 0.000000e+00
    outer loop
      vertex 9.500001e+00 2.278175e+00 1.250000e+01
      vertex 1.272183e+01 5.500000e+00 1.250000e+01
      vertex 1.272183e+01 5.500000e+00 2.451878e+01
    endloop
  endfacet
  facet normal 7.071068e-01 -7.071068e-01 0.000000e+00
    outer loop
      vertex 9.500001e+00 2.278175e+00 2.666667e+01
      vertex 9.500001e+00 2.278175e+00 1.250000e+01
      vertex 1.272183e+01 5.500000e+00 2.451878e+01
    endloop
  endfacet
  facet normal 1.000000e+00 0.000000e+00 0.000000e+00
    outer loop
      vertex 9.500001e+00 -2.278175e+00 2.666667e+01
      vertex 9.500001e+00 -2.278175e+00 1.250000e+01
      vertex 9.500001e+00 2.278175e+00 1.250000e+01
    endloop
  endfacet
  facet normal 1.000000e+00 0.000000e+00 0.000000e+00
    outer loop
      vertex 9.500001e+00 2.278175e+00 2.666667e+01
      vertex 9.500001e+00 -2.278175e+00 2.666667e+01
      vertex 9.500001e+00 2.278175e+00 1.250000e+01
    endloop
  endfacet
  facet normal 7.071068e-01 7.071068e-01 0.000000e+00
    outer loop
      vertex 1.272183e+01 -5.500000e+00 1.250000e+01
      vertex 9.500001e+00 -2.278175e+00 1.250000e+01
      vertex 1.272183e+01 -5.500000e+00 2.451878e+01
    endloop
  endfacet
  facet normal 7.071068e-01 7.071068e-01 0.000000e+00
    outer loop
      vertex 1.272183e+01 -5.500000e+00 2.451878e+01
      vertex 9.500001e+00 -2.278175e+00 1.250000e+01
      vertex 9.500001e+00 -2.278175e+00 2.666667e+01
    endloop
  endfacet
  facet normal 0.000000e+00 1.000000e+00 0.000000e+00
    outer loop
      vertex 1.727818e+01 -5.500000e+00 1.250000e+01
      vertex 1.272183e+01 -5.500000e+00 1.250000e+01
      vertex 1.727818e+01 -5.500000e+00 2.148122e+01
    endloop
  endfacet
  facet normal 0.000000e+00 1.000000e+00 0.000000e+00
    outer loop
      vertex 1.727818e+01 -5.500000e+00 2.148122e+01
      vertex 1.272183e+01 -5.500000e+00 1.250000e+01
      vertex 1.272183e+01 -5.500000e+00 2.451878e+01
    endloop
  endfacet
  facet normal -7.071068e-01 7.071068e-01 0.000000e+00
    outer loop
      vertex 2.050000e+01 -2.278175e+00 1.250000e+01
      vertex 1.727818e+01 -5.500000e+00 1.250000e+01
      vertex 2.050000e+01 -2.278175e+00 1.933333e+01
    endloop
  endfacet
  facet normal -7.071068e-01 7.071068e-01 0.000000e+00
    outer loop
      vertex 2.050000e+01 -2.278175e+00 1.933333e+01
      vertex 1.727818e+01 -5.500000e+00 1.250000e+01
      vertex 1.727818e+01 -5.500000e+00 2.148122e+01
    endloop
  endfacet
  facet normal -1.000000e+00 -0.000000e+00 -0.000000e+00
    outer loop
      vertex 2.050000e+01 -2.278175e+00 1.250000e+01
      vertex 2.050000e+01 -2.278175e+00 1.933333e+01
      vertex 2.050000e+01 2.278175e+00 1.250000e+01
    endloop
  endfacet
  facet normal -1.000000e+00 0.000000e+00 0.000000e+00
    outer loop
      vertex 2.050000e+01 2.278175e+00 1.250000e+01
      vertex 2.050000e+01 -2.278175e+00 1.933333e+01
      vertex 2.050000e+01 2.278175e+00 1.933333e+01
    endloop
  endfacet
  facet normal -7.071068e-01 -7.071068e-01 0.000000e+00
    outer loop
      vertex 1.727818e+01 5.500000e+00 1.250000e+01
      vertex 2.050000e+01 2.278175e+00 1.250000e+01
      vertex 2.050000e+01 2.278175e+00 1.933333e+01
    endloop
  endfacet
  facet normal -7.071068e-01 -7.071068e-01 0.000000e+00
    outer loop
      vertex 1.727818e+01 5.500000e+00 2.148122e+01
      vertex 1.727818e+01 5.500000e+00 1.250000e+01
      vertex 2.050000e+01 2.278175e+00 1.933333e+01
    endloop
  endfacet
  facet normal 0.000000e+00 -1.000000e+00 0.000000e+00
    outer loop
      vertex 1.272183e+01 5.500000e+00 1.250000e+01
      vertex 1.727818e+01 5.500000e+00 1.250000e+01
      vertex 1.727818e+01 5.500000e+00 2.148122e+01
    endloop
  endfacet
  facet normal 0.000000e+00 -1.000000e+00 0.000000e+00
    outer loop
      vertex 1.272183e+01 5.500000e+00 2.451878e+01
      vertex 1.272183e+01 5.500000e+00 1.250000e+01
      vertex 1.727818e+01 5.500000e+00 2.148122e+01
    endloop
  endfacet
  facet normal 1.000000e+00 0.000000e+00 0.000000e+00
    outer loop
      vertex 4.500000e+01 2.050000e+01 0.000000e+00
      vertex 4.500000e+01 2.050000e+01 3.000000e+00
      vertex 4.500000e+01 -2.050000e+01 0.000000e+00
    endloop
  endfacet
  facet normal 1.000000e+00 0.000000e+00 0.000000e+00
    outer loop
      vertex 4.500000e+01 -2.050000e+01 0.000000e+00
      vertex 4.500000e+01 0.000000e+00 3.000000e+00
      vertex 4.500000e+01 -2.050000e+01 3.000000e+00
    endloop
  endfacet
  facet normal 1.000000e+00 0.000000e+00 0.000000e+00
    outer loop
      vertex 4.500000e+01 -2.050000e+01 0.000000e+00
      vertex 4.500000e+01 2.050000e+01 3.000000e+00
      vertex 4.500000e+01 0.000000e+00 3.000000e+00
    endloop
  endfacet
  facet normal NaN NaN NaN
    outer loop
      vertex 4.500000e+01 0.000000e+00 3.000000e+00
      vertex 4.500000e+01 2.050000e+01 3.000000e+00
      vertex 4.500000e+01 -2.050000e+01 3.000000e+00
    endloop
  endfacet
  facet normal 0.000000e+00 0.000000e+00 -1.000000e+00
    outer loop
      vertex -4.441724e+01 -2.050000e+01 0.000000e+00
      vertex -2.040000e+01 3.517244e+00 0.000000e+00
      vertex 4.500000e+01 -2.050000e+01 0.000000e+00
    endloop
  endfacet
  facet normal -0.000000e+00 -0.000000e+00 -1.000000e+00
    outer loop
      vertex 1.200000e+01 -1.242641e+00 0.000000e+00
      vertex -2.040000e+01 3.517244e+00 0.000000e+00
      vertex -2.040000e+01 2.050000e+01 0.000000e+00
    endloop
  endfacet
  facet normal 0.000000e+00 0.000000e+00 -1.000000e+00
    outer loop
      vertex 1.375736e+01 3.000000e+00 0.000000e+00
      vertex -2.040000e+01 2.050000e+01 0.000000e+00
      vertex 4.500000e+01 2.050000e+01 0.000000e+00
    endloop
  endfacet
  facet normal 0.000000e+00 0.000000e+00 -1.000000e+00
    outer loop
      vertex 1.375736e+01 -3.000000e+00 0.000000e+00
      vertex -2.040000e+01 3.517244e+00 0.000000e+00
      vertex 1.200000e+01 -1.242641e+00 0.000000e+00
    endloop
  endfacet
  facet normal 0.000000e+00 0.000000e+00 -1.000000e+00
    outer loop
      vertex 1.624264e+01 -3.000000e+00 0.000000e+00
      vertex 4.500000e+01 -2.050000e+01 0.000000e+00
      vertex 1.375736e+01 -3.000000e+00 0.000000e+00
    endloop
  endfacet
  facet normal 0.000000e+00 0.000000e+00 -1.000000e+00
    outer loop
      vertex 4.500000e+01 -2.050000e+01 0.000000e+00
      vertex -2.040000e+01 3.517244e+00 0.000000e+00
      vertex 1.375736e+01 -3.000000e+00 0.000000e+00
    endloop
  endfacet
  facet normal 0.000000e+00 0.000000e+00 -1.000000e+00
    outer loop
      vertex 1.800000e+01 -1.242641e+00 0.000000e+00
      vertex 4.500000e+01 -2.050000e+01 0.000000e+00
      vertex 1.624264e+01 -3.000000e+00 0.000000e+00
    endloop
  endfacet
  facet normal -0.000000e+00 -0.000000e+00 -1.000000e+00
    outer loop
      vertex 1.375736e+01 3.000000e+00 0.000000e+00
      vertex 4.500000e+01 2.050000e+01 0.000000e+00
      vertex 1.624264e+01 3.000000e+00 0.000000e+00
    endloop
  endfacet
  facet normal -0.000000e+00 -0.000000e+00 -1.000000e+00
    outer loop
      vertex 4.500000e+01 -2.050000e+01 0.000000e+00
      vertex 1.800000e+01 -1.242641e+00 0.000000e+00
      vertex 4.500000e+01 2.050000e+01 0.000000e+00
    endloop
  endfacet
  facet normal -0.000000e+00 -0.000000e+00 -1.000000e+00
    outer loop
      vertex 1.800000e+01 -1.242641e+00 0.000000e+00
      vertex 1.800000e+01 1.242641e+00 0.000000e+00
      vertex 4.500000e+01 2.050000e+01 0.000000e+00
    endloop
  endfacet
  facet normal -0.000000e+00 -0.000000e+00 -1.000000e+00
    outer loop
      vertex 1.800000e+01 1.242641e+00 0.000000e+00
      vertex 1.624264e+01 3.000000e+00 0.000000e+00
      vertex 4.500000e+01 2.050000e+01 0.000000e+00
    endloop
  endfacet
  facet normal 0.000000e+00 0.000000e+00 -1.000000e+00
    outer loop
      vertex 1.200000e+01 1.242641e+00 0.000000e+00
      vertex -2.040000e+01 2.050000e+01 0.000000e+00
      vertex 1.375736e+01 3.000000e+00 0.000000e+00
    endloop
  endfacet
  facet normal 0.000000e+00 0.000000e+00 -1.000000e+00
    outer loop
      vertex 1.200000e+01 -1.242641e+00 0.000000e+00
      vertex -2.040000e+01 2.050000e+01 0.000000e+00
      vertex 1.200000e+01 1.242641e+00 0.000000e+00
    endloop
  endfacet
  facet normal 0.000000e+00 1.000000e+00 0.000000e+00
    outer loop
      vertex -2.040000e+01 2.050000e+01 3.000000e+00
      vertex 4.500000e+01 2.050000e+01 3.000000e+00
      vertex -2.040000e+01 2.050000e+01 0.000000e+00
    endloop
  endfacet
  facet normal 0.000000e+00 1.000000e+00 0.000000e+00
    outer loop
      vertex -2.040000e+01 2.050000e+01 0.000000e+00
      vertex 4.500000e+01 2.050000e+01 3.000000e+00
      vertex 4.500000e+01 2.050000e+01 0.000000e+00
    endloop
  endfacet
  facet normal 0.000000e+00 0.000000e+00 1.000000e+00
    outer loop
      vertex 9.500001e+00 -2.278175e+00 1.250000e+01
      vertex 1.272183e+01 -5.500000e+00 1.250000e+01
      vertex 1.727818e+01 -5.500000e+00 1.250000e+01
    endloop
  endfacet
  facet normal 0.000000e+00 0.000000e+00 1.000000e+00
    outer loop
      vertex 2.050000e+01 2.278175e+00 1.250000e+01
      vertex 1.800000e+01 1.242641e+00 1.250000e+01
      vertex 2.050000e+01 -2.278175e+00 1.250000e+01
    endloop
  endfacet
  facet normal 0.000000e+00 0.000000e+00 1.000000e+00
    outer loop
      vertex 1.375736e+01 -3.000000e+00 1.250000e+01
      vertex 9.500001e+00 -2.278175e+00 1.250000e+01
      vertex 1.727818e+01 -5.500000e+00 1.250000e+01
    endloop
  endfacet
  facet normal 0.000000e+00 0.000000e+00 1.000000e+00
    outer loop
      vertex 9.500001e+00 2.278175e+00 1.250000e+01
      vertex 9.500001e+00 -2.278175e+00 1.250000e+01
      vertex 1.272183e+01 5.500000e+00 1.250000e+01
    endloop
  endfacet
  facet normal 0.000000e+00 0.000000e+00 1.000000e+00
    outer loop
      vertex 1.800000e+01 -1.242641e+00 1.250000e+01
      vertex 1.624264e+01 -3.000000e+00 1.250000e+01
      vertex 2.050000e+01 -2.278175e+00 1.250000e+01
    endloop
  endfacet
  facet normal 0.000000e+00 0.000000e+00 1.000000e+00
    outer loop
      vertex 1.272183e+01 5.500000e+00 1.250000e+01
      vertex 9.500001e+00 -2.278175e+00 1.250000e+01
      vertex 1.200000e+01 1.242641e+00 1.250000e+01
    endloop
  endfacet
  facet normal 0.000000e+00 0.000000e+00 1.000000e+00
    outer loop
      vertex 1.272183e+01 5.500000e+00 1.250000e+01
      vertex 1.375736e+01 3.000000e+00 1.250000e+01
      vertex 1.727818e+01 5.500000e+00 1.250000e+01
    endloop
  endfacet
  facet normal 0.000000e+00 0.000000e+00 1.000000e+00
    outer loop
      vertex 1.272183e+01 5.500000e+00 1.250000e+01
      vertex 1.200000e+01 1.242641e+00 1.250000e+01
      vertex 1.375736e+01 3.000000e+00 1.250000e+01
    endloop
  endfacet
  facet normal 0.000000e+00 0.000000e+00 1.000000e+00
    outer loop
      vertex 1.727818e+01 5.500000e+00 1.250000e+01
      vertex 1.624264e+01 3.000000e+00 1.250000e+01
      vertex 2.050000e+01 2.278175e+00 1.250000e+01
    endloop
  endfacet
  facet normal 0.000000e+00 0.000000e+00 1.000000e+00
    outer loop
      vertex 1.375736e+01 3.000000e+00 1.250000e+01
      vertex 1.624264e+01 3.000000e+00 1.250000e+01
      vertex 1.727818e+01 5.500000e+00 1.250000e+01
    endloop
  endfacet
  facet normal 0.000000e+00 0.000000e+00 1.000000e+00
    outer loop
      vertex 1.624264e+01 3.000000e+00 1.250000e+01
      vertex 1.800000e+01 1.242641e+00 1.250000e+01
      vertex 2.050000e+01 2.278175e+00 1.250000e+01
    endloop
  endfacet
  facet normal 0.000000e+00 0.000000e+00 1.000000e+00
    outer loop
      vertex 1.800000e+01 1.242641e+00 1.250000e+01
      vertex 1.800000e+01 -1.242641e+00 1.250000e+01
      vertex 2.050000e+01 -2.278175e+00 1.250000e+01
    endloop
  endfacet
  facet normal 0.000000e+00 0.000000e+00 1.000000e+00
    outer loop
      vertex 2.050000e+01 -2.278175e+00 1.250000e+01
      vertex 1.624264e+01 -3.000000e+00 1.250000e+01
      vertex 1.727818e+01 -5.500000e+00 1.250000e+01
    endloop
  endfacet
  facet normal 0.000000e+00 0.000000e+00 1.000000e+00
    outer loop
      vertex 1.624264e+01 -3.000000e+00 1.250000e+01
      vertex 1.375736e+01 -3.000000e+00 1.250000e+01
      vertex 1.727818e+01 -5.500000e+00 1.250000e+01
    endloop
  endfacet
  facet normal 0.000000e+00 0.000000e+00 1.000000e+00
    outer loop
      vertex 1.375736e+01 -3.000000e+00 1.250000e+01
      vertex 1.200000e+01 -1.242641e+00 1.250000e+01
      vertex 9.500001e+00 -2.278175e+00 1.250000e+01
    endloop
  endfacet
  facet normal 0.000000e+00 0.000000e+00 1.000000e+00
    outer loop
      vertex 1.200000e+01 -1.242641e+00 1.250000e+01
      vertex 1.200000e+01 1.242641e+00 1.250000e+01
      vertex 9.500001e+00 -2.278175e+00 1.250000e+01
    endloop
  endfacet
  facet normal 1.000000e+00 0.000000e+00 0.000000e+00
    outer loop
      vertex 1.200000e+01 -1.242641e+00 1.250000e+01
      vertex 1.200000e+01 -1.242641e+00 0.000000e+00
      vertex 1.200000e+01 1.242641e+00 0.000000e+00
    endloop
  endfacet
  facet normal 1.000000e+00 0.000000e+00 0.000000e+00
    outer loop
      vertex 1.200000e+01 1.242641e+00 1.250000e+01
      vertex 1.200000e+01 -1.242641e+00 1.250000e+01
      vertex 1.200000e+01 1.242641e+00 0.000000e+00
    endloop
  endfacet
  facet normal 7.071068e-01 -7.071068e-01 0.000000e+00
    outer loop
      vertex 1.200000e+01 1.242641e+00 0.000000e+00
      vertex 1.375736e+01 3.000000e+00 0.000000e+00
      vertex 1.375736e+01 3.000000e+00 1.250000e+01
    endloop
  endfacet
  facet normal 7.071068e-01 -7.071068e-01 0.000000e+00
    outer loop
      vertex 1.200000e+01 1.242641e+00 1.250000e+01
      vertex 1.200000e+01 1.242641e+00 0.000000e+00
      vertex 1.375736e+01 3.000000e+00 1.250000e+01
    endloop
  endfacet
  facet normal 0.000000e+00 -1.000000e+00 0.000000e+00
    outer loop
      vertex 1.375736e+01 3.000000e+00 0.000000e+00
      vertex 1.624264e+01 3.000000e+00 0.000000e+00
      vertex 1.624264e+01 3.000000e+00 1.250000e+01
    endloop
  endfacet
  facet normal 0.000000e+00 -1.000000e+00 0.000000e+00
    outer loop
      vertex 1.375736e+01 3.000000e+00 1.250000e+01
      vertex 1.375736e+01 3.000000e+00 0.000000e+00
      vertex 1.624264e+01 3.000000e+00 1.250000e+01
    endloop
  endfacet
  facet normal -7.071068e-01 -7.071068e-01 0.000000e+00
    outer loop
      vertex 1.624264e+01 3.000000e+00 0.000000e+00
      vertex 1.800000e+01 1.242641e+00 0.000000e+00
      vertex 1.800000e+01 1.242641e+00 1.250000e+01
    endloop
  endfacet
  facet normal -7.071068e-01 -7.071068e-01 0.000000e+00
    outer loop
      vertex 1.624264e+01 3.000000e+00 1.250000e+01
      vertex 1.624264e+01 3.000000e+00 0.000000e+00
      vertex 1.800000e+01 1.242641e+00 1.250000e+01
    endloop
  endfacet
  facet normal -1.000000e+00 -0.000000e+00 -0.000000e+00
    outer loop
      vertex 1.800000e+01 -1.242641e+00 0.000000e+00
      vertex 1.800000e+01 -1.242641e+00 1.250000e+01
      vertex 1.800000e+01 1.242641e+00 0.000000e+00
    endloop
  endfacet
  facet normal -1.000000e+00 0.000000e+00 0.000000e+00
    outer loop
      vertex 1.800000e+01 1.242641e+00 0.000000e+00
      vertex 1.800000e+01 -1.242641e+00 1.250000e+01
      vertex 1.800000e+01 1.242641e+00 1.250000e+01
    endloop
  endfacet
  facet normal -7.071068e-01 7.071068e-01 0.000000e+00
    outer loop
      vertex 1.800000e+01 -1.242641e+00 0.000000e+00
      vertex 1.624264e+01 -3.000000e+00 0.000000e+00
      vertex 1.800000e+01 -1.242641e+00 1.250000e+01
    endloop
  endfacet
  facet normal -7.071068e-01 7.071068e-01 0.000000e+00
    outer loop
      vertex 1.800000e+01 -1.242641e+00 1.250000e+01
      vertex 1.624264e+01 -3.000000e+00 0.000000e+00
      vertex 1.624264e+01 -3.000000e+00 1.250000e+01
    endloop
  endfacet
  facet normal 0.000000e+00 1.000000e+00 0.000000e+00
    outer loop
      vertex 1.624264e+01 -3.000000e+00 0.000000e+00
      vertex 1.375736e+01 -3.000000e+00 0.000000e+00
      vertex 1.624264e+01 -3.000000e+00 1.250000e+01
    endloop
  endfacet
  facet normal 0.000000e+00 1.000000e+00 0.000000e+00
    outer loop
      vertex 1.624264e+01 -3.000000e+00 1.250000e+01
      vertex 1.375736e+01 -3.000000e+00 0.000000e+00
      vertex 1.375736e+01 -3.000000e+00 1.250000e+01
    endloop
  endfacet
  facet normal 7.071068e-01 7.071068e-01 0.000000e+00
    outer loop
      vertex 1.375736e+01 -3.000000e+00 0.000000e+00
      vertex 1.200000e+01 -1.242641e+00 0.000000e+00
      vertex 1.375736e+01 -3.000000e+00 1.250000e+01
    endloop
  endfacet
  facet normal 7.071068e-01 7.071068e-01 0.000000e+00
    outer loop
      vertex 1.375736e+01 -3.000000e+00 1.250000e+01
      vertex 1.200000e+01 -1.242641e+00 0.000000e+00
      vertex 1.200000e+01 -1.242641e+00 1.250000e+01
    endloop
  endfacet
endsolid Default
