solid OpenSCAD_Model
  facet normal -0.000000 0.000000 -1.000000
    outer loop
      vertex -41.000000 -16.982756 0.000000
      vertex -41.000000 16.982756 0.000000
      vertex -16.982756 -41.000000 0.000000
    endloop
  endfacet
  facet normal 0.000000 -0.000000 -1.000000
    outer loop
      vertex -24.068544 5.115927 0.000000
      vertex -41.000000 16.982756 0.000000
      vertex -16.982756 41.000000 0.000000
    endloop
  endfacet
  facet normal 0.000000 -0.000000 -1.000000
    outer loop
      vertex 4.000000 29.000000 0.000000
      vertex -16.982756 41.000000 0.000000
      vertex 16.982756 41.000000 0.000000
    endloop
  endfacet
  facet normal 0.000000 -0.000000 -1.000000
    outer loop
      vertex 24.068544 5.115927 0.000000
      vertex 16.982756 41.000000 0.000000
      vertex 41.000000 16.982756 0.000000
    endloop
  endfacet
  facet normal -0.000000 0.000000 -1.000000
    outer loop
      vertex 19.906874 -14.463191 0.000000
      vertex 41.000000 16.982756 0.000000
      vertex 41.000000 -16.982756 0.000000
    endloop
  endfacet
  facet normal -0.000000 0.000000 -1.000000
    outer loop
      vertex -16.982756 -41.000000 0.000000
      vertex 41.000000 -16.982756 0.000000
      vertex 16.982756 -41.000000 0.000000
    endloop
  endfacet
  facet normal 0.000000 0.000000 -1.000000
    outer loop
      vertex -24.068544 -5.115927 0.000000
      vertex -41.000000 16.982756 0.000000
      vertex -24.606250 0.000000 0.000000
    endloop
  endfacet
  facet normal 0.000000 0.000000 -1.000000
    outer loop
      vertex -16.982756 -41.000000 0.000000
      vertex -41.000000 16.982756 0.000000
      vertex -24.068544 -5.115927 0.000000
    endloop
  endfacet
  facet normal 0.000000 0.000000 -1.000000
    outer loop
      vertex -16.464795 -18.286007 0.000000
      vertex -16.982756 -41.000000 0.000000
      vertex -19.906874 -14.463191 0.000000
    endloop
  endfacet
  facet normal 0.000000 0.000000 -1.000000
    outer loop
      vertex -16.982756 -41.000000 0.000000
      vertex -22.478928 -10.008264 0.000000
      vertex -19.906874 -14.463191 0.000000
    endloop
  endfacet
  facet normal 0.000000 0.000000 -1.000000
    outer loop
      vertex -7.603749 -23.401934 0.000000
      vertex -16.982756 -41.000000 0.000000
      vertex -12.303125 -21.309638 0.000000
    endloop
  endfacet
  facet normal 0.000000 0.000000 -1.000000
    outer loop
      vertex -16.982756 -41.000000 0.000000
      vertex -16.464795 -18.286007 0.000000
      vertex -12.303125 -21.309638 0.000000
    endloop
  endfacet
  facet normal 0.000000 0.000000 -1.000000
    outer loop
      vertex -4.000000 -29.000000 0.000000
      vertex -16.982756 -41.000000 0.000000
      vertex -4.000000 -24.167934 0.000000
    endloop
  endfacet
  facet normal 0.000000 0.000000 -1.000000
    outer loop
      vertex -16.982756 -41.000000 0.000000
      vertex -7.603749 -23.401934 0.000000
      vertex -4.000000 -24.167934 0.000000
    endloop
  endfacet
  facet normal -0.000000 0.000000 -1.000000
    outer loop
      vertex 4.000000 -24.167934 0.000000
      vertex 41.000000 -16.982756 0.000000
      vertex 4.000000 -29.000000 0.000000
    endloop
  endfacet
  facet normal 0.000000 0.000000 -1.000000
    outer loop
      vertex -16.982756 -41.000000 0.000000
      vertex -4.000000 -29.000000 0.000000
      vertex 4.000000 -29.000000 0.000000
    endloop
  endfacet
  facet normal 0.000000 0.000000 -1.000000
    outer loop
      vertex -16.982756 -41.000000 0.000000
      vertex 4.000000 -29.000000 0.000000
      vertex 41.000000 -16.982756 0.000000
    endloop
  endfacet
  facet normal -0.000000 0.000000 -1.000000
    outer loop
      vertex 24.068544 5.115927 0.000000
      vertex 41.000000 16.982756 0.000000
      vertex 24.606250 0.000000 0.000000
    endloop
  endfacet
  facet normal -0.000000 0.000000 -1.000000
    outer loop
      vertex 24.068544 -5.115927 0.000000
      vertex 41.000000 16.982756 0.000000
      vertex 22.478928 -10.008264 0.000000
    endloop
  endfacet
  facet normal 0.000000 0.000000 -1.000000
    outer loop
      vertex 4.000000 -24.167934 0.000000
      vertex 7.603749 -23.401934 0.000000
      vertex 41.000000 -16.982756 0.000000
    endloop
  endfacet
  facet normal -0.000000 0.000000 -1.000000
    outer loop
      vertex 24.606250 0.000000 0.000000
      vertex 41.000000 16.982756 0.000000
      vertex 24.068544 -5.115927 0.000000
    endloop
  endfacet
  facet normal 0.000000 0.000000 -1.000000
    outer loop
      vertex 7.603749 -23.401934 0.000000
      vertex 12.303125 -21.309638 0.000000
      vertex 41.000000 -16.982756 0.000000
    endloop
  endfacet
  facet normal 0.000000 0.000000 -1.000000
    outer loop
      vertex 12.303125 -21.309638 0.000000
      vertex 16.464795 -18.286007 0.000000
      vertex 41.000000 -16.982756 0.000000
    endloop
  endfacet
  facet normal -0.000000 0.000000 -1.000000
    outer loop
      vertex 22.478928 -10.008264 0.000000
      vertex 41.000000 16.982756 0.000000
      vertex 19.906874 -14.463191 0.000000
    endloop
  endfacet
  facet normal 0.000000 0.000000 -1.000000
    outer loop
      vertex 16.464795 -18.286007 0.000000
      vertex 19.906874 -14.463191 0.000000
      vertex 41.000000 -16.982756 0.000000
    endloop
  endfacet
  facet normal -0.000000 -0.000000 -1.000000
    outer loop
      vertex 22.478928 10.008264 0.000000
      vertex 16.982756 41.000000 0.000000
      vertex 24.068544 5.115927 0.000000
    endloop
  endfacet
  facet normal -0.000000 0.000000 -1.000000
    outer loop
      vertex 7.603749 23.401934 0.000000
      vertex 16.982756 41.000000 0.000000
      vertex 12.303125 21.309638 0.000000
    endloop
  endfacet
  facet normal -0.000000 -0.000000 -1.000000
    outer loop
      vertex 19.906874 14.463191 0.000000
      vertex 16.982756 41.000000 0.000000
      vertex 22.478928 10.008264 0.000000
    endloop
  endfacet
  facet normal -0.000000 0.000000 -1.000000
    outer loop
      vertex 16.464795 18.286007 0.000000
      vertex 16.982756 41.000000 0.000000
      vertex 19.906874 14.463191 0.000000
    endloop
  endfacet
  facet normal -0.000000 0.000000 -1.000000
    outer loop
      vertex 12.303125 21.309638 0.000000
      vertex 16.982756 41.000000 0.000000
      vertex 16.464795 18.286007 0.000000
    endloop
  endfacet
  facet normal -0.000000 0.000000 -1.000000
    outer loop
      vertex 4.000000 24.167934 0.000000
      vertex 16.982756 41.000000 0.000000
      vertex 7.603749 23.401934 0.000000
    endloop
  endfacet
  facet normal 0.000000 0.000000 -1.000000
    outer loop
      vertex -7.603749 23.401934 0.000000
      vertex -4.000000 29.000000 0.000000
      vertex -4.000000 24.167934 0.000000
    endloop
  endfacet
  facet normal -0.000000 -0.000000 -1.000000
    outer loop
      vertex -4.000000 29.000000 0.000000
      vertex -16.982756 41.000000 0.000000
      vertex 4.000000 29.000000 0.000000
    endloop
  endfacet
  facet normal 0.000000 -0.000000 -1.000000
    outer loop
      vertex 4.000000 24.167934 0.000000
      vertex 4.000000 29.000000 0.000000
      vertex 16.982756 41.000000 0.000000
    endloop
  endfacet
  facet normal 0.000000 -0.000000 -1.000000
    outer loop
      vertex -7.603749 23.401934 0.000000
      vertex -16.982756 41.000000 0.000000
      vertex -4.000000 29.000000 0.000000
    endloop
  endfacet
  facet normal 0.000000 -0.000000 -1.000000
    outer loop
      vertex -12.303125 21.309638 0.000000
      vertex -16.982756 41.000000 0.000000
      vertex -7.603749 23.401934 0.000000
    endloop
  endfacet
  facet normal 0.000000 0.000000 -1.000000
    outer loop
      vertex -19.906874 14.463191 0.000000
      vertex -16.982756 41.000000 0.000000
      vertex -16.464795 18.286007 0.000000
    endloop
  endfacet
  facet normal 0.000000 -0.000000 -1.000000
    outer loop
      vertex -16.464795 18.286007 0.000000
      vertex -16.982756 41.000000 0.000000
      vertex -12.303125 21.309638 0.000000
    endloop
  endfacet
  facet normal 0.000000 0.000000 -1.000000
    outer loop
      vertex -24.068544 5.115927 0.000000
      vertex -16.982756 41.000000 0.000000
      vertex -22.478928 10.008264 0.000000
    endloop
  endfacet
  facet normal 0.000000 -0.000000 -1.000000
    outer loop
      vertex -19.906874 14.463191 0.000000
      vertex -22.478928 10.008264 0.000000
      vertex -16.982756 41.000000 0.000000
    endloop
  endfacet
  facet normal 0.000000 -0.000000 -1.000000
    outer loop
      vertex -24.606250 0.000000 0.000000
      vertex -41.000000 16.982756 0.000000
      vertex -24.068544 5.115927 0.000000
    endloop
  endfacet
  facet normal 0.000000 0.000000 -1.000000
    outer loop
      vertex -22.478928 -10.008264 0.000000
      vertex -16.982756 -41.000000 0.000000
      vertex -24.068544 -5.115927 0.000000
    endloop
  endfacet
  facet normal -1.000000 0.000000 0.000000
    outer loop
      vertex -41.000000 -16.982756 0.000000
      vertex -41.000000 -16.982756 80.000000
      vertex -41.000000 16.982756 0.000000
    endloop
  endfacet
  facet normal -1.000000 0.000000 0.000000
    outer loop
      vertex -41.000000 16.982756 0.000000
      vertex -41.000000 -16.982756 80.000000
      vertex -41.000000 16.982756 80.000000
    endloop
  endfacet
  facet normal -0.707107 -0.707107 -0.000000
    outer loop
      vertex -41.000000 -16.982756 0.000000
      vertex -16.982756 -41.000000 0.000000
      vertex -41.000000 -16.982756 80.000000
    endloop
  endfacet
  facet normal -0.707107 -0.707107 0.000000
    outer loop
      vertex -41.000000 -16.982756 80.000000
      vertex -16.982756 -41.000000 0.000000
      vertex -16.982756 -41.000000 80.000000
    endloop
  endfacet
  facet normal -0.000000 -1.000000 0.000000
    outer loop
      vertex -16.982756 -41.000000 80.000000
      vertex -16.982756 -41.000000 0.000000
      vertex 16.982756 -41.000000 0.000000
    endloop
  endfacet
  facet normal -0.000000 -1.000000 0.000000
    outer loop
      vertex 16.982756 -41.000000 80.000000
      vertex -16.982756 -41.000000 80.000000
      vertex 16.982756 -41.000000 0.000000
    endloop
  endfacet
  facet normal 0.707107 -0.707107 0.000000
    outer loop
      vertex 16.982756 -41.000000 80.000000
      vertex 16.982756 -41.000000 0.000000
      vertex 41.000000 -16.982756 0.000000
    endloop
  endfacet
  facet normal 0.707107 -0.707107 0.000000
    outer loop
      vertex 41.000000 -16.982756 80.000000
      vertex 16.982756 -41.000000 80.000000
      vertex 41.000000 -16.982756 0.000000
    endloop
  endfacet
  facet normal 1.000000 -0.000000 0.000000
    outer loop
      vertex 41.000000 -16.982756 80.000000
      vertex 41.000000 -16.982756 0.000000
      vertex 41.000000 16.982756 0.000000
    endloop
  endfacet
  facet normal 1.000000 -0.000000 0.000000
    outer loop
      vertex 41.000000 16.982756 80.000000
      vertex 41.000000 -16.982756 80.000000
      vertex 41.000000 16.982756 0.000000
    endloop
  endfacet
  facet normal 0.707107 0.707107 0.000000
    outer loop
      vertex 41.000000 16.982756 0.000000
      vertex 16.982756 41.000000 0.000000
      vertex 16.982756 41.000000 80.000000
    endloop
  endfacet
  facet normal 0.707107 0.707107 -0.000000
    outer loop
      vertex 41.000000 16.982756 80.000000
      vertex 41.000000 16.982756 0.000000
      vertex 16.982756 41.000000 80.000000
    endloop
  endfacet
  facet normal 0.000000 1.000000 0.000000
    outer loop
      vertex -16.982756 41.000000 0.000000
      vertex -16.982756 41.000000 80.000000
      vertex 16.982756 41.000000 0.000000
    endloop
  endfacet
  facet normal 0.000000 1.000000 0.000000
    outer loop
      vertex 16.982756 41.000000 0.000000
      vertex -16.982756 41.000000 80.000000
      vertex 16.982756 41.000000 80.000000
    endloop
  endfacet
  facet normal -0.707107 0.707107 0.000000
    outer loop
      vertex -41.000000 16.982756 0.000000
      vertex -41.000000 16.982756 80.000000
      vertex -16.982756 41.000000 0.000000
    endloop
  endfacet
  facet normal -0.707107 0.707107 0.000000
    outer loop
      vertex -16.982756 41.000000 0.000000
      vertex -41.000000 16.982756 80.000000
      vertex -16.982756 41.000000 80.000000
    endloop
  endfacet
  facet normal 0.994522 -0.104529 0.000000
    outer loop
      vertex -24.068544 5.115927 0.000000
      vertex -24.068544 5.115927 80.000000
      vertex -24.238385 3.500000 80.000000
    endloop
  endfacet
  facet normal 0.994522 -0.104529 -0.000000
    outer loop
      vertex -24.606250 0.000000 88.000000
      vertex -24.068544 5.115927 0.000000
      vertex -24.238385 3.500000 80.000000
    endloop
  endfacet
  facet normal 0.994522 -0.104529 0.000000
    outer loop
      vertex -24.238385 3.500000 88.000000
      vertex -24.606250 0.000000 88.000000
      vertex -24.238385 3.500000 80.000000
    endloop
  endfacet
  facet normal 0.994522 -0.104529 0.000000
    outer loop
      vertex -24.606250 0.000000 88.000000
      vertex -24.606250 0.000000 0.000000
      vertex -24.068544 5.115927 0.000000
    endloop
  endfacet
  facet normal 0.994522 0.104529 0.000000
    outer loop
      vertex -24.606250 0.000000 88.000000
      vertex -24.238385 -3.500000 88.000000
      vertex -24.238385 -3.500000 80.000000
    endloop
  endfacet
  facet normal 0.994522 0.104529 -0.000000
    outer loop
      vertex -24.068544 -5.115927 0.000000
      vertex -24.606250 0.000000 88.000000
      vertex -24.238385 -3.500000 80.000000
    endloop
  endfacet
  facet normal 0.994522 0.104529 -0.000000
    outer loop
      vertex -24.068544 -5.115927 80.000000
      vertex -24.068544 -5.115927 0.000000
      vertex -24.238385 -3.500000 80.000000
    endloop
  endfacet
  facet normal 0.994522 0.104529 0.000000
    outer loop
      vertex -24.068544 -5.115927 0.000000
      vertex -24.606250 0.000000 0.000000
      vertex -24.606250 0.000000 88.000000
    endloop
  endfacet
  facet normal 0.951057 -0.309017 0.000000
    outer loop
      vertex -22.478928 10.008264 0.000000
      vertex -22.478928 10.008264 80.000000
      vertex -24.068544 5.115927 80.000000
    endloop
  endfacet
  facet normal 0.951057 -0.309017 0.000000
    outer loop
      vertex -24.068544 5.115927 0.000000
      vertex -22.478928 10.008264 0.000000
      vertex -24.068544 5.115927 80.000000
    endloop
  endfacet
  facet normal 0.866025 -0.500000 0.000000
    outer loop
      vertex -19.906874 14.463191 0.000000
      vertex -19.906874 14.463191 80.000000
      vertex -22.478928 10.008264 80.000000
    endloop
  endfacet
  facet normal 0.866025 -0.500000 0.000000
    outer loop
      vertex -22.478928 10.008264 0.000000
      vertex -19.906874 14.463191 0.000000
      vertex -22.478928 10.008264 80.000000
    endloop
  endfacet
  facet normal 0.743145 -0.669131 0.000000
    outer loop
      vertex -16.464795 18.286007 0.000000
      vertex -16.464795 18.286007 80.000000
      vertex -19.906874 14.463191 80.000000
    endloop
  endfacet
  facet normal 0.743145 -0.669131 0.000000
    outer loop
      vertex -19.906874 14.463191 0.000000
      vertex -16.464795 18.286007 0.000000
      vertex -19.906874 14.463191 80.000000
    endloop
  endfacet
  facet normal 0.587785 -0.809017 0.000000
    outer loop
      vertex -12.303125 21.309638 0.000000
      vertex -12.303125 21.309638 80.000000
      vertex -16.464795 18.286007 80.000000
    endloop
  endfacet
  facet normal 0.587785 -0.809017 0.000000
    outer loop
      vertex -16.464795 18.286007 0.000000
      vertex -12.303125 21.309638 0.000000
      vertex -16.464795 18.286007 80.000000
    endloop
  endfacet
  facet normal 0.406736 -0.913546 0.000000
    outer loop
      vertex -7.603749 23.401934 0.000000
      vertex -7.603749 23.401934 80.000000
      vertex -12.303125 21.309638 80.000000
    endloop
  endfacet
  facet normal 0.406736 -0.913546 0.000000
    outer loop
      vertex -12.303125 21.309638 0.000000
      vertex -7.603749 23.401934 0.000000
      vertex -12.303125 21.309638 80.000000
    endloop
  endfacet
  facet normal 0.207912 -0.978148 0.000000
    outer loop
      vertex -2.572053 24.471454 80.000000
      vertex -4.000000 24.167934 9.000000
      vertex -2.572053 24.471454 9.000000
    endloop
  endfacet
  facet normal 0.207912 -0.978148 0.000000
    outer loop
      vertex -7.603749 23.401934 80.000000
      vertex -4.000000 24.167934 9.000000
      vertex -2.572053 24.471454 80.000000
    endloop
  endfacet
  facet normal 0.207912 -0.978148 0.000000
    outer loop
      vertex -4.000000 24.167934 0.000000
      vertex -4.000000 24.167934 9.000000
      vertex -7.603749 23.401934 80.000000
    endloop
  endfacet
  facet normal 0.207912 -0.978148 0.000000
    outer loop
      vertex -7.603749 23.401934 0.000000
      vertex -4.000000 24.167934 0.000000
      vertex -7.603749 23.401934 80.000000
    endloop
  endfacet
  facet normal 1.000000 0.000000 0.000000
    outer loop
      vertex -4.000000 29.000000 0.000000
      vertex -4.000000 29.000000 9.000000
      vertex -4.000000 24.167934 9.000000
    endloop
  endfacet
  facet normal 1.000000 0.000000 0.000000
    outer loop
      vertex -4.000000 24.167934 0.000000
      vertex -4.000000 29.000000 0.000000
      vertex -4.000000 24.167934 9.000000
    endloop
  endfacet
  facet normal 0.000000 -1.000000 0.000000
    outer loop
      vertex 4.000000 29.000000 0.000000
      vertex 4.000000 29.000000 9.000000
      vertex -4.000000 29.000000 9.000000
    endloop
  endfacet
  facet normal -0.000000 -1.000000 -0.000000
    outer loop
      vertex -4.000000 29.000000 0.000000
      vertex 4.000000 29.000000 0.000000
      vertex -4.000000 29.000000 9.000000
    endloop
  endfacet
  facet normal -1.000000 0.000000 0.000000
    outer loop
      vertex 4.000000 29.000000 9.000000
      vertex 4.000000 29.000000 0.000000
      vertex 4.000000 24.167934 9.000000
    endloop
  endfacet
  facet normal -1.000000 0.000000 0.000000
    outer loop
      vertex 4.000000 24.167934 9.000000
      vertex 4.000000 29.000000 0.000000
      vertex 4.000000 24.167934 0.000000
    endloop
  endfacet
  facet normal -0.207912 -0.978148 0.000000
    outer loop
      vertex 4.000000 24.167934 9.000000
      vertex 4.000000 24.167934 0.000000
      vertex 7.603749 23.401934 0.000000
    endloop
  endfacet
  facet normal -0.207912 -0.978148 0.000000
    outer loop
      vertex 2.572053 24.471454 80.000000
      vertex 4.000000 24.167934 9.000000
      vertex 7.603749 23.401934 80.000000
    endloop
  endfacet
  facet normal -0.207912 -0.978148 0.000000
    outer loop
      vertex 7.603749 23.401934 80.000000
      vertex 4.000000 24.167934 9.000000
      vertex 7.603749 23.401934 0.000000
    endloop
  endfacet
  facet normal -0.207912 -0.978148 -0.000000
    outer loop
      vertex 2.572053 24.471454 9.000000
      vertex 4.000000 24.167934 9.000000
      vertex 2.572053 24.471454 80.000000
    endloop
  endfacet
  facet normal -0.406736 -0.913546 -0.000000
    outer loop
      vertex 12.303125 21.309638 0.000000
      vertex 12.303125 21.309638 80.000000
      vertex 7.603749 23.401934 80.000000
    endloop
  endfacet
  facet normal -0.406736 -0.913546 -0.000000
    outer loop
      vertex 7.603749 23.401934 0.000000
      vertex 12.303125 21.309638 0.000000
      vertex 7.603749 23.401934 80.000000
    endloop
  endfacet
  facet normal -0.587785 -0.809017 -0.000000
    outer loop
      vertex 16.464795 18.286007 0.000000
      vertex 16.464795 18.286007 80.000000
      vertex 12.303125 21.309638 80.000000
    endloop
  endfacet
  facet normal -0.587785 -0.809017 -0.000000
    outer loop
      vertex 12.303125 21.309638 0.000000
      vertex 16.464795 18.286007 0.000000
      vertex 12.303125 21.309638 80.000000
    endloop
  endfacet
  facet normal -0.743145 -0.669131 0.000000
    outer loop
      vertex 19.906874 14.463191 80.000000
      vertex 16.464795 18.286007 80.000000
      vertex 19.906874 14.463191 0.000000
    endloop
  endfacet
  facet normal -0.743145 -0.669131 0.000000
    outer loop
      vertex 19.906874 14.463191 0.000000
      vertex 16.464795 18.286007 80.000000
      vertex 16.464795 18.286007 0.000000
    endloop
  endfacet
  facet normal -0.866025 -0.500000 0.000000
    outer loop
      vertex 22.478928 10.008264 80.000000
      vertex 19.906874 14.463191 80.000000
      vertex 22.478928 10.008264 0.000000
    endloop
  endfacet
  facet normal -0.866025 -0.500000 0.000000
    outer loop
      vertex 22.478928 10.008264 0.000000
      vertex 19.906874 14.463191 80.000000
      vertex 19.906874 14.463191 0.000000
    endloop
  endfacet
  facet normal -0.951057 -0.309017 0.000000
    outer loop
      vertex 24.068544 5.115927 80.000000
      vertex 22.478928 10.008264 80.000000
      vertex 24.068544 5.115927 0.000000
    endloop
  endfacet
  facet normal -0.951057 -0.309017 0.000000
    outer loop
      vertex 24.068544 5.115927 0.000000
      vertex 22.478928 10.008264 80.000000
      vertex 22.478928 10.008264 0.000000
    endloop
  endfacet
  facet normal -0.994522 -0.104529 0.000000
    outer loop
      vertex 24.606250 0.000000 88.000000
      vertex 24.238385 3.500000 88.000000
      vertex 24.606250 0.000000 0.000000
    endloop
  endfacet
  facet normal -0.994522 -0.104529 0.000000
    outer loop
      vertex 24.606250 0.000000 0.000000
      vertex 24.238385 3.500000 88.000000
      vertex 24.238385 3.500000 80.000000
    endloop
  endfacet
  facet normal -0.994522 -0.104529 -0.000000
    outer loop
      vertex 24.606250 0.000000 0.000000
      vertex 24.238385 3.500000 80.000000
      vertex 24.068544 5.115927 80.000000
    endloop
  endfacet
  facet normal -0.994522 -0.104529 0.000000
    outer loop
      vertex 24.606250 0.000000 0.000000
      vertex 24.068544 5.115927 80.000000
      vertex 24.068544 5.115927 0.000000
    endloop
  endfacet
  facet normal -0.994522 0.104529 0.000000
    outer loop
      vertex 24.238385 -3.500000 80.000000
      vertex 24.238385 -3.500000 88.000000
      vertex 24.606250 0.000000 88.000000
    endloop
  endfacet
  facet normal -0.994522 0.104529 0.000000
    outer loop
      vertex 24.238385 -3.500000 80.000000
      vertex 24.606250 0.000000 88.000000
      vertex 24.606250 0.000000 0.000000
    endloop
  endfacet
  facet normal -0.994522 0.104529 -0.000000
    outer loop
      vertex 24.238385 -3.500000 80.000000
      vertex 24.606250 0.000000 0.000000
      vertex 24.068544 -5.115927 80.000000
    endloop
  endfacet
  facet normal -0.994522 0.104529 0.000000
    outer loop
      vertex 24.606250 0.000000 0.000000
      vertex 24.068544 -5.115927 0.000000
      vertex 24.068544 -5.115927 80.000000
    endloop
  endfacet
  facet normal -0.951057 0.309017 0.000000
    outer loop
      vertex 24.068544 -5.115927 80.000000
      vertex 24.068544 -5.115927 0.000000
      vertex 22.478928 -10.008264 80.000000
    endloop
  endfacet
  facet normal -0.951057 0.309017 0.000000
    outer loop
      vertex 22.478928 -10.008264 80.000000
      vertex 24.068544 -5.115927 0.000000
      vertex 22.478928 -10.008264 0.000000
    endloop
  endfacet
  facet normal -0.866025 0.500000 0.000000
    outer loop
      vertex 22.478928 -10.008264 80.000000
      vertex 22.478928 -10.008264 0.000000
      vertex 19.906874 -14.463191 80.000000
    endloop
  endfacet
  facet normal -0.866025 0.500000 0.000000
    outer loop
      vertex 19.906874 -14.463191 80.000000
      vertex 22.478928 -10.008264 0.000000
      vertex 19.906874 -14.463191 0.000000
    endloop
  endfacet
  facet normal -0.743145 0.669131 0.000000
    outer loop
      vertex 19.906874 -14.463191 80.000000
      vertex 19.906874 -14.463191 0.000000
      vertex 16.464795 -18.286007 80.000000
    endloop
  endfacet
  facet normal -0.743145 0.669131 0.000000
    outer loop
      vertex 16.464795 -18.286007 80.000000
      vertex 19.906874 -14.463191 0.000000
      vertex 16.464795 -18.286007 0.000000
    endloop
  endfacet
  facet normal -0.587785 0.809017 0.000000
    outer loop
      vertex 16.464795 -18.286007 80.000000
      vertex 16.464795 -18.286007 0.000000
      vertex 12.303125 -21.309638 80.000000
    endloop
  endfacet
  facet normal -0.587785 0.809017 0.000000
    outer loop
      vertex 12.303125 -21.309638 80.000000
      vertex 16.464795 -18.286007 0.000000
      vertex 12.303125 -21.309638 0.000000
    endloop
  endfacet
  facet normal -0.406736 0.913546 0.000000
    outer loop
      vertex 12.303125 -21.309638 80.000000
      vertex 12.303125 -21.309638 0.000000
      vertex 7.603749 -23.401934 80.000000
    endloop
  endfacet
  facet normal -0.406736 0.913546 0.000000
    outer loop
      vertex 7.603749 -23.401934 80.000000
      vertex 12.303125 -21.309638 0.000000
      vertex 7.603749 -23.401934 0.000000
    endloop
  endfacet
  facet normal -0.207912 0.978148 0.000000
    outer loop
      vertex 7.603749 -23.401934 80.000000
      vertex 7.603749 -23.401934 0.000000
      vertex 2.572053 -24.471454 80.000000
    endloop
  endfacet
  facet normal -0.207912 0.978148 0.000000
    outer loop
      vertex 4.000000 -24.167934 9.000000
      vertex 7.603749 -23.401934 0.000000
      vertex 4.000000 -24.167934 0.000000
    endloop
  endfacet
  facet normal -0.207912 0.978148 0.000000
    outer loop
      vertex 2.572053 -24.471454 80.000000
      vertex 7.603749 -23.401934 0.000000
      vertex 4.000000 -24.167934 9.000000
    endloop
  endfacet
  facet normal -0.207912 0.978148 0.000000
    outer loop
      vertex 2.572053 -24.471454 9.000000
      vertex 2.572053 -24.471454 80.000000
      vertex 4.000000 -24.167934 9.000000
    endloop
  endfacet
  facet normal -1.000000 0.000000 0.000000
    outer loop
      vertex 4.000000 -24.167934 9.000000
      vertex 4.000000 -24.167934 0.000000
      vertex 4.000000 -29.000000 9.000000
    endloop
  endfacet
  facet normal -1.000000 0.000000 0.000000
    outer loop
      vertex 4.000000 -29.000000 9.000000
      vertex 4.000000 -24.167934 0.000000
      vertex 4.000000 -29.000000 0.000000
    endloop
  endfacet
  facet normal 0.000000 1.000000 0.000000
    outer loop
      vertex 4.000000 -29.000000 9.000000
      vertex 4.000000 -29.000000 0.000000
      vertex -4.000000 -29.000000 9.000000
    endloop
  endfacet
  facet normal 0.000000 1.000000 -0.000000
    outer loop
      vertex -4.000000 -29.000000 9.000000
      vertex 4.000000 -29.000000 0.000000
      vertex -4.000000 -29.000000 0.000000
    endloop
  endfacet
  facet normal 1.000000 0.000000 0.000000
    outer loop
      vertex -4.000000 -24.167934 0.000000
      vertex -4.000000 -24.167934 9.000000
      vertex -4.000000 -29.000000 9.000000
    endloop
  endfacet
  facet normal 1.000000 0.000000 0.000000
    outer loop
      vertex -4.000000 -29.000000 0.000000
      vertex -4.000000 -24.167934 0.000000
      vertex -4.000000 -29.000000 9.000000
    endloop
  endfacet
  facet normal 0.207912 0.978148 -0.000000
    outer loop
      vertex -2.572053 -24.471454 80.000000
      vertex -2.572053 -24.471454 9.000000
      vertex -7.603749 -23.401934 80.000000
    endloop
  endfacet
  facet normal 0.207912 0.978148 0.000000
    outer loop
      vertex -7.603749 -23.401934 80.000000
      vertex -2.572053 -24.471454 9.000000
      vertex -4.000000 -24.167934 9.000000
    endloop
  endfacet
  facet normal 0.207912 0.978148 0.000000
    outer loop
      vertex -7.603749 -23.401934 80.000000
      vertex -4.000000 -24.167934 9.000000
      vertex -4.000000 -24.167934 0.000000
    endloop
  endfacet
  facet normal 0.207912 0.978148 -0.000000
    outer loop
      vertex -7.603749 -23.401934 80.000000
      vertex -4.000000 -24.167934 0.000000
      vertex -7.603749 -23.401934 0.000000
    endloop
  endfacet
  facet normal 0.406736 0.913546 -0.000000
    outer loop
      vertex -7.603749 -23.401934 80.000000
      vertex -7.603749 -23.401934 0.000000
      vertex -12.303125 -21.309638 80.000000
    endloop
  endfacet
  facet normal 0.406736 0.913546 -0.000000
    outer loop
      vertex -12.303125 -21.309638 80.000000
      vertex -7.603749 -23.401934 0.000000
      vertex -12.303125 -21.309638 0.000000
    endloop
  endfacet
  facet normal 0.587785 0.809017 -0.000000
    outer loop
      vertex -12.303125 -21.309638 80.000000
      vertex -12.303125 -21.309638 0.000000
      vertex -16.464795 -18.286007 80.000000
    endloop
  endfacet
  facet normal 0.587785 0.809017 -0.000000
    outer loop
      vertex -16.464795 -18.286007 80.000000
      vertex -12.303125 -21.309638 0.000000
      vertex -16.464795 -18.286007 0.000000
    endloop
  endfacet
  facet normal 0.743145 0.669131 0.000000
    outer loop
      vertex -19.906874 -14.463191 80.000000
      vertex -16.464795 -18.286007 80.000000
      vertex -16.464795 -18.286007 0.000000
    endloop
  endfacet
  facet normal 0.743145 0.669131 0.000000
    outer loop
      vertex -19.906874 -14.463191 0.000000
      vertex -19.906874 -14.463191 80.000000
      vertex -16.464795 -18.286007 0.000000
    endloop
  endfacet
  facet normal 0.866025 0.500000 0.000000
    outer loop
      vertex -22.478928 -10.008264 80.000000
      vertex -19.906874 -14.463191 80.000000
      vertex -19.906874 -14.463191 0.000000
    endloop
  endfacet
  facet normal 0.866025 0.500000 0.000000
    outer loop
      vertex -22.478928 -10.008264 0.000000
      vertex -22.478928 -10.008264 80.000000
      vertex -19.906874 -14.463191 0.000000
    endloop
  endfacet
  facet normal 0.951057 0.309017 0.000000
    outer loop
      vertex -24.068544 -5.115927 80.000000
      vertex -22.478928 -10.008264 80.000000
      vertex -22.478928 -10.008264 0.000000
    endloop
  endfacet
  facet normal 0.951057 0.309017 0.000000
    outer loop
      vertex -24.068544 -5.115927 0.000000
      vertex -24.068544 -5.115927 80.000000
      vertex -22.478928 -10.008264 0.000000
    endloop
  endfacet
  facet normal 0.000000 -0.000000 1.000000
    outer loop
      vertex -41.000000 16.982756 80.000000
      vertex -41.000000 -16.982756 80.000000
      vertex -16.982756 -41.000000 80.000000
    endloop
  endfacet
  facet normal -0.000000 -0.000000 1.000000
    outer loop
      vertex -28.000000 -3.500000 80.000000
      vertex -41.000000 16.982756 80.000000
      vertex -16.982756 -41.000000 80.000000
    endloop
  endfacet
  facet normal 0.000000 0.000000 1.000000
    outer loop
      vertex 24.068544 5.115927 80.000000
      vertex 28.000000 3.500000 80.000000
      vertex 22.478928 10.008264 80.000000
    endloop
  endfacet
  facet normal 0.000000 -0.000000 1.000000
    outer loop
      vertex -16.982756 41.000000 80.000000
      vertex -41.000000 16.982756 80.000000
      vertex 16.982756 41.000000 80.000000
    endloop
  endfacet
  facet normal -0.000000 -0.000000 1.000000
    outer loop
      vertex -19.906874 -14.463191 80.000000
      vertex -28.000000 -3.500000 80.000000
      vertex -16.982756 -41.000000 80.000000
    endloop
  endfacet
  facet normal -0.000000 0.000000 1.000000
    outer loop
      vertex -28.000000 3.500000 80.000000
      vertex -41.000000 16.982756 80.000000
      vertex -28.000000 -3.500000 80.000000
    endloop
  endfacet
  facet normal -0.000000 -0.000000 1.000000
    outer loop
      vertex -2.572053 -24.471454 80.000000
      vertex -7.603749 -23.401934 80.000000
      vertex 16.982756 -41.000000 80.000000
    endloop
  endfacet
  facet normal -0.000000 0.000000 1.000000
    outer loop
      vertex -24.068544 5.115927 80.000000
      vertex -41.000000 16.982756 80.000000
      vertex -24.238385 3.500000 80.000000
    endloop
  endfacet
  facet normal -0.000000 0.000000 1.000000
    outer loop
      vertex -19.906874 14.463191 80.000000
      vertex -41.000000 16.982756 80.000000
      vertex -22.478928 10.008264 80.000000
    endloop
  endfacet
  facet normal 0.000000 0.000000 1.000000
    outer loop
      vertex 22.478928 10.008264 80.000000
      vertex 28.000000 3.500000 80.000000
      vertex 19.906874 14.463191 80.000000
    endloop
  endfacet
  facet normal 0.000000 0.000000 1.000000
    outer loop
      vertex -12.303125 21.309638 80.000000
      vertex -7.603749 23.401934 80.000000
      vertex 16.982756 41.000000 80.000000
    endloop
  endfacet
  facet normal 0.000000 0.000000 1.000000
    outer loop
      vertex 24.238385 3.500000 80.000000
      vertex 28.000000 3.500000 80.000000
      vertex 24.068544 5.115927 80.000000
    endloop
  endfacet
  facet normal 0.000000 0.000000 1.000000
    outer loop
      vertex -12.303125 21.309638 80.000000
      vertex -41.000000 16.982756 80.000000
      vertex -16.464795 18.286007 80.000000
    endloop
  endfacet
  facet normal 0.000000 0.000000 1.000000
    outer loop
      vertex 7.603749 23.401934 80.000000
      vertex 12.303125 21.309638 80.000000
      vertex 41.000000 16.982756 80.000000
    endloop
  endfacet
  facet normal 0.000000 0.000000 1.000000
    outer loop
      vertex 16.982756 41.000000 80.000000
      vertex -41.000000 16.982756 80.000000
      vertex -12.303125 21.309638 80.000000
    endloop
  endfacet
  facet normal 0.000000 0.000000 1.000000
    outer loop
      vertex 12.303125 21.309638 80.000000
      vertex 16.464795 18.286007 80.000000
      vertex 41.000000 16.982756 80.000000
    endloop
  endfacet
  facet normal 0.000000 0.000000 1.000000
    outer loop
      vertex 16.982756 41.000000 80.000000
      vertex -7.603749 23.401934 80.000000
      vertex -2.572053 24.471454 80.000000
    endloop
  endfacet
  facet normal 0.000000 -0.000000 1.000000
    outer loop
      vertex 16.982756 41.000000 80.000000
      vertex 2.572053 24.471454 80.000000
      vertex 41.000000 16.982756 80.000000
    endloop
  endfacet
  facet normal 0.000000 0.000000 1.000000
    outer loop
      vertex 16.982756 41.000000 80.000000
      vertex -2.572053 24.471454 80.000000
      vertex 2.572053 24.471454 80.000000
    endloop
  endfacet
  facet normal 0.000000 0.000000 1.000000
    outer loop
      vertex 2.572053 24.471454 80.000000
      vertex 7.603749 23.401934 80.000000
      vertex 41.000000 16.982756 80.000000
    endloop
  endfacet
  facet normal 0.000000 -0.000000 1.000000
    outer loop
      vertex 24.068544 -5.115927 80.000000
      vertex 22.478928 -10.008264 80.000000
      vertex 41.000000 -16.982756 80.000000
    endloop
  endfacet
  facet normal 0.000000 -0.000000 1.000000
    outer loop
      vertex 28.000000 3.500000 80.000000
      vertex 28.000000 -3.500000 80.000000
      vertex 41.000000 -16.982756 80.000000
    endloop
  endfacet
  facet normal 0.000000 -0.000000 1.000000
    outer loop
      vertex 22.478928 -10.008264 80.000000
      vertex 19.906874 -14.463191 80.000000
      vertex 41.000000 -16.982756 80.000000
    endloop
  endfacet
  facet normal 0.000000 0.000000 1.000000
    outer loop
      vertex -22.478928 -10.008264 80.000000
      vertex -24.068544 -5.115927 80.000000
      vertex -28.000000 -3.500000 80.000000
    endloop
  endfacet
  facet normal 0.000000 0.000000 1.000000
    outer loop
      vertex 41.000000 16.982756 80.000000
      vertex 28.000000 3.500000 80.000000
      vertex 41.000000 -16.982756 80.000000
    endloop
  endfacet
  facet normal 0.000000 0.000000 1.000000
    outer loop
      vertex 41.000000 16.982756 80.000000
      vertex 19.906874 14.463191 80.000000
      vertex 28.000000 3.500000 80.000000
    endloop
  endfacet
  facet normal 0.000000 -0.000000 1.000000
    outer loop
      vertex 28.000000 -3.500000 80.000000
      vertex 24.238385 -3.500000 80.000000
      vertex 41.000000 -16.982756 80.000000
    endloop
  endfacet
  facet normal 0.000000 -0.000000 1.000000
    outer loop
      vertex 24.238385 -3.500000 80.000000
      vertex 24.068544 -5.115927 80.000000
      vertex 41.000000 -16.982756 80.000000
    endloop
  endfacet
  facet normal 0.000000 -0.000000 1.000000
    outer loop
      vertex 2.572053 -24.471454 80.000000
      vertex -2.572053 -24.471454 80.000000
      vertex 16.982756 -41.000000 80.000000
    endloop
  endfacet
  facet normal 0.000000 0.000000 1.000000
    outer loop
      vertex -19.906874 14.463191 80.000000
      vertex -16.464795 18.286007 80.000000
      vertex -41.000000 16.982756 80.000000
    endloop
  endfacet
  facet normal -0.000000 0.000000 1.000000
    outer loop
      vertex 41.000000 -16.982756 80.000000
      vertex 19.906874 -14.463191 80.000000
      vertex 16.982756 -41.000000 80.000000
    endloop
  endfacet
  facet normal 0.000000 0.000000 1.000000
    outer loop
      vertex 19.906874 -14.463191 80.000000
      vertex 16.464795 -18.286007 80.000000
      vertex 16.982756 -41.000000 80.000000
    endloop
  endfacet
  facet normal 0.000000 -0.000000 1.000000
    outer loop
      vertex 16.464795 -18.286007 80.000000
      vertex 12.303125 -21.309638 80.000000
      vertex 16.982756 -41.000000 80.000000
    endloop
  endfacet
  facet normal 0.000000 -0.000000 1.000000
    outer loop
      vertex 12.303125 -21.309638 80.000000
      vertex 7.603749 -23.401934 80.000000
      vertex 16.982756 -41.000000 80.000000
    endloop
  endfacet
  facet normal 0.000000 -0.000000 1.000000
    outer loop
      vertex 7.603749 -23.401934 80.000000
      vertex 2.572053 -24.471454 80.000000
      vertex 16.982756 -41.000000 80.000000
    endloop
  endfacet
  facet normal 0.000000 0.000000 1.000000
    outer loop
      vertex -19.906874 -14.463191 80.000000
      vertex -22.478928 -10.008264 80.000000
      vertex -28.000000 -3.500000 80.000000
    endloop
  endfacet
  facet normal 0.000000 0.000000 1.000000
    outer loop
      vertex 16.982756 -41.000000 80.000000
      vertex -7.603749 -23.401934 80.000000
      vertex -16.982756 -41.000000 80.000000
    endloop
  endfacet
  facet normal -0.000000 0.000000 1.000000
    outer loop
      vertex -7.603749 -23.401934 80.000000
      vertex -12.303125 -21.309638 80.000000
      vertex -16.982756 -41.000000 80.000000
    endloop
  endfacet
  facet normal -0.000000 0.000000 1.000000
    outer loop
      vertex -12.303125 -21.309638 80.000000
      vertex -16.464795 -18.286007 80.000000
      vertex -16.982756 -41.000000 80.000000
    endloop
  endfacet
  facet normal -0.000000 0.000000 1.000000
    outer loop
      vertex -16.464795 -18.286007 80.000000
      vertex -19.906874 -14.463191 80.000000
      vertex -16.982756 -41.000000 80.000000
    endloop
  endfacet
  facet normal 0.000000 0.000000 1.000000
    outer loop
      vertex -28.000000 3.500000 80.000000
      vertex -24.238385 3.500000 80.000000
      vertex -41.000000 16.982756 80.000000
    endloop
  endfacet
  facet normal 0.000000 -0.000000 1.000000
    outer loop
      vertex -24.238385 -3.500000 80.000000
      vertex -28.000000 -3.500000 80.000000
      vertex -24.068544 -5.115927 80.000000
    endloop
  endfacet
  facet normal 0.000000 0.000000 1.000000
    outer loop
      vertex -24.068544 5.115927 80.000000
      vertex -22.478928 10.008264 80.000000
      vertex -41.000000 16.982756 80.000000
    endloop
  endfacet
  facet normal 0.000000 0.000000 1.000000
    outer loop
      vertex 16.464795 18.286007 80.000000
      vertex 19.906874 14.463191 80.000000
      vertex 41.000000 16.982756 80.000000
    endloop
  endfacet
  facet normal 0.000000 -0.000000 1.000000
    outer loop
      vertex -28.000000 3.500000 88.000000
      vertex -28.000000 -3.500000 88.000000
      vertex -24.238385 -3.500000 88.000000
    endloop
  endfacet
  facet normal 0.000000 0.000000 1.000000
    outer loop
      vertex -24.238385 3.500000 88.000000
      vertex -28.000000 3.500000 88.000000
      vertex -24.606250 0.000000 88.000000
    endloop
  endfacet
  facet normal -0.000000 -0.000000 1.000000
    outer loop
      vertex -24.606250 0.000000 88.000000
      vertex -28.000000 3.500000 88.000000
      vertex -24.238385 -3.500000 88.000000
    endloop
  endfacet
  facet normal 0.000000 1.000000 0.000000
    outer loop
      vertex -28.000000 3.500000 80.000000
      vertex -28.000000 3.500000 88.000000
      vertex -24.238385 3.500000 80.000000
    endloop
  endfacet
  facet normal 0.000000 1.000000 0.000000
    outer loop
      vertex -24.238385 3.500000 80.000000
      vertex -28.000000 3.500000 88.000000
      vertex -24.238385 3.500000 88.000000
    endloop
  endfacet
  facet normal 0.000000 -1.000000 0.000000
    outer loop
      vertex -28.000000 -3.500000 88.000000
      vertex -28.000000 -3.500000 80.000000
      vertex -24.238385 -3.500000 80.000000
    endloop
  endfacet
  facet normal 0.000000 -1.000000 0.000000
    outer loop
      vertex -24.238385 -3.500000 88.000000
      vertex -28.000000 -3.500000 88.000000
      vertex -24.238385 -3.500000 80.000000
    endloop
  endfacet
  facet normal 0.000000 -1.000000 0.000000
    outer loop
      vertex 2.572053 24.471454 9.000000
      vertex 2.572053 24.471454 80.000000
      vertex -2.572053 24.471454 80.000000
    endloop
  endfacet
  facet normal -0.000000 -1.000000 -0.000000
    outer loop
      vertex -2.572053 24.471454 9.000000
      vertex 2.572053 24.471454 9.000000
      vertex -2.572053 24.471454 80.000000
    endloop
  endfacet
  facet normal 0.000000 0.000000 -1.000000
    outer loop
      vertex 4.000000 29.000000 9.000000
      vertex 4.000000 24.167934 9.000000
      vertex -4.000000 29.000000 9.000000
    endloop
  endfacet
  facet normal 0.000000 0.000000 -1.000000
    outer loop
      vertex -4.000000 29.000000 9.000000
      vertex 4.000000 24.167934 9.000000
      vertex 2.572053 24.471454 9.000000
    endloop
  endfacet
  facet normal 0.000000 0.000000 -1.000000
    outer loop
      vertex -4.000000 29.000000 9.000000
      vertex 2.572053 24.471454 9.000000
      vertex -2.572053 24.471454 9.000000
    endloop
  endfacet
  facet normal 0.000000 0.000000 -1.000000
    outer loop
      vertex -2.572053 24.471454 9.000000
      vertex -4.000000 24.167934 9.000000
      vertex -4.000000 29.000000 9.000000
    endloop
  endfacet
  facet normal 0.000000 1.000000 0.000000
    outer loop
      vertex 24.238385 3.500000 80.000000
      vertex 24.238385 3.500000 88.000000
      vertex 28.000000 3.500000 80.000000
    endloop
  endfacet
  facet normal 0.000000 1.000000 0.000000
    outer loop
      vertex 28.000000 3.500000 80.000000
      vertex 24.238385 3.500000 88.000000
      vertex 28.000000 3.500000 88.000000
    endloop
  endfacet
  facet normal 0.000000 -0.000000 1.000000
    outer loop
      vertex 24.606250 0.000000 88.000000
      vertex 24.238385 -3.500000 88.000000
      vertex 28.000000 -3.500000 88.000000
    endloop
  endfacet
  facet normal 0.000000 0.000000 1.000000
    outer loop
      vertex 24.238385 3.500000 88.000000
      vertex 24.606250 0.000000 88.000000
      vertex 28.000000 3.500000 88.000000
    endloop
  endfacet
  facet normal 0.000000 0.000000 1.000000
    outer loop
      vertex 28.000000 3.500000 88.000000
      vertex 24.606250 0.000000 88.000000
      vertex 28.000000 -3.500000 88.000000
    endloop
  endfacet
  facet normal 0.000000 -1.000000 0.000000
    outer loop
      vertex 24.238385 -3.500000 88.000000
      vertex 24.238385 -3.500000 80.000000
      vertex 28.000000 -3.500000 80.000000
    endloop
  endfacet
  facet normal 0.000000 -1.000000 0.000000
    outer loop
      vertex 28.000000 -3.500000 88.000000
      vertex 24.238385 -3.500000 88.000000
      vertex 28.000000 -3.500000 80.000000
    endloop
  endfacet
  facet normal 0.000000 1.000000 0.000000
    outer loop
      vertex 2.572053 -24.471454 80.000000
      vertex 2.572053 -24.471454 9.000000
      vertex -2.572053 -24.471454 80.000000
    endloop
  endfacet
  facet normal 0.000000 1.000000 -0.000000
    outer loop
      vertex -2.572053 -24.471454 80.000000
      vertex 2.572053 -24.471454 9.000000
      vertex -2.572053 -24.471454 9.000000
    endloop
  endfacet
  facet normal 0.000000 0.000000 -1.000000
    outer loop
      vertex -2.572053 -24.471454 9.000000
      vertex 2.572053 -24.471454 9.000000
      vertex 4.000000 -29.000000 9.000000
    endloop
  endfacet
  facet normal 0.000000 0.000000 -1.000000
    outer loop
      vertex 4.000000 -29.000000 9.000000
      vertex 2.572053 -24.471454 9.000000
      vertex 4.000000 -24.167934 9.000000
    endloop
  endfacet
  facet normal 0.000000 0.000000 -1.000000
    outer loop
      vertex -2.572053 -24.471454 9.000000
      vertex 4.000000 -29.000000 9.000000
      vertex -4.000000 -24.167934 9.000000
    endloop
  endfacet
  facet normal 0.000000 0.000000 -1.000000
    outer loop
      vertex 4.000000 -29.000000 9.000000
      vertex -4.000000 -29.000000 9.000000
      vertex -4.000000 -24.167934 9.000000
    endloop
  endfacet
  facet normal -1.000000 0.000000 0.000000
    outer loop
      vertex -28.000000 -3.500000 80.000000
      vertex -28.000000 -3.500000 88.000000
      vertex -28.000000 3.500000 80.000000
    endloop
  endfacet
  facet normal -1.000000 0.000000 0.000000
    outer loop
      vertex -28.000000 3.500000 80.000000
      vertex -28.000000 -3.500000 88.000000
      vertex -28.000000 3.500000 88.000000
    endloop
  endfacet
  facet normal 1.000000 -0.000000 0.000000
    outer loop
      vertex 28.000000 -3.500000 88.000000
      vertex 28.000000 -3.500000 80.000000
      vertex 28.000000 3.500000 80.000000
    endloop
  endfacet
  facet normal 1.000000 -0.000000 0.000000
    outer loop
      vertex 28.000000 3.500000 88.000000
      vertex 28.000000 -3.500000 88.000000
      vertex 28.000000 3.500000 80.000000
    endloop
  endfacet
endsolid OpenSCAD_Model
