solid Default
  facet normal -1.000000e+00 0.000000e+00 0.000000e+00
    outer loop
      vertex -1.700000e+01 -4.250000e+01 0.000000e+00
      vertex -1.700000e+01 -4.250000e+01 2.000000e+00
      vertex -1.700000e+01 2.750000e+01 0.000000e+00
    endloop
  endfacet
  facet normal -1.000000e+00 0.000000e+00 0.000000e+00
    outer loop
      vertex -1.700000e+01 2.750000e+01 0.000000e+00
      vertex -1.700000e+01 -4.250000e+01 2.000000e+00
      vertex -1.700000e+01 2.750000e+01 2.000000e+00
    endloop
  endfacet
  facet normal 0.000000e+00 -1.000000e+00 0.000000e+00
    outer loop
      vertex -1.700000e+01 -4.250000e+01 2.000000e+00
      vertex -1.700000e+01 -4.250000e+01 0.000000e+00
      vertex -2.000000e+00 -4.250000e+01 0.000000e+00
    endloop
  endfacet
  facet normal 0.000000e+00 -1.000000e+00 0.000000e+00
    outer loop
      vertex -2.000000e+00 -4.250000e+01 2.000000e+00
      vertex -1.700000e+01 -4.250000e+01 2.000000e+00
      vertex -2.000000e+00 -4.250000e+01 0.000000e+00
    endloop
  endfacet
  facet normal 0.000000e+00 0.000000e+00 -1.000000e+00
    outer loop
      vertex -1.700000e+01 -4.250000e+01 0.000000e+00
      vertex -1.700000e+01 2.750000e+01 0.000000e+00
      vertex -2.000000e+00 -4.250000e+01 0.000000e+00
    endloop
  endfacet
  facet normal 0.000000e+00 0.000000e+00 -1.000000e+00
    outer loop
      vertex -2.000000e+00 -4.250000e+01 0.000000e+00
      vertex -1.700000e+01 2.750000e+01 0.000000e+00
      vertex -2.000000e+00 2.750000e+01 0.000000e+00
    endloop
  endfacet
  facet normal 0.000000e+00 1.000000e+00 0.000000e+00
    outer loop
      vertex -1.700000e+01 2.750000e+01 0.000000e+00
      vertex -1.700000e+01 2.750000e+01 2.000000e+00
      vertex -2.000000e+00 2.750000e+01 0.000000e+00
    endloop
  endfacet
  facet normal 0.000000e+00 1.000000e+00 0.000000e+00
    outer loop
      vertex -2.000000e+00 2.750000e+01 0.000000e+00
      vertex -1.700000e+01 2.750000e+01 2.000000e+00
      vertex -2.000000e+00 2.750000e+01 2.000000e+00
    endloop
  endfacet
  facet normal 0.000000e+00 0.000000e+00 1.000000e+00
    outer loop
      vertex -1.700000e+01 2.750000e+01 2.000000e+00
      vertex -1.700000e+01 -4.250000e+01 2.000000e+00
      vertex -2.000000e+00 -4.250000e+01 2.000000e+00
    endloop
  endfacet
  facet normal 0.000000e+00 0.000000e+00 1.000000e+00
    outer loop
      vertex -2.000000e+00 2.750000e+01 2.000000e+00
      vertex -1.700000e+01 2.750000e+01 2.000000e+00
      vertex -2.000000e+00 -4.250000e+01 2.000000e+00
    endloop
  endfacet
  facet normal 1.000000e+00 0.000000e+00 0.000000e+00
    outer loop
      vertex -2.000000e+00 -4.250000e+01 2.000000e+00
      vertex -2.000000e+00 -4.250000e+01 0.000000e+00
      vertex -2.000000e+00 2.750000e+01 0.000000e+00
    endloop
  endfacet
  facet normal 1.000000e+00 0.000000e+00 0.000000e+00
    outer loop
      vertex -2.000000e+00 2.750000e+01 2.000000e+00
      vertex -2.000000e+00 -4.250000e+01 2.000000e+00
      vertex -2.000000e+00 2.750000e+01 0.000000e+00
    endloop
  endfacet
  facet normal -1.000000e+00 0.000000e+00 0.000000e+00
    outer loop
      vertex -1.700000e+01 3.250000e+01 0.000000e+00
      vertex -1.700000e+01 3.250000e+01 2.000000e+00
      vertex -1.700000e+01 4.250000e+01 0.000000e+00
    endloop
  endfacet
  facet normal -1.000000e+00 0.000000e+00 0.000000e+00
    outer loop
      vertex -1.700000e+01 4.250000e+01 0.000000e+00
      vertex -1.700000e+01 3.250000e+01 2.000000e+00
      vertex -1.700000e+01 4.250000e+01 2.000000e+00
    endloop
  endfacet
  facet normal 0.000000e+00 -1.000000e+00 0.000000e+00
    outer loop
      vertex -1.700000e+01 3.250000e+01 2.000000e+00
      vertex -1.700000e+01 3.250000e+01 0.000000e+00
      vertex -2.000000e+00 3.250000e+01 0.000000e+00
    endloop
  endfacet
  facet normal 0.000000e+00 -1.000000e+00 0.000000e+00
    outer loop
      vertex -2.000000e+00 3.250000e+01 2.000000e+00
      vertex -1.700000e+01 3.250000e+01 2.000000e+00
      vertex -2.000000e+00 3.250000e+01 0.000000e+00
    endloop
  endfacet
  facet normal 0.000000e+00 0.000000e+00 -1.000000e+00
    outer loop
      vertex -1.700000e+01 3.250000e+01 0.000000e+00
      vertex -1.700000e+01 4.250000e+01 0.000000e+00
      vertex -2.000000e+00 3.250000e+01 0.000000e+00
    endloop
  endfacet
  facet normal 0.000000e+00 0.000000e+00 -1.000000e+00
    outer loop
      vertex -2.000000e+00 3.250000e+01 0.000000e+00
      vertex -1.700000e+01 4.250000e+01 0.000000e+00
      vertex -2.000000e+00 4.250000e+01 0.000000e+00
    endloop
  endfacet
  facet normal 0.000000e+00 1.000000e+00 0.000000e+00
    outer loop
      vertex -1.700000e+01 4.250000e+01 0.000000e+00
      vertex -1.700000e+01 4.250000e+01 2.000000e+00
      vertex -2.000000e+00 4.250000e+01 0.000000e+00
    endloop
  endfacet
  facet normal 0.000000e+00 1.000000e+00 0.000000e+00
    outer loop
      vertex -2.000000e+00 4.250000e+01 0.000000e+00
      vertex -1.700000e+01 4.250000e+01 2.000000e+00
      vertex -2.000000e+00 4.250000e+01 2.000000e+00
    endloop
  endfacet
  facet normal 0.000000e+00 0.000000e+00 1.000000e+00
    outer loop
      vertex -1.700000e+01 4.250000e+01 2.000000e+00
      vertex -1.700000e+01 3.250000e+01 2.000000e+00
      vertex -2.000000e+00 3.250000e+01 2.000000e+00
    endloop
  endfacet
  facet normal 0.000000e+00 0.000000e+00 1.000000e+00
    outer loop
      vertex -2.000000e+00 4.250000e+01 2.000000e+00
      vertex -1.700000e+01 4.250000e+01 2.000000e+00
      vertex -2.000000e+00 3.250000e+01 2.000000e+00
    endloop
  endfacet
  facet normal 1.000000e+00 0.000000e+00 0.000000e+00
    outer loop
      vertex -2.000000e+00 3.250000e+01 2.000000e+00
      vertex -2.000000e+00 3.250000e+01 0.000000e+00
      vertex -2.000000e+00 4.250000e+01 0.000000e+00
    endloop
  endfacet
  facet normal 1.000000e+00 0.000000e+00 0.000000e+00
    outer loop
      vertex -2.000000e+00 4.250000e+01 2.000000e+00
      vertex -2.000000e+00 3.250000e+01 2.000000e+00
      vertex -2.000000e+00 4.250000e+01 0.000000e+00
    endloop
  endfacet
  facet normal -1.000000e+00 0.000000e+00 0.000000e+00
    outer loop
      vertex 2.000000e+00 -4.250000e+01 0.000000e+00
      vertex 2.000000e+00 -4.250000e+01 2.000000e+00
      vertex 2.000000e+00 2.750000e+01 0.000000e+00
    endloop
  endfacet
  facet normal -1.000000e+00 0.000000e+00 0.000000e+00
    outer loop
      vertex 2.000000e+00 2.750000e+01 0.000000e+00
      vertex 2.000000e+00 -4.250000e+01 2.000000e+00
      vertex 2.000000e+00 2.750000e+01 2.000000e+00
    endloop
  endfacet
  facet normal 0.000000e+00 -1.000000e+00 0.000000e+00
    outer loop
      vertex 2.000000e+00 -4.250000e+01 2.000000e+00
      vertex 2.000000e+00 -4.250000e+01 0.000000e+00
      vertex 1.700000e+01 -4.250000e+01 0.000000e+00
    endloop
  endfacet
  facet normal 0.000000e+00 -1.000000e+00 0.000000e+00
    outer loop
      vertex 1.700000e+01 -4.250000e+01 2.000000e+00
      vertex 2.000000e+00 -4.250000e+01 2.000000e+00
      vertex 1.700000e+01 -4.250000e+01 0.000000e+00
    endloop
  endfacet
  facet normal 0.000000e+00 0.000000e+00 -1.000000e+00
    outer loop
      vertex 2.000000e+00 -4.250000e+01 0.000000e+00
      vertex 2.000000e+00 2.750000e+01 0.000000e+00
      vertex 1.700000e+01 -4.250000e+01 0.000000e+00
    endloop
  endfacet
  facet normal 0.000000e+00 0.000000e+00 -1.000000e+00
    outer loop
      vertex 1.700000e+01 -4.250000e+01 0.000000e+00
      vertex 2.000000e+00 2.750000e+01 0.000000e+00
      vertex 1.700000e+01 2.750000e+01 0.000000e+00
    endloop
  endfacet
  facet normal 0.000000e+00 1.000000e+00 0.000000e+00
    outer loop
      vertex 2.000000e+00 2.750000e+01 0.000000e+00
      vertex 2.000000e+00 2.750000e+01 2.000000e+00
      vertex 1.700000e+01 2.750000e+01 0.000000e+00
    endloop
  endfacet
  facet normal 0.000000e+00 1.000000e+00 0.000000e+00
    outer loop
      vertex 1.700000e+01 2.750000e+01 0.000000e+00
      vertex 2.000000e+00 2.750000e+01 2.000000e+00
      vertex 1.700000e+01 2.750000e+01 2.000000e+00
    endloop
  endfacet
  facet normal 0.000000e+00 0.000000e+00 1.000000e+00
    outer loop
      vertex 2.000000e+00 2.750000e+01 2.000000e+00
      vertex 2.000000e+00 -4.250000e+01 2.000000e+00
      vertex 1.700000e+01 -4.250000e+01 2.000000e+00
    endloop
  endfacet
  facet normal 0.000000e+00 0.000000e+00 1.000000e+00
    outer loop
      vertex 1.700000e+01 2.750000e+01 2.000000e+00
      vertex 2.000000e+00 2.750000e+01 2.000000e+00
      vertex 1.700000e+01 -4.250000e+01 2.000000e+00
    endloop
  endfacet
  facet normal 1.000000e+00 0.000000e+00 0.000000e+00
    outer loop
      vertex 1.700000e+01 -4.250000e+01 2.000000e+00
      vertex 1.700000e+01 -4.250000e+01 0.000000e+00
      vertex 1.700000e+01 2.750000e+01 0.000000e+00
    endloop
  endfacet
  facet normal 1.000000e+00 0.000000e+00 0.000000e+00
    outer loop
      vertex 1.700000e+01 2.750000e+01 2.000000e+00
      vertex 1.700000e+01 -4.250000e+01 2.000000e+00
      vertex 1.700000e+01 2.750000e+01 0.000000e+00
    endloop
  endfacet
  facet normal -1.000000e+00 0.000000e+00 0.000000e+00
    outer loop
      vertex 2.000000e+00 3.250000e+01 0.000000e+00
      vertex 2.000000e+00 3.250000e+01 2.000000e+00
      vertex 2.000000e+00 4.250000e+01 0.000000e+00
    endloop
  endfacet
  facet normal -1.000000e+00 0.000000e+00 0.000000e+00
    outer loop
      vertex 2.000000e+00 4.250000e+01 0.000000e+00
      vertex 2.000000e+00 3.250000e+01 2.000000e+00
      vertex 2.000000e+00 4.250000e+01 2.000000e+00
    endloop
  endfacet
  facet normal 0.000000e+00 -1.000000e+00 0.000000e+00
    outer loop
      vertex 2.000000e+00 3.250000e+01 2.000000e+00
      vertex 2.000000e+00 3.250000e+01 0.000000e+00
      vertex 1.700000e+01 3.250000e+01 0.000000e+00
    endloop
  endfacet
  facet normal 0.000000e+00 -1.000000e+00 0.000000e+00
    outer loop
      vertex 1.700000e+01 3.250000e+01 2.000000e+00
      vertex 2.000000e+00 3.250000e+01 2.000000e+00
      vertex 1.700000e+01 3.250000e+01 0.000000e+00
    endloop
  endfacet
  facet normal 0.000000e+00 0.000000e+00 -1.000000e+00
    outer loop
      vertex 2.000000e+00 3.250000e+01 0.000000e+00
      vertex 2.000000e+00 4.250000e+01 0.000000e+00
      vertex 1.700000e+01 3.250000e+01 0.000000e+00
    endloop
  endfacet
  facet normal 0.000000e+00 0.000000e+00 -1.000000e+00
    outer loop
      vertex 1.700000e+01 3.250000e+01 0.000000e+00
      vertex 2.000000e+00 4.250000e+01 0.000000e+00
      vertex 1.700000e+01 4.250000e+01 0.000000e+00
    endloop
  endfacet
  facet normal 0.000000e+00 1.000000e+00 0.000000e+00
    outer loop
      vertex 2.000000e+00 4.250000e+01 0.000000e+00
      vertex 2.000000e+00 4.250000e+01 2.000000e+00
      vertex 1.700000e+01 4.250000e+01 0.000000e+00
    endloop
  endfacet
  facet normal 0.000000e+00 1.000000e+00 0.000000e+00
    outer loop
      vertex 1.700000e+01 4.250000e+01 0.000000e+00
      vertex 2.000000e+00 4.250000e+01 2.000000e+00
      vertex 1.700000e+01 4.250000e+01 2.000000e+00
    endloop
  endfacet
  facet normal 0.000000e+00 0.000000e+00 1.000000e+00
    outer loop
      vertex 2.000000e+00 4.250000e+01 2.000000e+00
      vertex 2.000000e+00 3.250000e+01 2.000000e+00
      vertex 1.700000e+01 3.250000e+01 2.000000e+00
    endloop
  endfacet
  facet normal 0.000000e+00 0.000000e+00 1.000000e+00
    outer loop
      vertex 1.700000e+01 4.250000e+01 2.000000e+00
      vertex 2.000000e+00 4.250000e+01 2.000000e+00
      vertex 1.700000e+01 3.250000e+01 2.000000e+00
    endloop
  endfacet
  facet normal 1.000000e+00 0.000000e+00 0.000000e+00
    outer loop
      vertex 1.700000e+01 3.250000e+01 2.000000e+00
      vertex 1.700000e+01 3.250000e+01 0.000000e+00
      vertex 1.700000e+01 4.250000e+01 0.000000e+00
    endloop
  endfacet
  facet normal 1.000000e+00 0.000000e+00 0.000000e+00
    outer loop
      vertex 1.700000e+01 4.250000e+01 2.000000e+00
      vertex 1.700000e+01 3.250000e+01 2.000000e+00
      vertex 1.700000e+01 4.250000e+01 0.000000e+00
    endloop
  endfacet
endsolid Default
