solid Default
  facet normal -1.000000e+00 0.000000e+00 0.000000e+00
    outer loop
      vertex -1.700000e+01 -8.500000e+00 1.000000e+00
      vertex -1.700000e+01 1.150000e+01 1.100000e+01
      vertex -1.700000e+01 1.150000e+01 2.000000e+00
    endloop
  endfacet
  facet normal -1.000000e+00 0.000000e+00 0.000000e+00
    outer loop
      vertex -1.700000e+01 1.150000e+01 1.000000e+00
      vertex -1.700000e+01 -8.500000e+00 1.000000e+00
      vertex -1.700000e+01 1.150000e+01 2.000000e+00
    endloop
  endfacet
  facet normal 0.000000e+00 -4.472140e-01 8.944270e-01
    outer loop
      vertex -2.000000e+00 1.150000e+01 1.100000e+01
      vertex -1.700000e+01 -6.500000e+00 2.000000e+00
      vertex -2.000000e+00 -6.500000e+00 2.000000e+00
    endloop
  endfacet
  facet normal 0.000000e+00 -4.472140e-01 8.944270e-01
    outer loop
      vertex -1.700000e+01 1.150000e+01 1.100000e+01
      vertex -1.700000e+01 -6.500000e+00 2.000000e+00
      vertex -2.000000e+00 1.150000e+01 1.100000e+01
    endloop
  endfacet
  facet normal NaN NaN NaN
    outer loop
      vertex -1.700000e+01 -8.500000e+00 1.000000e+00
      vertex -1.700000e+01 -6.500000e+00 2.000000e+00
      vertex -1.700000e+01 1.150000e+01 1.100000e+01
    endloop
  endfacet
  facet normal -1.000000e+00 0.000000e+00 0.000000e+00
    outer loop
      vertex -1.700000e+01 1.150000e+01 1.000000e+00
      vertex -1.700000e+01 2.750000e+01 0.000000e+00
      vertex -1.700000e+01 -8.500000e+00 1.000000e+00
    endloop
  endfacet
  facet normal -1.000000e+00 0.000000e+00 0.000000e+00
    outer loop
      vertex -1.700000e+01 -4.250000e+01 0.000000e+00
      vertex -1.700000e+01 -4.250000e+01 2.000000e+00
      vertex -1.700000e+01 -8.500000e+00 1.000000e+00
    endloop
  endfacet
  facet normal -1.000000e+00 0.000000e+00 0.000000e+00
    outer loop
      vertex -1.700000e+01 -4.250000e+01 0.000000e+00
      vertex -1.700000e+01 -8.500000e+00 1.000000e+00
      vertex -1.700000e+01 2.750000e+01 0.000000e+00
    endloop
  endfacet
  facet normal -1.000000e+00 0.000000e+00 0.000000e+00
    outer loop
      vertex -1.700000e+01 2.750000e+01 0.000000e+00
      vertex -1.700000e+01 1.150000e+01 1.000000e+00
      vertex -1.700000e+01 1.150000e+01 2.000000e+00
    endloop
  endfacet
  facet normal -1.000000e+00 0.000000e+00 0.000000e+00
    outer loop
      vertex -1.700000e+01 2.750000e+01 0.000000e+00
      vertex -1.700000e+01 1.150000e+01 2.000000e+00
      vertex -1.700000e+01 2.750000e+01 2.000000e+00
    endloop
  endfacet
  facet normal -1.000000e+00 0.000000e+00 0.000000e+00
    outer loop
      vertex -1.700000e+01 -8.500000e+00 1.000000e+00
      vertex -1.700000e+01 -4.250000e+01 2.000000e+00
      vertex -1.700000e+01 -6.500000e+00 2.000000e+00
    endloop
  endfacet
  facet normal 0.000000e+00 0.000000e+00 1.000000e+00
    outer loop
      vertex -1.250000e+01 1.750000e+01 2.000000e+00
      vertex -1.700000e+01 2.750000e+01 2.000000e+00
      vertex -1.700000e+01 1.150000e+01 2.000000e+00
    endloop
  endfacet
  facet normal 0.000000e+00 0.000000e+00 1.000000e+00
    outer loop
      vertex -2.000000e+00 1.150000e+01 2.000000e+00
      vertex -2.000000e+00 2.750000e+01 2.000000e+00
      vertex -6.500000e+00 2.750000e+01 2.000000e+00
    endloop
  endfacet
  facet normal 0.000000e+00 0.000000e+00 1.000000e+00
    outer loop
      vertex -1.250000e+01 1.750000e+01 2.000000e+00
      vertex -1.250000e+01 2.750000e+01 2.000000e+00
      vertex -1.700000e+01 2.750000e+01 2.000000e+00
    endloop
  endfacet
  facet normal 0.000000e+00 0.000000e+00 1.000000e+00
    outer loop
      vertex -2.000000e+00 1.150000e+01 2.000000e+00
      vertex -6.500000e+00 2.750000e+01 2.000000e+00
      vertex -6.500000e+00 1.750000e+01 2.000000e+00
    endloop
  endfacet
  facet normal 0.000000e+00 0.000000e+00 1.000000e+00
    outer loop
      vertex -2.000000e+00 1.150000e+01 2.000000e+00
      vertex -1.250000e+01 1.750000e+01 2.000000e+00
      vertex -1.700000e+01 1.150000e+01 2.000000e+00
    endloop
  endfacet
  facet normal 0.000000e+00 0.000000e+00 1.000000e+00
    outer loop
      vertex -6.500000e+00 1.750000e+01 2.000000e+00
      vertex -1.250000e+01 1.750000e+01 2.000000e+00
      vertex -2.000000e+00 1.150000e+01 2.000000e+00
    endloop
  endfacet
  facet normal 0.000000e+00 1.000000e+00 0.000000e+00
    outer loop
      vertex -1.700000e+01 1.150000e+01 2.000000e+00
      vertex -1.700000e+01 1.150000e+01 1.100000e+01
      vertex -2.000000e+00 1.150000e+01 2.000000e+00
    endloop
  endfacet
  facet normal 0.000000e+00 1.000000e+00 0.000000e+00
    outer loop
      vertex -2.000000e+00 1.150000e+01 2.000000e+00
      vertex -1.700000e+01 1.150000e+01 1.100000e+01
      vertex -2.000000e+00 1.150000e+01 1.100000e+01
    endloop
  endfacet
  facet normal NaN NaN NaN
    outer loop
      vertex -2.000000e+00 1.150000e+01 2.000000e+00
      vertex -2.000000e+00 1.150000e+01 1.100000e+01
      vertex -2.000000e+00 1.150000e+01 1.000000e+00
    endloop
  endfacet
  facet normal 1.000000e+00 0.000000e+00 0.000000e+00
    outer loop
      vertex -2.000000e+00 1.150000e+01 1.100000e+01
      vertex -2.000000e+00 -6.500000e+00 2.000000e+00
      vertex -2.000000e+00 1.150000e+01 2.000000e+00
    endloop
  endfacet
  facet normal NaN NaN NaN
    outer loop
      vertex -2.000000e+00 1.150000e+01 1.000000e+00
      vertex -2.000000e+00 1.150000e+01 1.100000e+01
      vertex -2.000000e+00 1.150000e+01 2.000000e+00
    endloop
  endfacet
  facet normal 0.000000e+00 0.000000e+00 1.000000e+00
    outer loop
      vertex -1.700000e+01 -6.500000e+00 2.000000e+00
      vertex -1.700000e+01 -4.250000e+01 2.000000e+00
      vertex -2.000000e+00 -4.250000e+01 2.000000e+00
    endloop
  endfacet
  facet normal 0.000000e+00 0.000000e+00 1.000000e+00
    outer loop
      vertex -2.000000e+00 -6.500000e+00 2.000000e+00
      vertex -1.700000e+01 -6.500000e+00 2.000000e+00
      vertex -2.000000e+00 -4.250000e+01 2.000000e+00
    endloop
  endfacet
  facet normal NaN NaN NaN
    outer loop
      vertex -2.000000e+00 1.150000e+01 2.000000e+00
      vertex -2.000000e+00 -6.500000e+00 2.000000e+00
      vertex -2.000000e+00 -4.250000e+01 2.000000e+00
    endloop
  endfacet
  facet normal 0.000000e+00 0.000000e+00 -1.000000e+00
    outer loop
      vertex -1.700000e+01 -4.250000e+01 0.000000e+00
      vertex -1.700000e+01 2.750000e+01 0.000000e+00
      vertex -2.000000e+00 -4.250000e+01 0.000000e+00
    endloop
  endfacet
  facet normal 0.000000e+00 0.000000e+00 -1.000000e+00
    outer loop
      vertex -1.032843e+01 2.450000e+01 0.000000e+00
      vertex -1.700000e+01 2.750000e+01 0.000000e+00
      vertex -2.000000e+00 2.750000e+01 0.000000e+00
    endloop
  endfacet
  facet normal 0.000000e+00 0.000000e+00 -1.000000e+00
    outer loop
      vertex -1.150000e+01 2.167157e+01 0.000000e+00
      vertex -1.700000e+01 2.750000e+01 0.000000e+00
      vertex -1.150000e+01 2.332843e+01 0.000000e+00
    endloop
  endfacet
  facet normal 0.000000e+00 0.000000e+00 -1.000000e+00
    outer loop
      vertex -2.000000e+00 -4.250000e+01 0.000000e+00
      vertex -1.700000e+01 2.750000e+01 0.000000e+00
      vertex -1.150000e+01 2.167157e+01 0.000000e+00
    endloop
  endfacet
  facet normal 0.000000e+00 0.000000e+00 -1.000000e+00
    outer loop
      vertex -7.500000e+00 2.332843e+01 0.000000e+00
      vertex -2.000000e+00 2.750000e+01 0.000000e+00
      vertex -7.500000e+00 2.167157e+01 0.000000e+00
    endloop
  endfacet
  facet normal 0.000000e+00 0.000000e+00 -1.000000e+00
    outer loop
      vertex -2.000000e+00 -4.250000e+01 0.000000e+00
      vertex -1.032843e+01 2.050000e+01 0.000000e+00
      vertex -8.671573e+00 2.050000e+01 0.000000e+00
    endloop
  endfacet
  facet normal 0.000000e+00 0.000000e+00 -1.000000e+00
    outer loop
      vertex -2.000000e+00 -4.250000e+01 0.000000e+00
      vertex -8.671573e+00 2.050000e+01 0.000000e+00
      vertex -7.500000e+00 2.167157e+01 0.000000e+00
    endloop
  endfacet
  facet normal 0.000000e+00 0.000000e+00 -1.000000e+00
    outer loop
      vertex -2.000000e+00 -4.250000e+01 0.000000e+00
      vertex -7.500000e+00 2.167157e+01 0.000000e+00
      vertex -2.000000e+00 2.750000e+01 0.000000e+00
    endloop
  endfacet
  facet normal 0.000000e+00 0.000000e+00 -1.000000e+00
    outer loop
      vertex -1.032843e+01 2.450000e+01 0.000000e+00
      vertex -2.000000e+00 2.750000e+01 0.000000e+00
      vertex -8.671573e+00 2.450000e+01 0.000000e+00
    endloop
  endfacet
  facet normal 0.000000e+00 0.000000e+00 -1.000000e+00
    outer loop
      vertex -7.500000e+00 2.332843e+01 0.000000e+00
      vertex -8.671573e+00 2.450000e+01 0.000000e+00
      vertex -2.000000e+00 2.750000e+01 0.000000e+00
    endloop
  endfacet
  facet normal 0.000000e+00 0.000000e+00 -1.000000e+00
    outer loop
      vertex -1.150000e+01 2.332843e+01 0.000000e+00
      vertex -1.700000e+01 2.750000e+01 0.000000e+00
      vertex -1.032843e+01 2.450000e+01 0.000000e+00
    endloop
  endfacet
  facet normal 0.000000e+00 0.000000e+00 -1.000000e+00
    outer loop
      vertex -1.032843e+01 2.050000e+01 0.000000e+00
      vertex -2.000000e+00 -4.250000e+01 0.000000e+00
      vertex -1.150000e+01 2.167157e+01 0.000000e+00
    endloop
  endfacet
  facet normal 0.000000e+00 1.000000e+00 0.000000e+00
    outer loop
      vertex -1.700000e+01 2.750000e+01 0.000000e+00
      vertex -1.700000e+01 2.750000e+01 2.000000e+00
      vertex -2.000000e+00 2.750000e+01 0.000000e+00
    endloop
  endfacet
  facet normal 0.000000e+00 1.000000e+00 0.000000e+00
    outer loop
      vertex -2.000000e+00 2.750000e+01 0.000000e+00
      vertex -1.700000e+01 2.750000e+01 2.000000e+00
      vertex -1.250000e+01 2.750000e+01 2.000000e+00
    endloop
  endfacet
  facet normal 0.000000e+00 1.000000e+00 0.000000e+00
    outer loop
      vertex -6.500000e+00 2.750000e+01 2.000000e+00
      vertex -1.250000e+01 2.750000e+01 2.000000e+00
      vertex -1.250000e+01 2.750000e+01 5.000000e+00
    endloop
  endfacet
  facet normal 0.000000e+00 1.000000e+00 0.000000e+00
    outer loop
      vertex -2.000000e+00 2.750000e+01 0.000000e+00
      vertex -1.250000e+01 2.750000e+01 2.000000e+00
      vertex -6.500000e+00 2.750000e+01 2.000000e+00
    endloop
  endfacet
  facet normal 0.000000e+00 1.000000e+00 0.000000e+00
    outer loop
      vertex -2.000000e+00 2.750000e+01 2.000000e+00
      vertex -2.000000e+00 2.750000e+01 0.000000e+00
      vertex -6.500000e+00 2.750000e+01 2.000000e+00
    endloop
  endfacet
  facet normal 0.000000e+00 1.000000e+00 0.000000e+00
    outer loop
      vertex -6.500000e+00 2.750000e+01 2.000000e+00
      vertex -1.250000e+01 2.750000e+01 5.000000e+00
      vertex -6.500000e+00 2.750000e+01 5.000000e+00
    endloop
  endfacet
  facet normal 0.000000e+00 -1.000000e+00 0.000000e+00
    outer loop
      vertex -1.700000e+01 -4.250000e+01 2.000000e+00
      vertex -1.700000e+01 -4.250000e+01 0.000000e+00
      vertex -2.000000e+00 -4.250000e+01 0.000000e+00
    endloop
  endfacet
  facet normal 0.000000e+00 -1.000000e+00 0.000000e+00
    outer loop
      vertex -2.000000e+00 -4.250000e+01 2.000000e+00
      vertex -1.700000e+01 -4.250000e+01 2.000000e+00
      vertex -2.000000e+00 -4.250000e+01 0.000000e+00
    endloop
  endfacet
  facet normal -1.000000e+00 0.000000e+00 0.000000e+00
    outer loop
      vertex -1.250000e+01 1.750000e+01 2.000000e+00
      vertex -1.250000e+01 1.750000e+01 5.000000e+00
      vertex -1.250000e+01 2.750000e+01 2.000000e+00
    endloop
  endfacet
  facet normal -1.000000e+00 0.000000e+00 0.000000e+00
    outer loop
      vertex -1.250000e+01 2.750000e+01 2.000000e+00
      vertex -1.250000e+01 1.750000e+01 5.000000e+00
      vertex -1.250000e+01 2.750000e+01 5.000000e+00
    endloop
  endfacet
  facet normal 0.000000e+00 -1.000000e+00 0.000000e+00
    outer loop
      vertex -1.250000e+01 1.750000e+01 5.000000e+00
      vertex -1.250000e+01 1.750000e+01 2.000000e+00
      vertex -6.500000e+00 1.750000e+01 2.000000e+00
    endloop
  endfacet
  facet normal 0.000000e+00 -1.000000e+00 0.000000e+00
    outer loop
      vertex -6.500000e+00 1.750000e+01 5.000000e+00
      vertex -1.250000e+01 1.750000e+01 5.000000e+00
      vertex -6.500000e+00 1.750000e+01 2.000000e+00
    endloop
  endfacet
  facet normal 1.000000e+00 0.000000e+00 0.000000e+00
    outer loop
      vertex -6.500000e+00 1.750000e+01 5.000000e+00
      vertex -6.500000e+00 1.750000e+01 2.000000e+00
      vertex -6.500000e+00 2.750000e+01 2.000000e+00
    endloop
  endfacet
  facet normal 1.000000e+00 0.000000e+00 0.000000e+00
    outer loop
      vertex -6.500000e+00 2.750000e+01 5.000000e+00
      vertex -6.500000e+00 1.750000e+01 5.000000e+00
      vertex -6.500000e+00 2.750000e+01 2.000000e+00
    endloop
  endfacet
  facet normal 1.000000e+00 0.000000e+00 0.000000e+00
    outer loop
      vertex -2.000000e+00 -4.250000e+01 2.000000e+00
      vertex -2.000000e+00 -4.250000e+01 0.000000e+00
      vertex -2.000000e+00 2.750000e+01 0.000000e+00
    endloop
  endfacet
  facet normal 1.000000e+00 0.000000e+00 0.000000e+00
    outer loop
      vertex -2.000000e+00 1.150000e+01 1.000000e+00
      vertex -2.000000e+00 -4.250000e+01 2.000000e+00
      vertex -2.000000e+00 2.750000e+01 0.000000e+00
    endloop
  endfacet
  facet normal 1.000000e+00 0.000000e+00 0.000000e+00
    outer loop
      vertex -2.000000e+00 2.750000e+01 2.000000e+00
      vertex -2.000000e+00 1.150000e+01 2.000000e+00
      vertex -2.000000e+00 2.750000e+01 0.000000e+00
    endloop
  endfacet
  facet normal 1.000000e+00 0.000000e+00 0.000000e+00
    outer loop
      vertex -2.000000e+00 1.150000e+01 2.000000e+00
      vertex -2.000000e+00 1.150000e+01 1.000000e+00
      vertex -2.000000e+00 2.750000e+01 0.000000e+00
    endloop
  endfacet
  facet normal 1.000000e+00 0.000000e+00 0.000000e+00
    outer loop
      vertex -2.000000e+00 1.150000e+01 2.000000e+00
      vertex -2.000000e+00 -4.250000e+01 2.000000e+00
      vertex -2.000000e+00 1.150000e+01 1.000000e+00
    endloop
  endfacet
  facet normal 1.000000e+00 0.000000e+00 0.000000e+00
    outer loop
      vertex -1.150000e+01 2.332843e+01 0.000000e+00
      vertex -1.150000e+01 2.332843e+01 5.000000e+00
      vertex -1.150000e+01 2.167157e+01 5.000000e+00
    endloop
  endfacet
  facet normal 1.000000e+00 0.000000e+00 0.000000e+00
    outer loop
      vertex -1.150000e+01 2.167157e+01 0.000000e+00
      vertex -1.150000e+01 2.332843e+01 0.000000e+00
      vertex -1.150000e+01 2.167157e+01 5.000000e+00
    endloop
  endfacet
  facet normal 7.071068e-01 -7.071068e-01 0.000000e+00
    outer loop
      vertex -1.032843e+01 2.450000e+01 0.000000e+00
      vertex -1.032843e+01 2.450000e+01 5.000000e+00
      vertex -1.150000e+01 2.332843e+01 5.000000e+00
    endloop
  endfacet
  facet normal 7.071068e-01 -7.071068e-01 0.000000e+00
    outer loop
      vertex -1.150000e+01 2.332843e+01 0.000000e+00
      vertex -1.032843e+01 2.450000e+01 0.000000e+00
      vertex -1.150000e+01 2.332843e+01 5.000000e+00
    endloop
  endfacet
  facet normal 0.000000e+00 -1.000000e+00 0.000000e+00
    outer loop
      vertex -8.671573e+00 2.450000e+01 0.000000e+00
      vertex -8.671573e+00 2.450000e+01 5.000000e+00
      vertex -1.032843e+01 2.450000e+01 5.000000e+00
    endloop
  endfacet
  facet normal 0.000000e+00 -1.000000e+00 0.000000e+00
    outer loop
      vertex -1.032843e+01 2.450000e+01 0.000000e+00
      vertex -8.671573e+00 2.450000e+01 0.000000e+00
      vertex -1.032843e+01 2.450000e+01 5.000000e+00
    endloop
  endfacet
  facet normal -7.071068e-01 -7.071068e-01 0.000000e+00
    outer loop
      vertex -7.500000e+00 2.332843e+01 5.000000e+00
      vertex -8.671573e+00 2.450000e+01 5.000000e+00
      vertex -7.500000e+00 2.332843e+01 0.000000e+00
    endloop
  endfacet
  facet normal -7.071068e-01 -7.071068e-01 0.000000e+00
    outer loop
      vertex -7.500000e+00 2.332843e+01 0.000000e+00
      vertex -8.671573e+00 2.450000e+01 5.000000e+00
      vertex -8.671573e+00 2.450000e+01 0.000000e+00
    endloop
  endfacet
  facet normal -1.000000e+00 0.000000e+00 0.000000e+00
    outer loop
      vertex -7.500000e+00 2.332843e+01 5.000000e+00
      vertex -7.500000e+00 2.332843e+01 0.000000e+00
      vertex -7.500000e+00 2.167157e+01 5.000000e+00
    endloop
  endfacet
  facet normal -1.000000e+00 0.000000e+00 0.000000e+00
    outer loop
      vertex -7.500000e+00 2.167157e+01 5.000000e+00
      vertex -7.500000e+00 2.332843e+01 0.000000e+00
      vertex -7.500000e+00 2.167157e+01 0.000000e+00
    endloop
  endfacet
  facet normal -7.071068e-01 7.071068e-01 0.000000e+00
    outer loop
      vertex -7.500000e+00 2.167157e+01 5.000000e+00
      vertex -7.500000e+00 2.167157e+01 0.000000e+00
      vertex -8.671573e+00 2.050000e+01 5.000000e+00
    endloop
  endfacet
  facet normal -7.071068e-01 7.071068e-01 0.000000e+00
    outer loop
      vertex -8.671573e+00 2.050000e+01 5.000000e+00
      vertex -7.500000e+00 2.167157e+01 0.000000e+00
      vertex -8.671573e+00 2.050000e+01 0.000000e+00
    endloop
  endfacet
  facet normal 0.000000e+00 1.000000e+00 0.000000e+00
    outer loop
      vertex -8.671573e+00 2.050000e+01 5.000000e+00
      vertex -8.671573e+00 2.050000e+01 0.000000e+00
      vertex -1.032843e+01 2.050000e+01 5.000000e+00
    endloop
  endfacet
  facet normal 0.000000e+00 1.000000e+00 0.000000e+00
    outer loop
      vertex -1.032843e+01 2.050000e+01 5.000000e+00
      vertex -8.671573e+00 2.050000e+01 0.000000e+00
      vertex -1.032843e+01 2.050000e+01 0.000000e+00
    endloop
  endfacet
  facet normal 7.071068e-01 7.071068e-01 0.000000e+00
    outer loop
      vertex -1.150000e+01 2.167157e+01 5.000000e+00
      vertex -1.032843e+01 2.050000e+01 5.000000e+00
      vertex -1.032843e+01 2.050000e+01 0.000000e+00
    endloop
  endfacet
  facet normal 7.071068e-01 7.071068e-01 0.000000e+00
    outer loop
      vertex -1.150000e+01 2.167157e+01 0.000000e+00
      vertex -1.150000e+01 2.167157e+01 5.000000e+00
      vertex -1.032843e+01 2.050000e+01 0.000000e+00
    endloop
  endfacet
  facet normal 0.000000e+00 0.000000e+00 1.000000e+00
    outer loop
      vertex -1.032843e+01 2.050000e+01 5.000000e+00
      vertex -1.250000e+01 1.750000e+01 5.000000e+00
      vertex -6.500000e+00 1.750000e+01 5.000000e+00
    endloop
  endfacet
  facet normal 0.000000e+00 0.000000e+00 1.000000e+00
    outer loop
      vertex -1.250000e+01 2.750000e+01 5.000000e+00
      vertex -1.250000e+01 1.750000e+01 5.000000e+00
      vertex -1.150000e+01 2.167157e+01 5.000000e+00
    endloop
  endfacet
  facet normal 0.000000e+00 0.000000e+00 1.000000e+00
    outer loop
      vertex -1.250000e+01 2.750000e+01 5.000000e+00
      vertex -1.150000e+01 2.167157e+01 5.000000e+00
      vertex -1.150000e+01 2.332843e+01 5.000000e+00
    endloop
  endfacet
  facet normal 0.000000e+00 0.000000e+00 1.000000e+00
    outer loop
      vertex -6.500000e+00 2.750000e+01 5.000000e+00
      vertex -1.250000e+01 2.750000e+01 5.000000e+00
      vertex -1.032843e+01 2.450000e+01 5.000000e+00
    endloop
  endfacet
  facet normal 0.000000e+00 0.000000e+00 1.000000e+00
    outer loop
      vertex -8.671573e+00 2.050000e+01 5.000000e+00
      vertex -1.032843e+01 2.050000e+01 5.000000e+00
      vertex -6.500000e+00 1.750000e+01 5.000000e+00
    endloop
  endfacet
  facet normal 0.000000e+00 0.000000e+00 1.000000e+00
    outer loop
      vertex -6.500000e+00 2.750000e+01 5.000000e+00
      vertex -1.032843e+01 2.450000e+01 5.000000e+00
      vertex -8.671573e+00 2.450000e+01 5.000000e+00
    endloop
  endfacet
  facet normal 0.000000e+00 0.000000e+00 1.000000e+00
    outer loop
      vertex -6.500000e+00 2.750000e+01 5.000000e+00
      vertex -7.500000e+00 2.332843e+01 5.000000e+00
      vertex -6.500000e+00 1.750000e+01 5.000000e+00
    endloop
  endfacet
  facet normal 0.000000e+00 0.000000e+00 1.000000e+00
    outer loop
      vertex -6.500000e+00 2.750000e+01 5.000000e+00
      vertex -8.671573e+00 2.450000e+01 5.000000e+00
      vertex -7.500000e+00 2.332843e+01 5.000000e+00
    endloop
  endfacet
  facet normal 0.000000e+00 0.000000e+00 1.000000e+00
    outer loop
      vertex -7.500000e+00 2.332843e+01 5.000000e+00
      vertex -7.500000e+00 2.167157e+01 5.000000e+00
      vertex -6.500000e+00 1.750000e+01 5.000000e+00
    endloop
  endfacet
  facet normal 0.000000e+00 0.000000e+00 1.000000e+00
    outer loop
      vertex -7.500000e+00 2.167157e+01 5.000000e+00
      vertex -8.671573e+00 2.050000e+01 5.000000e+00
      vertex -6.500000e+00 1.750000e+01 5.000000e+00
    endloop
  endfacet
  facet normal 0.000000e+00 0.000000e+00 1.000000e+00
    outer loop
      vertex -1.150000e+01 2.167157e+01 5.000000e+00
      vertex -1.250000e+01 1.750000e+01 5.000000e+00
      vertex -1.032843e+01 2.050000e+01 5.000000e+00
    endloop
  endfacet
  facet normal 0.000000e+00 0.000000e+00 1.000000e+00
    outer loop
      vertex -1.150000e+01 2.332843e+01 5.000000e+00
      vertex -1.032843e+01 2.450000e+01 5.000000e+00
      vertex -1.250000e+01 2.750000e+01 5.000000e+00
    endloop
  endfacet
  facet normal -1.000000e+00 0.000000e+00 0.000000e+00
    outer loop
      vertex -1.700000e+01 3.250000e+01 0.000000e+00
      vertex -1.700000e+01 3.250000e+01 2.000000e+00
      vertex -1.700000e+01 4.250000e+01 0.000000e+00
    endloop
  endfacet
  facet normal -1.000000e+00 0.000000e+00 0.000000e+00
    outer loop
      vertex -1.700000e+01 4.250000e+01 0.000000e+00
      vertex -1.700000e+01 3.250000e+01 2.000000e+00
      vertex -1.700000e+01 4.250000e+01 2.000000e+00
    endloop
  endfacet
  facet normal 0.000000e+00 -1.000000e+00 0.000000e+00
    outer loop
      vertex -1.700000e+01 3.250000e+01 2.000000e+00
      vertex -1.700000e+01 3.250000e+01 0.000000e+00
      vertex -2.000000e+00 3.250000e+01 0.000000e+00
    endloop
  endfacet
  facet normal 0.000000e+00 -1.000000e+00 0.000000e+00
    outer loop
      vertex -1.250000e+01 3.250000e+01 2.000000e+00
      vertex -1.700000e+01 3.250000e+01 2.000000e+00
      vertex -2.000000e+00 3.250000e+01 0.000000e+00
    endloop
  endfacet
  facet normal 0.000000e+00 -1.000000e+00 0.000000e+00
    outer loop
      vertex -6.500000e+00 3.250000e+01 2.000000e+00
      vertex -1.250000e+01 3.250000e+01 2.000000e+00
      vertex -2.000000e+00 3.250000e+01 0.000000e+00
    endloop
  endfacet
  facet normal 0.000000e+00 -1.000000e+00 0.000000e+00
    outer loop
      vertex -2.000000e+00 3.250000e+01 2.000000e+00
      vertex -6.500000e+00 3.250000e+01 2.000000e+00
      vertex -2.000000e+00 3.250000e+01 0.000000e+00
    endloop
  endfacet
  facet normal 0.000000e+00 -1.000000e+00 0.000000e+00
    outer loop
      vertex -6.500000e+00 3.250000e+01 5.000000e+00
      vertex -1.250000e+01 3.250000e+01 2.000000e+00
      vertex -6.500000e+00 3.250000e+01 2.000000e+00
    endloop
  endfacet
  facet normal 0.000000e+00 -1.000000e+00 0.000000e+00
    outer loop
      vertex -1.250000e+01 3.250000e+01 5.000000e+00
      vertex -1.250000e+01 3.250000e+01 2.000000e+00
      vertex -6.500000e+00 3.250000e+01 5.000000e+00
    endloop
  endfacet
  facet normal 0.000000e+00 0.000000e+00 -1.000000e+00
    outer loop
      vertex -8.671573e+00 3.550000e+01 0.000000e+00
      vertex -2.000000e+00 3.250000e+01 0.000000e+00
      vertex -1.032843e+01 3.550000e+01 0.000000e+00
    endloop
  endfacet
  facet normal 0.000000e+00 0.000000e+00 -1.000000e+00
    outer loop
      vertex -8.671573e+00 3.950000e+01 0.000000e+00
      vertex -1.700000e+01 4.250000e+01 0.000000e+00
      vertex -2.000000e+00 4.250000e+01 0.000000e+00
    endloop
  endfacet
  facet normal 0.000000e+00 0.000000e+00 -1.000000e+00
    outer loop
      vertex -1.700000e+01 3.250000e+01 0.000000e+00
      vertex -1.700000e+01 4.250000e+01 0.000000e+00
      vertex -1.150000e+01 3.832843e+01 0.000000e+00
    endloop
  endfacet
  facet normal 0.000000e+00 0.000000e+00 -1.000000e+00
    outer loop
      vertex -1.700000e+01 3.250000e+01 0.000000e+00
      vertex -1.150000e+01 3.832843e+01 0.000000e+00
      vertex -1.150000e+01 3.667157e+01 0.000000e+00
    endloop
  endfacet
  facet normal 0.000000e+00 0.000000e+00 -1.000000e+00
    outer loop
      vertex -1.700000e+01 3.250000e+01 0.000000e+00
      vertex -1.150000e+01 3.667157e+01 0.000000e+00
      vertex -1.032843e+01 3.550000e+01 0.000000e+00
    endloop
  endfacet
  facet normal 0.000000e+00 0.000000e+00 -1.000000e+00
    outer loop
      vertex -1.700000e+01 3.250000e+01 0.000000e+00
      vertex -1.032843e+01 3.550000e+01 0.000000e+00
      vertex -2.000000e+00 3.250000e+01 0.000000e+00
    endloop
  endfacet
  facet normal 0.000000e+00 0.000000e+00 -1.000000e+00
    outer loop
      vertex -7.500000e+00 3.667157e+01 0.000000e+00
      vertex -2.000000e+00 3.250000e+01 0.000000e+00
      vertex -8.671573e+00 3.550000e+01 0.000000e+00
    endloop
  endfacet
  facet normal 0.000000e+00 0.000000e+00 -1.000000e+00
    outer loop
      vertex -2.000000e+00 3.250000e+01 0.000000e+00
      vertex -7.500000e+00 3.667157e+01 0.000000e+00
      vertex -2.000000e+00 4.250000e+01 0.000000e+00
    endloop
  endfacet
  facet normal 0.000000e+00 0.000000e+00 -1.000000e+00
    outer loop
      vertex -7.500000e+00 3.667157e+01 0.000000e+00
      vertex -7.500000e+00 3.832843e+01 0.000000e+00
      vertex -2.000000e+00 4.250000e+01 0.000000e+00
    endloop
  endfacet
  facet normal 0.000000e+00 0.000000e+00 -1.000000e+00
    outer loop
      vertex -7.500000e+00 3.832843e+01 0.000000e+00
      vertex -8.671573e+00 3.950000e+01 0.000000e+00
      vertex -2.000000e+00 4.250000e+01 0.000000e+00
    endloop
  endfacet
  facet normal 0.000000e+00 0.000000e+00 -1.000000e+00
    outer loop
      vertex -1.150000e+01 3.832843e+01 0.000000e+00
      vertex -1.700000e+01 4.250000e+01 0.000000e+00
      vertex -1.032843e+01 3.950000e+01 0.000000e+00
    endloop
  endfacet
  facet normal 0.000000e+00 0.000000e+00 -1.000000e+00
    outer loop
      vertex -1.032843e+01 3.950000e+01 0.000000e+00
      vertex -1.700000e+01 4.250000e+01 0.000000e+00
      vertex -8.671573e+00 3.950000e+01 0.000000e+00
    endloop
  endfacet
  facet normal 0.000000e+00 1.000000e+00 0.000000e+00
    outer loop
      vertex -1.700000e+01 4.250000e+01 0.000000e+00
      vertex -1.700000e+01 4.250000e+01 2.000000e+00
      vertex -2.000000e+00 4.250000e+01 0.000000e+00
    endloop
  endfacet
  facet normal 0.000000e+00 1.000000e+00 0.000000e+00
    outer loop
      vertex -2.000000e+00 4.250000e+01 0.000000e+00
      vertex -1.700000e+01 4.250000e+01 2.000000e+00
      vertex -1.250000e+01 4.250000e+01 2.000000e+00
    endloop
  endfacet
  facet normal 0.000000e+00 1.000000e+00 0.000000e+00
    outer loop
      vertex -6.500000e+00 4.250000e+01 2.000000e+00
      vertex -1.250000e+01 4.250000e+01 2.000000e+00
      vertex -1.250000e+01 4.250000e+01 5.000000e+00
    endloop
  endfacet
  facet normal 0.000000e+00 1.000000e+00 0.000000e+00
    outer loop
      vertex -2.000000e+00 4.250000e+01 0.000000e+00
      vertex -1.250000e+01 4.250000e+01 2.000000e+00
      vertex -6.500000e+00 4.250000e+01 2.000000e+00
    endloop
  endfacet
  facet normal 0.000000e+00 1.000000e+00 0.000000e+00
    outer loop
      vertex -2.000000e+00 4.250000e+01 2.000000e+00
      vertex -2.000000e+00 4.250000e+01 0.000000e+00
      vertex -6.500000e+00 4.250000e+01 2.000000e+00
    endloop
  endfacet
  facet normal 0.000000e+00 1.000000e+00 0.000000e+00
    outer loop
      vertex -6.500000e+00 4.250000e+01 2.000000e+00
      vertex -1.250000e+01 4.250000e+01 5.000000e+00
      vertex -6.500000e+00 4.250000e+01 5.000000e+00
    endloop
  endfacet
  facet normal 0.000000e+00 0.000000e+00 1.000000e+00
    outer loop
      vertex -1.700000e+01 4.250000e+01 2.000000e+00
      vertex -1.700000e+01 3.250000e+01 2.000000e+00
      vertex -1.250000e+01 3.250000e+01 2.000000e+00
    endloop
  endfacet
  facet normal 0.000000e+00 0.000000e+00 1.000000e+00
    outer loop
      vertex -1.250000e+01 4.250000e+01 2.000000e+00
      vertex -1.700000e+01 4.250000e+01 2.000000e+00
      vertex -1.250000e+01 3.250000e+01 2.000000e+00
    endloop
  endfacet
  facet normal -1.000000e+00 0.000000e+00 0.000000e+00
    outer loop
      vertex -1.250000e+01 3.250000e+01 2.000000e+00
      vertex -1.250000e+01 3.250000e+01 5.000000e+00
      vertex -1.250000e+01 4.250000e+01 2.000000e+00
    endloop
  endfacet
  facet normal -1.000000e+00 0.000000e+00 0.000000e+00
    outer loop
      vertex -1.250000e+01 4.250000e+01 2.000000e+00
      vertex -1.250000e+01 3.250000e+01 5.000000e+00
      vertex -1.250000e+01 4.250000e+01 5.000000e+00
    endloop
  endfacet
  facet normal 0.000000e+00 0.000000e+00 1.000000e+00
    outer loop
      vertex -1.032843e+01 3.550000e+01 5.000000e+00
      vertex -1.250000e+01 3.250000e+01 5.000000e+00
      vertex -6.500000e+00 3.250000e+01 5.000000e+00
    endloop
  endfacet
  facet normal 0.000000e+00 0.000000e+00 1.000000e+00
    outer loop
      vertex -1.250000e+01 4.250000e+01 5.000000e+00
      vertex -1.250000e+01 3.250000e+01 5.000000e+00
      vertex -1.150000e+01 3.667157e+01 5.000000e+00
    endloop
  endfacet
  facet normal 0.000000e+00 0.000000e+00 1.000000e+00
    outer loop
      vertex -1.250000e+01 4.250000e+01 5.000000e+00
      vertex -1.150000e+01 3.667157e+01 5.000000e+00
      vertex -1.150000e+01 3.832843e+01 5.000000e+00
    endloop
  endfacet
  facet normal 0.000000e+00 0.000000e+00 1.000000e+00
    outer loop
      vertex -6.500000e+00 4.250000e+01 5.000000e+00
      vertex -1.250000e+01 4.250000e+01 5.000000e+00
      vertex -1.032843e+01 3.950000e+01 5.000000e+00
    endloop
  endfacet
  facet normal 0.000000e+00 0.000000e+00 1.000000e+00
    outer loop
      vertex -8.671573e+00 3.550000e+01 5.000000e+00
      vertex -1.032843e+01 3.550000e+01 5.000000e+00
      vertex -6.500000e+00 3.250000e+01 5.000000e+00
    endloop
  endfacet
  facet normal 0.000000e+00 0.000000e+00 1.000000e+00
    outer loop
      vertex -6.500000e+00 4.250000e+01 5.000000e+00
      vertex -1.032843e+01 3.950000e+01 5.000000e+00
      vertex -8.671573e+00 3.950000e+01 5.000000e+00
    endloop
  endfacet
  facet normal 0.000000e+00 0.000000e+00 1.000000e+00
    outer loop
      vertex -6.500000e+00 4.250000e+01 5.000000e+00
      vertex -7.500000e+00 3.832843e+01 5.000000e+00
      vertex -6.500000e+00 3.250000e+01 5.000000e+00
    endloop
  endfacet
  facet normal 0.000000e+00 0.000000e+00 1.000000e+00
    outer loop
      vertex -6.500000e+00 4.250000e+01 5.000000e+00
      vertex -8.671573e+00 3.950000e+01 5.000000e+00
      vertex -7.500000e+00 3.832843e+01 5.000000e+00
    endloop
  endfacet
  facet normal 0.000000e+00 0.000000e+00 1.000000e+00
    outer loop
      vertex -7.500000e+00 3.832843e+01 5.000000e+00
      vertex -7.500000e+00 3.667157e+01 5.000000e+00
      vertex -6.500000e+00 3.250000e+01 5.000000e+00
    endloop
  endfacet
  facet normal 0.000000e+00 0.000000e+00 1.000000e+00
    outer loop
      vertex -7.500000e+00 3.667157e+01 5.000000e+00
      vertex -8.671573e+00 3.550000e+01 5.000000e+00
      vertex -6.500000e+00 3.250000e+01 5.000000e+00
    endloop
  endfacet
  facet normal 0.000000e+00 0.000000e+00 1.000000e+00
    outer loop
      vertex -1.150000e+01 3.667157e+01 5.000000e+00
      vertex -1.250000e+01 3.250000e+01 5.000000e+00
      vertex -1.032843e+01 3.550000e+01 5.000000e+00
    endloop
  endfacet
  facet normal 0.000000e+00 0.000000e+00 1.000000e+00
    outer loop
      vertex -1.150000e+01 3.832843e+01 5.000000e+00
      vertex -1.032843e+01 3.950000e+01 5.000000e+00
      vertex -1.250000e+01 4.250000e+01 5.000000e+00
    endloop
  endfacet
  facet normal 1.000000e+00 0.000000e+00 0.000000e+00
    outer loop
      vertex -6.500000e+00 3.250000e+01 5.000000e+00
      vertex -6.500000e+00 3.250000e+01 2.000000e+00
      vertex -6.500000e+00 4.250000e+01 2.000000e+00
    endloop
  endfacet
  facet normal 1.000000e+00 0.000000e+00 0.000000e+00
    outer loop
      vertex -6.500000e+00 4.250000e+01 5.000000e+00
      vertex -6.500000e+00 3.250000e+01 5.000000e+00
      vertex -6.500000e+00 4.250000e+01 2.000000e+00
    endloop
  endfacet
  facet normal 0.000000e+00 0.000000e+00 1.000000e+00
    outer loop
      vertex -6.500000e+00 4.250000e+01 2.000000e+00
      vertex -6.500000e+00 3.250000e+01 2.000000e+00
      vertex -2.000000e+00 3.250000e+01 2.000000e+00
    endloop
  endfacet
  facet normal 0.000000e+00 0.000000e+00 1.000000e+00
    outer loop
      vertex -2.000000e+00 4.250000e+01 2.000000e+00
      vertex -6.500000e+00 4.250000e+01 2.000000e+00
      vertex -2.000000e+00 3.250000e+01 2.000000e+00
    endloop
  endfacet
  facet normal 1.000000e+00 0.000000e+00 0.000000e+00
    outer loop
      vertex -2.000000e+00 3.250000e+01 2.000000e+00
      vertex -2.000000e+00 3.250000e+01 0.000000e+00
      vertex -2.000000e+00 4.250000e+01 0.000000e+00
    endloop
  endfacet
  facet normal 1.000000e+00 0.000000e+00 0.000000e+00
    outer loop
      vertex -2.000000e+00 4.250000e+01 2.000000e+00
      vertex -2.000000e+00 3.250000e+01 2.000000e+00
      vertex -2.000000e+00 4.250000e+01 0.000000e+00
    endloop
  endfacet
  facet normal 1.000000e+00 0.000000e+00 0.000000e+00
    outer loop
      vertex -1.150000e+01 3.832843e+01 0.000000e+00
      vertex -1.150000e+01 3.832843e+01 5.000000e+00
      vertex -1.150000e+01 3.667157e+01 5.000000e+00
    endloop
  endfacet
  facet normal 1.000000e+00 0.000000e+00 0.000000e+00
    outer loop
      vertex -1.150000e+01 3.667157e+01 0.000000e+00
      vertex -1.150000e+01 3.832843e+01 0.000000e+00
      vertex -1.150000e+01 3.667157e+01 5.000000e+00
    endloop
  endfacet
  facet normal 7.071068e-01 -7.071068e-01 0.000000e+00
    outer loop
      vertex -1.032843e+01 3.950000e+01 0.000000e+00
      vertex -1.032843e+01 3.950000e+01 5.000000e+00
      vertex -1.150000e+01 3.832843e+01 5.000000e+00
    endloop
  endfacet
  facet normal 7.071068e-01 -7.071068e-01 0.000000e+00
    outer loop
      vertex -1.150000e+01 3.832843e+01 0.000000e+00
      vertex -1.032843e+01 3.950000e+01 0.000000e+00
      vertex -1.150000e+01 3.832843e+01 5.000000e+00
    endloop
  endfacet
  facet normal 0.000000e+00 -1.000000e+00 0.000000e+00
    outer loop
      vertex -8.671573e+00 3.950000e+01 0.000000e+00
      vertex -8.671573e+00 3.950000e+01 5.000000e+00
      vertex -1.032843e+01 3.950000e+01 5.000000e+00
    endloop
  endfacet
  facet normal 0.000000e+00 -1.000000e+00 0.000000e+00
    outer loop
      vertex -1.032843e+01 3.950000e+01 0.000000e+00
      vertex -8.671573e+00 3.950000e+01 0.000000e+00
      vertex -1.032843e+01 3.950000e+01 5.000000e+00
    endloop
  endfacet
  facet normal -7.071068e-01 -7.071068e-01 0.000000e+00
    outer loop
      vertex -7.500000e+00 3.832843e+01 5.000000e+00
      vertex -8.671573e+00 3.950000e+01 5.000000e+00
      vertex -7.500000e+00 3.832843e+01 0.000000e+00
    endloop
  endfacet
  facet normal -7.071068e-01 -7.071068e-01 0.000000e+00
    outer loop
      vertex -7.500000e+00 3.832843e+01 0.000000e+00
      vertex -8.671573e+00 3.950000e+01 5.000000e+00
      vertex -8.671573e+00 3.950000e+01 0.000000e+00
    endloop
  endfacet
  facet normal -1.000000e+00 0.000000e+00 0.000000e+00
    outer loop
      vertex -7.500000e+00 3.832843e+01 5.000000e+00
      vertex -7.500000e+00 3.832843e+01 0.000000e+00
      vertex -7.500000e+00 3.667157e+01 5.000000e+00
    endloop
  endfacet
  facet normal -1.000000e+00 0.000000e+00 0.000000e+00
    outer loop
      vertex -7.500000e+00 3.667157e+01 5.000000e+00
      vertex -7.500000e+00 3.832843e+01 0.000000e+00
      vertex -7.500000e+00 3.667157e+01 0.000000e+00
    endloop
  endfacet
  facet normal -7.071068e-01 7.071068e-01 0.000000e+00
    outer loop
      vertex -7.500000e+00 3.667157e+01 5.000000e+00
      vertex -7.500000e+00 3.667157e+01 0.000000e+00
      vertex -8.671573e+00 3.550000e+01 5.000000e+00
    endloop
  endfacet
  facet normal -7.071068e-01 7.071068e-01 0.000000e+00
    outer loop
      vertex -8.671573e+00 3.550000e+01 5.000000e+00
      vertex -7.500000e+00 3.667157e+01 0.000000e+00
      vertex -8.671573e+00 3.550000e+01 0.000000e+00
    endloop
  endfacet
  facet normal 0.000000e+00 1.000000e+00 0.000000e+00
    outer loop
      vertex -8.671573e+00 3.550000e+01 5.000000e+00
      vertex -8.671573e+00 3.550000e+01 0.000000e+00
      vertex -1.032843e+01 3.550000e+01 5.000000e+00
    endloop
  endfacet
  facet normal 0.000000e+00 1.000000e+00 0.000000e+00
    outer loop
      vertex -1.032843e+01 3.550000e+01 5.000000e+00
      vertex -8.671573e+00 3.550000e+01 0.000000e+00
      vertex -1.032843e+01 3.550000e+01 0.000000e+00
    endloop
  endfacet
  facet normal 7.071068e-01 7.071068e-01 0.000000e+00
    outer loop
      vertex -1.150000e+01 3.667157e+01 5.000000e+00
      vertex -1.032843e+01 3.550000e+01 5.000000e+00
      vertex -1.032843e+01 3.550000e+01 0.000000e+00
    endloop
  endfacet
  facet normal 7.071068e-01 7.071068e-01 0.000000e+00
    outer loop
      vertex -1.150000e+01 3.667157e+01 0.000000e+00
      vertex -1.150000e+01 3.667157e+01 5.000000e+00
      vertex -1.032843e+01 3.550000e+01 0.000000e+00
    endloop
  endfacet
  facet normal -1.000000e+00 0.000000e+00 0.000000e+00
    outer loop
      vertex 2.000000e+00 -8.500000e+00 1.000000e+00
      vertex 2.000000e+00 1.150000e+01 1.100000e+01
      vertex 2.000000e+00 1.150000e+01 2.000000e+00
    endloop
  endfacet
  facet normal -1.000000e+00 0.000000e+00 0.000000e+00
    outer loop
      vertex 2.000000e+00 1.150000e+01 1.000000e+00
      vertex 2.000000e+00 -8.500000e+00 1.000000e+00
      vertex 2.000000e+00 1.150000e+01 2.000000e+00
    endloop
  endfacet
  facet normal 0.000000e+00 -4.472140e-01 8.944270e-01
    outer loop
      vertex 1.700000e+01 1.150000e+01 1.100000e+01
      vertex 2.000000e+00 -6.500000e+00 2.000000e+00
      vertex 1.700000e+01 -6.500000e+00 2.000000e+00
    endloop
  endfacet
  facet normal 0.000000e+00 -4.472140e-01 8.944270e-01
    outer loop
      vertex 2.000000e+00 1.150000e+01 1.100000e+01
      vertex 2.000000e+00 -6.500000e+00 2.000000e+00
      vertex 1.700000e+01 1.150000e+01 1.100000e+01
    endloop
  endfacet
  facet normal NaN NaN NaN
    outer loop
      vertex 2.000000e+00 -8.500000e+00 1.000000e+00
      vertex 2.000000e+00 -6.500000e+00 2.000000e+00
      vertex 2.000000e+00 1.150000e+01 1.100000e+01
    endloop
  endfacet
  facet normal -1.000000e+00 0.000000e+00 0.000000e+00
    outer loop
      vertex 2.000000e+00 1.150000e+01 1.000000e+00
      vertex 2.000000e+00 2.750000e+01 0.000000e+00
      vertex 2.000000e+00 -8.500000e+00 1.000000e+00
    endloop
  endfacet
  facet normal -1.000000e+00 0.000000e+00 0.000000e+00
    outer loop
      vertex 2.000000e+00 -4.250000e+01 0.000000e+00
      vertex 2.000000e+00 -4.250000e+01 2.000000e+00
      vertex 2.000000e+00 -8.500000e+00 1.000000e+00
    endloop
  endfacet
  facet normal -1.000000e+00 0.000000e+00 0.000000e+00
    outer loop
      vertex 2.000000e+00 -4.250000e+01 0.000000e+00
      vertex 2.000000e+00 -8.500000e+00 1.000000e+00
      vertex 2.000000e+00 2.750000e+01 0.000000e+00
    endloop
  endfacet
  facet normal -1.000000e+00 0.000000e+00 0.000000e+00
    outer loop
      vertex 2.000000e+00 2.750000e+01 0.000000e+00
      vertex 2.000000e+00 1.150000e+01 1.000000e+00
      vertex 2.000000e+00 1.150000e+01 2.000000e+00
    endloop
  endfacet
  facet normal -1.000000e+00 0.000000e+00 0.000000e+00
    outer loop
      vertex 2.000000e+00 2.750000e+01 0.000000e+00
      vertex 2.000000e+00 1.150000e+01 2.000000e+00
      vertex 2.000000e+00 2.750000e+01 2.000000e+00
    endloop
  endfacet
  facet normal -1.000000e+00 0.000000e+00 0.000000e+00
    outer loop
      vertex 2.000000e+00 -8.500000e+00 1.000000e+00
      vertex 2.000000e+00 -4.250000e+01 2.000000e+00
      vertex 2.000000e+00 -6.500000e+00 2.000000e+00
    endloop
  endfacet
  facet normal 0.000000e+00 0.000000e+00 1.000000e+00
    outer loop
      vertex 6.500000e+00 1.750000e+01 2.000000e+00
      vertex 2.000000e+00 2.750000e+01 2.000000e+00
      vertex 2.000000e+00 1.150000e+01 2.000000e+00
    endloop
  endfacet
  facet normal 0.000000e+00 0.000000e+00 1.000000e+00
    outer loop
      vertex 1.700000e+01 1.150000e+01 2.000000e+00
      vertex 1.700000e+01 2.750000e+01 2.000000e+00
      vertex 1.250000e+01 2.750000e+01 2.000000e+00
    endloop
  endfacet
  facet normal 0.000000e+00 0.000000e+00 1.000000e+00
    outer loop
      vertex 6.500000e+00 1.750000e+01 2.000000e+00
      vertex 6.500000e+00 2.750000e+01 2.000000e+00
      vertex 2.000000e+00 2.750000e+01 2.000000e+00
    endloop
  endfacet
  facet normal 0.000000e+00 0.000000e+00 1.000000e+00
    outer loop
      vertex 1.700000e+01 1.150000e+01 2.000000e+00
      vertex 1.250000e+01 2.750000e+01 2.000000e+00
      vertex 1.250000e+01 1.750000e+01 2.000000e+00
    endloop
  endfacet
  facet normal 0.000000e+00 0.000000e+00 1.000000e+00
    outer loop
      vertex 1.700000e+01 1.150000e+01 2.000000e+00
      vertex 6.500000e+00 1.750000e+01 2.000000e+00
      vertex 2.000000e+00 1.150000e+01 2.000000e+00
    endloop
  endfacet
  facet normal 0.000000e+00 0.000000e+00 1.000000e+00
    outer loop
      vertex 1.250000e+01 1.750000e+01 2.000000e+00
      vertex 6.500000e+00 1.750000e+01 2.000000e+00
      vertex 1.700000e+01 1.150000e+01 2.000000e+00
    endloop
  endfacet
  facet normal 0.000000e+00 1.000000e+00 0.000000e+00
    outer loop
      vertex 2.000000e+00 1.150000e+01 2.000000e+00
      vertex 2.000000e+00 1.150000e+01 1.100000e+01
      vertex 1.700000e+01 1.150000e+01 2.000000e+00
    endloop
  endfacet
  facet normal 0.000000e+00 1.000000e+00 0.000000e+00
    outer loop
      vertex 1.700000e+01 1.150000e+01 2.000000e+00
      vertex 2.000000e+00 1.150000e+01 1.100000e+01
      vertex 1.700000e+01 1.150000e+01 1.100000e+01
    endloop
  endfacet
  facet normal NaN NaN NaN
    outer loop
      vertex 1.700000e+01 1.150000e+01 2.000000e+00
      vertex 1.700000e+01 1.150000e+01 1.100000e+01
      vertex 1.700000e+01 1.150000e+01 1.000000e+00
    endloop
  endfacet
  facet normal 1.000000e+00 0.000000e+00 0.000000e+00
    outer loop
      vertex 1.700000e+01 1.150000e+01 1.100000e+01
      vertex 1.700000e+01 -6.500000e+00 2.000000e+00
      vertex 1.700000e+01 1.150000e+01 2.000000e+00
    endloop
  endfacet
  facet normal NaN NaN NaN
    outer loop
      vertex 1.700000e+01 1.150000e+01 1.000000e+00
      vertex 1.700000e+01 1.150000e+01 1.100000e+01
      vertex 1.700000e+01 1.150000e+01 2.000000e+00
    endloop
  endfacet
  facet normal 0.000000e+00 0.000000e+00 1.000000e+00
    outer loop
      vertex 2.000000e+00 -6.500000e+00 2.000000e+00
      vertex 2.000000e+00 -4.250000e+01 2.000000e+00
      vertex 1.700000e+01 -4.250000e+01 2.000000e+00
    endloop
  endfacet
  facet normal 0.000000e+00 0.000000e+00 1.000000e+00
    outer loop
      vertex 1.700000e+01 -6.500000e+00 2.000000e+00
      vertex 2.000000e+00 -6.500000e+00 2.000000e+00
      vertex 1.700000e+01 -4.250000e+01 2.000000e+00
    endloop
  endfacet
  facet normal NaN NaN NaN
    outer loop
      vertex 1.700000e+01 1.150000e+01 2.000000e+00
      vertex 1.700000e+01 -6.500000e+00 2.000000e+00
      vertex 1.700000e+01 -4.250000e+01 2.000000e+00
    endloop
  endfacet
  facet normal 0.000000e+00 0.000000e+00 -1.000000e+00
    outer loop
      vertex 2.000000e+00 -4.250000e+01 0.000000e+00
      vertex 2.000000e+00 2.750000e+01 0.000000e+00
      vertex 1.700000e+01 -4.250000e+01 0.000000e+00
    endloop
  endfacet
  facet normal 0.000000e+00 0.000000e+00 -1.000000e+00
    outer loop
      vertex 8.671574e+00 2.450000e+01 0.000000e+00
      vertex 2.000000e+00 2.750000e+01 0.000000e+00
      vertex 1.700000e+01 2.750000e+01 0.000000e+00
    endloop
  endfacet
  facet normal 0.000000e+00 0.000000e+00 -1.000000e+00
    outer loop
      vertex 7.500000e+00 2.167157e+01 0.000000e+00
      vertex 2.000000e+00 2.750000e+01 0.000000e+00
      vertex 7.500000e+00 2.332843e+01 0.000000e+00
    endloop
  endfacet
  facet normal 0.000000e+00 0.000000e+00 -1.000000e+00
    outer loop
      vertex 1.700000e+01 -4.250000e+01 0.000000e+00
      vertex 2.000000e+00 2.750000e+01 0.000000e+00
      vertex 7.500000e+00 2.167157e+01 0.000000e+00
    endloop
  endfacet
  facet normal 0.000000e+00 0.000000e+00 -1.000000e+00
    outer loop
      vertex 1.150000e+01 2.332843e+01 0.000000e+00
      vertex 1.700000e+01 2.750000e+01 0.000000e+00
      vertex 1.150000e+01 2.167157e+01 0.000000e+00
    endloop
  endfacet
  facet normal 0.000000e+00 0.000000e+00 -1.000000e+00
    outer loop
      vertex 1.700000e+01 -4.250000e+01 0.000000e+00
      vertex 8.671574e+00 2.050000e+01 0.000000e+00
      vertex 1.032843e+01 2.050000e+01 0.000000e+00
    endloop
  endfacet
  facet normal 0.000000e+00 0.000000e+00 -1.000000e+00
    outer loop
      vertex 1.700000e+01 -4.250000e+01 0.000000e+00
      vertex 1.032843e+01 2.050000e+01 0.000000e+00
      vertex 1.150000e+01 2.167157e+01 0.000000e+00
    endloop
  endfacet
  facet normal 0.000000e+00 0.000000e+00 -1.000000e+00
    outer loop
      vertex 1.700000e+01 -4.250000e+01 0.000000e+00
      vertex 1.150000e+01 2.167157e+01 0.000000e+00
      vertex 1.700000e+01 2.750000e+01 0.000000e+00
    endloop
  endfacet
  facet normal 0.000000e+00 0.000000e+00 -1.000000e+00
    outer loop
      vertex 8.671574e+00 2.450000e+01 0.000000e+00
      vertex 1.700000e+01 2.750000e+01 0.000000e+00
      vertex 1.032843e+01 2.450000e+01 0.000000e+00
    endloop
  endfacet
  facet normal 0.000000e+00 0.000000e+00 -1.000000e+00
    outer loop
      vertex 1.150000e+01 2.332843e+01 0.000000e+00
      vertex 1.032843e+01 2.450000e+01 0.000000e+00
      vertex 1.700000e+01 2.750000e+01 0.000000e+00
    endloop
  endfacet
  facet normal 0.000000e+00 0.000000e+00 -1.000000e+00
    outer loop
      vertex 7.500000e+00 2.332843e+01 0.000000e+00
      vertex 2.000000e+00 2.750000e+01 0.000000e+00
      vertex 8.671574e+00 2.450000e+01 0.000000e+00
    endloop
  endfacet
  facet normal 0.000000e+00 0.000000e+00 -1.000000e+00
    outer loop
      vertex 8.671574e+00 2.050000e+01 0.000000e+00
      vertex 1.700000e+01 -4.250000e+01 0.000000e+00
      vertex 7.500000e+00 2.167157e+01 0.000000e+00
    endloop
  endfacet
  facet normal 0.000000e+00 1.000000e+00 0.000000e+00
    outer loop
      vertex 2.000000e+00 2.750000e+01 0.000000e+00
      vertex 2.000000e+00 2.750000e+01 2.000000e+00
      vertex 1.700000e+01 2.750000e+01 0.000000e+00
    endloop
  endfacet
  facet normal 0.000000e+00 1.000000e+00 0.000000e+00
    outer loop
      vertex 1.700000e+01 2.750000e+01 0.000000e+00
      vertex 2.000000e+00 2.750000e+01 2.000000e+00
      vertex 6.500000e+00 2.750000e+01 2.000000e+00
    endloop
  endfacet
  facet normal 0.000000e+00 1.000000e+00 0.000000e+00
    outer loop
      vertex 1.250000e+01 2.750000e+01 2.000000e+00
      vertex 6.500000e+00 2.750000e+01 2.000000e+00
      vertex 6.500000e+00 2.750000e+01 5.000000e+00
    endloop
  endfacet
  facet normal 0.000000e+00 1.000000e+00 0.000000e+00
    outer loop
      vertex 1.700000e+01 2.750000e+01 0.000000e+00
      vertex 6.500000e+00 2.750000e+01 2.000000e+00
      vertex 1.250000e+01 2.750000e+01 2.000000e+00
    endloop
  endfacet
  facet normal 0.000000e+00 1.000000e+00 0.000000e+00
    outer loop
      vertex 1.700000e+01 2.750000e+01 2.000000e+00
      vertex 1.700000e+01 2.750000e+01 0.000000e+00
      vertex 1.250000e+01 2.750000e+01 2.000000e+00
    endloop
  endfacet
  facet normal 0.000000e+00 1.000000e+00 0.000000e+00
    outer loop
      vertex 1.250000e+01 2.750000e+01 2.000000e+00
      vertex 6.500000e+00 2.750000e+01 5.000000e+00
      vertex 1.250000e+01 2.750000e+01 5.000000e+00
    endloop
  endfacet
  facet normal 0.000000e+00 -1.000000e+00 0.000000e+00
    outer loop
      vertex 2.000000e+00 -4.250000e+01 2.000000e+00
      vertex 2.000000e+00 -4.250000e+01 0.000000e+00
      vertex 1.700000e+01 -4.250000e+01 0.000000e+00
    endloop
  endfacet
  facet normal 0.000000e+00 -1.000000e+00 0.000000e+00
    outer loop
      vertex 1.700000e+01 -4.250000e+01 2.000000e+00
      vertex 2.000000e+00 -4.250000e+01 2.000000e+00
      vertex 1.700000e+01 -4.250000e+01 0.000000e+00
    endloop
  endfacet
  facet normal -1.000000e+00 0.000000e+00 0.000000e+00
    outer loop
      vertex 6.500000e+00 1.750000e+01 2.000000e+00
      vertex 6.500000e+00 1.750000e+01 5.000000e+00
      vertex 6.500000e+00 2.750000e+01 2.000000e+00
    endloop
  endfacet
  facet normal -1.000000e+00 0.000000e+00 0.000000e+00
    outer loop
      vertex 6.500000e+00 2.750000e+01 2.000000e+00
      vertex 6.500000e+00 1.750000e+01 5.000000e+00
      vertex 6.500000e+00 2.750000e+01 5.000000e+00
    endloop
  endfacet
  facet normal 0.000000e+00 -1.000000e+00 0.000000e+00
    outer loop
      vertex 6.500000e+00 1.750000e+01 5.000000e+00
      vertex 6.500000e+00 1.750000e+01 2.000000e+00
      vertex 1.250000e+01 1.750000e+01 2.000000e+00
    endloop
  endfacet
  facet normal 0.000000e+00 -1.000000e+00 0.000000e+00
    outer loop
      vertex 1.250000e+01 1.750000e+01 5.000000e+00
      vertex 6.500000e+00 1.750000e+01 5.000000e+00
      vertex 1.250000e+01 1.750000e+01 2.000000e+00
    endloop
  endfacet
  facet normal 1.000000e+00 0.000000e+00 0.000000e+00
    outer loop
      vertex 1.250000e+01 1.750000e+01 5.000000e+00
      vertex 1.250000e+01 1.750000e+01 2.000000e+00
      vertex 1.250000e+01 2.750000e+01 2.000000e+00
    endloop
  endfacet
  facet normal 1.000000e+00 0.000000e+00 0.000000e+00
    outer loop
      vertex 1.250000e+01 2.750000e+01 5.000000e+00
      vertex 1.250000e+01 1.750000e+01 5.000000e+00
      vertex 1.250000e+01 2.750000e+01 2.000000e+00
    endloop
  endfacet
  facet normal 1.000000e+00 0.000000e+00 0.000000e+00
    outer loop
      vertex 1.700000e+01 -4.250000e+01 2.000000e+00
      vertex 1.700000e+01 -4.250000e+01 0.000000e+00
      vertex 1.700000e+01 2.750000e+01 0.000000e+00
    endloop
  endfacet
  facet normal 1.000000e+00 0.000000e+00 0.000000e+00
    outer loop
      vertex 1.700000e+01 1.150000e+01 1.000000e+00
      vertex 1.700000e+01 -4.250000e+01 2.000000e+00
      vertex 1.700000e+01 2.750000e+01 0.000000e+00
    endloop
  endfacet
  facet normal 1.000000e+00 0.000000e+00 0.000000e+00
    outer loop
      vertex 1.700000e+01 2.750000e+01 2.000000e+00
      vertex 1.700000e+01 1.150000e+01 2.000000e+00
      vertex 1.700000e+01 2.750000e+01 0.000000e+00
    endloop
  endfacet
  facet normal 1.000000e+00 0.000000e+00 0.000000e+00
    outer loop
      vertex 1.700000e+01 1.150000e+01 2.000000e+00
      vertex 1.700000e+01 1.150000e+01 1.000000e+00
      vertex 1.700000e+01 2.750000e+01 0.000000e+00
    endloop
  endfacet
  facet normal 1.000000e+00 0.000000e+00 0.000000e+00
    outer loop
      vertex 1.700000e+01 1.150000e+01 2.000000e+00
      vertex 1.700000e+01 -4.250000e+01 2.000000e+00
      vertex 1.700000e+01 1.150000e+01 1.000000e+00
    endloop
  endfacet
  facet normal 1.000000e+00 0.000000e+00 0.000000e+00
    outer loop
      vertex 7.500000e+00 2.332843e+01 0.000000e+00
      vertex 7.500000e+00 2.332843e+01 5.000000e+00
      vertex 7.500000e+00 2.167157e+01 5.000000e+00
    endloop
  endfacet
  facet normal 1.000000e+00 0.000000e+00 0.000000e+00
    outer loop
      vertex 7.500000e+00 2.167157e+01 0.000000e+00
      vertex 7.500000e+00 2.332843e+01 0.000000e+00
      vertex 7.500000e+00 2.167157e+01 5.000000e+00
    endloop
  endfacet
  facet normal 7.071068e-01 -7.071068e-01 0.000000e+00
    outer loop
      vertex 8.671574e+00 2.450000e+01 0.000000e+00
      vertex 8.671574e+00 2.450000e+01 5.000000e+00
      vertex 7.500000e+00 2.332843e+01 5.000000e+00
    endloop
  endfacet
  facet normal 7.071068e-01 -7.071068e-01 0.000000e+00
    outer loop
      vertex 7.500000e+00 2.332843e+01 0.000000e+00
      vertex 8.671574e+00 2.450000e+01 0.000000e+00
      vertex 7.500000e+00 2.332843e+01 5.000000e+00
    endloop
  endfacet
  facet normal 0.000000e+00 -1.000000e+00 0.000000e+00
    outer loop
      vertex 1.032843e+01 2.450000e+01 0.000000e+00
      vertex 1.032843e+01 2.450000e+01 5.000000e+00
      vertex 8.671574e+00 2.450000e+01 5.000000e+00
    endloop
  endfacet
  facet normal 0.000000e+00 -1.000000e+00 0.000000e+00
    outer loop
      vertex 8.671574e+00 2.450000e+01 0.000000e+00
      vertex 1.032843e+01 2.450000e+01 0.000000e+00
      vertex 8.671574e+00 2.450000e+01 5.000000e+00
    endloop
  endfacet
  facet normal -7.071068e-01 -7.071068e-01 0.000000e+00
    outer loop
      vertex 1.150000e+01 2.332843e+01 5.000000e+00
      vertex 1.032843e+01 2.450000e+01 5.000000e+00
      vertex 1.150000e+01 2.332843e+01 0.000000e+00
    endloop
  endfacet
  facet normal -7.071068e-01 -7.071068e-01 0.000000e+00
    outer loop
      vertex 1.150000e+01 2.332843e+01 0.000000e+00
      vertex 1.032843e+01 2.450000e+01 5.000000e+00
      vertex 1.032843e+01 2.450000e+01 0.000000e+00
    endloop
  endfacet
  facet normal -1.000000e+00 0.000000e+00 0.000000e+00
    outer loop
      vertex 1.150000e+01 2.332843e+01 5.000000e+00
      vertex 1.150000e+01 2.332843e+01 0.000000e+00
      vertex 1.150000e+01 2.167157e+01 5.000000e+00
    endloop
  endfacet
  facet normal -1.000000e+00 0.000000e+00 0.000000e+00
    outer loop
      vertex 1.150000e+01 2.167157e+01 5.000000e+00
      vertex 1.150000e+01 2.332843e+01 0.000000e+00
      vertex 1.150000e+01 2.167157e+01 0.000000e+00
    endloop
  endfacet
  facet normal -7.071068e-01 7.071068e-01 0.000000e+00
    outer loop
      vertex 1.150000e+01 2.167157e+01 5.000000e+00
      vertex 1.150000e+01 2.167157e+01 0.000000e+00
      vertex 1.032843e+01 2.050000e+01 5.000000e+00
    endloop
  endfacet
  facet normal -7.071068e-01 7.071068e-01 0.000000e+00
    outer loop
      vertex 1.032843e+01 2.050000e+01 5.000000e+00
      vertex 1.150000e+01 2.167157e+01 0.000000e+00
      vertex 1.032843e+01 2.050000e+01 0.000000e+00
    endloop
  endfacet
  facet normal 0.000000e+00 1.000000e+00 0.000000e+00
    outer loop
      vertex 1.032843e+01 2.050000e+01 5.000000e+00
      vertex 1.032843e+01 2.050000e+01 0.000000e+00
      vertex 8.671574e+00 2.050000e+01 5.000000e+00
    endloop
  endfacet
  facet normal 0.000000e+00 1.000000e+00 0.000000e+00
    outer loop
      vertex 8.671574e+00 2.050000e+01 5.000000e+00
      vertex 1.032843e+01 2.050000e+01 0.000000e+00
      vertex 8.671574e+00 2.050000e+01 0.000000e+00
    endloop
  endfacet
  facet normal 7.071068e-01 7.071068e-01 0.000000e+00
    outer loop
      vertex 7.500000e+00 2.167157e+01 5.000000e+00
      vertex 8.671574e+00 2.050000e+01 5.000000e+00
      vertex 8.671574e+00 2.050000e+01 0.000000e+00
    endloop
  endfacet
  facet normal 7.071068e-01 7.071068e-01 0.000000e+00
    outer loop
      vertex 7.500000e+00 2.167157e+01 0.000000e+00
      vertex 7.500000e+00 2.167157e+01 5.000000e+00
      vertex 8.671574e+00 2.050000e+01 0.000000e+00
    endloop
  endfacet
  facet normal 0.000000e+00 0.000000e+00 1.000000e+00
    outer loop
      vertex 8.671574e+00 2.050000e+01 5.000000e+00
      vertex 6.500000e+00 1.750000e+01 5.000000e+00
      vertex 1.250000e+01 1.750000e+01 5.000000e+00
    endloop
  endfacet
  facet normal 0.000000e+00 0.000000e+00 1.000000e+00
    outer loop
      vertex 6.500000e+00 2.750000e+01 5.000000e+00
      vertex 6.500000e+00 1.750000e+01 5.000000e+00
      vertex 7.500000e+00 2.167157e+01 5.000000e+00
    endloop
  endfacet
  facet normal 0.000000e+00 0.000000e+00 1.000000e+00
    outer loop
      vertex 6.500000e+00 2.750000e+01 5.000000e+00
      vertex 7.500000e+00 2.167157e+01 5.000000e+00
      vertex 7.500000e+00 2.332843e+01 5.000000e+00
    endloop
  endfacet
  facet normal 0.000000e+00 0.000000e+00 1.000000e+00
    outer loop
      vertex 1.250000e+01 2.750000e+01 5.000000e+00
      vertex 6.500000e+00 2.750000e+01 5.000000e+00
      vertex 8.671574e+00 2.450000e+01 5.000000e+00
    endloop
  endfacet
  facet normal 0.000000e+00 0.000000e+00 1.000000e+00
    outer loop
      vertex 1.032843e+01 2.050000e+01 5.000000e+00
      vertex 8.671574e+00 2.050000e+01 5.000000e+00
      vertex 1.250000e+01 1.750000e+01 5.000000e+00
    endloop
  endfacet
  facet normal 0.000000e+00 0.000000e+00 1.000000e+00
    outer loop
      vertex 1.250000e+01 2.750000e+01 5.000000e+00
      vertex 8.671574e+00 2.450000e+01 5.000000e+00
      vertex 1.032843e+01 2.450000e+01 5.000000e+00
    endloop
  endfacet
  facet normal 0.000000e+00 0.000000e+00 1.000000e+00
    outer loop
      vertex 1.250000e+01 2.750000e+01 5.000000e+00
      vertex 1.150000e+01 2.332843e+01 5.000000e+00
      vertex 1.250000e+01 1.750000e+01 5.000000e+00
    endloop
  endfacet
  facet normal 0.000000e+00 0.000000e+00 1.000000e+00
    outer loop
      vertex 1.250000e+01 2.750000e+01 5.000000e+00
      vertex 1.032843e+01 2.450000e+01 5.000000e+00
      vertex 1.150000e+01 2.332843e+01 5.000000e+00
    endloop
  endfacet
  facet normal 0.000000e+00 0.000000e+00 1.000000e+00
    outer loop
      vertex 1.150000e+01 2.332843e+01 5.000000e+00
      vertex 1.150000e+01 2.167157e+01 5.000000e+00
      vertex 1.250000e+01 1.750000e+01 5.000000e+00
    endloop
  endfacet
  facet normal 0.000000e+00 0.000000e+00 1.000000e+00
    outer loop
      vertex 1.150000e+01 2.167157e+01 5.000000e+00
      vertex 1.032843e+01 2.050000e+01 5.000000e+00
      vertex 1.250000e+01 1.750000e+01 5.000000e+00
    endloop
  endfacet
  facet normal 0.000000e+00 0.000000e+00 1.000000e+00
    outer loop
      vertex 7.500000e+00 2.167157e+01 5.000000e+00
      vertex 6.500000e+00 1.750000e+01 5.000000e+00
      vertex 8.671574e+00 2.050000e+01 5.000000e+00
    endloop
  endfacet
  facet normal 0.000000e+00 0.000000e+00 1.000000e+00
    outer loop
      vertex 7.500000e+00 2.332843e+01 5.000000e+00
      vertex 8.671574e+00 2.450000e+01 5.000000e+00
      vertex 6.500000e+00 2.750000e+01 5.000000e+00
    endloop
  endfacet
  facet normal -1.000000e+00 0.000000e+00 0.000000e+00
    outer loop
      vertex 2.000000e+00 3.250000e+01 0.000000e+00
      vertex 2.000000e+00 3.250000e+01 2.000000e+00
      vertex 2.000000e+00 4.250000e+01 0.000000e+00
    endloop
  endfacet
  facet normal -1.000000e+00 0.000000e+00 0.000000e+00
    outer loop
      vertex 2.000000e+00 4.250000e+01 0.000000e+00
      vertex 2.000000e+00 3.250000e+01 2.000000e+00
      vertex 2.000000e+00 4.250000e+01 2.000000e+00
    endloop
  endfacet
  facet normal 0.000000e+00 -1.000000e+00 0.000000e+00
    outer loop
      vertex 2.000000e+00 3.250000e+01 2.000000e+00
      vertex 2.000000e+00 3.250000e+01 0.000000e+00
      vertex 1.700000e+01 3.250000e+01 0.000000e+00
    endloop
  endfacet
  facet normal 0.000000e+00 -1.000000e+00 0.000000e+00
    outer loop
      vertex 6.500000e+00 3.250000e+01 2.000000e+00
      vertex 2.000000e+00 3.250000e+01 2.000000e+00
      vertex 1.700000e+01 3.250000e+01 0.000000e+00
    endloop
  endfacet
  facet normal 0.000000e+00 -1.000000e+00 0.000000e+00
    outer loop
      vertex 1.250000e+01 3.250000e+01 2.000000e+00
      vertex 6.500000e+00 3.250000e+01 2.000000e+00
      vertex 1.700000e+01 3.250000e+01 0.000000e+00
    endloop
  endfacet
  facet normal 0.000000e+00 -1.000000e+00 0.000000e+00
    outer loop
      vertex 1.700000e+01 3.250000e+01 2.000000e+00
      vertex 1.250000e+01 3.250000e+01 2.000000e+00
      vertex 1.700000e+01 3.250000e+01 0.000000e+00
    endloop
  endfacet
  facet normal 0.000000e+00 -1.000000e+00 0.000000e+00
    outer loop
      vertex 1.250000e+01 3.250000e+01 5.000000e+00
      vertex 6.500000e+00 3.250000e+01 2.000000e+00
      vertex 1.250000e+01 3.250000e+01 2.000000e+00
    endloop
  endfacet
  facet normal 0.000000e+00 -1.000000e+00 0.000000e+00
    outer loop
      vertex 6.500000e+00 3.250000e+01 5.000000e+00
      vertex 6.500000e+00 3.250000e+01 2.000000e+00
      vertex 1.250000e+01 3.250000e+01 5.000000e+00
    endloop
  endfacet
  facet normal 0.000000e+00 0.000000e+00 -1.000000e+00
    outer loop
      vertex 1.032843e+01 3.550000e+01 0.000000e+00
      vertex 1.700000e+01 3.250000e+01 0.000000e+00
      vertex 8.671574e+00 3.550000e+01 0.000000e+00
    endloop
  endfacet
  facet normal 0.000000e+00 0.000000e+00 -1.000000e+00
    outer loop
      vertex 1.032843e+01 3.950000e+01 0.000000e+00
      vertex 2.000000e+00 4.250000e+01 0.000000e+00
      vertex 1.700000e+01 4.250000e+01 0.000000e+00
    endloop
  endfacet
  facet normal 0.000000e+00 0.000000e+00 -1.000000e+00
    outer loop
      vertex 2.000000e+00 3.250000e+01 0.000000e+00
      vertex 2.000000e+00 4.250000e+01 0.000000e+00
      vertex 7.500000e+00 3.832843e+01 0.000000e+00
    endloop
  endfacet
  facet normal 0.000000e+00 0.000000e+00 -1.000000e+00
    outer loop
      vertex 2.000000e+00 3.250000e+01 0.000000e+00
      vertex 7.500000e+00 3.832843e+01 0.000000e+00
      vertex 7.500000e+00 3.667157e+01 0.000000e+00
    endloop
  endfacet
  facet normal 0.000000e+00 0.000000e+00 -1.000000e+00
    outer loop
      vertex 2.000000e+00 3.250000e+01 0.000000e+00
      vertex 7.500000e+00 3.667157e+01 0.000000e+00
      vertex 8.671574e+00 3.550000e+01 0.000000e+00
    endloop
  endfacet
  facet normal 0.000000e+00 0.000000e+00 -1.000000e+00
    outer loop
      vertex 2.000000e+00 3.250000e+01 0.000000e+00
      vertex 8.671574e+00 3.550000e+01 0.000000e+00
      vertex 1.700000e+01 3.250000e+01 0.000000e+00
    endloop
  endfacet
  facet normal 0.000000e+00 0.000000e+00 -1.000000e+00
    outer loop
      vertex 1.150000e+01 3.667157e+01 0.000000e+00
      vertex 1.700000e+01 3.250000e+01 0.000000e+00
      vertex 1.032843e+01 3.550000e+01 0.000000e+00
    endloop
  endfacet
  facet normal 0.000000e+00 0.000000e+00 -1.000000e+00
    outer loop
      vertex 1.700000e+01 3.250000e+01 0.000000e+00
      vertex 1.150000e+01 3.667157e+01 0.000000e+00
      vertex 1.700000e+01 4.250000e+01 0.000000e+00
    endloop
  endfacet
  facet normal 0.000000e+00 0.000000e+00 -1.000000e+00
    outer loop
      vertex 1.150000e+01 3.667157e+01 0.000000e+00
      vertex 1.150000e+01 3.832843e+01 0.000000e+00
      vertex 1.700000e+01 4.250000e+01 0.000000e+00
    endloop
  endfacet
  facet normal 0.000000e+00 0.000000e+00 -1.000000e+00
    outer loop
      vertex 1.150000e+01 3.832843e+01 0.000000e+00
      vertex 1.032843e+01 3.950000e+01 0.000000e+00
      vertex 1.700000e+01 4.250000e+01 0.000000e+00
    endloop
  endfacet
  facet normal 0.000000e+00 0.000000e+00 -1.000000e+00
    outer loop
      vertex 7.500000e+00 3.832843e+01 0.000000e+00
      vertex 2.000000e+00 4.250000e+01 0.000000e+00
      vertex 8.671574e+00 3.950000e+01 0.000000e+00
    endloop
  endfacet
  facet normal 0.000000e+00 0.000000e+00 -1.000000e+00
    outer loop
      vertex 8.671574e+00 3.950000e+01 0.000000e+00
      vertex 2.000000e+00 4.250000e+01 0.000000e+00
      vertex 1.032843e+01 3.950000e+01 0.000000e+00
    endloop
  endfacet
  facet normal 0.000000e+00 1.000000e+00 0.000000e+00
    outer loop
      vertex 2.000000e+00 4.250000e+01 0.000000e+00
      vertex 2.000000e+00 4.250000e+01 2.000000e+00
      vertex 1.700000e+01 4.250000e+01 0.000000e+00
    endloop
  endfacet
  facet normal 0.000000e+00 1.000000e+00 0.000000e+00
    outer loop
      vertex 1.700000e+01 4.250000e+01 0.000000e+00
      vertex 2.000000e+00 4.250000e+01 2.000000e+00
      vertex 6.500000e+00 4.250000e+01 2.000000e+00
    endloop
  endfacet
  facet normal 0.000000e+00 1.000000e+00 0.000000e+00
    outer loop
      vertex 1.250000e+01 4.250000e+01 2.000000e+00
      vertex 6.500000e+00 4.250000e+01 2.000000e+00
      vertex 6.500000e+00 4.250000e+01 5.000000e+00
    endloop
  endfacet
  facet normal 0.000000e+00 1.000000e+00 0.000000e+00
    outer loop
      vertex 1.700000e+01 4.250000e+01 0.000000e+00
      vertex 6.500000e+00 4.250000e+01 2.000000e+00
      vertex 1.250000e+01 4.250000e+01 2.000000e+00
    endloop
  endfacet
  facet normal 0.000000e+00 1.000000e+00 0.000000e+00
    outer loop
      vertex 1.700000e+01 4.250000e+01 2.000000e+00
      vertex 1.700000e+01 4.250000e+01 0.000000e+00
      vertex 1.250000e+01 4.250000e+01 2.000000e+00
    endloop
  endfacet
  facet normal 0.000000e+00 1.000000e+00 0.000000e+00
    outer loop
      vertex 1.250000e+01 4.250000e+01 2.000000e+00
      vertex 6.500000e+00 4.250000e+01 5.000000e+00
      vertex 1.250000e+01 4.250000e+01 5.000000e+00
    endloop
  endfacet
  facet normal 0.000000e+00 0.000000e+00 1.000000e+00
    outer loop
      vertex 2.000000e+00 4.250000e+01 2.000000e+00
      vertex 2.000000e+00 3.250000e+01 2.000000e+00
      vertex 6.500000e+00 3.250000e+01 2.000000e+00
    endloop
  endfacet
  facet normal 0.000000e+00 0.000000e+00 1.000000e+00
    outer loop
      vertex 6.500000e+00 4.250000e+01 2.000000e+00
      vertex 2.000000e+00 4.250000e+01 2.000000e+00
      vertex 6.500000e+00 3.250000e+01 2.000000e+00
    endloop
  endfacet
  facet normal -1.000000e+00 0.000000e+00 0.000000e+00
    outer loop
      vertex 6.500000e+00 3.250000e+01 2.000000e+00
      vertex 6.500000e+00 3.250000e+01 5.000000e+00
      vertex 6.500000e+00 4.250000e+01 2.000000e+00
    endloop
  endfacet
  facet normal -1.000000e+00 0.000000e+00 0.000000e+00
    outer loop
      vertex 6.500000e+00 4.250000e+01 2.000000e+00
      vertex 6.500000e+00 3.250000e+01 5.000000e+00
      vertex 6.500000e+00 4.250000e+01 5.000000e+00
    endloop
  endfacet
  facet normal 0.000000e+00 0.000000e+00 1.000000e+00
    outer loop
      vertex 8.671574e+00 3.550000e+01 5.000000e+00
      vertex 6.500000e+00 3.250000e+01 5.000000e+00
      vertex 1.250000e+01 3.250000e+01 5.000000e+00
    endloop
  endfacet
  facet normal 0.000000e+00 0.000000e+00 1.000000e+00
    outer loop
      vertex 6.500000e+00 4.250000e+01 5.000000e+00
      vertex 6.500000e+00 3.250000e+01 5.000000e+00
      vertex 7.500000e+00 3.667157e+01 5.000000e+00
    endloop
  endfacet
  facet normal 0.000000e+00 0.000000e+00 1.000000e+00
    outer loop
      vertex 6.500000e+00 4.250000e+01 5.000000e+00
      vertex 7.500000e+00 3.667157e+01 5.000000e+00
      vertex 7.500000e+00 3.832843e+01 5.000000e+00
    endloop
  endfacet
  facet normal 0.000000e+00 0.000000e+00 1.000000e+00
    outer loop
      vertex 1.250000e+01 4.250000e+01 5.000000e+00
      vertex 6.500000e+00 4.250000e+01 5.000000e+00
      vertex 8.671574e+00 3.950000e+01 5.000000e+00
    endloop
  endfacet
  facet normal 0.000000e+00 0.000000e+00 1.000000e+00
    outer loop
      vertex 1.032843e+01 3.550000e+01 5.000000e+00
      vertex 8.671574e+00 3.550000e+01 5.000000e+00
      vertex 1.250000e+01 3.250000e+01 5.000000e+00
    endloop
  endfacet
  facet normal 0.000000e+00 0.000000e+00 1.000000e+00
    outer loop
      vertex 1.250000e+01 4.250000e+01 5.000000e+00
      vertex 8.671574e+00 3.950000e+01 5.000000e+00
      vertex 1.032843e+01 3.950000e+01 5.000000e+00
    endloop
  endfacet
  facet normal 0.000000e+00 0.000000e+00 1.000000e+00
    outer loop
      vertex 1.250000e+01 4.250000e+01 5.000000e+00
      vertex 1.150000e+01 3.832843e+01 5.000000e+00
      vertex 1.250000e+01 3.250000e+01 5.000000e+00
    endloop
  endfacet
  facet normal 0.000000e+00 0.000000e+00 1.000000e+00
    outer loop
      vertex 1.250000e+01 4.250000e+01 5.000000e+00
      vertex 1.032843e+01 3.950000e+01 5.000000e+00
      vertex 1.150000e+01 3.832843e+01 5.000000e+00
    endloop
  endfacet
  facet normal 0.000000e+00 0.000000e+00 1.000000e+00
    outer loop
      vertex 1.150000e+01 3.832843e+01 5.000000e+00
      vertex 1.150000e+01 3.667157e+01 5.000000e+00
      vertex 1.250000e+01 3.250000e+01 5.000000e+00
    endloop
  endfacet
  facet normal 0.000000e+00 0.000000e+00 1.000000e+00
    outer loop
      vertex 1.150000e+01 3.667157e+01 5.000000e+00
      vertex 1.032843e+01 3.550000e+01 5.000000e+00
      vertex 1.250000e+01 3.250000e+01 5.000000e+00
    endloop
  endfacet
  facet normal 0.000000e+00 0.000000e+00 1.000000e+00
    outer loop
      vertex 7.500000e+00 3.667157e+01 5.000000e+00
      vertex 6.500000e+00 3.250000e+01 5.000000e+00
      vertex 8.671574e+00 3.550000e+01 5.000000e+00
    endloop
  endfacet
  facet normal 0.000000e+00 0.000000e+00 1.000000e+00
    outer loop
      vertex 7.500000e+00 3.832843e+01 5.000000e+00
      vertex 8.671574e+00 3.950000e+01 5.000000e+00
      vertex 6.500000e+00 4.250000e+01 5.000000e+00
    endloop
  endfacet
  facet normal 1.000000e+00 0.000000e+00 0.000000e+00
    outer loop
      vertex 1.250000e+01 3.250000e+01 5.000000e+00
      vertex 1.250000e+01 3.250000e+01 2.000000e+00
      vertex 1.250000e+01 4.250000e+01 2.000000e+00
    endloop
  endfacet
  facet normal 1.000000e+00 0.000000e+00 0.000000e+00
    outer loop
      vertex 1.250000e+01 4.250000e+01 5.000000e+00
      vertex 1.250000e+01 3.250000e+01 5.000000e+00
      vertex 1.250000e+01 4.250000e+01 2.000000e+00
    endloop
  endfacet
  facet normal 0.000000e+00 0.000000e+00 1.000000e+00
    outer loop
      vertex 1.250000e+01 4.250000e+01 2.000000e+00
      vertex 1.250000e+01 3.250000e+01 2.000000e+00
      vertex 1.700000e+01 3.250000e+01 2.000000e+00
    endloop
  endfacet
  facet normal 0.000000e+00 0.000000e+00 1.000000e+00
    outer loop
      vertex 1.700000e+01 4.250000e+01 2.000000e+00
      vertex 1.250000e+01 4.250000e+01 2.000000e+00
      vertex 1.700000e+01 3.250000e+01 2.000000e+00
    endloop
  endfacet
  facet normal 1.000000e+00 0.000000e+00 0.000000e+00
    outer loop
      vertex 1.700000e+01 3.250000e+01 2.000000e+00
      vertex 1.700000e+01 3.250000e+01 0.000000e+00
      vertex 1.700000e+01 4.250000e+01 0.000000e+00
    endloop
  endfacet
  facet normal 1.000000e+00 0.000000e+00 0.000000e+00
    outer loop
      vertex 1.700000e+01 4.250000e+01 2.000000e+00
      vertex 1.700000e+01 3.250000e+01 2.000000e+00
      vertex 1.700000e+01 4.250000e+01 0.000000e+00
    endloop
  endfacet
  facet normal 1.000000e+00 0.000000e+00 0.000000e+00
    outer loop
      vertex 7.500000e+00 3.832843e+01 0.000000e+00
      vertex 7.500000e+00 3.832843e+01 5.000000e+00
      vertex 7.500000e+00 3.667157e+01 5.000000e+00
    endloop
  endfacet
  facet normal 1.000000e+00 0.000000e+00 0.000000e+00
    outer loop
      vertex 7.500000e+00 3.667157e+01 0.000000e+00
      vertex 7.500000e+00 3.832843e+01 0.000000e+00
      vertex 7.500000e+00 3.667157e+01 5.000000e+00
    endloop
  endfacet
  facet normal 7.071068e-01 -7.071068e-01 0.000000e+00
    outer loop
      vertex 8.671574e+00 3.950000e+01 0.000000e+00
      vertex 8.671574e+00 3.950000e+01 5.000000e+00
      vertex 7.500000e+00 3.832843e+01 5.000000e+00
    endloop
  endfacet
  facet normal 7.071068e-01 -7.071068e-01 0.000000e+00
    outer loop
      vertex 7.500000e+00 3.832843e+01 0.000000e+00
      vertex 8.671574e+00 3.950000e+01 0.000000e+00
      vertex 7.500000e+00 3.832843e+01 5.000000e+00
    endloop
  endfacet
  facet normal 0.000000e+00 -1.000000e+00 0.000000e+00
    outer loop
      vertex 1.032843e+01 3.950000e+01 0.000000e+00
      vertex 1.032843e+01 3.950000e+01 5.000000e+00
      vertex 8.671574e+00 3.950000e+01 5.000000e+00
    endloop
  endfacet
  facet normal 0.000000e+00 -1.000000e+00 0.000000e+00
    outer loop
      vertex 8.671574e+00 3.950000e+01 0.000000e+00
      vertex 1.032843e+01 3.950000e+01 0.000000e+00
      vertex 8.671574e+00 3.950000e+01 5.000000e+00
    endloop
  endfacet
  facet normal -7.071068e-01 -7.071068e-01 0.000000e+00
    outer loop
      vertex 1.150000e+01 3.832843e+01 5.000000e+00
      vertex 1.032843e+01 3.950000e+01 5.000000e+00
      vertex 1.150000e+01 3.832843e+01 0.000000e+00
    endloop
  endfacet
  facet normal -7.071068e-01 -7.071068e-01 0.000000e+00
    outer loop
      vertex 1.150000e+01 3.832843e+01 0.000000e+00
      vertex 1.032843e+01 3.950000e+01 5.000000e+00
      vertex 1.032843e+01 3.950000e+01 0.000000e+00
    endloop
  endfacet
  facet normal -1.000000e+00 0.000000e+00 0.000000e+00
    outer loop
      vertex 1.150000e+01 3.832843e+01 5.000000e+00
      vertex 1.150000e+01 3.832843e+01 0.000000e+00
      vertex 1.150000e+01 3.667157e+01 5.000000e+00
    endloop
  endfacet
  facet normal -1.000000e+00 0.000000e+00 0.000000e+00
    outer loop
      vertex 1.150000e+01 3.667157e+01 5.000000e+00
      vertex 1.150000e+01 3.832843e+01 0.000000e+00
      vertex 1.150000e+01 3.667157e+01 0.000000e+00
    endloop
  endfacet
  facet normal -7.071068e-01 7.071068e-01 0.000000e+00
    outer loop
      vertex 1.150000e+01 3.667157e+01 5.000000e+00
      vertex 1.150000e+01 3.667157e+01 0.000000e+00
      vertex 1.032843e+01 3.550000e+01 5.000000e+00
    endloop
  endfacet
  facet normal -7.071068e-01 7.071068e-01 0.000000e+00
    outer loop
      vertex 1.032843e+01 3.550000e+01 5.000000e+00
      vertex 1.150000e+01 3.667157e+01 0.000000e+00
      vertex 1.032843e+01 3.550000e+01 0.000000e+00
    endloop
  endfacet
  facet normal 0.000000e+00 1.000000e+00 0.000000e+00
    outer loop
      vertex 1.032843e+01 3.550000e+01 5.000000e+00
      vertex 1.032843e+01 3.550000e+01 0.000000e+00
      vertex 8.671574e+00 3.550000e+01 5.000000e+00
    endloop
  endfacet
  facet normal 0.000000e+00 1.000000e+00 0.000000e+00
    outer loop
      vertex 8.671574e+00 3.550000e+01 5.000000e+00
      vertex 1.032843e+01 3.550000e+01 0.000000e+00
      vertex 8.671574e+00 3.550000e+01 0.000000e+00
    endloop
  endfacet
  facet normal 7.071068e-01 7.071068e-01 0.000000e+00
    outer loop
      vertex 7.500000e+00 3.667157e+01 5.000000e+00
      vertex 8.671574e+00 3.550000e+01 5.000000e+00
      vertex 8.671574e+00 3.550000e+01 0.000000e+00
    endloop
  endfacet
  facet normal 7.071068e-01 7.071068e-01 0.000000e+00
    outer loop
      vertex 7.500000e+00 3.667157e+01 0.000000e+00
      vertex 7.500000e+00 3.667157e+01 5.000000e+00
      vertex 8.671574e+00 3.550000e+01 0.000000e+00
    endloop
  endfacet
endsolid Default
